<?xml version="1.0" encoding="UTF-8"?><svg id="Capa_2" xmlns="http://www.w3.org/2000/svg" viewBox="0 0 398.97 73.89"><defs><style>.cls-1{fill:#00205b;}</style></defs><g id="Layer_1"><g><path class="cls-1" d="m183.9,25.24c0-13.48-8.85-23.73-27.07-23.73h-36.67v70.86h17.26V16.83h19.52c7.23,0,9.81,4.1,9.81,8.85s-2.7,8.85-9.92,8.85h-16.72l23.73,37.86h19.63s-16.18-25.45-16.07-25.45c10.03-2.37,16.5-9.38,16.5-21.68"/><rect class="cls-1" x="91.25" y="1.51" width="17.26" height="70.86"/><polygon class="cls-1" points="36.13 1.51 0 72.37 19.41 72.37 25.27 60.51 54.36 60.51 47.13 45.63 32.61 45.63 43.36 23.84 43.57 23.84 67.74 72.37 87.58 72.37 51.45 1.51 36.13 1.51"/><path class="cls-1" d="m246.89,35.6c5.5-3.02,8.41-7.87,8.41-14.99,0-11.43-8.52-19.09-22.87-19.09h-40.34v70.86h41.96c14.67,0,24.27-7.87,24.27-19.85,0-8.3-4.64-14.56-11.43-16.93m-37.53-19.09h23.08c3.45,0,6.15,2.7,6.15,6.26s-2.7,6.26-6.26,6.26h-22.97v-12.51h0Zm23.51,40.99h-23.51v-14.45h23.51c4.21,0,7.44,3.02,7.44,7.12,0,4.21-3.24,7.33-7.44,7.33"/><path class="cls-1" d="m312.79,41.1c0,10.76-4.96,16.72-14.78,16.72s-14.67-5.96-14.67-16.72V1.51h-17.69v38.29c0,21.9,11.54,34.08,32.36,34.08s32.47-12.19,32.47-34.08V1.51h-17.69v39.58Z"/><path class="cls-1" d="m376.54,29.66c-16.38-3.99-19.95-4.37-19.95-9.06,0-3.63,4.1-5.39,11-5.39,9.17,0,18.93,2.3,24.48,5.72l5.5-14.45c-7.12-3.77-17.58-6.47-29.77-6.47-18.23,0-28.48,9.06-28.48,21.25,0,13.11,7.65,18.44,25.24,22.22,13.69,3.02,16.61,4.9,16.61,8.74,0,4.17-3.77,6.04-11.22,6.04-10.79,0-20.55-2.62-28.37-6.9l-5.28,15.1c8.52,4.53,21.25,7.44,34.08,7.44,17.91,0,28.58-8.31,28.58-22.22,0-11.16-7.22-18.33-22.43-22"/></g></g></svg>