<?xml version="1.0" encoding="utf-8"?>
<!-- Generator: Adobe Illustrator 22.1.0, SVG Export Plug-In . SVG Version: 6.00 Build 0)  -->
<svg version="1.1" id="Capa_1" xmlns="http://www.w3.org/2000/svg" xmlns:xlink="http://www.w3.org/1999/xlink" x="0px" y="0px"
	 viewBox="0 0 937 326" style="enable-background:new 0 0 937 326;" xml:space="preserve">
<style type="text/css">
	.st0{clip-path:url(#SVGID_2_);fill:#63C3D1;}
	.st1{clip-path:url(#SVGID_2_);fill:#00416C;}
</style>
<g>
	<defs>
		<rect id="SVGID_1_" width="937" height="326"/>
	</defs>
	<clipPath id="SVGID_2_">
		<use xlink:href="#SVGID_1_"  style="overflow:visible;"/>
	</clipPath>
	<path class="st0" d="M658.9,109c12.4,0,22.1-9.7,22.1-22.3c0-12.6-9.7-22.2-22.1-22.2c-12.8,0-22.4,9.6-22.4,22.2
		C636.4,99.3,646.1,109,658.9,109"/>
	<path class="st1" d="M602.6,210.1c4,4,4.1,8.3,0.7,12.8c-12.9,17.7-31.4,24.7-49.6,24.7c-38.3,0-64.4-30.2-64.4-65.9
		c0-35.5,24.4-62.4,61.1-62.4c33.1,0,55.9,24,55.9,57.2c0,6.4-3.9,10.3-11.9,10.3h-82.2c1.1,23,19.2,38.7,41.6,38.7
		c11.8,0,23.3-3.7,33.5-16.9c4.1-4.3,10-3.7,13.9,0.1L602.6,210.1z M513.2,166.4H581c-2.8-16.4-14.8-27.5-32.6-27.5
		C530.8,138.9,517.2,149.5,513.2,166.4 M177.2,233c0-6.4-3.7-9.7-10-9.7h-21.9v-91.1c0-6.4-3.3-9.9-9.8-9.9h-3
		c-6.5,0-10.1,3.5-10.1,9.9v91.1h-13.5c-6.5,0-10,3.3-10,9.7v1.8c0,6.4,3.5,9.9,10,9.9h58.4c6.3,0,10-3.5,10-9.9V233 M321.6,210.1
		c4,4,4.1,8.3,0.7,12.8c-12.9,17.7-31.4,24.7-49.6,24.7c-38.3,0-64.4-30.2-64.4-65.9c0-35.5,24.4-62.4,61.1-62.4
		c33.1,0,55.9,24,55.9,57.2c0,6.4-3.9,10.3-11.9,10.3h-82.2c1.1,23,19.2,38.7,41.6,38.7c11.8,0,23.3-3.7,33.5-16.9
		c4.1-4.3,10-3.7,13.9,0.1L321.6,210.1z M232.2,166.4H300c-2.8-16.4-14.8-27.5-32.6-27.5C249.8,138.9,236.2,149.5,232.2,166.4
		 M467.6,79.9v154.9c0,6.4-3.4,9.9-9.9,9.9h-3.4c-6.5,0-9.5-3.5-9.5-9.9v-2.8c-10.4,10.1-24,15.7-39.2,15.7
		c-34.3,0-61.4-28.5-61.4-64.4c0-35.6,27.2-64,61.4-64c15.4,0,29,5.6,39.2,15.4V79.9c0-6.6,3-10,9.5-10h3.4
		C464.2,69.9,467.6,73.3,467.6,79.9 M444.8,207v-46.8c-7.2-11.7-20.8-18.8-36.6-18.8c-22.9,0-41,18.6-41,42
		c0,23.9,18.1,42.4,41,42.4C424.2,225.7,437.6,218.4,444.8,207 M154.6,141.4c0,12.6,9.7,22.3,22.4,22.3c12.4,0,22.1-9.7,22.1-22.3
		s-9.7-22.2-22.1-22.2C164.2,119.2,154.6,128.8,154.6,141.4 M690.9,223.4h-18.3v-91.1c0-7-3-9.9-10-9.9h-28c-6.2,0-9.9,3.4-9.9,9.7
		v1.9c0,6.3,3.7,9.8,9.9,9.8h15.1v79.6h-18.2c-6.3,0-10,3.3-10,9.7v1.8c0,6.4,3.7,9.9,10,9.9h59.4c6.5,0,10.1-3.5,10.1-9.9V233
		C701,226.6,697.4,223.4,690.9,223.4 M761.2,119.4c-12.5,0-25.1,4.6-35.7,12.6c-4.8,3.7-5.5,9.3-1.6,14l2.3,2.9
		c2.8,3.4,7.1,4,10.6,1.3c7.1-5.6,15.5-9.4,24.9-9.4c17.9,0,30.5,11.6,30.5,27v6.3c-9.7-2-19.2-3.3-30.2-3.3
		c-28.1,0-48.9,13.8-48.9,37.4c0,23.3,17.1,39.2,41.4,39.2c14.2,0,28.5-5.8,37.7-15v2.2c0,6.5,3.4,10,9.8,10h3.6
		c6.3,0,9.4-3.5,9.4-10v-66.6C815.1,138.2,792.4,119.4,761.2,119.4 M792.3,212.9c-8.6,8.8-20.5,14.5-34,14.5c-13,0-22-7.8-22-19.1
		c0-11.8,11.3-19.1,26.4-19.1c9.5,0,20,1.1,29.6,2.5V212.9z"/>
</g>
</svg>
