<?xml version="1.0" encoding="UTF-8"?><svg xmlns="http://www.w3.org/2000/svg" xmlns:xlink="http://www.w3.org/1999/xlink" viewBox="0 0 397.17 117.92"><defs><style>.cls-1{fill:url(#Degradado_sin_nombre_6);opacity:.31;}.cls-2{fill:url(#Degradado_sin_nombre_53);}.cls-3{fill:url(#Degradado_sin_nombre_52);}.cls-4{opacity:.1;}</style><linearGradient id="Degradado_sin_nombre_53" x1="62.34" y1="144.88" x2="151.28" y2="-9.16" gradientUnits="userSpaceOnUse"><stop offset=".41" stop-color="#b80026"/><stop offset="1" stop-color="#af1767"/></linearGradient><linearGradient id="Degradado_sin_nombre_52" x1="47.45" y1="136.07" x2="102.93" y2="39.97" gradientUnits="userSpaceOnUse"><stop offset="0" stop-color="#ff7e2b"/><stop offset=".2" stop-color="#ff7a2b"/><stop offset="1" stop-color="#ff1723"/></linearGradient><linearGradient id="Degradado_sin_nombre_6" x1="9.31" y1="75.88" x2="184.1" y2="75.88" gradientUnits="userSpaceOnUse"><stop offset="0" stop-color="#000"/><stop offset=".71" stop-color="#000" stop-opacity="0"/></linearGradient></defs><g id="Capa_3"><g><g><path d="m219.47,44.87c.14-1.09.72-1.64,1.76-1.64h2.58c.96,0,1.6.47,1.93,1.39l5.21,13c.16.44.33.9.51,1.39.18.49.33.96.47,1.39l.49,1.48h.08c.14-.49.29-.98.45-1.48.14-.44.29-.9.47-1.39.18-.49.35-.96.51-1.39l5.21-13c.33-.93.98-1.39,1.97-1.39h2.54c1.09,0,1.68.55,1.76,1.64l2.09,25.71c.08,1.17-.47,1.76-1.64,1.76h-1.85c-1.09,0-1.68-.55-1.76-1.64l-1.11-14.64c-.06-.46-.08-.96-.08-1.5v-1.5c0-.52.01-1.03.04-1.52h-.08c-.19.57-.37,1.12-.53,1.64-.16.47-.33.96-.51,1.48-.18.52-.35.98-.51,1.39l-4.22,9.92c-.33.9-.97,1.35-1.93,1.35h-1.72c-.98,0-1.64-.45-1.97-1.35l-4.18-9.92c-.16-.41-.34-.88-.53-1.41-.19-.53-.37-1.03-.53-1.5-.19-.55-.37-1.09-.53-1.64h-.08c.03.52.04,1.04.04,1.56,0,.46,0,.96-.02,1.5-.01.53-.03,1.03-.06,1.5l-1.11,14.64c-.08,1.09-.67,1.64-1.76,1.64h-1.84c-1.18,0-1.72-.59-1.64-1.76l2.09-25.71Z"/><path d="m251.4,76.33c.33-.12.67-.14,1.02-.06.19.08.41.16.66.25s.52.12.82.12c.76,0,1.44-.28,2.01-.84.57-.56,1.01-1.21,1.31-1.95l.78-1.84-7.95-18.57c-.27-.6-.29-1.09-.04-1.46.25-.37.7-.55,1.35-.55h2.21c.96,0,1.6.46,1.93,1.39l3.94,10.66c.08.3.17.61.27.92.1.31.18.62.27.92.11.33.19.66.25.98h.08c.05-.33.12-.64.2-.94.05-.27.13-.57.23-.88.1-.31.18-.62.27-.92l3.69-10.7c.27-.96.92-1.44,1.93-1.44h2.05c.63,0,1.07.18,1.33.53.26.36.28.83.06,1.43l-8.61,22.06c-.36.96-.81,1.78-1.35,2.46-.55.68-1.15,1.25-1.8,1.7-.66.45-1.36.79-2.11,1-.75.22-1.51.33-2.28.33-.57,0-1.11-.07-1.6-.21-.49-.14-.93-.27-1.31-.41-.49-.19-.8-.49-.92-.9s-.08-.85.14-1.31l.37-.9c.22-.46.49-.76.82-.88Z"/><path d="m284.29,44.95c0-1.15.56-1.72,1.68-1.72h9.51c1.37,0,2.62.23,3.75.68,1.13.45,2.11,1.09,2.93,1.93.82.83,1.46,1.83,1.91,2.99.45,1.16.68,2.45.68,3.88s-.23,2.72-.68,3.89c-.45,1.18-1.09,2.19-1.91,3.03-.82.85-1.8,1.5-2.93,1.97-1.13.46-2.39.7-3.75.7h-5.95v8.32c0,1.15-.56,1.72-1.68,1.72h-1.89c-1.12,0-1.68-.57-1.68-1.72v-25.67Zm10.21,12.75c1.56,0,2.76-.45,3.61-1.36.85-.91,1.27-2.13,1.27-3.66s-.42-2.71-1.25-3.6c-.83-.89-2.02-1.34-3.55-1.34h-5.04v9.96h4.96Z"/><path d="m307.82,53.15c0-1.15.57-1.72,1.72-1.72h1.76c1.15,0,1.72.57,1.72,1.72v10.66c0,1.29.22,2.32.66,3.1.44.78,1.3,1.17,2.58,1.17.93,0,1.76-.19,2.5-.57s1.35-.9,1.84-1.56c.49-.66.87-1.41,1.13-2.25.26-.85.39-1.74.39-2.67v-7.87c0-1.15.57-1.72,1.72-1.72h1.76c1.15,0,1.72.57,1.72,1.72v17.47c0,1.15-.57,1.72-1.72,1.72h-1.6c-1.12,0-1.68-.57-1.68-1.72v-1.6c0-.11.01-.21.04-.29,0-.11.01-.21.04-.29h-.08c-.25.55-.59,1.08-1.04,1.6-.45.52-.99.98-1.62,1.39-.63.41-1.33.75-2.09,1s-1.6.39-2.5.39c-2.24,0-4.01-.62-5.31-1.84-1.3-1.23-1.95-3.27-1.95-6.11v-11.73Z"/><path d="m332.46,44.95c0-1.15.57-1.72,1.72-1.72h1.76c1.15,0,1.72.57,1.72,1.72v7.58c0,.27,0,.51-.02.72-.01.21-.03.39-.06.55-.03.19-.04.36-.04.49h.08c.38-.63.87-1.19,1.48-1.68.52-.41,1.18-.79,1.99-1.15.81-.35,1.78-.53,2.93-.53,1.39,0,2.66.27,3.79.8,1.13.53,2.1,1.28,2.91,2.23.81.96,1.43,2.11,1.87,3.44.44,1.34.66,2.82.66,4.43s-.25,3.18-.74,4.53c-.49,1.35-1.16,2.51-2.01,3.46-.85.96-1.86,1.7-3.03,2.21-1.18.52-2.43.78-3.77.78-1.2,0-2.2-.18-2.99-.53-.79-.35-1.45-.76-1.97-1.23-.6-.49-1.08-1.08-1.44-1.76h-.08c0,.06.01.14.04.25,0,.08,0,.18.02.29s.02.23.02.37v.66c0,.46-.14.83-.43,1.09s-.72.39-1.29.39h-1.39c-1.15,0-1.72-.57-1.72-1.72v-25.67Zm5.04,16.95c0,.84.11,1.66.33,2.45.22.79.55,1.49.98,2.08.44.6.98,1.08,1.62,1.45.64.37,1.39.55,2.23.55.74,0,1.43-.14,2.07-.43s1.2-.7,1.68-1.25c.48-.54.85-1.22,1.13-2.02s.41-1.72.41-2.76c0-.98-.13-1.87-.39-2.68s-.62-1.49-1.07-2.06c-.45-.57-.99-1.01-1.62-1.33s-1.33-.47-2.09-.47c-.68,0-1.34.13-1.97.39-.63.26-1.19.65-1.68,1.19-.49.53-.89,1.2-1.19,2-.3.8-.45,1.76-.45,2.88Z"/><path d="m357.14,44.95c0-1.15.56-1.72,1.68-1.72h1.8c1.12,0,1.68.57,1.68,1.72v20.46c0,.52.05.94.14,1.25.1.31.23.56.39.74s.34.3.53.37c.19.07.38.12.57.14.38.05.69.2.92.43.23.23.35.58.35,1.04v1.39c0,.55-.13.98-.39,1.29-.26.31-.7.47-1.33.47-.71,0-1.44-.07-2.17-.21-.74-.14-1.42-.44-2.05-.9-.63-.46-1.14-1.14-1.54-2.03-.4-.89-.59-2.08-.59-3.59v-20.87Z"/><path d="m370.3,47.86c-1.12,0-1.68-.56-1.68-1.68v-1.23c0-1.15.56-1.72,1.68-1.72h1.8c1.15,0,1.72.57,1.72,1.72v1.23c0,1.12-.57,1.68-1.72,1.68h-1.8Zm-1.68,5.29c0-1.15.56-1.72,1.68-1.72h1.8c1.12,0,1.68.57,1.68,1.72v17.47c0,1.15-.56,1.72-1.68,1.72h-1.8c-1.12,0-1.68-.57-1.68-1.72v-17.47Z"/><path d="m377.64,61.88c0-1.48.27-2.88.8-4.2s1.29-2.49,2.28-3.49c.98-1,2.18-1.79,3.59-2.38,1.41-.59,2.97-.88,4.69-.88s3.1.24,4.22.72c1.12.48,2,.94,2.62,1.37.44.3.68.65.72,1.04.04.4-.09.83-.39,1.29l-.53.82c-.3.47-.63.72-1,.76s-.8-.06-1.29-.31c-.44-.3-1-.59-1.68-.86-.68-.27-1.48-.41-2.38-.41-.96,0-1.83.17-2.62.51-.79.34-1.46.81-2.01,1.39-.55.59-.97,1.27-1.27,2.05s-.45,1.62-.45,2.52.15,1.71.45,2.5c.3.79.73,1.49,1.29,2.09.56.6,1.24,1.08,2.05,1.44.81.36,1.71.53,2.73.53s1.95-.18,2.75-.53c.79-.36,1.43-.71,1.93-1.07,1.04-.57,1.82-.4,2.34.53l.41.78c.52.96.37,1.72-.45,2.3-.33.25-.72.51-1.19.78-.47.27-1.01.53-1.64.78s-1.33.45-2.09.62c-.77.16-1.6.25-2.5.25-1.72,0-3.29-.29-4.69-.86-1.41-.57-2.6-1.35-3.59-2.34-.98-.98-1.74-2.14-2.28-3.46-.53-1.33-.8-2.75-.8-4.28Z"/><path d="m218.32,88.95c0-1.15.56-1.72,1.68-1.72h1.89c1.12,0,1.68.57,1.68,1.72v25.67c0,1.15-.56,1.72-1.68,1.72h-1.89c-1.12,0-1.68-.57-1.68-1.72v-25.67Z"/><path d="m229.22,97.15c0-1.15.56-1.72,1.68-1.72h1.6c1.12,0,1.68.57,1.68,1.72v1.27c0,.14,0,.26-.02.37-.01.11-.02.21-.02.29-.03.11-.04.21-.04.29h.08c.22-.44.53-.92.94-1.44.41-.52.92-1,1.52-1.43.6-.44,1.31-.81,2.13-1.11.82-.3,1.76-.45,2.83-.45,2.32,0,4.12.63,5.39,1.89s1.91,3.28,1.91,6.07v11.73c0,1.15-.57,1.72-1.72,1.72h-1.76c-1.15,0-1.72-.57-1.72-1.72v-10.66c0-1.28-.22-2.32-.66-3.1-.44-.78-1.31-1.17-2.62-1.17-.93,0-1.76.18-2.5.53-.74.36-1.37.85-1.89,1.48-.52.63-.92,1.36-1.21,2.19-.29.83-.43,1.72-.43,2.64v8.08c0,1.15-.56,1.72-1.68,1.72h-1.8c-1.12,0-1.68-.57-1.68-1.72v-17.47Z"/><path d="m253.78,88.95c0-1.15.57-1.72,1.72-1.72h1.76c1.15,0,1.72.57,1.72,1.72v7.58c0,.27,0,.51-.02.72-.01.21-.03.39-.06.55-.03.19-.04.36-.04.49h.08c.38-.63.87-1.19,1.48-1.68.52-.41,1.18-.79,1.99-1.15.81-.35,1.78-.53,2.93-.53,1.39,0,2.66.27,3.79.8,1.13.53,2.1,1.28,2.91,2.23.81.96,1.43,2.11,1.87,3.44.44,1.34.66,2.82.66,4.43s-.25,3.18-.74,4.53c-.49,1.35-1.16,2.51-2.01,3.46-.85.96-1.86,1.7-3.03,2.21-1.18.52-2.43.78-3.77.78-1.2,0-2.2-.18-2.99-.53-.79-.35-1.45-.76-1.97-1.23-.6-.49-1.08-1.08-1.44-1.76h-.08c0,.06.01.14.04.25,0,.08,0,.18.02.29.01.11.02.23.02.37v.66c0,.46-.14.83-.43,1.09-.29.26-.72.39-1.29.39h-1.39c-1.15,0-1.72-.57-1.72-1.72v-25.67Zm5.04,16.95c0,.84.11,1.66.33,2.45.22.79.55,1.49.98,2.08.44.6.98,1.08,1.62,1.45.64.37,1.39.55,2.23.55.74,0,1.43-.14,2.07-.43.64-.29,1.2-.7,1.68-1.25.48-.54.85-1.22,1.13-2.02.27-.8.41-1.72.41-2.76,0-.98-.13-1.87-.39-2.68s-.61-1.49-1.07-2.06-.99-1.01-1.62-1.33c-.63-.31-1.33-.47-2.09-.47-.68,0-1.34.13-1.97.39s-1.19.65-1.68,1.19c-.49.53-.89,1.2-1.19,2-.3.8-.45,1.76-.45,2.88Z"/><path d="m277.19,105.88c0-1.58.3-3.05.9-4.41.6-1.35,1.42-2.51,2.46-3.46,1.04-.96,2.26-1.71,3.65-2.25,1.39-.55,2.88-.82,4.47-.82s3.08.27,4.47.82c1.39.55,2.62,1.3,3.67,2.25,1.05.96,1.88,2.11,2.48,3.46.6,1.35.9,2.82.9,4.41s-.3,3.09-.9,4.43c-.6,1.34-1.43,2.5-2.48,3.46-1.05.97-2.28,1.72-3.67,2.25-1.39.53-2.88.8-4.47.8s-3.08-.27-4.47-.8c-1.39-.53-2.61-1.28-3.65-2.25-1.04-.97-1.86-2.12-2.46-3.46-.6-1.34-.9-2.81-.9-4.43Zm5.29,0c0,.98.16,1.87.49,2.67.33.79.77,1.48,1.33,2.05.56.57,1.22,1.02,1.97,1.33.75.31,1.55.47,2.4.47s1.65-.16,2.4-.47c.75-.31,1.41-.76,1.99-1.33.57-.57,1.02-1.26,1.35-2.05.33-.79.49-1.68.49-2.67s-.16-1.84-.49-2.64c-.33-.81-.78-1.5-1.35-2.07-.57-.57-1.24-1.02-1.99-1.33-.75-.31-1.55-.47-2.4-.47s-1.65.16-2.4.47c-.75.32-1.41.76-1.97,1.33-.56.57-1,1.26-1.33,2.07-.33.81-.49,1.69-.49,2.64Z"/><path d="m308.19,105.76l-5.41-8.28c-.38-.57-.47-1.06-.27-1.46.21-.4.66-.59,1.37-.59h2.09c.88,0,1.54.41,2.01,1.23l2.62,4.47c.05.14.13.28.23.43s.17.29.23.43c.08.14.15.29.21.45h.08c.08-.16.16-.31.25-.45.05-.14.12-.28.21-.43s.15-.29.21-.43l2.62-4.47c.44-.82,1.11-1.23,2.01-1.23h2.09c.71,0,1.17.2,1.37.59.21.4.12.88-.27,1.46l-5.37,8.28,5.58,8.53c.38.57.46,1.06.25,1.46-.22.4-.68.59-1.39.59h-1.97c-.9,0-1.57-.4-2.01-1.19l-2.99-4.88c-.06-.11-.12-.23-.18-.37l-.18-.37c-.08-.11-.15-.23-.21-.37h-.08c-.03.14-.08.26-.16.37-.05.11-.12.23-.21.37s-.15.26-.21.37l-2.95,4.88c-.46.79-1.13,1.19-2.01,1.19h-2.01c-.71,0-1.17-.2-1.37-.59-.21-.4-.12-.88.27-1.46l5.58-8.53Z"/></g><g><path class="cls-2" d="m184.03,22.99C184.03,10.33,173.76.06,161.1.06c-3.29,0-6.42.7-9.25,1.95,0,0,0,0,0,0l-.11.06c-.59.26-1.17.55-1.73.86L12.83,71.28c-21,10.22-14.73,46.64,8.03,46.64h142.27c11.55,0,20.91-10.9,20.91-24.35V24.13c0-.17,0-.34-.02-.5,0-.21.02-.42.02-.64Z"/><path class="cls-3" d="m173.55,80.74s0,0,0,0l-2.93-1.67c-.14-.09-134.97-75.22-134.97-75.22-.99-.66-2.04-1.25-3.14-1.75l-.04-.02s0,0,0,0c-2.9-1.33-6.12-2.07-9.52-2.07C10.27,0,0,10.27,0,22.94c0,.18,0,.36.01.54C0,23.69,0,23.91,0,24.13v69.44c0,.25,0,.51.02.76,0,.22-.02.43-.02.65C0,99.87,1.54,104.4,4.15,108.13c3.81,5.94,9.9,9.79,16.76,9.79h141.1s.09,0,.14-.01c.14,0,.28.01.42.01,11.16,0,20.21-9.05,20.21-20.21,0-7.11-3.68-13.37-9.24-16.97Z"/><polygon class="cls-4" points="101.83 26.92 88.74 33.45 172.93 80.35 101.83 26.92"/></g></g><path class="cls-1" d="m9.31,113.34s4.67,4.36,12.85,4.36,0,0,0,0h141.67s20.21-2.55,20.21-20.21.07-63.45.07-63.45L9.31,113.34Z"/></g></svg>