<?xml version="1.0" encoding="utf-8"?>
<svg version="1.1" id="Capa_1" xmlns="http://www.w3.org/2000/svg" xmlns:xlink="http://www.w3.org/1999/xlink" x="0px" y="0px"
	 viewBox="0 0 6519.7 2834.6" style="enable-background:new 0 0 6519.7 2834.6;" xml:space="preserve">
<style type="text/css">
	.st0{fill:#006CA6;}
	.st1{clip-path:url(#SVGID_2_);fill-rule:evenodd;clip-rule:evenodd;fill:#FFFFFF;}
	.st2{clip-path:url(#SVGID_2_);fill:#FFFFFF;}
</style>
<rect y="0" class="st0" width="6519.7" height="2834.6"/>
<g>
	<defs>
		<rect id="SVGID_1_" y="0" width="6519.7" height="2834.6"/>
	</defs>
	<clipPath id="SVGID_2_">
		<use xlink:href="#SVGID_1_"  style="overflow:visible;"/>
	</clipPath>
	<path class="st1" d="M1928.5,1388.3c0-52-21-96.7-56.6-125.9c-26.5-22.8-54.8-34.7-115.9-42.9l-70.3-11
		c-36.5-6.4-73.9-21-96.7-40.2c-22.8-19.2-33.8-47.4-33.8-84.9c0-83,55.7-134.1,150.6-134.1c76.6,0,119.5,23.7,157.9,60.2l31.9-32
		c-55.7-48.4-106.8-70.3-187.1-70.3c-125,0-201.7,68.4-201.7,177.9c0,51.1,17.3,91.2,51.1,119.5c28.3,24.6,66.6,40.2,115.9,47.5
		l75.7,11.9c53.8,7.3,69.4,15.5,94,34.7c24.6,21,35.6,52,35.6,91.3c0,84.8-63.9,134.1-167,134.1c-77.6,0-125.9-18.2-184.3-76.6
		l-34.7,34.7c59.3,59.3,120.4,85.8,216.3,85.8C1845.5,1568.1,1928.5,1498.7,1928.5,1388.3 M549,516.3c275.9-131.4,745.3,29,1059,145
		c152.7,56.4,400.9,141,585.7,258.6c-87.9,19-155.2,85.5-155.2,191.9h149.4c0-50.1,32.8-62.8,60.1-62.8c38.2,0,58.3,24.6,58.3,60.1
		c0,27.3-9.1,43.7-32.8,69.2l-346.9,389.8h380.4c-113.9,151.5-276,285.8-372.6,366c-162.8,135-652.5,507.4-962.6,435.3
		c-294.3-68.4-542.4-786.9-592.1-1216.3C350.5,902,327.5,621.8,549,516.3 M2431.8,1200.3c14.7,76.3-3.4,155.4-40.9,233h-170.2
		l154.8-163.9C2399.4,1244.1,2418.3,1222.7,2431.8,1200.3"/>
	<path class="st2" d="M2745.3,1155.5c31.3,0,55,20.1,61.8,52.5l0.7,3.4h27.3l-0.8-4.9c-7.6-45.6-43.4-76.2-89-76.2
		c-24.7,0-47.9,9.5-65.1,26.7c-24.3,24.3-24.3,49.3-24.3,103.9c0,54.6,0,79.6,24.3,103.9c17.3,17.2,40.4,26.7,65.1,26.7
		c26.2,0,51.2-10.9,68.4-29.9c15-15.7,21.4-34.6,21.4-63v-44.7h-94v25.2h66.7v18.1c0,20.5-4.1,34-14,46.5
		c-11.8,14.3-29.4,22.5-48.4,22.5c-16.9,0-32.5-6.4-44.1-18c-16.6-16.6-18-34.9-18-87.4c0-52.5,1.4-70.9,18-87.4
		C2712.7,1161.9,2728.4,1155.5,2745.3,1155.5"/>
	<path class="st2" d="M3102.1,1203.3c0-43.1-29.6-70.9-75.4-70.9h-98.8v257h27.3v-114.5h61.6l59.3,114.5h31.6l-60.7-116.1
		C3081.6,1265.3,3102.1,1239.5,3102.1,1203.3 M3074.8,1203.6c0,40-31.7,46-50.6,46h-69.1v-92.1h69.1
		C3043.1,1157.6,3074.8,1163.6,3074.8,1203.6"/>
	<path class="st2" d="M3340.1,1302.1c0,39-24.4,64.2-62.1,64.2c-37.7,0-62.1-25.2-62.1-64.2v-169.7h-27.3v172.1
		c0,24.6,8.9,46.9,25.2,62.6c16.2,15.7,39,24.4,64.3,24.4c25.3,0,48.1-8.6,64.3-24.4c16.2-15.7,25.2-38,25.2-62.6v-172.1h-27.3
		V1302.1z"/>
	<path class="st2" d="M3619,1152.1c-14.2-12.9-33.7-19.7-56.5-19.7h-95.4v257h27.3v-105.4h68c47.4,0,79.3-30.5,79.3-75.8
		C3641.8,1185,3633.9,1165.6,3619,1152.1 M3614.5,1208.1c0,32.6-19.2,50.6-54.1,50.6h-65.9v-101.1h65.9
		C3595.3,1157.6,3614.5,1175.5,3614.5,1208.1"/>
	<path class="st2" d="M3867.2,1157c-17.2-17.2-40.4-26.7-65.1-26.7c-24.8,0-47.9,9.5-65.1,26.7c-24.3,24.3-24.3,49.3-24.3,103.9
		c0,54.6,0,79.6,24.3,103.9c17.2,17.2,40.4,26.7,65.1,26.7c24.8,0,47.9-9.5,65.1-26.7c24.3-24.3,24.3-49.2,24.3-103.9
		C3891.4,1206.2,3891.4,1181.3,3867.2,1157 M3864.1,1260.9c0,52.5-1.4,70.8-17.9,87.4c-11.6,11.6-27.3,18-44.2,18
		c-16.9,0-32.6-6.4-44.1-18c-16.6-16.6-18-35-18-87.4c0-52.5,1.4-70.8,18-87.4c11.6-11.6,27.3-18,44.1-18c16.9,0,32.6,6.4,44.2,18
		C3862.7,1190,3864.1,1208.4,3864.1,1260.9"/>
	<path class="st2" d="M2865.7,1930.2c1,2.7,1.5,4.9,1.6,6.6c0.1,1.7-0.4,3-1.4,3.8c-1,0.9-2.6,1.4-4.9,1.7c-2.3,0.2-5.4,0.4-9.2,0.4
		c-3.8,0-6.9-0.1-9.2-0.3c-2.3-0.2-4-0.5-5.2-0.9c-1.2-0.4-2-1-2.6-1.8c-0.6-0.8-1.1-1.7-1.6-2.8l-20.6-58.6h-100l-19.7,57.8
		c-0.4,1.1-0.9,2.1-1.5,2.9c-0.6,0.8-1.5,1.5-2.7,2.1c-1.2,0.6-2.9,1-5,1.2c-2.2,0.2-5,0.4-8.5,0.4c-3.6,0-6.5-0.2-8.8-0.5
		c-2.3-0.3-3.9-0.9-4.8-1.8c-0.9-0.9-1.4-2.1-1.3-3.8c0.1-1.7,0.6-3.9,1.6-6.6l80.7-223.5c0.5-1.4,1.1-2.5,2-3.3
		c0.8-0.9,2-1.6,3.5-2.1c1.5-0.5,3.5-0.8,5.9-1c2.4-0.2,5.5-0.3,9.2-0.3c4,0,7.3,0.1,9.9,0.3c2.6,0.2,4.7,0.5,6.3,1
		c1.6,0.5,2.9,1.2,3.7,2.1c0.9,0.9,1.5,2.1,2,3.4L2865.7,1930.2z M2762.1,1732.9h-0.2l-41.5,119.9h83.7L2762.1,1732.9z"/>
	<path class="st2" d="M3046.4,1936.9c0,1-0.3,1.8-0.7,2.5c-0.5,0.7-1.3,1.3-2.4,1.8c-1.1,0.5-2.7,0.9-4.6,1.1
		c-2,0.2-4.5,0.4-7.4,0.4c-3.1,0-5.6-0.1-7.6-0.4c-2-0.3-3.5-0.6-4.6-1.1c-1.1-0.5-1.9-1.1-2.4-1.8c-0.5-0.7-0.7-1.5-0.7-2.5v-98
		c0-9.5-0.7-17.2-2.2-23.1c-1.5-5.8-3.7-10.8-6.5-15.1c-2.9-4.2-6.5-7.4-11.1-9.7c-4.5-2.2-9.8-3.3-15.7-3.3
		c-7.7,0-15.4,2.7-23.1,8.2c-7.7,5.5-15.7,13.5-24.2,24v117c0,1-0.3,1.8-0.7,2.5c-0.5,0.7-1.3,1.3-2.4,1.8c-1.1,0.5-2.7,0.9-4.6,1.1
		c-2,0.2-4.5,0.4-7.6,0.4c-3,0-5.5-0.1-7.4-0.4c-2-0.3-3.6-0.6-4.7-1.1c-1.2-0.5-2-1.1-2.4-1.8c-0.4-0.7-0.7-1.5-0.7-2.5v-167.3
		c0-1,0.2-1.8,0.6-2.5c0.4-0.7,1.1-1.3,2.2-1.9c1.1-0.6,2.5-0.9,4.3-1.1c1.7-0.2,4-0.3,6.9-0.3c2.7,0,5,0.1,6.8,0.3
		c1.8,0.2,3.2,0.6,4.2,1.1c1,0.6,1.7,1.2,2.1,1.9c0.4,0.7,0.7,1.5,0.7,2.5v22.1c9.4-10.5,18.8-18.3,28.2-23.2
		c9.4-4.9,18.8-7.3,28.4-7.3c11.2,0,20.5,1.9,28.2,5.7c7.6,3.8,13.8,8.8,18.5,15.1c4.7,6.3,8.1,13.7,10.1,22.2
		c2,8.5,3.1,18.7,3.1,30.6V1936.9z"/>
	<path class="st2" d="M3244.4,1764.7c3.7,0,6.3,0.8,7.6,2.5c1.4,1.7,2,4.1,2,7.4v162.3c0,1-0.2,1.8-0.7,2.5
		c-0.5,0.7-1.3,1.3-2.5,1.8c-1.2,0.5-2.8,0.9-4.7,1.1c-2,0.2-4.4,0.4-7.3,0.4c-3.1,0-5.6-0.1-7.6-0.4c-2-0.3-3.6-0.6-4.7-1.1
		c-1.2-0.5-2-1.1-2.5-1.8c-0.5-0.7-0.7-1.5-0.7-2.5v-146.7h-86.5v93.3c0,11.5,1.7,20.2,5.1,26.1c3.4,5.9,9.5,8.8,18.3,8.8
		c2.9,0,5.4-0.3,7.6-0.8c2.2-0.6,4.2-1.2,5.9-1.8c1.7-0.6,3.2-1.2,4.5-1.8c1.2-0.6,2.4-0.8,3.3-0.8c0.6,0,1.2,0.2,1.8,0.5
		c0.6,0.3,1,0.9,1.3,1.8c0.3,0.9,0.6,2,0.8,3.5c0.3,1.5,0.4,3.3,0.4,5.6c0,3.6-0.3,6.4-0.8,8.5c-0.5,2.1-1.2,3.6-2.2,4.6
		c-1,1.1-2.5,2-4.5,2.9c-2,0.9-4.2,1.6-6.8,2.1c-2.5,0.6-5.2,1-8.1,1.4c-2.9,0.4-5.7,0.6-8.6,0.6c-8.7,0-16.1-1.2-22.3-3.4
		c-6.2-2.3-11.3-5.8-15.2-10.4c-4-4.6-6.9-10.5-8.6-17.7c-1.8-7.1-2.7-15.5-2.7-25.2v-97.8h-23.4c-1.9,0-3.3-1-4.5-3
		c-1.1-2-1.7-5.2-1.7-9.7c0-2.4,0.2-4.3,0.5-6c0.3-1.6,0.7-2.9,1.2-4c0.5-1,1.1-1.8,2-2.2c0.8-0.4,1.7-0.7,2.7-0.7h23.2v-39.8
		c0-0.9,0.2-1.7,0.7-2.4c0.4-0.8,1.2-1.4,2.4-2c1.2-0.6,2.8-1,4.7-1.2c2-0.3,4.5-0.4,7.4-0.4c3.1,0,5.6,0.1,7.6,0.4
		c2,0.3,3.5,0.7,4.7,1.2c1.1,0.6,1.9,1.2,2.4,2c0.5,0.7,0.8,1.6,0.8,2.4v39.8H3244.4z M3257.6,1713c0,7.2-1.4,12.1-4.1,14.7
		c-2.7,2.6-7.8,3.9-15.1,3.9c-7.2,0-12.1-1.3-14.8-3.8c-2.7-2.5-4-7.4-4-14.4c0-7.2,1.4-12.1,4.1-14.7c2.7-2.6,7.7-3.9,15.1-3.9
		c7.2,0,12.1,1.3,14.8,3.8C3256.3,1701.2,3257.6,1706,3257.6,1713"/>
	<path class="st2" d="M3431.3,1911.4c0,2.1-0.1,3.9-0.2,5.5c-0.1,1.6-0.3,2.9-0.6,3.9c-0.3,1.1-0.7,2-1.1,2.8c-0.4,0.8-1.4,2-3,3.5
		c-1.5,1.6-4.2,3.5-7.9,5.8c-3.7,2.3-7.9,4.3-12.6,6.1c-4.7,1.8-9.7,3.3-15.2,4.4c-5.5,1.1-11.1,1.7-16.9,1.7c-12,0-22.7-2-32-6
		c-9.3-4-17.1-9.8-23.3-17.4c-6.3-7.6-11-17-14.3-28.1c-3.3-11.1-4.9-23.9-4.9-38.4c0-16.5,2-30.6,6-42.5c4-11.8,9.5-21.5,16.5-29.1
		c7-7.6,15.2-13.2,24.7-16.8c9.5-3.7,19.7-5.5,30.8-5.5c5.3,0,10.5,0.5,15.5,1.5c5,1,9.6,2.3,13.9,3.9c4.2,1.6,8,3.5,11.3,5.6
		c3.3,2.1,5.7,3.9,7.2,5.4c1.5,1.5,2.5,2.7,3.1,3.5c0.6,0.9,1,1.9,1.4,3.1c0.4,1.2,0.6,2.5,0.7,4c0.1,1.5,0.2,3.3,0.2,5.6
		c0,4.8-0.6,8.2-1.7,10.1c-1.1,1.9-2.5,2.9-4.1,2.9c-1.9,0-4-1-6.4-3.1c-2.4-2-5.5-4.3-9.2-6.8c-3.7-2.5-8.2-4.7-13.5-6.8
		c-5.3-2.1-11.5-3.1-18.7-3.1c-14.8,0-26.1,5.7-33.9,17c-7.9,11.3-11.8,27.8-11.8,49.4c0,10.8,1,20.2,3.1,28.4
		c2,8.1,5.1,14.9,9,20.3c4,5.5,8.8,9.5,14.6,12.2c5.8,2.7,12.4,4,19.8,4c7.1,0,13.3-1.1,18.6-3.3c5.3-2.2,10-4.7,13.9-7.3
		c3.9-2.7,7.2-5.1,9.9-7.3c2.7-2.2,4.7-3.2,6.2-3.2c0.9,0,1.6,0.3,2.2,0.7c0.6,0.5,1.1,1.3,1.6,2.5c0.4,1.2,0.7,2.7,0.9,4.5
		C3431.2,1906.8,3431.3,1909,3431.3,1911.4"/>
	<path class="st2" d="M3506.3,1713c0,7.2-1.4,12.1-4.1,14.7c-2.7,2.6-7.7,3.9-15.1,3.9c-7.2,0-12.1-1.3-14.8-3.8
		c-2.7-2.5-4-7.4-4-14.4c0-7.2,1.4-12.1,4.1-14.7c2.7-2.6,7.7-3.9,15.1-3.9c7.2,0,12.1,1.3,14.8,3.8
		C3504.9,1701.2,3506.3,1706,3506.3,1713 M3502.7,1936.9c0,1-0.3,1.8-0.7,2.5c-0.5,0.7-1.3,1.3-2.4,1.8c-1.1,0.5-2.7,0.9-4.7,1.1
		c-2,0.2-4.5,0.4-7.6,0.4c-3,0-5.5-0.1-7.4-0.4c-2-0.3-3.6-0.6-4.7-1.1c-1.2-0.5-2-1.1-2.4-1.8c-0.4-0.7-0.7-1.5-0.7-2.5v-167.3
		c0-0.9,0.2-1.7,0.7-2.4c0.4-0.7,1.2-1.4,2.4-1.9c1.2-0.5,2.8-0.9,4.7-1.1c2-0.2,4.5-0.4,7.4-0.4c3.1,0,5.6,0.1,7.6,0.4
		c2,0.3,3.5,0.6,4.7,1.1c1.1,0.5,1.9,1.1,2.4,1.9c0.5,0.7,0.7,1.6,0.7,2.4V1936.9z"/>
	<path class="st2" d="M3713.4,1850.6c0,14.6-1.6,27.8-4.7,39.4c-3.2,11.7-7.8,21.5-14,29.7c-6.1,8.1-13.7,14.4-22.8,18.8
		c-9.1,4.4-19.4,6.6-31.1,6.6c-5,0-9.5-0.5-13.8-1.5c-4.2-1-8.3-2.5-12.4-4.7c-4-2.1-8-4.8-12-8c-4-3.2-8.2-7-12.6-11.3v83.7
		c0,1-0.3,1.9-0.8,2.6c-0.5,0.7-1.3,1.4-2.4,1.9c-1.1,0.5-2.7,0.9-4.7,1.1c-2,0.3-4.5,0.4-7.6,0.4c-3,0-5.5-0.1-7.4-0.4
		c-2-0.2-3.6-0.6-4.7-1.1c-1.2-0.5-2-1.1-2.4-1.9c-0.4-0.8-0.7-1.6-0.7-2.6v-233.7c0-1.1,0.2-2,0.6-2.7c0.4-0.7,1.1-1.3,2.2-1.8
		c1.1-0.5,2.5-0.8,4.3-1c1.7-0.2,3.8-0.3,6.3-0.3c2.6,0,4.7,0.1,6.4,0.3c1.7,0.2,3.1,0.5,4.2,1c1.1,0.5,1.9,1.1,2.3,1.8
		c0.4,0.7,0.7,1.6,0.7,2.7v22.5c5.1-5.2,10-9.7,14.7-13.6c4.7-3.8,9.5-7,14.2-9.6c4.8-2.5,9.7-4.5,14.7-5.8c5-1.3,10.3-2,15.9-2
		c12.1,0,22.5,2.4,31.1,7.1c8.6,4.7,15.5,11.2,20.9,19.3c5.4,8.2,9.3,17.7,11.8,28.6C3712.2,1827,3713.4,1838.5,3713.4,1850.6
		 M3681.6,1854.2c0-8.6-0.7-16.8-2-24.8c-1.3-8-3.6-15.1-6.7-21.3s-7.5-11.2-12.8-14.9c-5.4-3.7-12-5.6-20-5.6
		c-4,0-7.9,0.6-11.8,1.8c-3.9,1.2-7.8,3-11.8,5.6c-4,2.6-8.2,5.9-12.5,10.1c-4.4,4.2-9,9.3-13.8,15.3v66.6
		c8.5,10.3,16.5,18.2,24.1,23.6c7.6,5.5,15.6,8.2,23.9,8.2c7.7,0,14.4-1.9,19.9-5.6c5.6-3.7,10-8.7,13.5-14.9
		c3.4-6.2,6-13.1,7.6-20.8C3680.8,1869.7,3681.6,1862,3681.6,1854.2"/>
	<path class="st2" d="M3885.6,1937.1c0,1.5-0.5,2.6-1.5,3.3c-1,0.7-2.4,1.3-4.1,1.7c-1.7,0.4-4.3,0.6-7.6,0.6
		c-3.2,0-5.8-0.2-7.7-0.6c-1.9-0.4-3.3-0.9-4.2-1.7c-0.9-0.7-1.3-1.9-1.3-3.3v-16.7c-7.3,7.8-15.5,13.9-24.5,18.2
		c-9,4.3-18.5,6.5-28.5,6.5c-8.8,0-16.8-1.2-23.9-3.4c-7.1-2.3-13.2-5.6-18.2-10c-5-4.3-8.9-9.7-11.7-16s-4.2-13.5-4.2-21.6
		c0-9.4,1.9-17.6,5.8-24.5c3.8-6.9,9.4-12.7,16.5-17.3c7.2-4.6,16-8,26.4-10.3c10.4-2.3,22.1-3.4,35.1-3.4h23.1v-13
		c0-6.4-0.7-12.1-2-17.1c-1.4-5-3.6-9.1-6.6-12.4c-3-3.3-7-5.8-11.8-7.4c-4.8-1.7-10.8-2.5-17.9-2.5c-7.6,0-14.3,0.9-20.3,2.7
		c-6,1.8-11.3,3.8-15.8,6c-4.5,2.2-8.3,4.2-11.3,6c-3,1.8-5.3,2.7-6.8,2.7c-1,0-1.9-0.3-2.6-0.8c-0.7-0.5-1.4-1.2-1.9-2.2
		c-0.6-1-1-2.3-1.2-3.8c-0.3-1.6-0.4-3.2-0.4-5.1c0-3.1,0.2-5.6,0.7-7.3c0.4-1.8,1.5-3.5,3.2-5.1c1.7-1.6,4.6-3.5,8.6-5.7
		c4.1-2.2,8.8-4.2,14.1-6c5.3-1.8,11.2-3.3,17.5-4.5c6.3-1.2,12.7-1.8,19.1-1.8c12,0,22.3,1.4,30.7,4.1c8.4,2.7,15.2,6.7,20.4,12
		c5.2,5.3,9,11.8,11.3,19.6c2.4,7.8,3.5,16.9,3.5,27.3V1937.1z M3855.1,1860.7h-26.2c-8.4,0-15.7,0.7-21.9,2.1
		c-6.2,1.4-11.3,3.5-15.4,6.3c-4.1,2.8-7.1,6.1-9,10.1c-1.9,3.9-2.9,8.4-2.9,13.5c0,8.7,2.8,15.6,8.3,20.7
		c5.5,5.1,13.2,7.7,23.2,7.7c8.1,0,15.5-2,22.4-6.1c6.9-4.1,14.1-10.3,21.7-18.8V1860.7z"/>
	<path class="st2" d="M4086,1936.9c0,1-0.3,1.8-0.7,2.5c-0.5,0.7-1.3,1.3-2.4,1.8c-1.1,0.5-2.7,0.9-4.7,1.1c-2,0.2-4.5,0.4-7.4,0.4
		c-3.1,0-5.6-0.1-7.6-0.4c-2-0.3-3.5-0.6-4.7-1.1c-1.1-0.5-1.9-1.1-2.4-1.8c-0.5-0.7-0.8-1.5-0.8-2.5v-98c0-9.5-0.7-17.2-2.2-23.1
		c-1.5-5.8-3.7-10.8-6.5-15.1c-2.8-4.2-6.5-7.4-11.1-9.7c-4.5-2.2-9.8-3.3-15.7-3.3c-7.7,0-15.4,2.7-23.1,8.2
		c-7.7,5.5-15.7,13.5-24.2,24v117c0,1-0.3,1.8-0.7,2.5c-0.5,0.7-1.3,1.3-2.4,1.8c-1.1,0.5-2.7,0.9-4.6,1.1c-2,0.2-4.5,0.4-7.6,0.4
		c-3,0-5.5-0.1-7.4-0.4c-2-0.3-3.6-0.6-4.7-1.1c-1.2-0.5-2-1.1-2.4-1.8c-0.4-0.7-0.6-1.5-0.6-2.5v-167.3c0-1,0.2-1.8,0.6-2.5
		c0.4-0.7,1.1-1.3,2.2-1.9c1.1-0.6,2.5-0.9,4.3-1.1c1.7-0.2,4-0.3,6.9-0.3c2.7,0,5,0.1,6.8,0.3c1.8,0.2,3.2,0.6,4.2,1.1
		c1,0.6,1.7,1.2,2.1,1.9c0.4,0.7,0.7,1.5,0.7,2.5v22.1c9.4-10.5,18.8-18.3,28.2-23.2c9.4-4.9,18.8-7.3,28.4-7.3
		c11.2,0,20.5,1.9,28.2,5.7c7.6,3.8,13.8,8.8,18.5,15.1c4.7,6.3,8.1,13.7,10.1,22.2c2.1,8.5,3.1,18.7,3.1,30.6V1936.9z"/>
	<path class="st2" d="M4285.4,1936.9c0,1-0.2,1.9-0.7,2.6c-0.4,0.7-1.2,1.3-2.2,1.8c-1.1,0.4-2.4,0.8-4.2,1
		c-1.7,0.2-3.8,0.4-6.3,0.4c-2.6,0-4.8-0.1-6.5-0.4c-1.7-0.3-3.2-0.6-4.3-1c-1.1-0.4-1.9-1-2.4-1.8c-0.5-0.8-0.8-1.6-0.8-2.6v-22.1
		c-8.8,9.6-17.9,17-27.4,22.3c-9.5,5.3-19.9,8-31.1,8c-12.3,0-22.8-2.4-31.4-7.2c-8.7-4.8-15.7-11.2-21.1-19.3
		c-5.4-8.1-9.3-17.7-11.8-28.6c-2.5-11-3.7-22.5-3.7-34.7c0-14.4,1.6-27.4,4.7-38.9c3.1-11.6,7.7-21.5,13.8-29.7
		c6.1-8.2,13.6-14.5,22.6-18.9c9-4.4,19.4-6.6,31.1-6.6c9.8,0,18.7,2.1,26.9,6.4c8.1,4.3,16.1,10.6,24.1,18.9v-97.2
		c0-0.9,0.2-1.7,0.7-2.5c0.4-0.8,1.3-1.4,2.5-1.9c1.2-0.4,2.8-0.8,4.7-1.1c1.9-0.3,4.4-0.5,7.3-0.5c3.1,0,5.6,0.2,7.6,0.5
		c2,0.3,3.5,0.7,4.6,1.1c1.1,0.4,1.9,1.1,2.5,1.9c0.6,0.8,0.8,1.7,0.8,2.5V1936.9z M4254.5,1819.2c-8.3-10.3-16.3-18.1-24.1-23.5
		c-7.7-5.4-15.8-8.1-24.3-8.1c-7.8,0-14.4,1.9-19.9,5.6c-5.5,3.7-9.9,8.6-13.3,14.7c-3.4,6.1-5.9,13-7.4,20.6
		c-1.6,7.7-2.3,15.5-2.3,23.4c0,8.4,0.7,16.7,1.9,24.7c1.3,8.1,3.6,15.2,6.8,21.5c3.2,6.3,7.5,11.3,12.8,15.1
		c5.3,3.8,12,5.7,20.1,5.7c4.1,0,8-0.6,11.8-1.7c3.8-1.1,7.6-3,11.6-5.6c4-2.6,8.1-6,12.5-10.1c4.3-4.2,8.9-9.3,13.8-15.3V1819.2z"
		/>
	<path class="st2" d="M4497.7,1851.4c0,13.6-1.8,26.2-5.4,37.7c-3.6,11.5-9,21.3-16.1,29.7c-7.1,8.3-16.1,14.8-26.8,19.4
		c-10.7,4.7-23.2,7-37.3,7c-13.8,0-25.8-2.1-36-6.1c-10.2-4.1-18.8-10-25.6-17.9c-6.8-7.8-11.9-17.3-15.3-28.4
		c-3.3-11.2-5-23.8-5-37.9c0-13.6,1.8-26.2,5.3-37.6c3.5-11.5,8.9-21.4,16-29.7c7.1-8.3,16-14.8,26.7-19.3
		c10.7-4.6,23.1-6.9,37.4-6.9c13.8,0,25.8,2,36,6.1c10.2,4.1,18.8,10.1,25.6,17.9c6.8,7.8,11.9,17.3,15.3,28.5
		C4496,1824.8,4497.7,1837.4,4497.7,1851.4 M4465.9,1853.4c0-9-0.8-17.6-2.5-25.7c-1.7-8.1-4.5-15.1-8.4-21.2
		c-3.9-6.1-9.1-10.9-15.8-14.4c-6.6-3.5-14.9-5.3-24.8-5.3c-9.1,0-17,1.6-23.5,4.8c-6.6,3.2-12,7.8-16.2,13.7
		c-4.3,5.9-7.4,12.9-9.5,20.9c-2.1,8.1-3.1,16.9-3.1,26.4c0,9.2,0.8,17.8,2.5,25.8c1.7,8.1,4.5,15.1,8.4,21.1
		c3.9,6,9.2,10.8,15.9,14.3c6.6,3.5,14.9,5.3,24.8,5.3c9,0,16.8-1.6,23.5-4.8c6.6-3.2,12.1-7.7,16.3-13.6c4.2-5.8,7.4-12.8,9.4-20.8
		C4464.9,1872,4465.9,1863.1,4465.9,1853.4"/>
	<path class="st2" d="M4772.4,1936.9c0,1-0.2,1.8-0.7,2.5c-0.4,0.7-1.2,1.3-2.3,1.8c-1.1,0.5-2.6,0.9-4.4,1.1
		c-1.8,0.2-4,0.4-6.6,0.4c-2.9,0-5.2-0.1-7-0.4c-1.8-0.3-3.2-0.6-4.3-1.1c-1.1-0.5-1.8-1.1-2.2-1.8c-0.4-0.7-0.6-1.5-0.6-2.5v-22.1
		c-9.5,10.5-19,18.2-28.3,23.1c-9.3,4.8-18.7,7.3-28.3,7.3c-11.2,0-20.5-1.9-28.2-5.6c-7.6-3.7-13.8-8.8-18.5-15.2
		c-4.7-6.4-8.1-13.8-10.1-22.3c-2.1-8.5-3.1-18.8-3.1-31v-101.5c0-1,0.2-1.8,0.6-2.5c0.4-0.7,1.3-1.3,2.5-1.9
		c1.2-0.6,2.9-0.9,4.8-1.1c2-0.2,4.5-0.3,7.4-0.3c3,0,5.5,0.1,7.4,0.3c2,0.2,3.6,0.6,4.7,1.1c1.2,0.6,2,1.2,2.5,1.9
		c0.5,0.7,0.7,1.5,0.7,2.5v97.4c0,9.8,0.7,17.6,2.1,23.5c1.4,5.9,3.6,10.9,6.5,15.1c2.9,4.2,6.6,7.4,11.1,9.7
		c4.5,2.3,9.7,3.4,15.6,3.4c7.7,0,15.4-2.7,23-8.2c7.6-5.5,15.7-13.5,24.3-24v-117c0-1,0.2-1.8,0.7-2.5c0.4-0.7,1.3-1.3,2.5-1.9
		c1.2-0.6,2.8-0.9,4.7-1.1c1.9-0.2,4.4-0.3,7.5-0.3c3,0,5.5,0.1,7.4,0.3c2,0.2,3.5,0.6,4.6,1.1c1.1,0.6,1.9,1.2,2.5,1.9
		c0.6,0.7,0.8,1.5,0.8,2.5V1936.9z"/>
	<path class="st2" d="M4973.2,1936.9c0,1-0.3,1.8-0.7,2.5c-0.5,0.7-1.3,1.3-2.4,1.8c-1.1,0.5-2.7,0.9-4.7,1.1
		c-2,0.2-4.5,0.4-7.4,0.4c-3.1,0-5.6-0.1-7.6-0.4c-2-0.3-3.5-0.6-4.7-1.1c-1.1-0.5-1.9-1.1-2.4-1.8c-0.5-0.7-0.8-1.5-0.8-2.5v-98
		c0-9.5-0.7-17.2-2.2-23.1c-1.5-5.8-3.7-10.8-6.5-15.1c-2.8-4.2-6.5-7.4-11.1-9.7c-4.5-2.2-9.8-3.3-15.7-3.3
		c-7.7,0-15.4,2.7-23.1,8.2s-15.7,13.5-24.2,24v117c0,1-0.3,1.8-0.8,2.5c-0.5,0.7-1.3,1.3-2.4,1.8c-1.1,0.5-2.7,0.9-4.6,1.1
		c-2,0.2-4.5,0.4-7.6,0.4c-3,0-5.5-0.1-7.4-0.4c-2-0.3-3.6-0.6-4.7-1.1c-1.2-0.5-2-1.1-2.4-1.8c-0.4-0.7-0.6-1.5-0.6-2.5v-167.3
		c0-1,0.2-1.8,0.6-2.5c0.4-0.7,1.1-1.3,2.2-1.9c1.1-0.6,2.5-0.9,4.3-1.1c1.7-0.2,4-0.3,6.9-0.3c2.7,0,5,0.1,6.8,0.3
		c1.8,0.2,3.2,0.6,4.2,1.1c1,0.6,1.7,1.2,2.1,1.9c0.4,0.7,0.7,1.5,0.7,2.5v22.1c9.4-10.5,18.8-18.3,28.2-23.2
		c9.4-4.9,18.8-7.3,28.4-7.3c11.2,0,20.5,1.9,28.2,5.7c7.6,3.8,13.8,8.8,18.5,15.1c4.7,6.3,8.1,13.7,10.1,22.2
		c2.1,8.5,3.1,18.7,3.1,30.6V1936.9z"/>
	<path class="st2" d="M5363.5,1936.9c0,1-0.3,1.8-0.7,2.5c-0.5,0.7-1.3,1.3-2.4,1.8c-1.1,0.5-2.7,0.9-4.6,1.1
		c-2,0.2-4.5,0.4-7.4,0.4c-3.1,0-5.6-0.1-7.6-0.4c-2-0.3-3.6-0.6-4.7-1.1c-1.2-0.5-2-1.1-2.5-1.8c-0.5-0.7-0.8-1.5-0.8-2.5v-101.7
		c0-7.1-0.6-13.5-1.9-19.3c-1.2-5.8-3.2-10.8-5.9-15.1c-2.7-4.2-6.2-7.4-10.4-9.7c-4.2-2.2-9.2-3.3-14.9-3.3
		c-7.1,0-14.2,2.7-21.3,8.2c-7.1,5.5-15,13.5-23.5,24v117c0,1-0.3,1.8-0.7,2.5c-0.5,0.7-1.3,1.3-2.5,1.8c-1.2,0.5-2.8,0.9-4.7,1.1
		c-2,0.2-4.5,0.4-7.4,0.4c-2.9,0-5.3-0.1-7.4-0.4c-2-0.3-3.7-0.6-4.8-1.1c-1.2-0.5-2-1.1-2.4-1.8c-0.4-0.7-0.7-1.5-0.7-2.5v-101.7
		c0-7.1-0.7-13.5-2-19.3c-1.4-5.8-3.4-10.8-6.1-15.1c-2.7-4.2-6.2-7.4-10.3-9.7c-4.1-2.2-9.1-3.3-14.8-3.3c-7.1,0-14.2,2.7-21.4,8.2
		c-7.2,5.5-15,13.5-23.4,24v117c0,1-0.3,1.8-0.8,2.5s-1.3,1.3-2.4,1.8c-1.1,0.5-2.7,0.9-4.6,1.1c-2,0.2-4.5,0.4-7.6,0.4
		c-3,0-5.5-0.1-7.4-0.4c-2-0.3-3.6-0.6-4.7-1.1c-1.2-0.5-2-1.1-2.4-1.8c-0.4-0.7-0.6-1.5-0.6-2.5v-167.3c0-1,0.2-1.8,0.6-2.5
		c0.4-0.7,1.1-1.3,2.2-1.9c1.1-0.6,2.5-0.9,4.3-1.1c1.7-0.2,4-0.3,6.9-0.3c2.7,0,5,0.1,6.8,0.3c1.8,0.2,3.2,0.6,4.2,1.1
		c1,0.6,1.7,1.2,2.1,1.9c0.4,0.7,0.7,1.5,0.7,2.5v22.1c9.4-10.5,18.6-18.3,27.4-23.2c8.9-4.9,17.8-7.3,26.9-7.3
		c6.9,0,13.2,0.8,18.7,2.4c5.5,1.6,10.4,3.9,14.6,6.8c4.2,2.9,7.8,6.4,10.8,10.4c3,4,5.5,8.5,7.4,13.5c5.6-6.1,10.9-11.2,15.9-15.4
		c5-4.2,9.9-7.6,14.5-10.2c4.6-2.6,9.2-4.5,13.6-5.7c4.4-1.2,8.8-1.8,13.3-1.8c10.8,0,19.8,1.9,27.1,5.7c7.3,3.8,13.2,8.8,17.8,15.1
		c4.5,6.3,7.7,13.7,9.7,22.2c1.9,8.5,2.9,17.4,2.9,26.9V1936.9z"/>
	<path class="st2" d="M5562.8,1936.9c0,1-0.2,1.8-0.7,2.5c-0.4,0.7-1.2,1.3-2.3,1.8c-1.1,0.5-2.6,0.9-4.4,1.1
		c-1.8,0.2-4,0.4-6.6,0.4c-2.9,0-5.2-0.1-7-0.4c-1.8-0.3-3.2-0.6-4.3-1.1c-1.1-0.5-1.8-1.1-2.2-1.8c-0.4-0.7-0.6-1.5-0.6-2.5v-22.1
		c-9.5,10.5-19,18.2-28.3,23.1c-9.3,4.8-18.7,7.3-28.3,7.3c-11.2,0-20.5-1.9-28.2-5.6c-7.6-3.7-13.8-8.8-18.5-15.2
		c-4.7-6.4-8.1-13.8-10.1-22.3c-2.1-8.5-3.1-18.8-3.1-31v-101.5c0-1,0.2-1.8,0.6-2.5c0.4-0.7,1.3-1.3,2.5-1.9
		c1.2-0.6,2.9-0.9,4.8-1.1c2-0.2,4.5-0.3,7.4-0.3c3,0,5.5,0.1,7.4,0.3c2,0.2,3.6,0.6,4.7,1.1c1.2,0.6,2,1.2,2.5,1.9
		c0.5,0.7,0.7,1.5,0.7,2.5v97.4c0,9.8,0.7,17.6,2.1,23.5c1.4,5.9,3.6,10.9,6.5,15.1c2.9,4.2,6.6,7.4,11.1,9.7
		c4.5,2.3,9.7,3.4,15.6,3.4c7.7,0,15.4-2.7,23-8.2c7.6-5.5,15.7-13.5,24.3-24v-117c0-1,0.2-1.8,0.7-2.5c0.4-0.7,1.3-1.3,2.5-1.9
		c1.2-0.6,2.8-0.9,4.7-1.1c1.9-0.2,4.4-0.3,7.5-0.3c3,0,5.5,0.1,7.4,0.3c2,0.2,3.5,0.6,4.6,1.1c1.1,0.6,1.9,1.2,2.5,1.9
		c0.6,0.7,0.8,1.5,0.8,2.5V1936.9z"/>
	<path class="st2" d="M5763.6,1936.9c0,1-0.3,1.8-0.7,2.5c-0.5,0.7-1.3,1.3-2.4,1.8c-1.1,0.5-2.7,0.9-4.7,1.1
		c-2,0.2-4.5,0.4-7.4,0.4c-3.1,0-5.6-0.1-7.6-0.4c-2-0.3-3.5-0.6-4.7-1.1c-1.1-0.5-1.9-1.1-2.4-1.8c-0.5-0.7-0.7-1.5-0.7-2.5v-98
		c0-9.5-0.8-17.2-2.2-23.1c-1.5-5.8-3.7-10.8-6.5-15.1c-2.8-4.2-6.5-7.4-11.1-9.7c-4.5-2.2-9.8-3.3-15.7-3.3
		c-7.7,0-15.4,2.7-23.1,8.2c-7.7,5.5-15.7,13.5-24.2,24v117c0,1-0.2,1.8-0.7,2.5s-1.3,1.3-2.4,1.8c-1.1,0.5-2.7,0.9-4.6,1.1
		c-2,0.2-4.5,0.4-7.6,0.4c-3,0-5.5-0.1-7.4-0.4c-2-0.3-3.6-0.6-4.7-1.1c-1.2-0.5-2-1.1-2.4-1.8c-0.4-0.7-0.6-1.5-0.6-2.5v-167.3
		c0-1,0.2-1.8,0.6-2.5c0.4-0.7,1.1-1.3,2.2-1.9c1.1-0.6,2.5-0.9,4.3-1.1c1.7-0.2,4-0.3,6.9-0.3c2.7,0,5,0.1,6.8,0.3
		c1.8,0.2,3.2,0.6,4.2,1.1c1,0.6,1.7,1.2,2.1,1.9c0.4,0.7,0.7,1.5,0.7,2.5v22.1c9.4-10.5,18.8-18.3,28.2-23.2
		c9.4-4.9,18.8-7.3,28.4-7.3c11.2,0,20.5,1.9,28.2,5.7c7.6,3.8,13.8,8.8,18.5,15.1c4.7,6.3,8.1,13.7,10.1,22.2
		c2.1,8.5,3.1,18.7,3.1,30.6V1936.9z"/>
	<path class="st2" d="M5963,1936.9c0,1-0.2,1.9-0.7,2.6c-0.4,0.7-1.2,1.3-2.2,1.8c-1.1,0.4-2.4,0.8-4.2,1c-1.7,0.2-3.8,0.4-6.3,0.4
		c-2.6,0-4.8-0.1-6.5-0.4c-1.7-0.3-3.2-0.6-4.3-1c-1.1-0.4-1.9-1-2.4-1.8c-0.5-0.8-0.7-1.6-0.7-2.6v-22.1
		c-8.8,9.6-17.9,17-27.4,22.3c-9.5,5.3-19.9,8-31.1,8c-12.3,0-22.8-2.4-31.4-7.2c-8.7-4.8-15.7-11.2-21.1-19.3
		c-5.4-8.1-9.3-17.7-11.8-28.6c-2.5-11-3.7-22.5-3.7-34.7c0-14.4,1.6-27.4,4.6-38.9c3.1-11.6,7.7-21.5,13.8-29.7
		c6.1-8.2,13.6-14.5,22.6-18.9c9-4.4,19.4-6.6,31.1-6.6c9.8,0,18.7,2.1,26.9,6.4c8.1,4.3,16.1,10.6,24.1,18.9v-97.2
		c0-0.9,0.2-1.7,0.7-2.5c0.4-0.8,1.3-1.4,2.5-1.9c1.2-0.4,2.8-0.8,4.7-1.1c1.9-0.3,4.4-0.5,7.3-0.5c3.1,0,5.6,0.2,7.6,0.5
		c2,0.3,3.5,0.7,4.6,1.1c1.1,0.4,1.9,1.1,2.5,1.9c0.6,0.8,0.8,1.7,0.8,2.5V1936.9z M5932.1,1819.2c-8.3-10.3-16.3-18.1-24.1-23.5
		c-7.7-5.4-15.8-8.1-24.3-8.1c-7.8,0-14.4,1.9-19.9,5.6c-5.5,3.7-9.9,8.6-13.3,14.7c-3.4,6.1-5.9,13-7.4,20.6
		c-1.6,7.7-2.3,15.5-2.3,23.4c0,8.4,0.7,16.7,1.9,24.7c1.3,8.1,3.6,15.2,6.8,21.5c3.2,6.3,7.5,11.3,12.8,15.1
		c5.3,3.8,12,5.7,20.1,5.7c4.1,0,8-0.6,11.8-1.7c3.8-1.1,7.6-3,11.6-5.6c4-2.6,8.1-6,12.5-10.1c4.3-4.2,8.9-9.3,13.8-15.3V1819.2z"
		/>
	<path class="st2" d="M6175.3,1851.4c0,13.6-1.8,26.2-5.4,37.7c-3.6,11.5-9,21.3-16.1,29.7c-7.1,8.3-16.1,14.8-26.8,19.4
		c-10.7,4.7-23.2,7-37.3,7c-13.8,0-25.8-2.1-36-6.1c-10.2-4.1-18.8-10-25.6-17.9c-6.8-7.8-11.9-17.3-15.3-28.4
		c-3.3-11.2-5-23.8-5-37.9c0-13.6,1.8-26.2,5.3-37.6c3.5-11.5,8.9-21.4,16-29.7c7.1-8.3,16-14.8,26.7-19.3
		c10.7-4.6,23.1-6.9,37.4-6.9c13.8,0,25.8,2,36,6.1c10.2,4.1,18.8,10.1,25.6,17.9c6.8,7.8,11.9,17.3,15.3,28.5
		C6173.6,1824.8,6175.3,1837.4,6175.3,1851.4 M6143.5,1853.4c0-9-0.8-17.6-2.5-25.7c-1.7-8.1-4.5-15.1-8.4-21.2
		c-3.9-6.1-9.1-10.9-15.8-14.4c-6.6-3.5-14.9-5.3-24.8-5.3c-9.1,0-17,1.6-23.5,4.8c-6.6,3.2-12,7.8-16.2,13.7
		c-4.3,5.9-7.4,12.9-9.5,20.9c-2.1,8.1-3.1,16.9-3.1,26.4c0,9.2,0.8,17.8,2.5,25.8c1.7,8.1,4.5,15.1,8.4,21.1
		c3.9,6,9.2,10.8,15.9,14.3c6.6,3.5,14.9,5.3,24.8,5.3c9,0,16.8-1.6,23.5-4.8c6.6-3.2,12.1-7.7,16.3-13.6c4.2-5.8,7.4-12.8,9.4-20.8
		C6142.5,1872,6143.5,1863.1,6143.5,1853.4"/>
	<path class="st2" d="M2802.5,2226.2c0,3.2-0.1,5.9-0.3,8.1c-0.2,2.2-0.4,4-0.7,5.5c-0.3,1.5-0.7,2.7-1.1,3.6
		c-0.4,0.9-1.4,2.1-2.9,3.5c-1.5,1.4-4,3.2-7.6,5.2c-3.6,2-7.7,3.9-12.3,5.5c-4.6,1.6-9.6,2.9-15,3.9c-5.4,1-10.9,1.5-16.6,1.5
		c-12.8,0-24.1-2-33.9-6c-9.9-4-18.1-9.8-24.8-17.6c-6.7-7.7-11.7-17.2-15.2-28.4c-3.4-11.1-5.1-23.9-5.1-38.3c0-16.6,2.1-31,6.2-43
		c4.1-12.1,9.9-22.1,17.4-30c7.4-7.9,16.2-13.8,26.4-17.7c10.2-3.8,21.3-5.8,33.5-5.8c5,0,9.8,0.4,14.6,1.3
		c4.8,0.9,9.2,2.1,13.4,3.5c4.2,1.5,7.9,3.2,11.2,5c3.3,1.9,5.6,3.5,7,4.8c1.4,1.4,2.3,2.5,2.9,3.4c0.6,0.9,1,2.2,1.3,3.6
		c0.3,1.5,0.6,3.3,0.8,5.5c0.2,2.2,0.3,4.8,0.3,7.9c0,7.2-0.6,12.2-1.9,15.2c-1.2,2.9-2.9,4.4-4.8,4.4c-2.1,0-4.3-0.9-6.7-2.6
		c-2.4-1.7-5.1-3.7-8.4-5.8c-3.2-2.1-7.1-4-11.5-5.8c-4.5-1.7-9.8-2.6-16-2.6c-12.2,0-21.4,4.7-27.9,14c-6.4,9.4-9.7,23.1-9.7,41.2
		c0,8.9,0.8,16.8,2.4,23.6c1.6,6.8,4,12.5,7.2,17.1c3.2,4.6,7.1,8,11.9,10.3c4.8,2.3,10.3,3.4,16.6,3.4c6.4,0,12-1,16.6-2.9
		c4.6-1.9,8.7-4.1,12.2-6.4c3.5-2.4,6.4-4.5,8.7-6.4c2.4-1.9,4.3-2.9,6-2.9c1.1,0,2,0.3,2.8,0.9c0.7,0.6,1.3,1.8,1.8,3.4
		c0.4,1.7,0.8,3.8,1,6.4C2802.3,2218.7,2802.5,2222.1,2802.5,2226.2"/>
	<path class="st2" d="M2886.7,2030.6c0,9.4-1.9,15.9-5.8,19.5c-3.8,3.6-11,5.4-21.4,5.4c-10.5,0-17.6-1.7-21.3-5.2
		c-3.7-3.5-5.5-9.7-5.5-18.8c0-9.4,1.9-16,5.7-19.6c3.8-3.7,10.9-5.5,21.5-5.5c10.4,0,17.5,1.8,21.2,5.3
		C2884.8,2015.2,2886.7,2021.5,2886.7,2030.6 M2883.2,2252.6c0,1.2-0.4,2.3-1.1,3.2c-0.7,0.9-2,1.7-3.8,2.3
		c-1.8,0.6-4.2,1.1-7.2,1.4c-3,0.3-6.8,0.5-11.3,0.5c-4.6,0-8.4-0.2-11.3-0.5c-3-0.3-5.4-0.8-7.2-1.4c-1.8-0.6-3.1-1.4-3.8-2.3
		c-0.7-0.9-1.1-2-1.1-3.2v-165.5c0-1.2,0.4-2.3,1.1-3.2c0.8-0.9,2-1.7,3.8-2.4c1.8-0.7,4.2-1.2,7.2-1.6c3-0.4,6.8-0.6,11.3-0.6
		c4.6,0,8.4,0.2,11.3,0.6c3,0.4,5.4,0.9,7.2,1.6c1.8,0.7,3.1,1.5,3.8,2.4c0.7,0.9,1.1,2,1.1,3.2V2252.6z"/>
	<path class="st2" d="M3096.8,2167.4c0,14.8-1.6,28-4.8,39.8c-3.2,11.8-7.9,21.8-13.9,30.1c-6.1,8.3-13.5,14.7-22.4,19.2
		c-8.9,4.5-18.9,6.7-30.2,6.7c-5.6,0-10.8-0.5-15.6-1.6c-4.8-1.1-9.5-2.7-13.9-5.1c-4.4-2.4-8.7-5.3-13-8.9
		c-4.3-3.6-8.6-7.9-13.1-13v18c0,1.4-0.3,2.5-1,3.4c-0.7,0.9-1.8,1.7-3.4,2.3c-1.5,0.6-3.6,1.1-6.2,1.3c-2.6,0.2-5.8,0.4-9.5,0.4
		c-3.8,0-7-0.1-9.6-0.4c-2.5-0.2-4.6-0.7-6.1-1.3c-1.6-0.6-2.6-1.4-3.3-2.3c-0.6-0.9-0.9-2.1-0.9-3.4v-244.5c0-1.2,0.4-2.3,1.1-3.3
		c0.8-1,2-1.8,3.8-2.5c1.8-0.7,4.2-1.2,7.2-1.6c3-0.4,6.8-0.6,11.3-0.6c4.6,0,8.4,0.2,11.3,0.6c3,0.4,5.4,0.9,7.2,1.6
		c1.8,0.7,3.1,1.5,3.8,2.5c0.8,1,1.1,2.1,1.1,3.3v91.7c4.2-4.2,8.4-7.8,12.6-10.8c4.2-3,8.4-5.4,12.6-7.3c4.2-1.9,8.6-3.3,13-4.2
		c4.5-0.9,9.2-1.3,14.1-1.3c12.3,0,22.7,2.4,31.2,7.3c8.6,4.9,15.5,11.5,20.9,19.8c5.4,8.3,9.3,18,11.8,29.1
		C3095.6,2143.5,3096.8,2155.1,3096.8,2167.4 M3048.3,2170.8c0-7.1-0.5-13.9-1.6-20.4c-1.1-6.6-2.9-12.4-5.5-17.5
		c-2.6-5.1-6-9.1-10.1-12.2c-4.2-3-9.4-4.6-15.7-4.6c-3.1,0-6.1,0.4-9.1,1.3c-3,0.9-6,2.4-9.2,4.5c-3.2,2.1-6.4,4.8-9.8,8.2
		c-3.3,3.3-6.9,7.5-10.6,12.5v55c6.6,8.4,12.9,14.9,18.9,19.3c6,4.4,12.3,6.6,18.9,6.6c6.1,0,11.2-1.5,15.4-4.6
		c4.2-3.1,7.7-7.1,10.5-12.1c2.8-5,4.8-10.6,6-16.9C3047.7,2183.4,3048.3,2177.1,3048.3,2170.8"/>
	<path class="st2" d="M3287.4,2164.8c0,5.7-1.3,9.9-3.8,12.6c-2.5,2.7-6,4.1-10.5,4.1h-101c0,7.1,0.8,13.5,2.5,19.3
		c1.7,5.8,4.3,10.7,8,14.7c3.7,4,8.4,7.1,14.1,9.2c5.8,2.1,12.7,3.2,20.7,3.2c8.2,0,15.4-0.6,21.6-1.8c6.2-1.2,11.6-2.5,16.1-3.9
		c4.5-1.4,8.3-2.7,11.2-3.9c3-1.2,5.4-1.8,7.3-1.8c1.1,0,2,0.2,2.8,0.7c0.7,0.4,1.4,1.2,1.9,2.3c0.5,1.1,0.8,2.7,1,4.7
		c0.2,2,0.3,4.6,0.3,7.7c0,2.7-0.1,5.1-0.2,7c-0.1,1.9-0.3,3.6-0.6,4.9s-0.6,2.5-1.1,3.4c-0.5,0.9-1.2,1.8-2,2.7
		c-0.8,0.9-3,2-6.6,3.5c-3.6,1.5-8.2,2.9-13.8,4.4c-5.6,1.4-12,2.7-19.2,3.7c-7.2,1.1-14.9,1.6-23.1,1.6c-14.8,0-27.7-1.9-38.8-5.6
		c-11.1-3.7-20.4-9.4-27.8-16.9c-7.4-7.6-13-17.1-16.6-28.6c-3.7-11.5-5.5-25-5.5-40.5c0-14.8,1.9-28,5.8-39.9
		c3.8-11.8,9.4-21.9,16.7-30.1c7.3-8.2,16.2-14.5,26.7-18.9c10.5-4.3,22.3-6.5,35.4-6.5c13.9,0,25.7,2,35.6,6.1
		c9.9,4.1,17.9,9.8,24.3,17c6.3,7.2,11,15.8,13.9,25.7c3,9.9,4.5,20.7,4.5,32.4V2164.8z M3242,2151.4c0.4-13.1-2.3-23.5-7.9-31
		c-5.6-7.5-14.3-11.3-26.1-11.3c-5.9,0-11.1,1.1-15.5,3.4c-4.4,2.2-8.1,5.2-11,9c-2.9,3.8-5.1,8.2-6.7,13.4
		c-1.6,5.1-2.4,10.6-2.7,16.4H3242z"/>
	<path class="st2" d="M3432.4,2102.1c0,4.5-0.1,8.1-0.4,11c-0.3,2.8-0.6,5.1-1.1,6.7c-0.5,1.6-1.1,2.7-2,3.3
		c-0.8,0.6-1.8,0.9-3.1,0.9c-1,0-2.1-0.2-3.4-0.7c-1.2-0.4-2.6-0.9-4.2-1.4c-1.5-0.5-3.2-1-5.1-1.4c-1.9-0.4-3.9-0.7-6.1-0.7
		c-2.6,0-5.2,0.5-7.8,1.6c-2.6,1.1-5.3,2.7-8.1,4.9c-2.8,2.2-5.7,5.2-8.7,8.9c-3,3.7-6.3,8.3-9.8,13.8v103.4c0,1.2-0.4,2.3-1.1,3.2
		c-0.7,0.9-2,1.7-3.8,2.3c-1.8,0.6-4.2,1.1-7.2,1.4c-3,0.3-6.8,0.5-11.3,0.5c-4.6,0-8.4-0.2-11.3-0.5c-3-0.3-5.4-0.8-7.2-1.4
		c-1.8-0.6-3.1-1.4-3.8-2.3c-0.7-0.9-1.1-2-1.1-3.2v-165.9c0-1.2,0.3-2.3,0.9-3.3c0.6-0.9,1.7-1.7,3.3-2.3c1.6-0.6,3.7-1.1,6.2-1.4
		c2.5-0.3,5.7-0.5,9.6-0.5c4,0,7.3,0.2,9.9,0.5c2.6,0.3,4.6,0.8,6,1.4c1.4,0.6,2.4,1.4,3.1,2.3c0.6,0.9,0.9,2,0.9,3.3v20.6
		c4.3-6.2,8.4-11.3,12.3-15.3c3.8-4,7.5-7.2,11-9.6c3.5-2.3,6.9-4,10.4-4.9c3.5-0.9,6.9-1.4,10.4-1.4c1.6,0,3.4,0.1,5.2,0.3
		c1.9,0.2,3.8,0.5,5.8,0.9c2,0.4,3.7,0.9,5.2,1.5c1.5,0.6,2.6,1.2,3.3,1.8c0.7,0.6,1.2,1.3,1.5,2.1c0.3,0.7,0.6,1.8,0.8,3.1
		c0.3,1.3,0.4,3.2,0.6,5.9C3432.4,2094.2,3432.4,2097.7,3432.4,2102.1"/>
	<path class="st2" d="M3573.4,2205.7c0,9.4-1.8,17.7-5.3,24.9c-3.5,7.2-8.5,13.2-15,18c-6.4,4.8-14.1,8.5-22.9,10.9
		c-8.8,2.4-18.3,3.6-28.6,3.6c-6.2,0-12.1-0.5-17.8-1.4c-5.6-0.9-10.7-2.1-15.2-3.5c-4.5-1.4-8.2-2.9-11.2-4.4
		c-3-1.5-5.1-2.9-6.5-4.2c-1.4-1.3-2.4-3.3-3.2-6.1c-0.8-2.8-1.1-6.9-1.1-12.4c0-3.6,0.1-6.5,0.4-8.6c0.3-2.2,0.6-3.9,1.1-5.2
		c0.5-1.3,1.1-2.2,1.9-2.6c0.7-0.4,1.7-0.7,2.8-0.7c1.4,0,3.4,0.8,6,2.3c2.7,1.6,6,3.2,9.9,5.1c4,1.9,8.6,3.6,13.9,5.2
		c5.3,1.6,11.3,2.4,17.9,2.4c4.2,0,8-0.4,11.3-1.3c3.3-0.9,6.1-2.1,8.6-3.7c2.4-1.6,4.2-3.7,5.5-6.1c1.2-2.5,1.9-5.3,1.9-8.6
		c0-3.7-1.1-6.9-3.4-9.6c-2.3-2.7-5.3-5-9.1-7c-3.8-2-8.1-3.8-12.8-5.6c-4.8-1.7-9.7-3.7-14.7-5.8c-5-2.1-9.9-4.5-14.7-7.2
		c-4.8-2.7-9.1-6.1-12.8-10c-3.8-4-6.8-8.7-9.1-14.3c-2.3-5.6-3.4-12.3-3.4-20.1c0-7.9,1.5-15.2,4.7-21.8c3.1-6.6,7.6-12.3,13.4-17
		c5.8-4.7,12.9-8.4,21.3-11c8.4-2.6,17.8-3.9,28.2-3.9c5.2,0,10.3,0.4,15.2,1.1c4.9,0.7,9.3,1.7,13.3,2.8c4,1.1,7.3,2.3,10,3.6
		c2.7,1.3,4.7,2.4,5.9,3.3c1.2,0.9,2,1.9,2.5,2.8c0.5,0.9,0.9,2,1.1,3.3c0.3,1.3,0.5,2.9,0.7,4.8c0.2,1.9,0.3,4.3,0.3,7.2
		c0,3.3-0.1,6.1-0.3,8.2c-0.2,2.1-0.5,3.8-0.9,5c-0.4,1.2-1,2.1-1.8,2.5c-0.8,0.4-1.6,0.7-2.6,0.7c-1.1,0-2.9-0.7-5.2-2
		c-2.4-1.3-5.3-2.7-8.8-4.2c-3.5-1.5-7.6-2.9-12.3-4.2c-4.6-1.3-9.9-2-15.9-2c-4.2,0-7.9,0.4-11,1.3c-3.1,0.9-5.6,2.1-7.6,3.7
		c-2,1.6-3.5,3.5-4.5,5.7c-1,2.2-1.5,4.5-1.5,7c0,3.8,1.2,7.1,3.5,9.7c2.4,2.6,5.5,4.9,9.3,6.9c3.8,2,8.2,3.8,13.1,5.6
		c4.9,1.7,9.9,3.6,14.9,5.7c5,2,10,4.4,14.9,7.1c4.9,2.7,9.3,6.1,13.1,10.1c3.8,4,6.9,8.7,9.3,14.2
		C3572.2,2191.6,3573.4,2198.2,3573.4,2205.7"/>
	<path class="st2" d="M3761.7,2164.8c0,5.7-1.3,9.9-3.8,12.6c-2.5,2.7-6,4.1-10.5,4.1h-101c0,7.1,0.8,13.5,2.5,19.3
		c1.7,5.8,4.3,10.7,8,14.7c3.7,4,8.4,7.1,14.1,9.2c5.8,2.1,12.7,3.2,20.7,3.2c8.2,0,15.4-0.6,21.6-1.8c6.2-1.2,11.6-2.5,16.1-3.9
		c4.5-1.4,8.3-2.7,11.2-3.9c3-1.2,5.4-1.8,7.3-1.8c1.1,0,2,0.2,2.8,0.7c0.7,0.4,1.4,1.2,1.9,2.3c0.5,1.1,0.8,2.7,1,4.7
		c0.2,2,0.3,4.6,0.3,7.7c0,2.7-0.1,5.1-0.2,7c-0.1,1.9-0.3,3.6-0.6,4.9s-0.6,2.5-1.1,3.4c-0.5,0.9-1.1,1.8-1.9,2.7
		c-0.8,0.9-3,2-6.6,3.5c-3.6,1.5-8.2,2.9-13.8,4.4c-5.6,1.4-12,2.7-19.2,3.7c-7.2,1.1-14.9,1.6-23.1,1.6c-14.8,0-27.7-1.9-38.8-5.6
		c-11.1-3.7-20.4-9.4-27.8-16.9c-7.4-7.6-13-17.1-16.6-28.6c-3.7-11.5-5.5-25-5.5-40.5c0-14.8,1.9-28,5.8-39.9
		c3.8-11.8,9.4-21.9,16.7-30.1s16.2-14.5,26.7-18.9c10.5-4.3,22.3-6.5,35.4-6.5c13.9,0,25.8,2,35.6,6.1c9.9,4.1,17.9,9.8,24.3,17
		c6.3,7.2,11,15.8,13.9,25.7c3,9.9,4.5,20.7,4.5,32.4V2164.8z M3716.4,2151.4c0.4-13.1-2.3-23.5-7.9-31
		c-5.6-7.5-14.4-11.3-26.1-11.3c-6,0-11.1,1.1-15.5,3.4c-4.4,2.2-8.1,5.2-11,9c-2.9,3.8-5.1,8.2-6.7,13.4
		c-1.6,5.1-2.5,10.6-2.7,16.4H3716.4z"/>
	<path class="st2" d="M3949.7,2098.2c0,6-0.7,10.4-2,13.2c-1.4,2.9-3,4.3-5,4.3h-19.5c2.7,3,4.7,6.4,5.9,10.1
		c1.2,3.8,1.8,7.7,1.8,11.8c0,9.7-1.6,18.3-4.8,25.7c-3.2,7.5-7.8,13.8-13.9,19c-6,5.1-13.3,9-21.8,11.7c-8.5,2.7-17.9,4-28.4,4
		c-5.3,0-10.4-0.7-15.2-2c-4.8-1.3-8.6-2.8-11.2-4.6c-1.5,1.6-2.8,3.5-4,5.8c-1.2,2.2-1.8,4.7-1.8,7.4c0,3.6,1.6,6.5,4.7,8.8
		c3.2,2.3,7.6,3.6,13.3,3.8l40.4,1.5c9.4,0.4,17.8,1.7,25.2,4c7.4,2.3,13.6,5.5,18.6,9.7c5,4.2,8.9,9.1,11.5,15s4,12.5,4,19.9
		c0,8.2-1.8,15.9-5.4,23.2c-3.6,7.2-9,13.5-16.2,18.9c-7.2,5.3-16.2,9.5-27.1,12.6c-10.8,3.1-23.5,4.6-38,4.6
		c-14.1,0-26.2-1.1-36.2-3.3c-10-2.2-18.2-5.3-24.5-9.3c-6.4-4-11-8.7-13.9-14.2c-2.9-5.5-4.4-11.6-4.4-18.1c0-4.1,0.5-8,1.6-11.7
		c1-3.7,2.6-7.3,4.6-10.7c2.1-3.4,4.6-6.6,7.5-9.8c3-3.1,6.4-6.1,10.2-8.9c-5.3-2.8-9.5-6.7-12.4-11.6s-4.4-10.3-4.4-16.1
		c0-7.3,1.7-14,5-20c3.3-6,7.7-11.4,13-16.3c-4.3-4.3-7.8-9.5-10.4-15.6c-2.6-6.1-3.9-13.6-3.9-22.7c0-9.7,1.7-18.3,5.1-25.9
		c3.4-7.6,8.2-14.1,14.2-19.3c6.1-5.3,13.3-9.3,21.8-12.1c8.4-2.8,17.7-4.2,27.9-4.2c5.2,0,10.2,0.3,15,0.9
		c4.8,0.6,9.2,1.5,13.3,2.6h52.6c2.1,0,3.8,1.4,5.1,4.1C3949.1,2087.2,3949.7,2091.8,3949.7,2098.2 M3900.7,2269.9
		c0-5.6-2.2-9.9-6.7-12.8c-4.5-3-10.6-4.6-18.4-4.8l-33.3-0.9c-3.2,2.4-5.8,4.6-7.7,6.8c-1.9,2.2-3.5,4.2-4.7,6.2
		c-1.2,2-1.9,3.9-2.3,5.8c-0.4,1.9-0.6,3.8-0.6,5.8c0,6.2,3.1,10.9,9.4,14.1c6.3,3.2,15.1,4.8,26.5,4.8c7.1,0,13-0.7,17.9-2.1
		c4.8-1.4,8.7-3.3,11.7-5.7c3-2.4,5.1-5,6.3-7.9C3900,2276.2,3900.7,2273.1,3900.7,2269.9 M3889.7,2137.5c0-8.9-2.5-15.9-7.4-20.8
		c-5-5-12-7.4-21-7.4c-4.6,0-8.6,0.8-12.1,2.3c-3.5,1.6-6.4,3.7-8.6,6.3c-2.3,2.7-4,5.8-5.1,9.3c-1.1,3.5-1.7,7.2-1.7,11.1
		c0,8.4,2.5,15.1,7.4,20c5,4.9,11.8,7.3,20.6,7.3c4.7,0,8.8-0.7,12.3-2.2c3.5-1.5,6.4-3.5,8.6-6.1c2.3-2.6,4-5.6,5.2-9
		C3889.1,2144.8,3889.7,2141.2,3889.7,2137.5"/>
	<path class="st2" d="M4138.1,2252.6c0,1.2-0.3,2.3-0.9,3.2c-0.6,0.9-1.7,1.7-3.3,2.3c-1.6,0.6-3.6,1.1-6.1,1.4
		c-2.5,0.3-5.7,0.5-9.6,0.5c-4.1,0-7.4-0.2-9.9-0.5c-2.6-0.3-4.6-0.8-6.1-1.4c-1.5-0.6-2.5-1.4-3.2-2.3c-0.6-0.9-0.9-2-0.9-3.2
		v-19.2c-9.2,9.9-18.5,17.4-28,22.3c-9.5,5-19.3,7.4-29.5,7.4c-11.4,0-21-1.9-28.7-5.6c-7.8-3.7-14-8.8-18.8-15.2
		c-4.8-6.4-8.2-13.9-10.2-22.4c-2-8.5-3.1-19.1-3.1-31.7v-101.5c0-1.2,0.3-2.3,1-3.3c0.7-0.9,1.9-1.7,3.7-2.3
		c1.8-0.6,4.2-1.1,7.3-1.4c3-0.3,6.8-0.5,11.2-0.5c4.6,0,8.4,0.2,11.3,0.5c3,0.3,5.4,0.8,7.2,1.4c1.8,0.6,3.1,1.4,3.8,2.3
		c0.7,0.9,1.1,2,1.1,3.3v93.7c0,8.7,0.6,15.3,1.7,19.9c1.1,4.6,2.8,8.5,5.1,11.8c2.3,3.3,5.2,5.8,8.7,7.6c3.5,1.8,7.6,2.7,12.4,2.7
		c5.9,0,11.9-2.2,17.9-6.5c6-4.3,12.4-10.7,19.3-19v-110.3c0-1.2,0.3-2.3,1-3.3s1.9-1.7,3.7-2.3c1.8-0.6,4.2-1.1,7.2-1.4
		c3-0.3,6.8-0.5,11.3-0.5c4.6,0,8.4,0.2,11.3,0.5c3,0.3,5.3,0.8,7.1,1.4c1.7,0.6,3,1.4,3.7,2.3c0.8,0.9,1.1,2,1.1,3.3V2252.6z"/>
	<path class="st2" d="M4291.7,2102.1c0,4.5-0.1,8.1-0.4,11c-0.3,2.8-0.6,5.1-1.1,6.7c-0.5,1.6-1.1,2.7-1.9,3.3
		c-0.8,0.6-1.8,0.9-3.1,0.9c-1,0-2.1-0.2-3.3-0.7c-1.2-0.4-2.6-0.9-4.2-1.4c-1.6-0.5-3.2-1-5.1-1.4c-1.9-0.4-3.9-0.7-6.1-0.7
		c-2.6,0-5.2,0.5-7.8,1.6c-2.6,1.1-5.3,2.7-8.1,4.9c-2.8,2.2-5.7,5.2-8.7,8.9c-3,3.7-6.3,8.3-9.8,13.8v103.4c0,1.2-0.4,2.3-1.1,3.2
		c-0.7,0.9-2,1.7-3.8,2.3c-1.8,0.6-4.2,1.1-7.2,1.4c-3,0.3-6.8,0.5-11.3,0.5c-4.6,0-8.4-0.2-11.3-0.5c-3-0.3-5.4-0.8-7.2-1.4
		c-1.8-0.6-3.1-1.4-3.8-2.3c-0.7-0.9-1.1-2-1.1-3.2v-165.9c0-1.2,0.3-2.3,0.9-3.3c0.6-0.9,1.7-1.7,3.3-2.3c1.6-0.6,3.7-1.1,6.2-1.4
		c2.5-0.3,5.7-0.5,9.6-0.5c4,0,7.2,0.2,9.9,0.5c2.6,0.3,4.6,0.8,6,1.4c1.4,0.6,2.4,1.4,3.1,2.3c0.6,0.9,0.9,2,0.9,3.3v20.6
		c4.3-6.2,8.4-11.3,12.3-15.3c3.8-4,7.5-7.2,11-9.6c3.5-2.3,6.9-4,10.4-4.9c3.5-0.9,6.9-1.4,10.4-1.4c1.6,0,3.3,0.1,5.2,0.3
		c1.9,0.2,3.8,0.5,5.8,0.9c2,0.4,3.7,0.9,5.2,1.5c1.5,0.6,2.6,1.2,3.3,1.8c0.7,0.6,1.2,1.3,1.5,2.1c0.3,0.7,0.6,1.8,0.8,3.1
		s0.4,3.2,0.6,5.9C4291.6,2094.2,4291.7,2097.7,4291.7,2102.1"/>
	<path class="st2" d="M4483.6,2168c0,14.1-1.9,27-5.6,38.7c-3.7,11.6-9.4,21.7-16.9,30.1c-7.6,8.4-17,14.9-28.5,19.5
		c-11.4,4.6-24.7,6.9-40,6.9c-14.8,0-27.6-2-38.5-6.1s-20-10-27.1-17.9c-7.2-7.8-12.5-17.4-16-28.8c-3.5-11.4-5.2-24.4-5.2-39
		c0-14.1,1.9-27.1,5.7-38.8c3.8-11.7,9.5-21.8,17-30.1c7.6-8.4,17-14.8,28.4-19.4c11.3-4.6,24.6-6.9,39.9-6.9c14.9,0,27.8,2,38.7,6
		c10.9,4,19.9,10,27.1,17.8c7.1,7.8,12.4,17.4,15.9,28.8C4481.9,2140.2,4483.6,2153.2,4483.6,2168 M4435.4,2169.8
		c0-8.2-0.7-15.7-1.9-22.6c-1.3-6.9-3.5-12.9-6.6-17.9c-3.1-5.1-7.2-9.1-12.4-11.9c-5.1-2.8-11.6-4.3-19.4-4.3
		c-6.9,0-13,1.3-18.2,3.8c-5.2,2.5-9.5,6.3-12.8,11.2c-3.3,4.9-5.9,10.8-7.5,17.7c-1.7,6.9-2.5,14.7-2.5,23.5c0,8.2,0.7,15.7,2,22.6
		c1.4,6.9,3.6,12.9,6.6,17.9c3,5.1,7.2,9,12.4,11.8c5.2,2.8,11.6,4.2,19.3,4.2c7.1,0,13.2-1.3,18.4-3.8c5.2-2.5,9.5-6.2,12.8-11.1
		c3.3-4.8,5.8-10.7,7.4-17.6C4434.6,2186.5,4435.4,2178.6,4435.4,2169.8"/>
</g>
</svg>
