<?xml version="1.0" encoding="utf-8"?>
<svg version="1.1" id="Layer_1" xmlns="http://www.w3.org/2000/svg" xmlns:xlink="http://www.w3.org/1999/xlink" x="0px" y="0px"
	 viewBox="0 0 280.7 93.8" style="enable-background:new 0 0 280.7 93.8;" xml:space="preserve">
<style type="text/css">
	.st0{fill-rule:evenodd;clip-rule:evenodd;fill:url(#SVGID_1_);}
	.st1{fill-rule:evenodd;clip-rule:evenodd;fill:url(#SVGID_00000116925212591016186970000016149044707255130286_);}
	.st2{fill-rule:evenodd;clip-rule:evenodd;fill:url(#SVGID_00000178885094114265522850000012006425043603219628_);}
	.st3{fill-rule:evenodd;clip-rule:evenodd;fill:url(#SVGID_00000059278520123334923860000016077442310790723975_);}
	.st4{fill-rule:evenodd;clip-rule:evenodd;fill:url(#SVGID_00000009576086185055024160000008309843988241897145_);}
	.st5{fill-rule:evenodd;clip-rule:evenodd;fill:url(#SVGID_00000099638637953447585860000007022550969671479170_);}
</style>
<g>
	
		<linearGradient id="SVGID_1_" gradientUnits="userSpaceOnUse" x1="35.6676" y1="22.6085" x2="35.6676" y2="72.1585" gradientTransform="matrix(1 0 0 -1 0 95.2913)">
		<stop  offset="0" style="stop-color:#1B75BB"/>
		<stop  offset="0.995" style="stop-color:#224099"/>
	</linearGradient>
	<path class="st0" d="M17.1,47.7c0-5.7-0.1-11.4,0-17.1c0.1-5.2,2.2-7.4,7.3-7.4c7.5-0.1,15.1-0.1,22.6,0c5,0.1,7.2,2.4,7.3,7.5
		c0.1,11.4,0.1,22.8,0,34.1c0,5.4-2.3,7.7-7.5,7.8c-7.4,0.1-14.7,0.1-22.1,0c-5.2-0.1-7.5-2.5-7.5-7.8C17,59.1,17.1,53.4,17.1,47.7z
		 M29.5,50.9c0.3,0.1,0.6,0.2,0.9,0.3c3.2-5.1,6.5-10.2,9.9-15.5c-4,0-7.3,0-10.8,0C29.5,41,29.5,46,29.5,50.9z M41.7,46.6
		c-0.3-0.1-0.6-0.2-0.9-0.4C38,50.7,35.1,55.1,32,60c3.7,0,6.6,0,9.7,0C41.7,55.4,41.7,51,41.7,46.6z"/>
	
		<linearGradient id="SVGID_00000018201770304807036890000006140580502157957792_" gradientUnits="userSpaceOnUse" x1="202.1511" y1="18.6673" x2="202.1511" y2="72.1313" gradientTransform="matrix(1 0 0 -1 0 95.2913)">
		<stop  offset="0" style="stop-color:#1B75BB"/>
		<stop  offset="0.995" style="stop-color:#224099"/>
	</linearGradient>
	<path style="fill-rule:evenodd;clip-rule:evenodd;fill:url(#SVGID_00000018201770304807036890000006140580502157957792_);" d="
		M181.2,23.2c10.6,0,20.8-0.1,31,0.1c4.1,0.1,5.9,2.9,6,6.7c0.1,5.7,0.2,11.4-0.2,17.1c-0.3,3.9-1.6,6-5.6,7
		c2.7,5.5,7,14.9,10.8,22.7c-4.9,0-14.2,0-14.2,0l-11.1-22.7c0,0-2.2,0.1-4.5,0c-0.3,0.1-0.1,13.5-0.1,18.4c-4.2,0-7.9,0-12,0
		c0-10,0-20,0-30.5c7.9,0,15.9,0,24.4,0c0.1-2.2,0.2-4,0.3-6.4c-5.5,0-21.8,0-21.8,0s-3.1-5.1-3-5.2
		C181.2,29.4,181.2,23.1,181.2,23.2z"/>
	
		<linearGradient id="SVGID_00000062878166897657338940000014798637989715442310_" gradientUnits="userSpaceOnUse" x1="103.9023" y1="22.9333" x2="103.9023" y2="78.2835" gradientTransform="matrix(1 0 0 -1 0 95.2913)">
		<stop  offset="0" style="stop-color:#1B75BB"/>
		<stop  offset="0.995" style="stop-color:#224099"/>
	</linearGradient>
	<path style="fill-rule:evenodd;clip-rule:evenodd;fill:url(#SVGID_00000062878166897657338940000014798637989715442310_);" d="
		M112.6,41.7c2.2-4.4,10-19.8,10-19.8s12.4,0,12.6,0c0,0-16.4,38.3-22.4,50.5c-2.3-4.4-4.2-7.9-6.3-12c-2.2,4.1-4,7.7-6.3,12.1
		C90.9,53.7,82,35.8,72.7,17.1c5,0,14.6-0.1,14.6-0.1s9,17.2,12.8,24.7c2.2-4.2,4.1-7.8,6.3-12C108.5,33.8,110.4,37.3,112.6,41.7z"
		/>
	
		<linearGradient id="SVGID_00000057827203568061106460000002163519644687898810_" gradientUnits="userSpaceOnUse" x1="243.8398" y1="22.7733" x2="243.8398" y2="72.2645" gradientTransform="matrix(1 0 0 -1 0 95.2913)">
		<stop  offset="0" style="stop-color:#1B75BB"/>
		<stop  offset="0.995" style="stop-color:#224099"/>
	</linearGradient>
	<path style="fill-rule:evenodd;clip-rule:evenodd;fill:url(#SVGID_00000057827203568061106460000002163519644687898810_);" d="
		M224,23.1h3.6c0,0,18.8-0.1,28.1,0c5.7,0,8,2.2,8,7.8c0.1,11.2,0.1,22.4,0,33.7c0,5.6-2.3,7.9-7.9,8c-9.5,0.1-19.1,0-29,0
		c0-10.6,0-20.6,0-30.8c3.9,0,7.5,0,11.8,0c0,6,0,11.9,0,18.2c4.5,0,8.4,0,12.6,0c0-8.1,0-16.1,0-24.6c-5.5,0-20.7-0.2-20.7-0.2"/>
	
		<linearGradient id="SVGID_00000173853732930909737670000016492509794849427902_" gradientUnits="userSpaceOnUse" x1="156.3523" y1="22.9334" x2="156.3523" y2="72.4611" gradientTransform="matrix(1 0 0 -1 0 95.2913)">
		<stop  offset="0" style="stop-color:#1B75BB"/>
		<stop  offset="0.995" style="stop-color:#224099"/>
	</linearGradient>
	<path style="fill-rule:evenodd;clip-rule:evenodd;fill:url(#SVGID_00000173853732930909737670000016492509794849427902_);" d="
		M137.8,41.5c4.3,0,7.9,0,12.3,0c0,3.2,0,6.1,0,9.1c0,3,0,5.9,0,9.2c4.3,0,8.1,0,12.7,0c0-3,0-5.9,0-8.9c0-3,0-6,0-9.3
		c4.2,0,7.9,0,12.2,0c0,8.3,0.2,16.5-0.1,24.6c-0.1,3.6-2.6,5.9-6.3,6c-8,0.2-16.1,0.2-24.1,0c-4.2-0.1-6.6-2.5-6.6-6.7
		C137.7,57.7,137.8,49.8,137.8,41.5z M174.7,34.7c0.2-10.5-1-11.8-10.9-11.8c-5.2,0-10.4,0-15.6,0c-9.7,0-11.2,1.7-10.2,11.8
		C150.6,34.7,162.6,34.7,174.7,34.7z"/>
	
		<linearGradient id="SVGID_00000062893528836120568750000011714150271918060957_" gradientUnits="userSpaceOnUse" x1="70.2523" y1="22.6835" x2="70.2523" y2="49.8403" gradientTransform="matrix(1 0 0 -1 0 95.2913)">
		<stop  offset="0" style="stop-color:#1B75BB"/>
		<stop  offset="0.995" style="stop-color:#224099"/>
	</linearGradient>
	
		<polyline style="fill-rule:evenodd;clip-rule:evenodd;fill:url(#SVGID_00000062893528836120568750000011714150271918060957_);" points="
		58.3,45.5 65.8,45.5 70.3,55 74.8,45.5 82.3,45.5 76.3,59 82.3,72.6 74.8,72.6 70.3,63.1 65.8,72.6 58.3,72.6 64.3,59 	"/>
</g>
</svg>
