<?xml version="1.0" encoding="utf-8"?>
<!-- Generator: Adobe Illustrator 22.1.0, SVG Export Plug-In . SVG Version: 6.00 Build 0)  -->
<svg version="1.1" id="Layer_1" xmlns="http://www.w3.org/2000/svg" xmlns:xlink="http://www.w3.org/1999/xlink" x="0px" y="0px"
	 viewBox="0 0 258.6 59.6" style="enable-background:new 0 0 258.6 59.6;" xml:space="preserve">
<style type="text/css">
	.st0{fill-rule:evenodd;clip-rule:evenodd;fill:url(#SVGID_1_);}
	.st1{fill-rule:evenodd;clip-rule:evenodd;fill:url(#SVGID_2_);}
	.st2{fill-rule:evenodd;clip-rule:evenodd;fill:url(#SVGID_3_);}
	.st3{fill-rule:evenodd;clip-rule:evenodd;fill:url(#SVGID_4_);}
	.st4{fill-rule:evenodd;clip-rule:evenodd;fill:url(#SVGID_5_);}
	.st5{fill-rule:evenodd;clip-rule:evenodd;fill:url(#SVGID_6_);}
	.st6{fill-rule:evenodd;clip-rule:evenodd;fill:url(#SVGID_7_);}
	.st7{fill-rule:evenodd;clip-rule:evenodd;fill:url(#SVGID_8_);}
	.st8{fill-rule:evenodd;clip-rule:evenodd;fill:url(#SVGID_9_);}
	.st9{fill-rule:evenodd;clip-rule:evenodd;fill:url(#SVGID_10_);}
</style>
<g>
	<linearGradient id="SVGID_1_" gradientUnits="userSpaceOnUse" x1="30.5834" y1="55.6487" x2="30.5834" y2="6.0913">
		<stop  offset="0" style="stop-color:#1B75BB"/>
		<stop  offset="0.995" style="stop-color:#224099"/>
	</linearGradient>
	<path class="st0" d="M12,30.7c0-5.7-0.1-11.4,0-17.1c0.1-5.2,2.2-7.4,7.3-7.4c7.5-0.1,15.1-0.1,22.6,0c5,0.1,7.2,2.4,7.3,7.5
		c0.1,11.4,0.1,22.8,0,34.1c0,5.4-2.3,7.7-7.5,7.8c-7.4,0.1-14.7,0.1-22.1,0c-5.2-0.1-7.5-2.5-7.5-7.8C11.9,42.1,12,36.4,12,30.7z
		 M24.4,33.9c0.3,0.1,0.6,0.2,0.9,0.3c3.2-5.1,6.5-10.2,9.9-15.5c-4,0-7.3,0-10.8,0C24.4,24,24.4,29,24.4,33.9z M36.6,29.6
		c-0.3-0.1-0.6-0.2-0.9-0.4c-2.8,4.5-5.7,8.9-8.8,13.8c3.7,0,6.6,0,9.7,0C36.6,38.4,36.6,34,36.6,29.6z"/>
	<linearGradient id="SVGID_2_" gradientUnits="userSpaceOnUse" x1="197.0576" y1="59.6162" x2="197.0576" y2="6.1522">
		<stop  offset="0" style="stop-color:#1B75BB"/>
		<stop  offset="0.995" style="stop-color:#224099"/>
	</linearGradient>
	<path class="st1" d="M176.1,6.2c10.6,0,20.8-0.1,31,0.1c4.1,0.1,5.9,2.9,6,6.7c0.1,5.7,0.2,11.4-0.2,17.1c-0.3,3.9-1.6,6-5.6,7
		c2.7,5.5,7,14.9,10.8,22.7c-4.9,0-14.2,0-14.2,0l-11.1-22.7c0,0-2.2,0.1-4.5,0c-0.3,0.1-0.1,13.5-0.1,18.4c-4.2,0-7.9,0-12,0
		c0-10,0-20,0-30.5c7.9,0,15.9,0,24.4,0c0.1-2.2,0.2-4,0.3-6.4c-5.5,0-21.8,0-21.8,0s-3.1-5.1-3-5.2C176.1,12.4,176.1,6.1,176.1,6.2
		z"/>
	<linearGradient id="SVGID_3_" gradientUnits="userSpaceOnUse" x1="98.8477" y1="55.3501" x2="98.8477" y2="0">
		<stop  offset="0" style="stop-color:#1B75BB"/>
		<stop  offset="0.995" style="stop-color:#224099"/>
	</linearGradient>
	<path class="st2" d="M107.5,24.7c2.2-4.4,10-19.8,10-19.8s12.4,0,12.6,0c0,0-16.4,38.3-22.4,50.5c-2.3-4.4-4.2-7.9-6.3-12
		c-2.2,4.1-4,7.7-6.3,12.1C85.8,36.7,76.9,18.8,67.6,0.1C72.6,0.1,82.2,0,82.2,0s9,17.2,12.8,24.7c2.2-4.2,4.1-7.8,6.3-12
		C103.4,16.8,105.3,20.3,107.5,24.7z"/>
	<linearGradient id="SVGID_4_" gradientUnits="userSpaceOnUse" x1="238.7156" y1="55.5102" x2="238.7156" y2="6.019">
		<stop  offset="0" style="stop-color:#1B75BB"/>
		<stop  offset="0.995" style="stop-color:#224099"/>
	</linearGradient>
	<path class="st3" d="M218.9,6.1c0,0,3.6,0,3.6,0s18.8-0.1,28.1,0c5.7,0,8,2.2,8,7.8c0.1,11.2,0.1,22.4,0,33.7c0,5.6-2.3,7.9-7.9,8
		c-9.5,0.1-19.1,0-29,0c0-10.6,0-20.6,0-30.8c3.9,0,7.5,0,11.8,0c0,6,0,11.9,0,18.2c4.5,0,8.4,0,12.6,0c0-8.1,0-16.1,0-24.6
		c-5.5,0-20.7-0.2-20.7-0.2"/>
	<linearGradient id="SVGID_5_" gradientUnits="userSpaceOnUse" x1="151.2572" y1="55.3501" x2="151.2572" y2="5.8225">
		<stop  offset="0" style="stop-color:#1B75BB"/>
		<stop  offset="0.995" style="stop-color:#224099"/>
	</linearGradient>
	<path class="st4" d="M132.7,24.5c4.3,0,7.9,0,12.3,0c0,3.2,0,6.1,0,9.1c0,3,0,5.9,0,9.2c4.3,0,8.1,0,12.7,0c0-3,0-5.9,0-8.9
		c0-3,0-6,0-9.3c4.2,0,7.9,0,12.2,0c0,8.3,0.2,16.5-0.1,24.6c-0.1,3.6-2.6,5.9-6.3,6c-8,0.2-16.1,0.2-24.1,0
		c-4.2-0.1-6.6-2.5-6.6-6.7C132.6,40.7,132.7,32.8,132.7,24.5z M169.6,17.7c0.2-10.5-1-11.8-10.9-11.8c-5.2,0-10.4,0-15.6,0
		c-9.7,0-11.2,1.7-10.2,11.8C145.5,17.7,157.5,17.7,169.6,17.7z"/>
	<linearGradient id="SVGID_6_" gradientUnits="userSpaceOnUse" x1="0" y1="15.3476" x2="0" y2="15.3476">
		<stop  offset="0" style="stop-color:#1B75BB"/>
		<stop  offset="0.995" style="stop-color:#224099"/>
	</linearGradient>
	<path class="st5" d="M0,15.3"/>
	<linearGradient id="SVGID_7_" gradientUnits="userSpaceOnUse" x1="65.2471" y1="55.6167" x2="65.2471" y2="28.4599">
		<stop  offset="0" style="stop-color:#1B75BB"/>
		<stop  offset="0.995" style="stop-color:#224099"/>
	</linearGradient>
	<polyline class="st6" points="53.2,28.5 60.7,28.5 65.2,38 69.7,28.5 77.2,28.5 71.2,42 77.2,55.6 69.7,55.6 65.2,46.1 60.7,55.6 
		53.2,55.6 59.2,42 	"/>
	<linearGradient id="SVGID_8_" gradientUnits="userSpaceOnUse" x1="120.4493" y1="7.8813" x2="120.4493" y2="7.8813">
		<stop  offset="0" style="stop-color:#1B75BB"/>
		<stop  offset="0.995" style="stop-color:#224099"/>
	</linearGradient>
	<path class="st7" d="M120.4,7.9"/>
	<linearGradient id="SVGID_9_" gradientUnits="userSpaceOnUse" x1="0" y1="15.3476" x2="0" y2="15.3476">
		<stop  offset="0" style="stop-color:#1B75BB"/>
		<stop  offset="0.995" style="stop-color:#224099"/>
	</linearGradient>
	<path class="st8" d="M0,15.3"/>
	<linearGradient id="SVGID_10_" gradientUnits="userSpaceOnUse" x1="120.4493" y1="7.8813" x2="120.4493" y2="7.8813">
		<stop  offset="0" style="stop-color:#1B75BB"/>
		<stop  offset="0.995" style="stop-color:#224099"/>
	</linearGradient>
	<path class="st9" d="M120.4,7.9"/>
</g>
</svg>
