<?xml version="1.0" encoding="UTF-8" standalone="no"?>
<svg
   xmlns:dc="http://purl.org/dc/elements/1.1/"
   xmlns:cc="http://creativecommons.org/ns#"
   xmlns:rdf="http://www.w3.org/1999/02/22-rdf-syntax-ns#"
   xmlns:svg="http://www.w3.org/2000/svg"
   xmlns="http://www.w3.org/2000/svg"
   viewBox="0 0 415.74133 415.74133"
   height="415.74133"
   width="415.74133"
   xml:space="preserve"
   id="svg2"
   version="1.1"><metadata
     id="metadata8"><rdf:RDF><cc:Work
         rdf:about=""><dc:format>image/svg+xml</dc:format><dc:type
           rdf:resource="http://purl.org/dc/dcmitype/StillImage" /></cc:Work></rdf:RDF></metadata><defs
     id="defs6"><clipPath
       id="clipPath18"
       clipPathUnits="userSpaceOnUse"><path
         id="path16"
         d="M 0,311.806 H 311.806 V 0 H 0 Z" /></clipPath></defs><g
     transform="matrix(1.3333333,0,0,-1.3333333,0,415.74133)"
     id="g10"><g
       id="g12"><g
         clip-path="url(#clipPath18)"
         id="g14"><g
           transform="translate(132.2983,137.5479)"
           id="g20"><path
             id="path22"
             style="fill:#c5c6c8;fill-opacity:1;fill-rule:nonzero;stroke:none"
             d="m 0,0 c -11.985,0 -20.974,8.613 -20.974,22.595 0,12.485 7.491,22.846 21.349,22.846 5.992,0 10.112,-1.497 12.733,-2.871 l 2.497,8.364 C 12.609,52.558 6.866,54.18 0.375,54.18 -19.35,54.18 -32.084,40.573 -32.084,21.971 -32.084,4.355 -21.3,-7.689 -4.5,-8.775 L 4.568,0.293 C 3.181,0.109 1.668,0 0,0" /></g><g
           transform="translate(178.8628,191.728)"
           id="g24"><path
             id="path26"
             style="fill:#c5c6c8;fill-opacity:1;fill-rule:nonzero;stroke:none"
             d="m 0,0 c -12.859,0 -20.849,-7.99 -20.849,-17.728 0,-7.24 5.119,-13.108 16.105,-17.103 7.99,-2.997 11.111,-5.743 11.111,-10.986 0,-5.117 -3.746,-8.988 -11.61,-8.988 -0.491,0 -0.986,0.023 -1.479,0.058 l -7.314,-7.314 c 2.661,-0.623 5.55,-0.982 8.543,-0.982 14.106,0 22.472,7.488 22.472,18.224 0,8.99 -5.493,14.233 -15.855,18.103 -7.865,3.121 -11.361,5.368 -11.361,10.362 0,4.495 3.496,8.24 9.987,8.24 1.31,0 2.547,-0.119 3.711,-0.315 l 6.801,6.8 C 7.357,-0.635 3.825,0 0,0" /></g><g
           transform="translate(241.7808,150.4063)"
           id="g28"><path
             id="path30"
             style="fill:#ff8200;fill-opacity:1;fill-rule:nonzero;stroke:none"
             d="m 0,0 c 0,-0.998 -0.125,-2.247 -0.499,-3.497 -1.748,-5.117 -6.866,-10.111 -14.856,-10.111 -5.494,0 -10.238,3.246 -10.238,10.486 0,11.735 13.609,13.858 25.593,13.608 z m 10.611,-5.868 v 22.596 c 0,11.985 -4.494,24.594 -22.969,24.594 -0.879,0 -1.753,-0.031 -2.621,-0.086 L -25.034,31.181 c 3.402,1.313 7.253,2.027 11.052,2.027 12.359,0.124 13.733,-8.99 13.733,-13.858 v -1.249 c -23.346,0.125 -36.329,-7.864 -36.329,-22.471 0,-8.738 6.242,-17.352 18.476,-17.352 8.615,0 15.106,4.244 18.476,8.989 h 0.375 l 0.874,-7.616 h 9.862 c -0.624,4.12 -0.874,9.237 -0.874,14.481" /></g><g
           transform="translate(207.3306,208.397)"
           id="g32"><path
             id="path34"
             style="fill:none;stroke:#c5c6c8;stroke-width:3;stroke-linecap:round;stroke-linejoin:miter;stroke-miterlimit:4;stroke-dasharray:none;stroke-opacity:1"
             d="M 0,0 -98.875,-98.456" /></g><g
           transform="translate(163.6353,201.7734)"
           id="g36"><path
             id="path38"
             style="fill:none;stroke:#c5c6c8;stroke-width:1;stroke-linecap:round;stroke-linejoin:miter;stroke-miterlimit:4;stroke-dasharray:none;stroke-opacity:1"
             d="m 0,0 c -16.647,14.214 -41.445,15.751 -59.932,2.317 -21.652,-15.732 -26.45,-46.037 -10.72,-67.691 15.735,-21.649 46.041,-26.448 67.692,-10.717 12.72,9.244 19.623,23.518 19.964,38.112" /></g><g
           transform="translate(159.2632,197.7466)"
           id="g40"><path
             id="path42"
             style="fill:none;stroke:#c5c6c8;stroke-width:1;stroke-linecap:round;stroke-linejoin:miter;stroke-miterlimit:4;stroke-dasharray:none;stroke-opacity:1"
             d="m 0,0 c -19.57,16.712 -48.725,18.519 -70.46,2.724 -25.453,-18.496 -31.094,-54.126 -12.6,-79.581 18.497,-25.452 54.126,-31.091 79.581,-12.599 14.954,10.867 23.071,27.648 23.469,44.805" /></g><g
           transform="translate(209.0073,208.5552)"
           id="g44"><path
             id="path46"
             style="fill:none;stroke:#c5c6c8;stroke-width:1;stroke-linecap:round;stroke-linejoin:miter;stroke-miterlimit:4;stroke-dasharray:none;stroke-opacity:1"
             d="m 0,0 c -25.852,22.075 -64.365,24.462 -93.079,3.6 -33.623,-24.435 -41.075,-71.502 -16.643,-105.126 24.434,-33.625 71.498,-41.076 105.127,-16.646 19.754,14.357 30.473,36.524 31.002,59.187" /></g></g></g></g></svg>