<svg xmlns="http://www.w3.org/2000/svg" xmlns:xlink="http://www.w3.org/1999/xlink" version="1.1" width="467.625pt" height="169pt" viewBox="0 0 467.625 169">
<defs>
<clipPath id="clip_0">
<path transform="matrix(1,0,0,-1,0,169)" d="M0 169H467.625V0H0Z"/>
</clipPath>
</defs>
<g id="layer_1" data-name="">
<path transform="matrix(1,0,0,-1,48.2715,-.00019836426)" d="M0 0-48.271-44.011V-74.414L0-34.088Z" fill="#002e5d"/>
<path transform="matrix(1,0,0,-1,48.267,34.093599)" d="M0 0-.01 .006V-.008L-48.267-40.32-28.735-47.47 0-23.465 28.358-47.608 48.262-40.32 .005-.008V.006Z" fill="#00bfb3"/>
<path transform="matrix(1,0,0,-1,11.0898,88.6156)" d="M0 0 37.182-80.384V31.057Z" fill="#002e5d"/>
<path transform="matrix(1,0,0,-1,120.7114,47.997598)" d="M0 0H37.12V-12.313H24.623V-47.167H12.249V-12.313H0Z" fill="#00bfb3"/>
<path transform="matrix(1,0,0,-1,179.8208,78.5854)" d="M0 0H9.604L4.834 10.364ZM-20.041-16.579 1.941 30.522H7.535L29.707-16.579H17.33L14.44-10.424H-4.844L-7.667-16.579Z" fill="#00bfb3"/>
<g clip-path="url(#clip_0)">
<path transform="matrix(1,0,0,-1,228.1831,71.9878)" d="M0 0H7.663C11.435 0 14.446 2.951 14.446 6.72 14.446 10.487 11.435 13.499 7.663 13.499H0ZM14.95-23.176 7.663-10.676H0V-23.176H-12.372V23.925H7.478C17.028 23.925 24.813 16.137 24.813 6.594 24.813 1.569 22.612-2.953 19.224-6.095L29.21-23.176Z" fill="#00bfb3"/>
<path transform="matrix(1,0,0,-1,263.4829,48.063005)" d="M0 0H12.379V-34.666H29.334V-47.101H0Z" fill="#00bfb3"/>
<path transform="matrix(1,0,0,-1,322.3384,60.373498)" d="M0 0C-6.154 0-11.178-5.021-11.178-11.24-11.178-17.397-6.154-22.481 0-22.481 6.221-22.481 11.252-17.397 11.252-11.24 11.252-5.021 6.221 0 0 0M0 12.311C13.002 12.311 23.553 1.697 23.553-11.301 23.553-24.304 13.002-34.791 0-34.791-12.996-34.791-23.488-24.304-23.488-11.301-23.488 1.697-12.996 12.311 0 12.311" fill="#00bfb3"/>
<path transform="matrix(1,0,0,-1,399.9146,69.8569)" d="M0 0V-1.757C0-14.756-10.557-25.307-23.559-25.307-36.553-25.307-47.047-14.756-47.047-1.757-47.047 11.245-36.553 21.794-23.559 21.794-17.086 21.794-11.246 19.158-6.98 14.95L-15.703 6.285C-17.711 8.166-20.352 9.425-23.559 9.425-29.457 9.425-34.674 4.711-34.674-1.757-34.674-8.226-29.336-12.937-23.559-12.937-19.846-12.937-16.396-11.114-14.453-8.291H-23.559V0Z" fill="#00bfb3"/>
<path transform="matrix(1,0,0,-1,0,169)" d="M406.639 120.937H419.01603V73.836H406.639Z" fill="#00bfb3"/>
<path transform="matrix(1,0,0,-1,458.8306,63.6353)" d="M0 0C-1.943 1.944-4.711 3.076-7.914 3.076-14.322 3.076-18.965-1.57-18.965-7.979-18.965-14.387-14.322-19.028-7.914-19.028-4.711-19.028-1.943-17.902 0-15.89L8.795-24.558C4.518-28.826-1.381-31.529-7.914-31.529-20.914-31.529-31.471-20.978-31.471-7.979-31.471 5.023-20.914 15.572-7.914 15.572-1.447 15.572 4.393 12.999 8.668 8.729Z" fill="#00bfb3"/>
<path transform="matrix(1,0,0,-1,141.7681,116.376)" d="M0 0C-.084 .325-.2 .624-.347 .897-.494 1.171-.683 1.407-.914 1.606-1.145 1.806-1.415 1.961-1.725 2.071-2.035 2.181-2.394 2.236-2.804 2.236-3.402 2.236-3.919 2.116-4.355 1.874-4.791 1.632-5.145 1.31-5.418 .905-5.691 .501-5.893 .042-6.024-.473-6.156-.987-6.221-1.513-6.221-2.048-6.221-2.583-6.156-3.108-6.024-3.622-5.893-4.138-5.691-4.597-5.418-5.001-5.145-5.405-4.791-5.728-4.355-5.97-3.919-6.211-3.402-6.331-2.804-6.331-2.363-6.331-1.974-6.256-1.638-6.104-1.302-5.951-1.014-5.741-.772-5.474-.53-5.206-.341-4.894-.205-4.536-.068-4.179 .021-3.796 .063-3.386H1.984C1.942-4.059 1.798-4.673 1.551-5.229 1.305-5.786 .971-6.267 .551-6.671 .131-7.075-.362-7.387-.929-7.607-1.496-7.828-2.121-7.938-2.804-7.938-3.644-7.938-4.397-7.783-5.063-7.474-5.73-7.164-6.295-6.741-6.757-6.206-7.219-5.67-7.573-5.046-7.82-4.331-8.067-3.618-8.19-2.856-8.19-2.048-8.19-1.25-8.067-.493-7.82 .22-7.573 .935-7.219 1.56-6.757 2.095-6.295 2.63-5.73 3.056-5.063 3.37-4.397 3.686-3.644 3.843-2.804 3.843-2.173 3.843-1.581 3.757-1.024 3.583-.467 3.409 .023 3.157 .449 2.827 .874 2.496 1.218 2.095 1.48 1.622 1.743 1.149 1.906 .608 1.969 0Z" fill="#00bfb3"/>
<path transform="matrix(1,0,0,-1,151.8789,119.6367)" d="M0 0-4.221 6.836H-1.937L1.04 1.796 3.969 6.836H6.174L1.969 0V-4.41H0Z" fill="#00bfb3"/>
<path transform="matrix(1,0,0,-1,164.5264,122.4395)" d="M0 0H3.481C4.08 0 4.544 .154 4.875 .465 5.206 .773 5.371 1.213 5.371 1.779 5.371 2.336 5.206 2.764 4.875 3.063 4.544 3.362 4.08 3.512 3.481 3.512H0ZM0 4.93H3.213C3.686 4.93 4.08 5.062 4.395 5.331 4.709 5.599 4.867 5.984 4.867 6.488 4.867 7.056 4.725 7.455 4.442 7.686 4.158 7.916 3.749 8.032 3.213 8.032H0ZM-1.969 9.639H3.497C4.505 9.639 5.313 9.408 5.922 8.945 6.531 8.483 6.836 7.785 6.836 6.851 6.836 6.283 6.696 5.798 6.418 5.395 6.14 4.99 5.744 4.678 5.229 4.457V4.426C5.922 4.278 6.447 3.95 6.804 3.441 7.161 2.932 7.34 2.293 7.34 1.527 7.34 1.086 7.261 .674 7.104 .291 6.946-.092 6.699-.424 6.363-.701 6.027-.979 5.597-1.2 5.072-1.363 4.546-1.525 3.922-1.607 3.197-1.607H-1.969Z" fill="#00bfb3"/>
<path transform="matrix(1,0,0,-1,177.0474,112.8008)" d="M0 0H8.096V-1.701H1.969V-4.646H7.639V-6.253H1.969V-9.545H8.206V-11.246H0Z" fill="#00bfb3"/>
<path transform="matrix(1,0,0,-1,192.3403,117.9199)" d="M0 0H3.229C3.859 0 4.336 .15 4.662 .449 4.988 .748 5.15 1.197 5.15 1.796 5.15 2.152 5.098 2.443 4.993 2.67 4.888 2.896 4.744 3.072 4.56 3.197 4.376 3.324 4.166 3.407 3.93 3.449 3.693 3.491 3.45 3.513 3.197 3.513H0ZM-1.969 5.119H3.402C4.641 5.119 5.57 4.852 6.19 4.316 6.81 3.78 7.119 3.035 7.119 2.079 7.119 1.544 7.041 1.1 6.883 .748 6.726 .396 6.542 .113 6.332-.102 6.122-.317 5.915-.473 5.709-.566 5.505-.661 5.355-.725 5.261-.756V-.787C5.429-.809 5.61-.861 5.804-.945 5.998-1.029 6.179-1.162 6.348-1.346 6.515-1.53 6.655-1.77 6.765-2.063 6.875-2.357 6.93-2.725 6.93-3.166 6.93-3.827 6.98-4.428 7.08-4.969 7.18-5.51 7.334-5.896 7.544-6.127H5.434C5.287-5.885 5.2-5.617 5.174-5.323 5.148-5.029 5.135-4.746 5.135-4.473 5.135-3.959 5.103-3.515 5.04-3.142 4.977-2.77 4.861-2.459 4.694-2.213 4.526-1.966 4.297-1.785 4.009-1.67 3.72-1.554 3.35-1.496 2.898-1.496H0V-6.127H-1.969Z" fill="#00bfb3"/>
<path transform="matrix(1,0,0,-1,206.1528,120.2979)" d="M0 0C0-.431 .074-.798 .221-1.103 .368-1.407 .572-1.656 .835-1.851 1.097-2.045 1.399-2.187 1.741-2.276 2.082-2.365 2.452-2.409 2.851-2.409 3.281-2.409 3.649-2.36 3.954-2.261 4.258-2.161 4.505-2.032 4.694-1.874 4.883-1.717 5.019-1.536 5.103-1.331 5.187-1.126 5.229-.919 5.229-.709 5.229-.278 5.132 .04 4.938 .244 4.744 .448 4.531 .593 4.3 .677 3.901 .824 3.436 .964 2.906 1.095 2.376 1.226 1.722 1.396 .945 1.606 .462 1.732 .061 1.897-.26 2.103-.58 2.308-.834 2.536-1.023 2.788-1.212 3.04-1.346 3.308-1.425 3.591-1.504 3.874-1.543 4.163-1.543 4.457-1.543 5.024-1.425 5.515-1.189 5.93-.953 6.345-.64 6.688-.252 6.962 .137 7.234 .578 7.437 1.071 7.567 1.564 7.699 2.063 7.765 2.567 7.765 3.155 7.765 3.709 7.688 4.229 7.536 4.749 7.384 5.206 7.155 5.599 6.851 5.993 6.546 6.305 6.171 6.537 5.726 6.767 5.278 6.883 4.762 6.883 4.174H4.914C4.861 4.898 4.615 5.41 4.174 5.71 3.733 6.009 3.171 6.158 2.489 6.158 2.258 6.158 2.021 6.135 1.78 6.087 1.538 6.04 1.318 5.962 1.119 5.851 .919 5.741 .753 5.591 .623 5.402 .491 5.214 .425 4.978 .425 4.693 .425 4.294 .549 3.981 .795 3.757 1.042 3.53 1.365 3.36 1.764 3.245 1.806 3.233 1.971 3.189 2.26 3.11 2.549 3.032 2.872 2.945 3.229 2.851 3.586 2.757 3.935 2.664 4.276 2.575 4.617 2.485 4.861 2.42 5.009 2.378 5.376 2.263 5.696 2.104 5.969 1.905 6.242 1.706 6.471 1.478 6.655 1.221 6.838 .964 6.975 .687 7.064 .394 7.153 .1 7.198-.194 7.198-.488 7.198-1.118 7.069-1.656 6.812-2.103 6.555-2.55 6.216-2.913 5.796-3.197 5.376-3.481 4.898-3.688 4.363-3.819 3.828-3.95 3.281-4.017 2.725-4.017 2.084-4.017 1.481-3.938 .914-3.78 .347-3.622-.147-3.382-.567-3.056-.987-2.729-1.323-2.313-1.575-1.804-1.827-1.294-1.958-.692-1.969 0Z" fill="#00bfb3"/>
<path transform="matrix(1,0,0,-1,218.4697,112.8008)" d="M0 0H8.096V-1.701H1.969V-4.646H7.639V-6.253H1.969V-9.545H8.206V-11.246H0Z" fill="#00bfb3"/>
<path transform="matrix(1,0,0,-1,239.3853,116.376)" d="M0 0C-.084 .325-.199 .624-.346 .897-.494 1.171-.684 1.407-.914 1.606-1.145 1.806-1.416 1.961-1.725 2.071-2.034 2.181-2.394 2.236-2.803 2.236-3.401 2.236-3.919 2.116-4.354 1.874-4.791 1.632-5.145 1.31-5.417 .905-5.691 .501-5.893 .042-6.024-.473-6.155-.987-6.221-1.513-6.221-2.048-6.221-2.583-6.155-3.108-6.024-3.622-5.893-4.138-5.691-4.597-5.417-5.001-5.145-5.405-4.791-5.728-4.354-5.97-3.919-6.211-3.401-6.331-2.803-6.331-2.362-6.331-1.974-6.256-1.639-6.104-1.303-5.951-1.014-5.741-.771-5.474-.531-5.206-.342-4.894-.205-4.536-.068-4.179 .021-3.796 .062-3.386H1.984C1.941-4.059 1.799-4.673 1.551-5.229 1.305-5.786 .971-6.267 .551-6.671 .131-7.075-.363-7.387-.93-7.607-1.496-7.828-2.121-7.938-2.803-7.938-3.643-7.938-4.396-7.783-5.062-7.474-5.73-7.164-6.294-6.741-6.756-6.206-7.218-5.67-7.573-5.046-7.819-4.331-8.066-3.618-8.189-2.856-8.189-2.048-8.189-1.25-8.066-.493-7.819 .22-7.573 .935-7.218 1.56-6.756 2.095-6.294 2.63-5.73 3.056-5.062 3.37-4.396 3.686-3.643 3.843-2.803 3.843-2.173 3.843-1.58 3.757-1.023 3.583-.467 3.409 .023 3.157 .449 2.827 .875 2.496 1.219 2.095 1.48 1.622 1.742 1.149 1.906 .608 1.969 0Z" fill="#00bfb3"/>
<path transform="matrix(1,0,0,-1,246.4419,112.8008)" d="M0 0H1.969V-6.553C1.969-6.93 1.986-7.313 2.023-7.701 2.061-8.09 2.164-8.439 2.338-8.749 2.512-9.059 2.773-9.314 3.125-9.514 3.477-9.713 3.973-9.813 4.613-9.813 5.254-9.813 5.75-9.713 6.102-9.514 6.453-9.314 6.717-9.059 6.891-8.749 7.062-8.439 7.168-8.09 7.205-7.701 7.242-7.313 7.26-6.93 7.26-6.553V0H9.229V-7.197C9.229-7.922 9.119-8.553 8.898-9.088 8.678-9.623 8.365-10.072 7.961-10.435 7.557-10.797 7.07-11.067 6.504-11.246 5.937-11.424 5.307-11.514 4.613-11.514 3.922-11.514 3.291-11.424 2.725-11.246 2.156-11.067 1.672-10.797 1.268-10.435 .863-10.072 .551-9.623 .33-9.088 .109-8.553 0-7.922 0-7.197Z" fill="#00bfb3"/>
<path transform="matrix(1,0,0,-1,263.3091,117.9199)" d="M0 0H3.229C3.859 0 4.336 .15 4.662 .449 4.988 .748 5.15 1.197 5.15 1.796 5.15 2.152 5.098 2.443 4.992 2.67 4.889 2.896 4.744 3.072 4.561 3.197 4.377 3.324 4.166 3.407 3.93 3.449 3.693 3.491 3.449 3.513 3.197 3.513H0ZM-1.969 5.119H3.402C4.641 5.119 5.57 4.852 6.189 4.316 6.809 3.78 7.119 3.035 7.119 2.079 7.119 1.544 7.041 1.1 6.883 .748 6.725 .396 6.541 .113 6.332-.102 6.121-.317 5.914-.473 5.709-.566 5.504-.661 5.355-.725 5.26-.756V-.787C5.428-.809 5.609-.861 5.805-.945 5.998-1.029 6.18-1.162 6.348-1.346 6.516-1.53 6.654-1.77 6.766-2.063 6.875-2.357 6.93-2.725 6.93-3.166 6.93-3.827 6.98-4.428 7.08-4.969 7.18-5.51 7.334-5.896 7.545-6.127H5.434C5.287-5.885 5.199-5.617 5.174-5.323 5.148-5.029 5.135-4.746 5.135-4.473 5.135-3.959 5.104-3.515 5.041-3.142 4.977-2.77 4.861-2.459 4.693-2.213 4.525-1.966 4.297-1.785 4.008-1.67 3.719-1.554 3.35-1.496 2.898-1.496H0V-6.127H-1.969Z" fill="#00bfb3"/>
<path transform="matrix(1,0,0,-1,0,169)" d="M275.831 56.199H277.8V44.953004H275.831Z" fill="#00bfb3"/>
<path transform="matrix(1,0,0,-1,282.5396,112.8008)" d="M0 0H9.104V-1.701H5.529V-11.246H3.561V-1.701H0Z" fill="#00bfb3"/>
<path transform="matrix(1,0,0,-1,299.2837,119.6367)" d="M0 0-4.223 6.836H-1.937L1.039 1.796 3.969 6.836H6.174L1.969 0V-4.41H0Z" fill="#00bfb3"/>
<path transform="matrix(1,0,0,-1,317.7427,112.8008)" d="M0 0H8.096V-1.701H1.969V-4.646H7.639V-6.253H1.969V-9.545H8.205V-11.246H0Z" fill="#00bfb3"/>
<path transform="matrix(1,0,0,-1,330.0903,112.8008)" d="M0 0H2.346L4.898-3.969 7.559 0H9.764L6.047-5.418 10.031-11.246H7.639L4.834-6.945 1.984-11.246H-.268L3.717-5.418Z" fill="#00bfb3"/>
<path transform="matrix(1,0,0,-1,346.6431,118.125)" d="M0 0H2.881C3.102 0 3.328 .032 3.559 .096 3.789 .158 4.002 .26 4.197 .402 4.391 .544 4.549 .732 4.67 .969 4.789 1.205 4.85 1.502 4.85 1.859 4.85 2.227 4.797 2.531 4.693 2.772 4.588 3.014 4.445 3.205 4.268 3.348 4.088 3.489 3.885 3.586 3.652 3.639 3.422 3.691 3.176 3.718 2.912 3.718H0ZM-1.969 5.324H2.992C3.789 5.324 4.441 5.209 4.945 4.978 5.449 4.746 5.838 4.458 6.109 4.111 6.383 3.765 6.57 3.387 6.67 2.978 6.77 2.568 6.818 2.189 6.818 1.844 6.818 1.497 6.77 1.121 6.67 .717 6.57 .312 6.383-.062 6.109-.408 5.838-.756 5.449-1.041 4.945-1.268 4.441-1.493 3.789-1.605 2.992-1.605H0V-5.922H-1.969Z" fill="#00bfb3"/>
<path transform="matrix(1,0,0,-1,358.5806,112.8008)" d="M0 0H8.096V-1.701H1.969V-4.646H7.639V-6.253H1.969V-9.545H8.205V-11.246H0Z" fill="#00bfb3"/>
<path transform="matrix(1,0,0,-1,373.8735,117.9199)" d="M0 0H3.229C3.859 0 4.336 .15 4.662 .449 4.988 .748 5.15 1.197 5.15 1.796 5.15 2.152 5.098 2.443 4.992 2.67 4.889 2.896 4.744 3.072 4.561 3.197 4.377 3.324 4.166 3.407 3.93 3.449 3.693 3.491 3.449 3.513 3.197 3.513H0ZM-1.969 5.119H3.402C4.641 5.119 5.57 4.852 6.189 4.316 6.809 3.78 7.119 3.035 7.119 2.079 7.119 1.544 7.041 1.1 6.883 .748 6.725 .396 6.541 .113 6.332-.102 6.121-.317 5.914-.473 5.709-.566 5.504-.661 5.355-.725 5.26-.756V-.787C5.428-.809 5.609-.861 5.805-.945 5.998-1.029 6.18-1.162 6.348-1.346 6.516-1.53 6.654-1.77 6.766-2.063 6.875-2.357 6.93-2.725 6.93-3.166 6.93-3.827 6.98-4.428 7.08-4.969 7.18-5.51 7.334-5.896 7.545-6.127H5.434C5.287-5.885 5.199-5.617 5.174-5.323 5.148-5.029 5.135-4.746 5.135-4.473 5.135-3.959 5.104-3.515 5.041-3.142 4.977-2.77 4.861-2.459 4.693-2.213 4.525-1.966 4.297-1.785 4.008-1.67 3.719-1.554 3.35-1.496 2.898-1.496H0V-6.127H-1.969Z" fill="#00bfb3"/>
<path transform="matrix(1,0,0,-1,385.0396,112.8008)" d="M0 0H9.104V-1.701H5.529V-11.246H3.561V-1.701H0Z" fill="#00bfb3"/>
<path transform="matrix(1,0,0,-1,400.145,120.2979)" d="M0 0C0-.431 .072-.798 .221-1.103 .367-1.407 .572-1.656 .834-1.851 1.098-2.045 1.398-2.187 1.74-2.276 2.082-2.365 2.451-2.409 2.85-2.409 3.281-2.409 3.648-2.36 3.953-2.261 4.258-2.161 4.504-2.032 4.693-1.874 4.883-1.717 5.02-1.536 5.104-1.331 5.187-1.126 5.229-.919 5.229-.709 5.229-.278 5.131 .04 4.937 .244 4.742 .448 4.531 .593 4.299 .677 3.9 .824 3.436 .964 2.906 1.095 2.375 1.226 1.721 1.396 .945 1.606 .461 1.732 .061 1.897-.26 2.103-.58 2.308-.836 2.536-1.023 2.788-1.213 3.04-1.348 3.308-1.426 3.591-1.504 3.874-1.543 4.163-1.543 4.457-1.543 5.024-1.426 5.515-1.189 5.93-.953 6.345-.641 6.688-.252 6.962 .137 7.234 .576 7.437 1.07 7.567 1.564 7.699 2.063 7.765 2.566 7.765 3.154 7.765 3.709 7.688 4.229 7.536 4.748 7.384 5.205 7.155 5.6 6.851 5.992 6.546 6.305 6.171 6.535 5.726 6.768 5.278 6.883 4.762 6.883 4.174H4.914C4.861 4.898 4.615 5.41 4.174 5.71 3.732 6.009 3.17 6.158 2.488 6.158 2.258 6.158 2.021 6.135 1.779 6.087 1.537 6.04 1.316 5.962 1.117 5.851 .918 5.741 .754 5.591 .621 5.402 .49 5.214 .426 4.978 .426 4.693 .426 4.294 .549 3.981 .795 3.757 1.041 3.53 1.365 3.36 1.764 3.245 1.805 3.233 1.971 3.189 2.26 3.11 2.549 3.032 2.871 2.945 3.229 2.851 3.586 2.757 3.934 2.664 4.275 2.575 4.617 2.485 4.861 2.42 5.008 2.378 5.375 2.263 5.695 2.104 5.969 1.905 6.242 1.706 6.471 1.478 6.654 1.221 6.838 .964 6.975 .687 7.064 .394 7.152 .1 7.197-.194 7.197-.488 7.197-1.118 7.068-1.656 6.812-2.103 6.555-2.55 6.215-2.913 5.795-3.197 5.375-3.481 4.898-3.688 4.363-3.819 3.826-3.95 3.281-4.017 2.725-4.017 2.084-4.017 1.48-3.938 .914-3.78 .346-3.622-.146-3.382-.566-3.056-.988-2.729-1.324-2.313-1.576-1.804-1.828-1.294-1.959-.692-1.969 0Z" fill="#00bfb3"/>
</g>
</g>
</svg>
