<?xml version="1.0" encoding="UTF-8"?>
<svg id="Capa_1" data-name="Capa 1" xmlns="http://www.w3.org/2000/svg" viewBox="0 0 595.28 841.89">
  <defs>
    <style>
      .cls-1 {
        fill: #89bd24;
      }

      .cls-1, .cls-2, .cls-3 {
        stroke-width: 0px;
      }

      .cls-2 {
        fill: #fff;
      }

      .cls-3 {
        fill: #1d1d1b;
      }
    </style>
  </defs>
  <rect class="cls-3" y="433.82" width="595.28" height="408.07"/>
  <g>
    <path class="cls-2" d="m149.71,556.91c-13.86,0-22.51-7.43-23.35-19.06h11.79c.31,6.05,4.21,9.95,11.33,9.95,5.89,0,10.1-2.6,10.1-7.04,0-3.45-2.68-5.51-7.35-6.43l-9.03-1.76c-8.34-1.61-14.78-6.12-14.78-15.23,0-9.8,8.65-16.84,20.52-16.84s21.36,7.2,22.12,18.68h-11.79c-.38-5.74-4.36-9.65-10.18-9.65s-8.88,3.21-8.88,7.04,3.44,5.36,7.43,6.12l9.42,1.91c9.65,1.91,14.85,6.35,14.85,14.47,0,10.49-8.42,17.84-22.2,17.84Z"/>
    <path class="cls-2" d="m174.93,535.55c0-12.17,8.5-21.05,20.29-21.05,12.94,0,21.51,10.49,19.6,23.81h-29.01c.69,6.66,3.9,10.33,9.34,10.33,4.67,0,7.81-2.3,9.03-6.35h10.56c-2.3,9.26-9.42,14.55-19.37,14.55-12.25,0-20.44-8.5-20.44-21.28Zm11.02-3.98h17.61c-.31-5.67-3.52-9.26-8.57-9.26s-8.11,3.21-9.03,9.26Z"/>
    <path class="cls-2" d="m218.11,535.55c0-12.17,8.5-21.05,20.29-21.05,12.94,0,21.51,10.49,19.6,23.81h-29.01c.69,6.66,3.9,10.33,9.34,10.33,4.67,0,7.81-2.3,9.03-6.35h10.56c-2.3,9.26-9.42,14.55-19.37,14.55-12.25,0-20.44-8.5-20.44-21.28Zm11.02-3.98h17.61c-.31-5.67-3.52-9.26-8.57-9.26s-8.11,3.21-9.03,9.26Z"/>
    <path class="cls-2" d="m261.35,556.14v-54.97h10.64v31.39l14.93-17.3h12.25l-16.92,19.6,18.91,21.28h-13.55l-15.62-18.98v18.98h-10.64Z"/>
  </g>
  <path class="cls-2" d="m314.8,518.08v38.35h-10.64v-54.97h12.55l23.96,36.44v-36.44h10.72v54.97h-11.41l-25.19-38.35Z"/>
  <path class="cls-2" d="m354.4,556.4v-54.97h11.64v21.67h23.81v-21.67h11.64v54.97h-11.64v-23.27h-23.81v23.27h-11.64Z"/>
  <path class="cls-2" d="m441.93,535.7c0-12.25,8.42-21.21,19.9-21.21,10.64,0,18.53,7.2,19.83,18.22h-11.18c-.54-5.44-3.83-8.8-8.65-8.8-5.51,0-9.03,4.52-9.03,11.79s3.45,11.79,9.03,11.79c4.9,0,8.04-3.22,8.65-8.8h11.18c-1.22,11.25-8.88,18.22-19.83,18.22-11.79,0-19.9-8.73-19.9-21.21Z"/>
  <path class="cls-2" d="m484.77,556.29v-54.97h10.64v31.39l14.93-17.3h12.25l-16.92,19.6,18.91,21.28h-13.55l-15.62-18.98v18.98h-10.64Z"/>
  <path class="cls-2" d="m422.13,514.38c-9.79,0-16.57,6.02-17.28,15.29,0,.08-.01.16-.02.25h.02c0,1.87,0,3.75,0,5.62.62-.8,1.57-1.82,2.92-2.71,2.66-1.75,5.34-2,6.62-2.03,0-.3,0-.59,0-.89.38-4.59,3.14-7.27,7.73-7.27s7.04,2.68,7.04,7.27v2.45c-2.53-.31-4.52-.46-6.81-.46-11.94,0-18.37,4.29-18.37,12.25s5.67,12.63,14.16,12.63c5.59,0,9.65-1.99,12.33-5.82v5.05h8.65v-25.72c0-10.03-6.28-15.92-16.99-15.92Zm.42,30.63h.27c.43,1.72.87,3.44,1.3,5.16-1.68,0-3.36-.02-5.05-.02.36-1.71.73-3.43,1.09-5.14h.41c-1.68-.44-2.92-1.95-2.92-3.77,0-2.16,1.75-3.91,3.91-3.91s3.91,1.75,3.91,3.91c0,1.81-1.24,3.33-2.92,3.77Z"/>
  <g>
    <path class="cls-2" d="m126.14,771.38c-13.86,0-22.51-7.43-23.35-19.06h11.79c.31,6.05,4.21,9.95,11.33,9.95,5.89,0,10.1-2.6,10.1-7.04,0-3.45-2.68-5.51-7.35-6.43l-9.03-1.76c-8.34-1.61-14.78-6.12-14.78-15.23,0-9.8,8.65-16.84,20.52-16.84s21.36,7.2,22.12,18.68h-11.79c-.38-5.74-4.36-9.65-10.18-9.65s-8.88,3.21-8.88,7.04,3.44,5.36,7.43,6.12l9.42,1.91c9.65,1.91,14.85,6.35,14.85,14.47,0,10.49-8.42,17.84-22.2,17.84Z"/>
    <path class="cls-2" d="m151.37,750.02c0-12.17,8.5-21.05,20.29-21.05,12.94,0,21.51,10.49,19.6,23.81h-29.01c.69,6.66,3.9,10.33,9.34,10.33,4.67,0,7.81-2.3,9.03-6.35h10.56c-2.3,9.26-9.42,14.55-19.37,14.55-12.25,0-20.44-8.5-20.44-21.28Zm11.02-3.98h17.61c-.31-5.67-3.52-9.26-8.57-9.26s-8.11,3.21-9.03,9.26Z"/>
    <path class="cls-2" d="m194.55,750.02c0-12.17,8.5-21.05,20.29-21.05,12.94,0,21.51,10.49,19.6,23.81h-29.01c.69,6.66,3.9,10.33,9.34,10.33,4.67,0,7.81-2.3,9.03-6.35h10.56c-2.3,9.26-9.42,14.55-19.37,14.55-12.25,0-20.44-8.5-20.44-21.28Zm11.02-3.98h17.61c-.31-5.67-3.52-9.26-8.57-9.26s-8.11,3.21-9.03,9.26Z"/>
    <path class="cls-2" d="m237.78,770.62v-54.97h10.64v31.39l14.93-17.3h12.25l-16.92,19.6,18.91,21.28h-13.55l-15.62-18.98v18.98h-10.64Z"/>
  </g>
  <path class="cls-2" d="m291.24,732.55v38.35h-10.64v-54.97h12.55l23.96,36.44v-36.44h10.72v54.97h-11.41l-25.19-38.35Z"/>
  <path class="cls-2" d="m330.84,770.87v-54.97h11.64v21.67h23.81v-21.67h11.64v54.97h-11.64v-23.27h-23.81v23.27h-11.64Z"/>
  <path class="cls-2" d="m418.37,750.18c0-12.25,8.42-21.21,19.9-21.21,10.64,0,18.53,7.2,19.83,18.22h-11.18c-.54-5.44-3.83-8.8-8.65-8.8-5.51,0-9.03,4.52-9.03,11.79s3.45,11.79,9.03,11.79c4.9,0,8.04-3.22,8.65-8.8h11.18c-1.22,11.25-8.88,18.22-19.83,18.22-11.79,0-19.9-8.73-19.9-21.21Z"/>
  <path class="cls-2" d="m461.21,770.77v-54.97h10.64v31.39l14.93-17.3h12.25l-16.92,19.6,18.91,21.28h-13.55l-15.62-18.98v18.98h-10.64Z"/>
  <path class="cls-2" d="m398.56,728.85c-9.79,0-16.57,6.02-17.28,15.29,0,.08-.01.16-.02.25h.02c0,1.87,0,3.75,0,5.62.62-.8,1.57-1.82,2.92-2.71,2.66-1.75,5.34-2,6.62-2.03,0-.3,0-.59,0-.89.38-4.59,3.14-7.27,7.73-7.27s7.04,2.68,7.04,7.27v2.45c-2.53-.31-4.52-.46-6.81-.46-11.94,0-18.37,4.29-18.37,12.25s5.67,12.63,14.16,12.63c5.59,0,9.65-1.99,12.33-5.82v5.05h8.65v-25.72c0-10.03-6.28-15.92-16.99-15.92Zm.42,30.63h.27c.43,1.72.87,3.44,1.3,5.16-1.68,0-3.36-.02-5.05-.02.36-1.71.73-3.43,1.09-5.14h.41c-1.68-.44-2.92-1.95-2.92-3.77,0-2.16,1.75-3.91,3.91-3.91s3.91,1.75,3.91,3.91c0,1.81-1.24,3.33-2.92,3.77Z"/>
  <path class="cls-1" d="m117.15,507.21c-6.52-8.72-17.57-8.64-20.31-8.65-14.23-.02-24.07,8.89-24.92,22.39h.03c0,2.7,0,5.4,0,8.1.9-1.15,2.26-2.62,4.21-3.9,3.83-2.52,7.69-2.88,9.54-2.92,0-.43,0-.85,0-1.28.55-6.62,4.52-10.48,11.14-10.48s10.15,3.86,10.15,10.48v3.53c-17.04-2.45-36.76,1.03-36.28,16.98,0,4.12,1.14,7.7,3.2,10.57,4.9,6.81,13.55,7.38,17.2,7.63,1.41.09,6.13.29,11.71-1.69,2.83-1,5.03-2.27,6.57-3.29.94-.63,7.26-5.22,9.74-13.42.76-2.53,1.12-6.78,1.84-15.29.08-.93.14-1.69.18-2.2.06-.76.12-1.52.18-2.28.1-2.34.05-8.64-4.18-14.29Zm-19.47,34.07l.16.06,1.88,7.44-7.27-.03,1.65-7.55c-2.17-.79-3.73-2.85-3.73-5.29,0-3.12,2.53-5.64,5.64-5.64s5.65,2.53,5.65,5.64c0,2.54-1.68,4.66-3.99,5.37Z"/>
  <path class="cls-1" d="m332.56,609.47c-6.52-8.72-17.57-8.64-20.31-8.65-14.23-.02-24.07,8.89-24.92,22.39h.03c0,2.7,0,5.4,0,8.1.9-1.15,2.26-2.62,4.21-3.9,3.83-2.52,7.69-2.88,9.54-2.92,0-.43,0-.85,0-1.28.55-6.62,4.52-10.48,11.14-10.48s10.15,3.86,10.15,10.48v3.53c-17.04-2.45-36.76,1.03-36.28,16.98,0,4.12,1.14,7.7,3.2,10.57,4.9,6.81,13.55,7.38,17.2,7.63,1.41.09,6.13.29,11.71-1.69,2.83-1,5.03-2.27,6.57-3.29.94-.63,7.26-5.22,9.74-13.42.76-2.53,1.12-6.78,1.84-15.29.08-.93.14-1.69.18-2.2.06-.76.12-1.52.18-2.28.1-2.34.05-8.64-4.18-14.29Zm-19.47,34.07l.16.06,1.88,7.44-7.27-.03,1.65-7.55c-2.17-.79-3.73-2.85-3.73-5.29,0-3.12,2.53-5.64,5.64-5.64s5.65,2.53,5.65,5.64c0,2.54-1.68,4.66-3.99,5.37Z"/>
  <g>
    <path class="cls-3" d="m149.71,152.64c-13.86,0-22.51-7.43-23.35-19.06h11.79c.31,6.05,4.21,9.95,11.33,9.95,5.89,0,10.1-2.6,10.1-7.04,0-3.45-2.68-5.51-7.35-6.43l-9.03-1.76c-8.34-1.61-14.78-6.12-14.78-15.23,0-9.8,8.65-16.84,20.52-16.84s21.36,7.2,22.12,18.68h-11.79c-.38-5.74-4.36-9.65-10.18-9.65s-8.88,3.21-8.88,7.04,3.44,5.36,7.43,6.12l9.42,1.91c9.65,1.91,14.85,6.35,14.85,14.47,0,10.49-8.42,17.84-22.2,17.84Z"/>
    <path class="cls-3" d="m174.93,131.29c0-12.17,8.5-21.05,20.29-21.05,12.94,0,21.51,10.49,19.6,23.81h-29.01c.69,6.66,3.9,10.33,9.34,10.33,4.67,0,7.81-2.3,9.03-6.35h10.56c-2.3,9.26-9.42,14.55-19.37,14.55-12.25,0-20.44-8.5-20.44-21.28Zm11.02-3.98h17.61c-.31-5.67-3.52-9.26-8.57-9.26s-8.11,3.21-9.03,9.26Z"/>
    <path class="cls-3" d="m218.11,131.29c0-12.17,8.5-21.05,20.29-21.05,12.94,0,21.51,10.49,19.6,23.81h-29.01c.69,6.66,3.9,10.33,9.34,10.33,4.67,0,7.81-2.3,9.03-6.35h10.56c-2.3,9.26-9.42,14.55-19.37,14.55-12.25,0-20.44-8.5-20.44-21.28Zm11.02-3.98h17.61c-.31-5.67-3.52-9.26-8.57-9.26s-8.11,3.21-9.03,9.26Z"/>
    <path class="cls-3" d="m261.35,151.88v-54.97h10.64v31.39l14.93-17.3h12.25l-16.92,19.6,18.91,21.28h-13.55l-15.62-18.98v18.98h-10.64Z"/>
  </g>
  <path class="cls-3" d="m314.8,113.81v38.35h-10.64v-54.97h12.55l23.96,36.44v-36.44h10.72v54.97h-11.41l-25.19-38.35Z"/>
  <path class="cls-3" d="m354.4,152.13v-54.97h11.64v21.67h23.81v-21.67h11.64v54.97h-11.64v-23.27h-23.81v23.27h-11.64Z"/>
  <path class="cls-3" d="m441.93,131.44c0-12.25,8.42-21.21,19.9-21.21,10.64,0,18.53,7.2,19.83,18.22h-11.18c-.54-5.44-3.83-8.8-8.65-8.8-5.51,0-9.03,4.52-9.03,11.79s3.45,11.79,9.03,11.79c4.9,0,8.04-3.22,8.65-8.8h11.18c-1.22,11.25-8.88,18.22-19.83,18.22-11.79,0-19.9-8.73-19.9-21.21Z"/>
  <path class="cls-3" d="m484.77,152.03v-54.97h10.64v31.39l14.93-17.3h12.25l-16.92,19.6,18.91,21.28h-13.55l-15.62-18.98v18.98h-10.64Z"/>
  <path class="cls-3" d="m422.13,110.11c-9.79,0-16.57,6.02-17.28,15.29,0,.08-.01.16-.02.25h.02v5.62c.63-.8,1.57-1.82,2.93-2.71,2.66-1.75,5.34-2,6.62-2.03,0-.3,0-.59,0-.89.38-4.59,3.14-7.27,7.73-7.27s7.04,2.68,7.04,7.27v2.45c-2.53-.31-4.52-.46-6.81-.46-11.94,0-18.37,4.29-18.37,12.25s5.67,12.63,14.16,12.63c5.59,0,9.65-1.99,12.33-5.82v5.05h8.65v-25.72c0-10.03-6.28-15.92-16.99-15.92Zm.42,30.63h.27c.43,1.72.87,3.44,1.3,5.16-1.68,0-3.36-.02-5.05-.02.36-1.71.73-3.43,1.09-5.14h.41c-1.68-.44-2.92-1.95-2.92-3.77,0-2.16,1.75-3.91,3.91-3.91s3.91,1.75,3.91,3.91c0,1.81-1.24,3.33-2.92,3.77Z"/>
  <g>
    <path class="cls-3" d="m152.02,342.01c-13.86,0-22.51-7.43-23.35-19.06h11.79c.31,6.05,4.21,9.95,11.33,9.95,5.89,0,10.1-2.6,10.1-7.04,0-3.45-2.68-5.51-7.35-6.43l-9.03-1.76c-8.34-1.61-14.78-6.12-14.78-15.23,0-9.8,8.65-16.84,20.52-16.84s21.36,7.2,22.12,18.68h-11.79c-.38-5.74-4.36-9.65-10.18-9.65s-8.88,3.21-8.88,7.04,3.44,5.36,7.43,6.12l9.42,1.91c9.65,1.91,14.85,6.35,14.85,14.47,0,10.49-8.42,17.84-22.2,17.84Z"/>
    <path class="cls-3" d="m177.24,320.65c0-12.17,8.5-21.05,20.29-21.05,12.94,0,21.51,10.49,19.6,23.81h-29.01c.69,6.66,3.9,10.33,9.34,10.33,4.67,0,7.81-2.3,9.03-6.35h10.56c-2.3,9.26-9.42,14.55-19.37,14.55-12.25,0-20.44-8.5-20.44-21.28Zm11.02-3.98h17.61c-.31-5.67-3.52-9.26-8.57-9.26s-8.11,3.21-9.03,9.26Z"/>
    <path class="cls-3" d="m220.42,320.65c0-12.17,8.5-21.05,20.29-21.05,12.94,0,21.51,10.49,19.6,23.81h-29.01c.69,6.66,3.9,10.33,9.34,10.33,4.67,0,7.81-2.3,9.03-6.35h10.56c-2.3,9.26-9.42,14.55-19.37,14.55-12.25,0-20.44-8.5-20.44-21.28Zm11.02-3.98h17.61c-.31-5.67-3.52-9.26-8.57-9.26s-8.11,3.21-9.03,9.26Z"/>
    <path class="cls-3" d="m263.66,341.24v-54.97h10.64v31.39l14.93-17.3h12.25l-16.92,19.6,18.91,21.28h-13.55l-15.62-18.98v18.98h-10.64Z"/>
  </g>
  <path class="cls-3" d="m317.12,303.17v38.35h-10.64v-54.97h12.55l23.96,36.44v-36.44h10.72v54.97h-11.41l-25.19-38.35Z"/>
  <path class="cls-3" d="m356.71,341.49v-54.97h11.64v21.67h23.81v-21.67h11.64v54.97h-11.64v-23.27h-23.81v23.27h-11.64Z"/>
  <path class="cls-3" d="m444.24,320.8c0-12.25,8.42-21.21,19.9-21.21,10.64,0,18.53,7.2,19.83,18.22h-11.18c-.54-5.44-3.83-8.8-8.65-8.8-5.51,0-9.03,4.52-9.03,11.79s3.45,11.79,9.03,11.79c4.9,0,8.04-3.22,8.65-8.8h11.18c-1.22,11.25-8.88,18.22-19.83,18.22-11.79,0-19.9-8.73-19.9-21.21Z"/>
  <path class="cls-3" d="m487.08,341.39v-54.97h10.64v31.39l14.93-17.3h12.25l-16.92,19.6,18.91,21.28h-13.55l-15.62-18.98v18.98h-10.64Z"/>
  <path class="cls-3" d="m424.44,299.47c-9.79,0-16.57,6.02-17.28,15.29,0,.08-.01.16-.02.25h.02v5.62c.63-.8,1.57-1.82,2.93-2.71,2.66-1.75,5.34-2,6.62-2.03,0-.3,0-.59,0-.89.38-4.59,3.14-7.27,7.73-7.27s7.04,2.68,7.04,7.27v2.45c-2.53-.31-4.52-.46-6.81-.46-11.94,0-18.37,4.29-18.37,12.25s5.67,12.63,14.16,12.63c5.59,0,9.65-1.99,12.33-5.82v5.05h8.65v-25.72c0-10.03-6.28-15.92-16.99-15.92Zm.42,30.63h.27c.43,1.72.87,3.44,1.3,5.16-1.68,0-3.36-.02-5.05-.02.36-1.71.73-3.43,1.09-5.14h.41c-1.68-.44-2.92-1.95-2.92-3.77,0-2.16,1.75-3.91,3.91-3.91s3.91,1.75,3.91,3.91c0,1.81-1.24,3.33-2.92,3.77Z"/>
  <path class="cls-3" d="m117.15,102.95c-6.52-8.72-17.57-8.64-20.31-8.65-14.23-.02-24.07,8.89-24.92,22.39h.03c0,2.7,0,5.4,0,8.1.9-1.15,2.26-2.62,4.21-3.9,3.83-2.52,7.69-2.88,9.54-2.92,0-.43,0-.85,0-1.28.55-6.62,4.52-10.48,11.14-10.48s10.15,3.86,10.15,10.48v3.53c-17.04-2.45-36.76,1.03-36.28,16.98,0,4.12,1.14,7.7,3.2,10.57,4.9,6.81,13.55,7.38,17.2,7.63,1.41.09,6.13.29,11.71-1.69,2.83-1,5.03-2.27,6.57-3.29.94-.63,7.26-5.22,9.74-13.42.76-2.53,1.12-6.78,1.84-15.29.08-.93.14-1.69.18-2.2.06-.76.12-1.52.18-2.28.1-2.34.05-8.64-4.18-14.29Zm-19.47,34.07l.16.06,1.88,7.44-7.27-.03,1.65-7.55c-2.17-.79-3.73-2.85-3.73-5.29,0-3.12,2.53-5.64,5.64-5.64s5.65,2.53,5.65,5.64c0,2.54-1.68,4.66-3.99,5.37Z"/>
  <path class="cls-3" d="m336.27,196.01c-6.52-8.72-17.57-8.64-20.31-8.65-14.23-.02-24.07,8.89-24.92,22.39h.03c0,2.7,0,5.4,0,8.1.9-1.15,2.26-2.62,4.21-3.9,3.83-2.52,7.69-2.88,9.54-2.92,0-.43,0-.85,0-1.28.55-6.62,4.52-10.48,11.14-10.48s10.15,3.86,10.15,10.48v3.53c-17.04-2.45-36.76,1.03-36.28,16.98,0,4.12,1.14,7.7,3.2,10.57,4.9,6.81,13.55,7.38,17.2,7.63,1.41.09,6.13.29,11.71-1.69,2.83-1,5.03-2.27,6.57-3.29.94-.63,7.26-5.22,9.74-13.42.76-2.53,1.12-6.78,1.84-15.29.08-.93.14-1.69.18-2.2.06-.76.12-1.52.18-2.28.1-2.34.05-8.64-4.18-14.29Zm-19.47,34.07l.16.06,1.88,7.44-7.27-.03,1.65-7.55c-2.17-.79-3.73-2.85-3.73-5.29,0-3.12,2.53-5.64,5.64-5.64s5.65,2.53,5.65,5.64c0,2.54-1.68,4.66-3.99,5.37Z"/>
</svg>