<?xml version="1.0" encoding="utf-8"?>
<svg version="1.1"
	 xmlns="http://www.w3.org/2000/svg" xmlns:xlink="http://www.w3.org/1999/xlink" x="0px" y="0px" viewBox="0 0 574.1 214.8"
	 style="enable-background:new 0 0 574.1 214.8;" xml:space="preserve">
<style type="text/css">
	.st0{fill:#00205B;}
</style>
<g>
	<g>
		<path class="st0" d="M271.5,96.9c0-13.5-8.8-23.7-27.1-23.7h-36.7V144H225V88.5h19.5c7.2,0,9.8,4.1,9.8,8.8s-2.7,8.8-9.9,8.8
			h-16.7l23.7,37.9H271c0,0-16.2-25.5-16.1-25.5C265,116.2,271.5,109.2,271.5,96.9"/>
		<rect x="178.8" y="73.1" class="st0" width="17.3" height="70.9"/>
		<polygon class="st0" points="123.7,73.1 87.6,144 107,144 112.9,132.1 141.9,132.1 134.7,117.3 120.2,117.3 130.9,95.5 
			131.1,95.5 155.3,144 175.2,144 139,73.1 		"/>
		<path class="st0" d="M334.5,107.2c5.5-3,8.4-7.9,8.4-15c0-11.4-8.5-19.1-22.9-19.1h-40.3V144h42c14.7,0,24.3-7.9,24.3-19.8
			C345.9,115.9,341.3,109.6,334.5,107.2 M296.9,88.1H320c3.5,0,6.1,2.7,6.1,6.3s-2.7,6.3-6.3,6.3h-23V88.1L296.9,88.1L296.9,88.1z
			 M320.5,129.1h-23.5v-14.5h23.5c4.2,0,7.4,3,7.4,7.1C327.9,126,324.7,129.1,320.5,129.1"/>
		<path class="st0" d="M400.4,112.7c0,10.8-5,16.7-14.8,16.7s-14.7-6-14.7-16.7V73.1h-17.7v38.3c0,21.9,11.5,34.1,32.4,34.1
			s32.5-12.2,32.5-34.1V73.1h-17.7V112.7L400.4,112.7z"/>
		<path class="st0" d="M464.1,101.3c-16.4-4-20-4.4-20-9.1c0-3.6,4.1-5.4,11-5.4c9.2,0,18.9,2.3,24.5,5.7l5.5-14.5
			c-7.1-3.8-17.6-6.5-29.8-6.5c-18.2,0-28.5,9.1-28.5,21.2c0,13.1,7.6,18.4,25.2,22.2c13.7,3,16.6,4.9,16.6,8.7c0,4.2-3.8,6-11.2,6
			c-10.8,0-20.5-2.6-28.4-6.9l-5.3,15.1c8.5,4.5,21.2,7.4,34.1,7.4c17.9,0,28.6-8.3,28.6-22.2C486.5,112.1,479.3,105,464.1,101.3"/>
	</g>
</g>
</svg>
