<?xml version="1.0" encoding="utf-8"?>
<!-- Generator: Adobe Illustrator 26.0.3, SVG Export Plug-In . SVG Version: 6.00 Build 0)  -->
<svg version="1.1" id="Capa_1" xmlns="http://www.w3.org/2000/svg" xmlns:xlink="http://www.w3.org/1999/xlink" x="0px" y="0px"
	 viewBox="0 0 466.9 246.2" style="enable-background:new 0 0 466.9 246.2;" xml:space="preserve">
<style type="text/css">
	.st0{fill:#101F45;}
	.st1{fill-rule:evenodd;clip-rule:evenodd;fill:#101F45;}
	.st2{fill:#00AFD7;}
</style>
<g id="Capa_2_00000088822660824661997900000016578987805626890397_">
	<g id="Capa_1-2">
		<path class="st0" d="M126.8,201.8l-2.1-6.4h-7.1l-2.1,6.4h-2.5l6.5-19.7h3.4l6.5,19.7H126.8z M122.2,187.4
			c-0.2-0.5-0.3-1.1-0.5-1.6s-0.2-1.1-0.4-1.7h-0.3c-0.1,0.6-0.2,1.1-0.4,1.7c-0.1,0.5-0.3,1-0.4,1.6l-1.9,5.7h5.6L122.2,187.4z"/>
		<path class="st0" d="M141.6,201.8v-9.3c0-0.6,0-1.1-0.1-1.7c0-0.4-0.2-0.8-0.4-1.1c-0.2-0.3-0.4-0.5-0.8-0.6
			c-0.4-0.1-0.8-0.2-1.2-0.2c-0.7,0-1.3,0.1-2,0.3c-0.9,0.3-1.8,0.6-2.6,1v11.6h-2.4v-14.6h2.4v1.1c0.8-0.4,1.6-0.8,2.5-1.1
			c0.8-0.3,1.6-0.4,2.4-0.4c0.8,0,1.6,0.1,2.4,0.4c0.6,0.2,1,0.6,1.4,1.1c0.4,0.5,0.6,1.1,0.7,1.8c0.1,0.8,0.2,1.6,0.2,2.4v9.3
			L141.6,201.8z"/>
		<path class="st0" d="M169.5,201.8v-9.3c0-0.6,0-1.1-0.1-1.7c0-0.4-0.2-0.8-0.4-1.1c-0.2-0.3-0.4-0.5-0.8-0.6
			c-0.4-0.1-0.8-0.2-1.2-0.2c-0.7,0-1.3,0.1-2,0.3c-0.9,0.3-1.8,0.6-2.6,1v11.6h-2.4v-14.6h2.4v1.1c0.8-0.4,1.6-0.8,2.5-1.1
			c0.8-0.3,1.6-0.4,2.4-0.4c0.8,0,1.6,0.1,2.3,0.4c0.6,0.2,1,0.6,1.4,1.1c0.3,0.5,0.6,1.1,0.7,1.8c0.1,0.8,0.2,1.6,0.2,2.4v9.3
			L169.5,201.8z"/>
		<path class="st0" d="M184.9,201.8V201c-0.6,0.3-1.2,0.6-1.8,0.8c-0.8,0.2-1.5,0.3-2.3,0.3c-0.8,0-1.6-0.1-2.3-0.4
			c-0.7-0.2-1.2-0.6-1.7-1.1c-0.5-0.6-0.9-1.2-1.1-1.9c-0.3-0.9-0.4-1.8-0.4-2.8v-2.5c0-1.1,0.1-2.2,0.5-3.2c0.3-0.8,0.7-1.4,1.3-2
			c0.5-0.5,1.2-0.9,1.9-1c0.8-0.2,1.6-0.3,2.4-0.3c0.6,0,1.1,0,1.7,0.1c0.6,0.1,1.1,0.2,1.7,0.3v-5.9h2.4v20.5L184.9,201.8z
			 M184.8,189.2l-0.9-0.1l-0.9-0.1l-0.8-0.1c-0.3,0-0.5,0-0.7,0c-0.5,0-1.1,0.1-1.6,0.2c-0.5,0.1-0.9,0.3-1.2,0.7
			c-0.4,0.4-0.6,0.9-0.8,1.4c-0.2,0.8-0.3,1.6-0.3,2.4v2.5c-0.1,1.1,0.2,2.2,0.8,3.2c0.7,0.7,1.7,1.1,2.7,1c0.6,0,1.3-0.1,1.9-0.2
			c0.6-0.2,1.2-0.4,1.7-0.7V189.2z"/>
		<path class="st0" d="M191.3,201.8v-14.6h2.3v1.2c0.7-0.5,1.5-1,2.4-1.2c0.9-0.2,1.9-0.4,2.9-0.4v2.1c-0.5,0-1,0-1.5,0.1
			c-0.5,0.1-1,0.2-1.4,0.3c-0.4,0.1-0.9,0.2-1.3,0.4c-0.4,0.1-0.7,0.3-1,0.5v11.6H191.3z"/>
		<path class="st0" d="M208.9,201.8v-1c-0.3,0.2-0.5,0.3-0.8,0.5c-0.3,0.2-0.7,0.3-1,0.4c-0.4,0.1-0.9,0.2-1.3,0.3
			c-0.5,0.1-1,0.1-1.5,0.1c-0.6,0-1.2-0.1-1.8-0.2c-0.5-0.1-1-0.4-1.4-0.7c-0.4-0.4-0.7-0.8-0.9-1.3c-0.2-0.6-0.3-1.2-0.3-1.9v-0.5
			c0-0.8,0.1-1.6,0.5-2.3c0.3-0.6,0.8-1.1,1.3-1.4c0.7-0.4,1.4-0.6,2.1-0.7c0.9-0.1,1.9-0.2,2.8-0.2h2.2v-1.1c0-0.5,0-1-0.1-1.5
			c-0.1-0.4-0.2-0.7-0.5-0.9c-0.3-0.2-0.7-0.4-1-0.5c-0.6-0.1-1.2-0.1-1.8-0.1c-0.4,0-0.8,0-1.2,0l-1.1,0.1l-1.1,0.1l-1.2,0.1v-1.7
			l0.6-0.2c0.3-0.1,0.7-0.1,1.1-0.2c0.4-0.1,0.9-0.1,1.4-0.2c0.5-0.1,1.1-0.1,1.6-0.1c1,0,2,0.1,2.9,0.3c0.6,0.2,1.2,0.5,1.7,1
			c0.4,0.4,0.7,1,0.8,1.6c0.1,0.7,0.2,1.5,0.2,2.2v9.8L208.9,201.8z M208.7,194.8h-2.2c-0.7,0-1.3,0-2,0.1c-0.5,0-0.9,0.2-1.3,0.4
			c-0.3,0.2-0.6,0.5-0.8,0.8c-0.2,0.4-0.3,0.9-0.2,1.4v0.7c0,0.3,0.1,0.7,0.2,1c0.1,0.3,0.3,0.5,0.5,0.7c0.2,0.2,0.5,0.3,0.8,0.3
			c0.3,0.1,0.7,0.1,1,0.1c0.4,0,0.9,0,1.3-0.1c0.4-0.1,0.8-0.2,1.2-0.3c0.3-0.1,0.7-0.2,1-0.4c0.2-0.1,0.5-0.2,0.7-0.4L208.7,194.8z
			"/>
		<path class="st0" d="M229.6,201.6c-0.1,0-0.3,0.1-0.6,0.1c-0.2,0.1-0.6,0.1-0.9,0.2c-0.4,0.1-0.8,0.1-1.2,0.1
			c-0.5,0-1,0.1-1.5,0.1c-0.9,0-1.8-0.1-2.6-0.4c-0.7-0.3-1.3-0.7-1.8-1.3c-0.5-0.6-0.9-1.3-1.1-2.1c-0.2-0.9-0.4-1.8-0.4-2.8v-2.2
			c0-0.9,0.1-1.9,0.4-2.8c0.2-0.8,0.6-1.5,1.1-2.1c0.5-0.6,1.1-1,1.8-1.3c0.8-0.3,1.7-0.4,2.6-0.4c0.5,0,1,0,1.5,0.1
			s0.9,0.1,1.2,0.1c0.4,0.1,0.7,0.1,0.9,0.2l0.6,0.1v1.8c-0.9-0.1-1.7-0.2-2.3-0.2c-0.6,0-1.1-0.1-1.5-0.1c-0.5,0-1.1,0.1-1.6,0.2
			c-0.5,0.1-0.9,0.4-1.2,0.7c-0.4,0.4-0.6,0.9-0.8,1.4c-0.2,0.7-0.3,1.5-0.3,2.2v2.2c0,0.8,0.1,1.5,0.3,2.2c0.1,0.5,0.4,1,0.8,1.4
			c0.3,0.3,0.7,0.6,1.2,0.7c0.5,0.1,1.1,0.2,1.6,0.2c0.4,0,0.9,0,1.5-0.1c0.6-0.1,1.4-0.1,2.3-0.2V201.6z"/>
		<path class="st0" d="M244.7,195.5c0,1-0.1,1.9-0.4,2.8c-0.2,0.8-0.6,1.5-1.2,2.1c-0.5,0.6-1.2,1-2,1.3c-1.8,0.6-3.7,0.6-5.4,0
			c-0.7-0.3-1.4-0.7-1.9-1.3c-0.5-0.6-0.9-1.3-1.2-2.1c-0.3-0.9-0.4-1.9-0.4-2.8v-2.1c0-2.1,0.5-3.7,1.6-4.9c1-1.1,2.6-1.7,4.7-1.7
			c2.1,0,3.6,0.6,4.7,1.7c1,1.1,1.6,2.8,1.6,4.9L244.7,195.5z M242.3,193.4c0-0.7-0.1-1.4-0.2-2c-0.1-0.5-0.3-1-0.7-1.4
			c-0.3-0.4-0.7-0.6-1.2-0.8c-0.6-0.2-1.2-0.3-1.7-0.3c-1.1-0.1-2.1,0.3-2.9,1.1c-0.6,0.7-0.9,1.9-0.9,3.4v2.1c0,0.7,0.1,1.4,0.2,2
			c0.1,0.5,0.4,1,0.7,1.4c0.3,0.4,0.7,0.6,1.2,0.8c0.6,0.2,1.1,0.3,1.7,0.3c1.1,0.1,2.2-0.3,2.9-1.1c0.6-0.7,0.9-1.9,0.9-3.4
			L242.3,193.4z"/>
		<path class="st0" d="M264.6,201.8v-9.7c0-0.5,0-1,0-1.4c0-0.4-0.1-0.7-0.2-1c-0.1-0.3-0.4-0.5-0.7-0.7c-0.4-0.2-0.8-0.2-1.3-0.2
			c-0.6,0-1.2,0.1-1.7,0.3c-0.7,0.2-1.3,0.5-1.9,0.9c0.1,0.3,0.1,0.7,0.1,1c0,0.3,0,0.7,0,1v9.7h-2.4v-9.6c0-0.5,0-1,0-1.4
			c0-0.3-0.1-0.7-0.2-1c-0.1-0.3-0.3-0.5-0.6-0.7c-0.4-0.2-0.8-0.2-1.1-0.2c-0.3,0-0.7,0-1,0.1c-0.3,0.1-0.7,0.2-1,0.3
			c-0.3,0.1-0.7,0.3-1,0.4c-0.3,0.2-0.6,0.3-0.9,0.5v11.6h-2.4v-14.6h2.3v1.1c0.6-0.5,1.3-0.8,2-1.1c0.8-0.3,1.6-0.4,2.4-0.4
			c0.7,0,1.4,0.1,2,0.4c0.5,0.3,0.9,0.7,1.2,1.1c0.7-0.5,1.6-0.9,2.4-1.2c0.7-0.2,1.4-0.4,2.1-0.4c0.6,0,1.2,0.1,1.8,0.2
			c0.4,0.1,0.8,0.3,1.2,0.6c0.3,0.3,0.5,0.6,0.7,0.9c0.2,0.4,0.3,0.7,0.4,1.1c0.1,0.4,0.1,0.8,0.1,1.2c0,0.4,0,0.8,0,1.2v9.7
			L264.6,201.8z"/>
		<path class="st0" d="M271,207.3v-20.1h2.3v1c1.3-0.9,2.7-1.3,4.3-1.3c0.8,0,1.5,0.1,2.2,0.4c0.7,0.2,1.2,0.6,1.7,1.2
			c0.5,0.6,0.8,1.3,1,2.1c0.3,1,0.4,2.1,0.4,3.1v1.4c0,1.2-0.1,2.4-0.5,3.5c-0.3,0.8-0.7,1.6-1.3,2.2c-0.6,0.5-1.2,0.9-2,1.1
			c-0.8,0.2-1.6,0.3-2.5,0.3c-0.3,0-0.5,0-0.8,0s-0.6-0.1-0.9-0.1c-0.3,0-0.6-0.1-0.9-0.1c-0.3-0.1-0.5-0.1-0.8-0.2v5.6L271,207.3z
			 M280.5,193.6c0-0.7-0.1-1.5-0.2-2.2c-0.1-0.5-0.3-1-0.6-1.4c-0.3-0.4-0.6-0.6-1-0.8c-0.5-0.2-1-0.3-1.5-0.3c-0.3,0-0.6,0-0.8,0.1
			c-0.3,0-0.6,0.1-0.9,0.2c-0.3,0.1-0.6,0.2-1,0.3c-0.3,0.1-0.7,0.3-1.2,0.5v9.7c0.6,0.1,1.2,0.2,1.7,0.3c0.5,0.1,1,0.1,1.6,0.1
			c0.5,0,1.1-0.1,1.6-0.2c0.5-0.1,0.9-0.4,1.2-0.7c0.4-0.4,0.6-1,0.8-1.5c0.2-0.9,0.3-1.7,0.3-2.6L280.5,193.6z"/>
		<path class="st0" d="M294.7,201.8v-1c-0.3,0.2-0.5,0.3-0.8,0.5c-0.3,0.2-0.7,0.3-1,0.4c-0.4,0.1-0.9,0.2-1.3,0.3
			c-0.5,0.1-1,0.1-1.5,0.1c-0.6,0-1.2-0.1-1.8-0.2c-0.5-0.1-1-0.4-1.4-0.7c-0.4-0.4-0.7-0.8-0.9-1.3c-0.2-0.6-0.3-1.2-0.3-1.9v-0.5
			c0-0.8,0.1-1.6,0.5-2.3c0.3-0.6,0.8-1.1,1.3-1.4c0.7-0.4,1.4-0.6,2.1-0.7c0.9-0.1,1.9-0.2,2.8-0.2h2.2v-1.1c0-0.5,0-1-0.1-1.5
			c-0.1-0.4-0.2-0.7-0.5-0.9c-0.3-0.2-0.7-0.4-1-0.5c-0.6-0.1-1.2-0.1-1.8-0.1c-0.4,0-0.8,0-1.2,0l-1.1,0.1l-1.1,0.1l-1.1,0.1v-1.7
			c0.1,0,0.3-0.1,0.6-0.2c0.3-0.1,0.7-0.1,1.1-0.2s0.9-0.1,1.4-0.2c0.5-0.1,1.1-0.1,1.6-0.1c1,0,2,0.1,2.9,0.3
			c0.6,0.2,1.2,0.5,1.7,1c0.4,0.4,0.7,1,0.8,1.6c0.1,0.7,0.2,1.5,0.2,2.2v9.8L294.7,201.8z M294.6,194.8h-2.2c-0.7,0-1.3,0-2,0.1
			c-0.5,0-0.9,0.2-1.3,0.4c-0.3,0.2-0.6,0.5-0.8,0.8c-0.2,0.4-0.3,0.9-0.2,1.4v0.7c0,0.3,0.1,0.7,0.2,1c0.1,0.3,0.3,0.5,0.5,0.7
			c0.2,0.2,0.5,0.3,0.8,0.3c0.3,0.1,0.7,0.1,1,0.1c0.4,0,0.9,0,1.3-0.1c0.4-0.1,0.8-0.2,1.2-0.3c0.3-0.1,0.6-0.2,1-0.4
			c0.2-0.1,0.5-0.2,0.7-0.4L294.6,194.8z"/>
		<path class="st0" d="M310.3,201.8v-9.3c0-0.6,0-1.1-0.1-1.7c0-0.4-0.2-0.8-0.4-1.1c-0.2-0.3-0.4-0.5-0.8-0.6
			c-0.4-0.1-0.8-0.2-1.2-0.2c-0.7,0-1.3,0.1-2,0.3c-0.9,0.3-1.8,0.6-2.6,1v11.6h-2.4v-14.6h2.4v1.1c0.8-0.4,1.6-0.8,2.5-1.1
			c0.8-0.3,1.6-0.4,2.4-0.4c0.8,0,1.6,0.1,2.4,0.4c0.6,0.2,1,0.6,1.4,1.1c0.3,0.5,0.6,1.1,0.7,1.8c0.1,0.8,0.2,1.6,0.2,2.4v9.3
			L310.3,201.8z"/>
		<path class="st0" d="M321.1,201.8l-5.7-14.6h2.7l2.9,8.2l0.3,0.9c0.1,0.3,0.2,0.6,0.3,0.9c0.1,0.3,0.2,0.6,0.3,1
			c0.1,0.3,0.2,0.7,0.3,1.1c0.1-0.4,0.2-0.7,0.3-1.1c0.1-0.3,0.2-0.7,0.3-1c0.1-0.3,0.2-0.6,0.3-0.9c0.1-0.3,0.2-0.6,0.3-1l2.7-8.1
			h2.5l-5.6,15.9c-0.3,0.7-0.5,1.3-0.8,1.9c-0.2,0.5-0.5,1-0.9,1.4c-0.4,0.4-0.8,0.7-1.3,0.9c-0.6,0.2-1.3,0.4-1.9,0.3
			c-0.6,0-1.1,0-1.7-0.1c-0.5-0.1-0.9-0.1-1.1-0.2v-1.8l0.8,0l0.7,0h0.7h0.7c0.3,0,0.6,0,0.9-0.1c0.3-0.1,0.5-0.3,0.7-0.5
			c0.2-0.3,0.4-0.6,0.5-0.9c0.2-0.4,0.3-0.8,0.5-1.3L321.1,201.8z"/>
		<rect x="153.3" y="182.1" class="st0" width="2.4" height="19.7"/>
		<path class="st0" d="M215.1,44.3c-1.7,0-3.4,0.6-4.7,1.9c-1.3,1.2-2,2.9-2,4.7v60.6c0,1.8,0.7,3.5,2,4.7c1.2,1.3,2.9,2,4.7,2
			c1.8,0,3.5-0.7,4.7-2c1.2-1.3,1.9-3,1.9-4.7V50.9c0.1-3.6-2.8-6.6-6.3-6.6C215.2,44.3,215.1,44.3,215.1,44.3L215.1,44.3z"/>
		<path class="st0" d="M317.1,116.2c1.2,1.3,2.9,2,4.7,2c1.8,0,3.5-0.7,4.7-2c1.3-1.3,2-3,2-4.8V81.1c0.1-9.8-3.7-19.3-10.7-26.2
			c-14.1-14.2-37-14.4-51.2-0.4c-0.1,0.1-0.2,0.2-0.4,0.4c-7,6.9-10.9,16.4-10.7,26.2c-0.1,9.8,3.7,19.3,10.7,26.2
			c7.6,7.8,16.3,11.4,25.8,10.9c5-0.3,8.2-0.7,10.8-1.7c1.8-0.6,3.3-1.9,4.1-3.6c0.9-2,0.8-4.2-0.3-6.1c-0.6-1.1-1.6-2-2.7-2.6
			c-1.5-0.8-3.3-0.9-4.9-0.5c-2.2,0.8-4.6,1.1-6.9,1c-6.2,0.1-12.2-2.4-16.5-6.9c-4.5-4.4-6.9-10.4-6.9-16.7
			c-0.1-6.2,2.4-12.3,6.9-16.6c8.8-9.1,23.3-9.3,32.4-0.5c0.2,0.2,0.3,0.3,0.5,0.5c4.5,4.4,6.9,10.4,6.9,16.6v30.3
			C315.2,113.2,315.9,114.9,317.1,116.2z"/>
		<path class="st1" d="M168.8,56.6c-0.9,2-2.9,3.3-5.1,3.4c-2.8,0.1-4.6-1.7-11.1-3c-8.8-1.7-22.3-1.9-25.2,5.5
			c-0.9,2.4-0.4,5.2,1.3,7.1c1.9,2,6,2.8,9.3,3.6c10.1,2.5,22.2,3.4,29.5,8.6c4.4,3.1,7.6,7.4,7,15.7c-1.8,24.5-39.8,24.4-58.6,14.2
			c-1.2-0.7-2.1-1.7-2.6-3c-0.9-2.3-0.3-4.8,1.5-6.5c1.7-1.6,4.1-2,6.3-1.2c3.7,1.5,7.5,2.7,11.4,3.6c9.2,2,24.9,3,28.1-5.1
			c3.4-8.5-6.7-10.6-12.4-11.9c-10.9-2.4-21.9-2.9-29.1-9.1c-3.4-3-6-7.1-5.6-13.5c0.5-7,4.6-12.1,9-15.1c11.1-7.7,34.6-7,44.7-0.3
			c0.8,0.6,1.4,1.4,1.7,2.4C169.5,53.5,169.5,55.2,168.8,56.6z"/>
		<circle class="st2" cx="362.2" cy="50.9" r="6.9"/>
		<circle class="st2" cx="389.3" cy="50.9" r="6.9"/>
		<circle class="st2" cx="416.4" cy="50.9" r="6.9"/>
		<rect x="113" y="145.7" class="st0" width="215.8" height="1.2"/>
	</g>
</g>
</svg>
