<?xml version="1.0" encoding="UTF-8" standalone="no"?>
<!-- Created with Inkscape (http://www.inkscape.org/) -->

<svg
   version="1.1"
   id="svg2"
   width="1600"
   height="804.38666"
   viewBox="0 0 1600 804.38666"
   sodipodi:docname="AF_Minsait_LOG_RGB_POS_vertical.eps"
   xmlns:inkscape="http://www.inkscape.org/namespaces/inkscape"
   xmlns:sodipodi="http://sodipodi.sourceforge.net/DTD/sodipodi-0.dtd"
   xmlns="http://www.w3.org/2000/svg"
   xmlns:svg="http://www.w3.org/2000/svg">
  <defs
     id="defs6" />
  <sodipodi:namedview
     id="namedview4"
     pagecolor="#ffffff"
     bordercolor="#000000"
     borderopacity="0.25"
     inkscape:showpageshadow="2"
     inkscape:pageopacity="0.0"
     inkscape:pagecheckerboard="0"
     inkscape:deskcolor="#d1d1d1" />
  <g
     id="g8"
     inkscape:groupmode="layer"
     inkscape:label="ink_ext_XXXXXX"
     transform="matrix(1.3333333,0,0,-1.3333333,0,804.38667)">
    <g
       id="g10"
       transform="scale(0.1)">
      <path
         d="m 2429.07,5600.34 h -7.27 c -172.38,0 -310.48,-47.91 -410.48,-142.52 -18.39,-17.69 -35.45,-37.44 -50.84,-58.99 -15.18,21.15 -32.17,40.91 -50.78,59.12 -97.75,93.18 -233.9,140.99 -404.46,142.1 l -14.05,0.29 c -172.8,0 -310.84,-47.91 -410.42,-142.28 -99.016,-93.28 -149.227,-227.27 -149.227,-398.07 V 4045.15 h 204.117 v 1014.84 c 0,42.9 4.89,82.8 15.18,122.28 9.78,38.63 26.99,73.42 52.72,106 24.76,30.73 60.15,56.68 105.18,77.11 43.91,19.68 103.98,30.59 174.05,31.7 4.13,-0.84 8.67,-1.39 17.34,-0.76 74.62,-0.08 135.52,-10.5 180.91,-30.88 46.29,-21.15 81.82,-47.1 105.11,-77.17 l 0.76,-0.8 c 24.55,-29.37 41.33,-62.65 52.52,-104.58 10.14,-43.53 15.18,-83.74 15.18,-122.9 V 4045.15 h 211.81 v 1014.84 c 0,39.45 4.83,79.37 14.61,122.17 10.22,39.16 27.56,73.84 52.66,105.66 25.24,30.91 61.05,57.02 106.08,77.52 44.54,19.89 105.38,30.73 176.16,31.29 3.71,-0.59 9.51,-1.01 16.22,-0.31 73.91,-0.18 134.62,-10.59 180.2,-30.88 44.42,-20.35 80,-46.22 105.53,-76.95 25.31,-32.8 42.65,-67.56 52.65,-105.74 10.42,-42.58 15.6,-83.88 15.6,-122.76 V 4045.15 h 204.05 v 1014.84 c 0,170.39 -50.2,304.33 -149.36,398.07 -99.8,94.37 -238.32,142.28 -411.75,142.28"
         style="fill:#1b3541;fill-opacity:1;fill-rule:nonzero;stroke:none"
         id="path12" />
      <path
         d="m 8499.2,5067.47 v -498.42 c 0,-37.72 -5.32,-78.74 -15.74,-122.03 -8.74,-37.23 -25.39,-70.93 -50.77,-102.89 -24.47,-30.5 -59.29,-56.05 -103.77,-76.12 -44.83,-20.56 -104.2,-30.53 -181.61,-30.53 -76.15,0 -136.99,10.29 -181.39,30.81 -43.99,19.76 -78.88,45.21 -103.29,75.21 -25.94,33.35 -42.72,67.19 -51.12,103.67 -10.49,44.76 -15.73,84.65 -15.73,121.88 v 498.42 c 0,106.86 30.35,189.79 90.35,246.43 59.37,56.54 147.2,85.46 261.18,86.08 114.27,-0.62 202.44,-29.6 262.03,-86.08 59.51,-56.85 89.86,-139.79 89.86,-246.43 m 54.33,388.74 c -46.01,44.72 -105.8,81.18 -178.32,108.42 -67.97,24.24 -146.57,37 -227.26,37 -80.84,0 -159.8,-12.8 -228.68,-37.24 -71.88,-26.75 -130.06,-62.06 -177.68,-107.8 -48.96,-46.68 -87.56,-104.12 -114.55,-170.51 -26.36,-64.45 -39.72,-137.97 -39.72,-218.61 v -498.42 c 0,-168.67 51.19,-301.92 152.09,-395.9 98.75,-92.69 235.95,-139.93 407.83,-140.35 h 0.14 c 155.6,0.39 283.14,39.23 379.93,115.56 l 39.86,-98.7 h 141.04 v 1017.81 c 0,81.26 -13.28,154.83 -39.78,218.74 -27.28,66.4 -66.16,123.67 -114.9,170"
         style="fill:#1b3541;fill-opacity:1;fill-rule:nonzero;stroke:none"
         id="path14" />
      <path
         d="M 6955.52,4883.28 6497.9,5010.1 c -49.58,16.11 -85.38,38.92 -109.31,69.58 -23.7,30.56 -35.31,61.78 -35.31,95.45 0,50.49 8.89,88.25 27.34,115.98 18.12,28.35 41.97,50.13 71.13,65.06 32.65,17.14 66.64,27.83 104.12,32.63 l 1.04,0.14 c 38.67,6.46 79.66,9.76 121.61,9.76 112.31,0 202.51,-21.23 268.46,-63.26 58.96,-36.71 90.42,-99.23 93.36,-185.98 0.07,-2.3 0.34,-4.33 0.69,-5.87 v -26.74 h 201.4 v 26.99 c 0.42,1.68 0.63,4.16 0.63,7.17 v 0.83 c -4.33,150.53 -59.37,265.35 -163.64,341.43 -100.34,71.09 -233.2,107.07 -394.53,107.07 -69.58,0 -134.13,-6.72 -197.48,-20.54 -63.56,-14.18 -120.98,-38.63 -170.42,-72.61 -52.45,-35.81 -93.14,-80.8 -120.77,-133.14 -30.63,-54.69 -46.01,-121.58 -46.01,-198.92 0,-86.75 25.31,-162.13 75.1,-224.05 50.63,-63.77 119.02,-106.02 209.09,-129.03 l 459.02,-130.62 c 51.74,-15.04 90,-40.53 116.7,-77.9 25.53,-39.51 38.54,-80.95 38.54,-123.18 0,-56.74 -10.35,-100.98 -30.91,-131.68 -21.47,-32.65 -46.99,-56.36 -77.97,-72.48 -39.72,-19.06 -76.65,-29.82 -116.3,-33.88 -121.46,-12.38 -206.29,-10.7 -289.63,5.94 -43.16,9.23 -79.65,23.5 -111.2,43.46 -28.67,18.71 -52.45,43.75 -69.02,72.76 -16.78,28.43 -24.82,65.53 -24.82,113.3 0,4.09 -0.7,7.44 -1.26,9.85 v 26.82 h -200.14 l -3.78,-24.76 v 0.08 c -0.62,-2.32 -1.88,-6.68 -1.75,-12.87 3.08,-151.85 58.54,-267.03 164.69,-342.38 102.66,-72.72 236.57,-109.54 398.32,-109.54 73.77,0 145.24,6.82 212.16,20.21 69.65,14.13 129.72,38.32 183.78,73.98 l 0.77,0.49 c 53.77,37.9 95.31,85.15 127.4,145 30.5,60.39 46.02,132.94 46.02,215.7 0,97.31 -26.51,181.08 -78.74,249.05 -50.35,69.06 -124.75,117.49 -220.76,143.88"
         style="fill:#1b3541;fill-opacity:1;fill-rule:nonzero;stroke:none"
         id="path16" />
      <path
         d="m 3989.75,5582.61 h -570.13 c -9.03,0 -16.44,-1.72 -22.45,-3.18 l -24.82,-5.71 v -174.96 l 23.57,-4.65 c 1.11,-0.24 2.44,-0.48 3.77,-0.77 5.17,-1.22 11.81,-2.72 19.93,-2.72 h 364.12 V 4240.63 h -411.39 v -185.38 l 23.07,-4.94 c 4.27,-0.93 5.59,-1.22 229.79,-1.22 252.51,0 628.73,0.57 628.73,0.57 h 29.16 v 190.97 h -293.35 v 1341.98"
         style="fill:#1b3541;fill-opacity:1;fill-rule:nonzero;stroke:none"
         id="path18" />
      <path
         d="m 10958.7,4309.51 c -54.1,-51.88 -129.3,-78.21 -223.7,-78.21 -77.6,0 -135.3,21.18 -171.1,62.79 -38.1,44.61 -56.5,122.1 -56.5,236.96 v 859.11 h 434.4 c 4.4,0 7.8,0.81 9.7,1.33 l 23,4.2 v 187.65 h -26.4 c -1.7,0.28 -3.8,0.49 -6.3,0.49 h -434.4 v 449.05 h -202.8 V 4523.67 c 0,-161.57 36.9,-284.64 109.7,-365.77 74.4,-83.04 182.3,-125.1 320.7,-125.1 134.5,0 241.6,34.48 318,102.59 l 15.5,13.84 -79.1,189.8 -30.7,-29.52"
         style="fill:#1b3541;fill-opacity:1;fill-rule:nonzero;stroke:none"
         id="path20" />
      <path
         d="m 9988.05,4238.88 c -3.07,0.74 -7.76,1.75 -13.84,1.75 H 9707.5 v 1343.2 h -571.25 c -1.25,0 -2.31,-0.04 -3.43,-0.11 h -27.13 v -190.69 h 27.83 c 0.84,-0.07 1.82,-0.14 2.73,-0.14 h 365.52 V 4240.63 h -365.52 c -1.75,0 -3.43,-0.14 -4.9,-0.35 h -25.66 v -190.52 h 27.83 c 0.84,-0.1 1.75,-0.1 2.73,-0.1 h 837.96 c 6.3,0 11.4,1.04 14.75,1.75 0.77,0.13 1.61,0.35 2.45,0.49 l 24.79,3.74 v 153.91 l 0.4,26.89 -26.87,2.13 c -0.62,0.1 -1.19,0.24 -1.68,0.31"
         style="fill:#1b3541;fill-opacity:1;fill-rule:nonzero;stroke:none"
         id="path22" />
      <path
         d="m 5233.3,5600.34 c -41.47,0 -84.12,-5.71 -130.77,-17.31 -42.31,-9.16 -86.01,-24.51 -130.07,-45.73 -43.15,-20.67 -81.47,-46.17 -113.7,-75.67 -1.82,-1.5 -3.5,-3.07 -5.25,-4.65 l -66.5,126.68 H 4671.42 V 4045.15 h 203.42 v 1026.66 c 0,51.26 8.47,94.3 26.15,131.82 19.1,41.95 43.15,75.94 73.08,103.78 31.12,28.87 67.76,50.69 112.03,66.59 44.12,16.13 93.7,24.3 147.2,24.3 72.94,0 133.28,-10.44 178.81,-30.69 45.59,-21.54 81.04,-47.27 105.04,-76.29 24.25,-30.42 41.6,-65.18 51.67,-103.39 10.21,-45.74 15.03,-84.72 15.03,-122.41 V 4045.15 h 202.73 v 1020.37 c 0,169.32 -49.73,302.09 -147.48,394.53 -97.48,93.09 -234.05,140.29 -405.8,140.29"
         style="fill:#1b3541;fill-opacity:1;fill-rule:nonzero;stroke:none"
         id="path24" />
      <path
         d="m 12000,2485.19 v 157.68 H -0.00390625 V 2485.19 H 12000"
         style="fill:#1b3541;fill-opacity:1;fill-rule:nonzero;stroke:none"
         id="path26" />
      <path
         d="m 1554,840.68 c -6.23,20.859 -11.63,42.402 -16.21,64.57 -4.58,22.152 -8.88,44.582 -12.91,67.301 H 1515 c -4.78,-22.719 -9.36,-45.149 -13.75,-67.301 -4.39,-22.168 -9.71,-43.711 -15.93,-64.57 l -70.88,-230.219 h 209.35 z m 172.53,-593.969 -71.98,234.07 h -269.24 l -74.17,-234.07 h -161 L 1403.44,1083 h 235.17 l 253.3,-836.289 h -165.38"
         style="fill:#1b3541;fill-opacity:1;fill-rule:nonzero;stroke:none"
         id="path28" />
      <path
         d="m 2402.92,246.711 v 401.66 c 0,22.711 -1.19,41.848 -3.58,57.418 -2.37,15.563 -6.86,28.191 -13.45,37.91 -6.6,9.703 -15.67,16.66 -27.2,20.883 -11.54,4.207 -26.47,6.32 -44.78,6.32 -21.62,0 -46.26,-3.672 -73.9,-10.992 -27.67,-7.328 -58.53,-17.781 -92.59,-31.308 V 246.711 H 2000.16 V 880.25 h 141.76 v -50.559 c 34.43,19.77 68.78,35.801 103.03,48.079 34.26,12.269 69.14,18.402 104.67,18.402 44.69,0 80.41,-6.133 107.15,-18.402 26.73,-12.278 47.16,-29.391 61.26,-51.391 14.1,-21.969 23.35,-48.168 27.76,-78.559 4.39,-30.41 6.58,-63.558 6.58,-99.449 v -401.66 h -149.45"
         style="fill:#1b3541;fill-opacity:1;fill-rule:nonzero;stroke:none"
         id="path30" />
      <path
         d="M 2940.3,246.711 V 1083 H 3098 V 246.711 h -157.7"
         style="fill:#1b3541;fill-opacity:1;fill-rule:nonzero;stroke:none"
         id="path32" />
      <path
         d="m 3671.64,246.711 v 401.66 c 0,22.711 -1.2,41.848 -3.58,57.418 -2.38,15.563 -6.86,28.191 -13.46,37.91 -6.59,9.703 -15.66,16.66 -27.2,20.883 -11.54,4.207 -26.46,6.32 -44.78,6.32 -21.62,0 -46.26,-3.672 -73.9,-10.992 -27.67,-7.328 -58.53,-17.781 -92.59,-31.308 V 246.711 H 3268.88 V 880.25 h 141.75 v -50.559 c 34.44,19.77 68.78,35.801 103.04,48.079 34.25,12.269 69.13,18.402 104.67,18.402 44.68,0 80.4,-6.133 107.15,-18.402 26.72,-12.278 47.15,-29.391 61.27,-51.391 14.09,-21.969 23.34,-48.168 27.74,-78.559 4.39,-30.41 6.58,-63.558 6.58,-99.449 v -401.66 h -149.44"
         style="fill:#1b3541;fill-opacity:1;fill-rule:nonzero;stroke:none"
         id="path34" />
      <path
         d="m 4363.42,761.02 c -21.66,3.281 -43.14,5.941 -64.44,7.972 -21.28,1.988 -39.28,3.008 -53.95,3.008 -22.78,0 -42.77,-2.129 -60.02,-6.32 -17.26,-4.219 -31.86,-12.367 -43.78,-24.461 -11.93,-12.09 -20.92,-29.219 -26.98,-51.379 -6.07,-22.16 -9.08,-51 -9.08,-86.52 v -90.129 c 0,-28.211 2.38,-52.3 7.16,-72.261 4.77,-19.957 12.38,-36.239 22.84,-48.899 10.46,-12.621 23.86,-21.781 40.19,-27.449 16.34,-5.691 36.07,-8.531 59.21,-8.531 23.12,0 45.42,2.558 66.9,7.679 21.47,5.141 42.12,11.911 61.95,20.34 z m 7.69,-514.309 v 32.418 c -21.62,-13.559 -47.26,-25.18 -76.92,-34.91 -29.68,-9.699 -63.2,-14.539 -100.56,-14.539 -37.36,0 -70.7,5.691 -100,17.031 -29.32,11.34 -54.13,28.738 -74.45,52.199 -20.34,23.43 -35.81,52.93 -46.44,88.461 -10.62,35.52 -15.94,77.488 -15.94,125.82 v 90.129 c 0,55.672 6.68,102.289 20.06,139.821 13.37,37.55 32.05,67.679 56.05,90.39 23.98,22.719 52.74,38.821 86.27,48.36 33.51,9.531 70.6,14.281 111.27,14.281 23.8,0 46.32,-1.09 67.57,-3.301 21.25,-2.191 42.68,-5.32 64.29,-9.32 v 237.359 h 148.35 V 246.711 h -139.55"
         style="fill:#1b3541;fill-opacity:1;fill-rule:nonzero;stroke:none"
         id="path36" />
      <path
         d="M 4675.51,246.711 V 880.25 h 140.65 v -51.66 c 14.66,13.191 30.51,24.082 47.54,32.699 17.03,8.602 34.7,15.563 53.02,20.883 18.31,5.289 37.18,8.969 56.59,10.988 19.41,2.012 39.02,3.012 58.8,3.012 V 759.91 c -19.43,0 -38.93,-0.93 -58.52,-2.758 -19.6,-1.832 -38.56,-4.472 -56.87,-7.972 -18.32,-3.469 -35.53,-7.59 -51.65,-12.34 -16.12,-4.777 -30.22,-9.891 -42.31,-15.391 V 246.711 h -147.25"
         style="fill:#1b3541;fill-opacity:1;fill-rule:nonzero;stroke:none"
         id="path38" />
      <path
         d="m 5444.75,534.621 h -78.57 c -27.47,0 -51.01,-1.09 -70.61,-3.301 -19.6,-2.179 -35.71,-6.578 -48.36,-13.16 -12.62,-6.621 -21.87,-16.219 -27.73,-28.871 -5.87,-12.629 -8.8,-29.379 -8.8,-50.269 v -26.93 c 0,-14.641 2.2,-26.731 6.59,-36.27 4.4,-9.507 10.44,-17.129 18.14,-22.789 7.69,-5.691 17.03,-9.609 28.02,-11.812 10.99,-2.199 23.08,-3.309 36.26,-3.309 15.39,0 30.5,1.391 45.35,4.129 14.82,2.742 28.65,6.051 41.47,9.891 12.81,3.84 24.36,8.05 34.62,12.652 10.24,4.559 18.14,8.508 23.62,11.809 z m 8.21,-287.91 v 41.75 c -9.91,-6.582 -21.71,-13.379 -35.45,-20.313 -13.73,-6.988 -29.03,-13.289 -45.87,-18.957 -16.85,-5.691 -35.36,-10.351 -55.5,-14.031 -20.14,-3.648 -41.37,-5.48 -63.71,-5.48 -58.99,0 -104.67,14.922 -137.09,44.761 -32.41,29.86 -48.61,75.379 -48.61,136.551 v 23.637 c 0,42.133 7.22,75.812 21.7,101.09 14.47,25.293 34.89,44.59 61.26,57.972 26.37,13.372 57.88,22.059 94.51,26.098 36.63,4.031 77.28,6.043 121.98,6.043 h 75.27 v 39.57 c 0,22.34 -1.55,40.559 -4.66,54.661 -3.11,14.109 -9.44,25.097 -18.96,32.988 -9.53,7.871 -22.89,13.168 -40.12,15.941 -17.21,2.727 -39.74,4.117 -67.58,4.117 -31.86,0 -64.28,-1.039 -97.25,-3.027 -32.96,-2.031 -67.04,-5.062 -102.21,-9.062 v 99.992 c 6.6,2.929 17.23,6.39 31.88,10.449 14.64,4.008 31.96,7.871 51.93,11.531 19.95,3.649 41.93,6.77 65.93,9.348 23.99,2.539 48.82,3.832 74.45,3.832 50.55,0 92.27,-4.402 125.15,-13.18 32.88,-8.793 58.91,-22.523 78.06,-41.211 19.16,-18.672 32.58,-42.582 40.24,-71.699 7.66,-29.121 11.5,-64.023 11.5,-104.68 V 246.711 h -136.85"
         style="fill:#1b3541;fill-opacity:1;fill-rule:nonzero;stroke:none"
         id="path40" />
      <path
         d="m 6404.13,253.289 c -7.34,-1.82 -17.13,-4.098 -29.41,-6.859 -12.27,-2.75 -26.64,-5.391 -43.13,-7.969 -16.49,-2.551 -35.07,-4.66 -55.78,-6.301 -20.69,-1.66 -43.14,-2.48 -67.29,-2.48 -91.18,0 -158.38,25.179 -201.63,75.562 -43.24,50.34 -64.87,123.16 -64.87,218.387 v 79.691 c 0,96.692 21.63,169.692 64.87,218.969 43.25,49.242 110.45,73.883 201.63,73.883 24.15,0 46.6,-0.82 67.29,-2.481 20.71,-1.64 39.29,-3.652 55.78,-6.039 16.49,-2.371 30.86,-4.941 43.13,-7.691 12.28,-2.738 22.07,-5.219 29.41,-7.422 V 759.91 c -39.94,3.281 -73.83,5.77 -101.66,7.41 -27.83,1.672 -50.56,2.489 -68.13,2.489 -23.07,0 -43.6,-2.207 -61.55,-6.618 -17.94,-4.378 -32.96,-12.722 -45.05,-25 -12.09,-12.269 -21.35,-29.199 -27.74,-50.812 -6.42,-21.629 -9.63,-49.637 -9.63,-84.059 v -79.691 c 0,-34.059 3.21,-61.988 9.63,-83.77 6.39,-21.82 15.65,-38.847 27.74,-51.129 12.09,-12.269 27.11,-20.781 45.05,-25.539 17.95,-4.75 38.48,-7.14 61.55,-7.14 17.57,0 40.3,0.82 68.13,2.488 27.83,1.641 61.72,4.102 101.66,7.402 V 253.289"
         style="fill:#1b3541;fill-opacity:1;fill-rule:nonzero;stroke:none"
         id="path42" />
      <path
         d="m 6931.61,602.223 c 0,30.379 -2.66,56.129 -7.95,77.199 -5.31,21.058 -13.63,38.18 -24.95,51.367 -11.34,13.203 -25.7,22.801 -43.06,28.84 -17.36,6.051 -38.12,9.07 -62.22,9.07 -23.79,0 -44.36,-3.019 -61.72,-9.07 -17.36,-6.039 -31.7,-15.637 -43.04,-28.84 -11.34,-13.187 -19.75,-30.309 -25.23,-51.367 -5.48,-21.07 -8.23,-46.82 -8.23,-77.199 v -77.481 c 0,-30.41 2.65,-56.23 7.97,-77.48 5.29,-21.25 13.61,-38.571 24.93,-51.922 11.34,-13.379 25.7,-23.07 43.06,-29.121 17.36,-6.039 38.1,-9.067 62.26,-9.067 24.1,0 44.86,3.028 62.22,9.067 17.36,6.051 31.72,15.742 43.06,29.121 11.32,13.351 19.64,30.672 24.95,51.922 5.29,21.25 7.95,47.07 7.95,77.48 z m 147.24,-77.481 c 0,-100.371 -24.53,-174.64 -73.61,-222.812 -49.11,-48.168 -119.79,-72.25 -212.1,-72.25 -92.31,0 -163.11,24.082 -212.38,72.25 -49.27,48.172 -73.9,122.441 -73.9,222.812 v 77.481 c 0,99.617 24.63,173.527 73.9,221.707 49.27,48.16 120.07,72.242 212.38,72.242 92.31,0 162.99,-24.082 212.1,-72.242 49.08,-48.18 73.61,-122.09 73.61,-221.707 v -77.481"
         style="fill:#1b3541;fill-opacity:1;fill-rule:nonzero;stroke:none"
         id="path44" />
      <path
         d="m 7931.61,246.711 v 415.391 c 0,17.597 -0.44,33.16 -1.36,46.718 -0.94,13.539 -3.95,25 -9.06,34.321 -5.14,9.351 -13.01,16.488 -23.64,21.441 -10.62,4.938 -25.82,7.418 -45.59,7.418 -9.17,0 -19.05,-0.84 -29.69,-2.48 -10.61,-1.641 -21.7,-4.118 -33.24,-7.43 -11.53,-3.277 -23.17,-7.301 -34.89,-12.059 -11.71,-4.781 -23.08,-10.101 -34.06,-15.961 1.82,-12.441 2.83,-24.711 3.01,-36.8 0.2,-12.09 0.29,-23.809 0.29,-35.168 V 246.711 h -148.35 v 415.391 c 0,17.597 -0.47,33.238 -1.38,46.968 -0.92,13.75 -3.68,25.289 -8.25,34.629 -4.59,9.352 -11.81,16.383 -21.69,21.16 -9.89,4.75 -23.83,7.141 -41.78,7.141 -11.72,0 -23.52,-1.187 -35.43,-3.578 -11.92,-2.391 -23.82,-5.481 -35.72,-9.332 -11.91,-3.86 -23.34,-8.168 -34.33,-12.93 -11,-4.75 -21.25,-9.508 -30.78,-14.262 V 246.711 H 7218.42 V 880.25 h 141.76 v -50.559 c 26.01,20.52 55.23,36.711 87.63,48.629 32.42,11.91 66.21,17.852 101.38,17.852 37.71,0 67.94,-6.043 90.66,-18.133 22.71,-12.078 40.47,-28.93 53.3,-50.559 36.27,24.899 70.78,42.602 103.59,53.051 32.77,10.418 63.81,15.641 93.12,15.641 29.67,0 55.04,-3.109 76.1,-9.34 21.06,-6.23 38.64,-14.742 52.76,-25.543 14.08,-10.82 25.16,-23.637 33.22,-38.469 8.07,-14.828 14.2,-30.757 18.42,-47.789 4.22,-17.039 6.86,-35.011 7.97,-53.871 1.09,-18.851 1.64,-37.808 1.64,-56.859 v -417.59 h -148.36"
         style="fill:#1b3541;fill-opacity:1;fill-rule:nonzero;stroke:none"
         id="path46" />
      <path
         d="m 8646.47,597.809 c 0,33.343 -2.46,60.992 -7.4,82.98 -4.94,21.992 -12.46,39.461 -22.54,52.461 -10.08,13 -22.7,22.172 -37.91,27.48 -15.2,5.301 -33.06,7.969 -53.58,7.969 -10.26,0 -20.32,-0.469 -30.2,-1.379 -9.91,-0.91 -20.26,-2.648 -31.06,-5.23 -10.8,-2.551 -22.43,-6.008 -34.9,-10.418 -12.46,-4.402 -26.19,-9.891 -41.21,-16.492 V 367.039 c 21.63,-4.027 42.13,-7.059 61.56,-9.07 19.39,-2.008 37.91,-3.02 55.49,-3.02 22.34,0 42.32,2.301 59.89,6.871 17.58,4.59 32.43,13.559 44.52,26.91 12.09,13.379 21.32,32.051 27.73,56.071 6.4,23.961 9.61,55.39 9.61,94.23 z M 8241.53,14.8398 V 880.25 h 137.9 v -41.777 c 28.94,19.797 59.35,34.336 91.23,43.699 31.87,9.348 63.35,14 94.49,14 35.54,0 67.41,-5.313 95.61,-15.922 28.21,-10.641 52.21,-27.77 71.97,-51.379 19.81,-23.621 34.91,-54.41 45.34,-92.32 10.45,-37.91 15.68,-84.149 15.68,-138.742 v -58.778 c 0,-59 -6.8,-108.172 -20.34,-147.531 -13.57,-39.391 -32.61,-70.988 -57.14,-94.801 -24.55,-23.797 -53.94,-40.738 -88.19,-50.808 -34.25,-10.078 -72.09,-15.121 -113.46,-15.121 -9.9,0 -20.53,0.382 -31.87,1.109 -11.37,0.73 -22.64,1.73 -33.81,3.023 -11.17,1.289 -21.97,2.739 -32.4,4.379 -10.45,1.668 -19.7,3.399 -27.76,5.219 V 14.8398 h -147.25"
         style="fill:#1b3541;fill-opacity:1;fill-rule:nonzero;stroke:none"
         id="path48" />
      <path
         d="m 9281.11,534.621 h -78.58 c -27.45,0 -51.01,-1.09 -70.59,-3.301 -19.61,-2.179 -35.73,-6.578 -48.36,-13.16 -12.64,-6.621 -21.9,-16.219 -27.76,-28.871 -5.86,-12.629 -8.79,-29.379 -8.79,-50.269 v -26.93 c 0,-14.641 2.21,-26.731 6.61,-36.27 4.38,-9.507 10.43,-17.129 18.12,-22.789 7.7,-5.691 17.05,-9.609 28.03,-11.812 10.99,-2.199 23.08,-3.309 36.25,-3.309 15.39,0 30.5,1.391 45.33,4.129 14.84,2.742 28.66,6.051 41.5,9.891 12.81,3.84 24.36,8.05 34.6,12.652 10.26,4.559 18.13,8.508 23.64,11.809 z m 8.2,-287.91 v 41.75 c -9.89,-6.582 -21.71,-13.379 -35.45,-20.313 -13.73,-6.988 -29.03,-13.289 -45.87,-18.957 -16.85,-5.691 -35.36,-10.351 -55.48,-14.031 -20.15,-3.648 -41.4,-5.48 -63.72,-5.48 -58.98,0 -104.69,14.922 -137.09,44.761 -32.43,29.86 -48.62,75.379 -48.62,136.551 v 23.637 c 0,42.133 7.22,75.812 21.7,101.09 14.46,25.293 34.89,44.59 61.27,57.972 26.38,13.372 57.86,22.059 94.51,26.098 36.62,4.031 77.27,6.043 121.97,6.043 h 75.28 v 39.57 c 0,22.34 -1.57,40.559 -4.67,54.661 -3.11,14.109 -9.44,25.097 -18.95,32.988 -9.53,7.871 -22.91,13.168 -40.11,15.941 -17.22,2.727 -39.76,4.117 -67.59,4.117 -31.86,0 -64.29,-1.039 -97.25,-3.027 -32.97,-2.031 -67.04,-5.062 -102.2,-9.062 v 99.992 c 6.58,2.929 17.2,6.39 31.86,10.449 14.64,4.008 31.96,7.871 51.92,11.531 19.96,3.649 41.94,6.77 65.95,9.348 23.97,2.539 48.8,3.832 74.44,3.832 50.56,0 92.28,-4.402 125.15,-13.18 32.9,-8.793 58.9,-22.523 78.07,-41.211 19.16,-18.672 32.56,-42.582 40.25,-71.699 7.66,-29.121 11.48,-64.023 11.48,-104.68 V 246.711 h -136.85"
         style="fill:#1b3541;fill-opacity:1;fill-rule:nonzero;stroke:none"
         id="path50" />
      <path
         d="m 9986.08,246.711 v 401.66 c 0,22.711 -1.19,41.848 -3.58,57.418 -2.4,15.563 -6.87,28.191 -13.45,37.91 -6.61,9.703 -15.67,16.66 -27.21,20.883 -11.54,4.207 -26.47,6.32 -44.79,6.32 -21.6,0 -46.24,-3.672 -73.89,-10.992 -27.67,-7.328 -58.52,-17.781 -92.6,-31.308 V 246.711 H 9583.32 V 880.25 h 141.77 v -50.559 c 34.41,19.77 68.76,35.801 103.01,48.079 34.25,12.269 69.14,18.402 104.68,18.402 44.68,0 80.42,-6.133 107.12,-18.402 26.7,-12.278 47.2,-29.391 61.3,-51.391 14.1,-21.969 23.3,-48.168 27.7,-78.559 4.4,-30.41 6.6,-63.558 6.6,-99.449 v -401.66 h -149.42"
         style="fill:#1b3541;fill-opacity:1;fill-rule:nonzero;stroke:none"
         id="path52" />
      <path
         d="m 10472.9,251.109 -236.3,629.141 h 161 l 110.5,-336.27 c 4.4,-14.3 8.4,-28.218 12.1,-41.781 3.6,-13.547 7.2,-27.179 10.7,-40.929 3.5,-13.731 7,-27.739 10.7,-42.028 3.7,-14.301 7.7,-29.121 12.1,-44.519 7,31.136 13.5,60.078 19.8,86.828 6.2,26.73 13.5,54.211 21.9,82.429 l 100.6,336.27 h 153.9 l -220.4,-657.16 c -12.8,-37.371 -25.8,-69.981 -39,-97.809 -13.2,-27.8396 -28.7,-51.1013 -46.4,-69.7693 -17.8,-18.6992 -38.9,-32.6211 -63.2,-41.7812 C 10456.5,4.57031 10426.9,0 10392.1,0 c -30.7,0 -59.5,1.46094 -86.2,4.39063 -26.8,2.94921 -48.4,6.03907 -64.9,9.33987 V 121.969 c 12.8,-0.719 24.5,-1.449 34.9,-2.199 10.5,-0.731 20.3,-1.258 29.4,-1.641 9.2,-0.348 18.2,-0.629 26.9,-0.809 8.9,-0.199 18.2,-0.289 28.1,-0.289 13.5,0 25,1.66 34.3,4.938 9.4,3.312 17.6,8.722 24.8,16.222 7.1,7.508 13.7,17.309 19.7,29.399 6.1,12.09 12.4,26.922 19,44.492 l 14.8,39.027"
         style="fill:#1b3541;fill-opacity:1;fill-rule:nonzero;stroke:none"
         id="path54" />
    </g>
  </g>
</svg>
