<?xml version="1.0" encoding="UTF-8"?>
<svg version="1.1" xmlns="http://www.w3.org/2000/svg" width="3021" height="3021">
<path d="M0 0 C996.93 0 1993.86 0 3021 0 C3021 996.93 3021 1993.86 3021 3021 C2024.07 3021 1027.14 3021 0 3021 C0 2024.07 0 1027.14 0 0 Z " fill="#FEFEFE" transform="translate(0,0)"/>
<path d="M0 0 C0.78922852 0.11746582 1.57845703 0.23493164 2.39160156 0.35595703 C45.50362609 6.99377883 86.7073938 28.01673468 119 57 C119.59474121 57.53302734 120.18948242 58.06605469 120.80224609 58.61523438 C127.60520642 64.74697878 134.21295275 70.88301021 140 78 C140.97189786 79.14907938 141.94464191 80.29744328 142.91796875 81.4453125 C179.14880655 124.59014323 197.45839942 177.31806116 197.4375 233.375 C197.43790283 234.42785187 197.43830566 235.48070374 197.4387207 236.56546021 C197.40390886 251.94614176 196.88956911 266.9760425 192.8359375 281.90625 C192.06393407 284.76338419 191.38661482 287.63273417 190.71899414 290.515625 C180.66818192 333.04191431 158.07336732 369.77292294 128 401 C126.87078125 402.19109375 126.87078125 402.19109375 125.71875 403.40625 C120.53797799 408.75688339 114.83149425 413.37954358 109 418 C108.04609375 418.78246094 107.0921875 419.56492187 106.109375 420.37109375 C58.0985599 458.84129816 -5.42775708 474.36463247 -65.96655273 467.84594727 C-67.5803997 467.65915428 -69.19365383 467.46713943 -70.80615234 467.26904297 C-72.79162918 467.0255536 -74.78047802 466.80995934 -76.76953125 466.59765625 C-86.47651236 465.43281852 -95.68037225 462.86387289 -105 460 C-105.84546387 459.74057617 -106.69092773 459.48115234 -107.56201172 459.21386719 C-167.61260887 440.53543596 -217.83425064 399.25075275 -247.625 343.75 C-257.25684474 325.20880576 -263.96215464 306.27480303 -269 286 C-269.27392578 284.93587891 -269.54785156 283.87175781 -269.83007812 282.77539062 C-273.89139708 266.43850609 -274.44398975 250.4344608 -274.4375 233.6875 C-274.43790283 232.67448822 -274.43830566 231.66147644 -274.4387207 230.61776733 C-274.41119577 218.91741621 -273.99623988 207.55118089 -272 196 C-271.81268311 194.90582764 -271.62536621 193.81165527 -271.43237305 192.68432617 C-270.86563651 189.53142243 -270.25400014 186.39101967 -269.625 183.25 C-269.33109375 181.70119141 -269.33109375 181.70119141 -269.03125 180.12109375 C-267.80967848 173.97457881 -266.14326889 168.24687408 -263.90576172 162.39404297 C-262.85405101 159.61423834 -262.03957599 156.80172718 -261.25 153.9375 C-251.62007251 122.36029592 -231.65698058 93.6199197 -209 70 C-208.41621582 69.38366699 -207.83243164 68.76733398 -207.23095703 68.13232422 C-197.56946274 57.97485485 -187.44072116 49.10112018 -176 41 C-175.35675781 40.54399414 -174.71351562 40.08798828 -174.05078125 39.61816406 C-164.74568649 33.09020841 -155.05970164 27.28655 -145 22 C-144.34870117 21.65727051 -143.69740234 21.31454102 -143.02636719 20.96142578 C-131.35450171 14.92315758 -119.16016629 10.75041795 -106.63916016 6.828125 C-104.4861696 6.15255202 -102.34189506 5.45725641 -100.19921875 4.75 C-89.09453784 1.27893979 -77.49207247 -0.33772238 -66 -2 C-64.89893921 -2.16121338 -64.89893921 -2.16121338 -63.77563477 -2.32568359 C-42.82235213 -5.03450997 -20.77197333 -3.14805522 0 0 Z " fill="#8B100D" transform="translate(2160,1588)"/>
<path d="M0 0 C0 40.26 0 80.52 0 122 C-25.93548387 133.88709677 -25.93548387 133.88709677 -35.5390625 138.0546875 C-41.60322605 140.69065408 -47.6442503 143.3790294 -53.6875 146.0625 C-54.80423096 146.55741943 -55.92096191 147.05233887 -57.0715332 147.56225586 C-62.59896337 150.01803215 -68.10988328 152.50361151 -73.59765625 155.046875 C-79.61673841 157.83490336 -85.6732017 160.52803277 -91.75 163.1875 C-92.82217773 163.65816895 -93.89435547 164.12883789 -94.99902344 164.61376953 C-98.33219546 166.07695906 -101.66601315 167.53866819 -105 169 C-120.81012994 175.93056982 -136.58455745 182.93633328 -152.33203125 190.0078125 C-159.72614701 193.32787287 -167.13121092 196.62273548 -174.54052734 199.90869141 C-179.67401623 202.18650512 -184.80553217 204.46876198 -189.9375 206.75 C-192.25780575 207.78126519 -194.57811833 208.81251502 -196.8984375 209.84375 C-198.06729492 210.36324219 -199.23615234 210.88273438 -200.44042969 211.41796875 C-203.99414062 212.99739583 -207.54785156 214.57682292 -211.1015625 216.15625 C-212.83720459 216.92775391 -212.83720459 216.92775391 -214.60791016 217.71484375 C-216.88861941 218.72834904 -219.16953974 219.74137951 -221.45068359 220.75390625 C-226.51387631 223.00188289 -231.5743536 225.25520763 -236.625 227.53125 C-237.46796631 227.90991211 -238.31093262 228.28857422 -239.17944336 228.67871094 C-240.72071439 229.37158024 -242.26068608 230.06735038 -243.79907227 230.76660156 C-248.77603324 233 -248.77603324 233 -251 233 C-251 316.82 -251 400.64 -251 487 C-287.3 487 -323.6 487 -361 487 C-361 486.34 -361 485.68 -361 485 C-359.38281689 483.5671282 -357.70376628 482.20375251 -356 480.875 C-351.62502155 477.3840262 -347.61231897 473.77664583 -343.75390625 469.7265625 C-342 468 -342 468 -339.91589355 466.89941406 C-337.63114916 465.02309579 -337.63114916 465.02309579 -337.53796387 461.42626953 C-337.53524206 459.91168 -337.55490485 458.39695511 -337.59179688 456.8828125 C-337.59606689 456.05643784 -337.60033691 455.23006317 -337.60473633 454.37864685 C-337.62370787 451.6268974 -337.67128578 448.8763941 -337.71875 446.125 C-337.73781397 444.1718101 -337.75507533 442.21860186 -337.77062988 440.26538086 C-337.81583801 435.16840784 -337.88442741 430.07202405 -337.95874023 424.97540283 C-338.02219974 420.3990902 -338.06579765 415.82263147 -338.109375 411.24609375 C-338.18217518 403.8800012 -338.26576327 396.51409545 -338.35571289 389.14819336 C-339.00119371 335.74393874 -339.08752541 282.3449114 -339.0625 228.9375 C-339.06207577 228.00656273 -339.06165154 227.07562546 -339.06121445 226.11647797 C-339.05006763 202.07764215 -339.0298126 178.03881983 -339 154 C-336.45194414 152.71849875 -333.90309085 151.43862792 -331.35375977 150.15966797 C-330.63806068 149.79951096 -329.9223616 149.43935394 -329.18497467 149.06828308 C-323.51432848 146.22580764 -317.76991507 143.61876021 -311.9375 141.125 C-300.60773068 136.21073165 -289.39251684 131.06591635 -278.1875 125.875 C-274.78786431 124.30055678 -271.38815752 122.72626741 -267.98828125 121.15234375 C-267.18302505 120.77953781 -266.37776886 120.40673187 -265.54811096 120.02262878 C-259.29786823 117.13164938 -253.02726803 114.28948839 -246.73803711 111.484375 C-241.19163044 109.00307205 -235.66783142 106.47425878 -230.1484375 103.93359375 C-229.34207855 103.56247971 -228.5357196 103.19136566 -227.70492554 102.80900574 C-223.64968397 100.94200638 -219.5954708 99.07280886 -215.54248047 97.20092773 C-208.43643468 93.92374531 -201.32115408 90.68131695 -194.140625 87.5703125 C-184.51062962 83.39403745 -175.01136244 78.93816931 -165.5 74.5 C-155.36492418 69.77079504 -145.23173022 65.05981656 -134.96800232 60.61553955 C-127.43775344 57.34351454 -120.00141988 53.87012816 -112.55667114 50.40908813 C-100.77258433 44.93280185 -88.98311611 39.48625714 -77.0625 34.3125 C-66.93092603 29.91405965 -56.93811958 25.24999926 -46.95248413 20.53274536 C-36.63336252 15.66064834 -26.25996877 10.95171115 -15.7890625 6.41210938 C-11.95769142 4.75027834 -8.17374842 3.08782887 -4.4453125 1.203125 C-2 0 -2 0 0 0 Z " fill="#2D2D2D" transform="translate(1500,592)"/>
<path d="M0 0 C3.1556663 1.40976696 6.3097659 2.8230073 9.46362305 4.23681641 C10.34562126 4.63079117 11.22761948 5.02476593 12.13634491 5.43067932 C19.77090249 8.85641276 27.26215716 12.52729905 34.7225647 16.31454468 C38.38279231 18.17178296 42.050913 20.01331565 45.71875 21.85546875 C46.438918 22.21741837 47.159086 22.57936798 47.90107727 22.95228577 C56.54886671 27.29094672 65.28487379 31.43941009 74.02685547 35.58398438 C79.82144836 38.34376749 85.59691118 41.14337683 91.375 43.9375 C99.1932845 47.71709779 107.01482259 51.48946282 114.84863281 55.23681641 C128.05322365 61.55466423 141.2077775 67.9729135 154.36004639 74.39877319 C164.01442686 79.11502592 173.66953524 83.82697848 183.375 88.4375 C194.45957917 93.70359217 205.47653699 99.10755693 216.5 104.5 C228.53794846 110.38844287 240.57626813 116.27183152 252.67871094 122.02685547 C261.77888195 126.35774227 270.84064656 130.76728396 279.90509033 135.17230225 C289.18756536 139.68245391 298.48076695 144.16567431 307.83496094 148.52587891 C312.89698933 150.89698933 312.89698933 150.89698933 314 152 C314.12069919 153.66263862 314.17186423 155.33035583 314.19618225 156.99719238 C314.21438585 158.08656255 314.23258945 159.17593271 314.25134468 160.29831409 C314.26645025 161.51020247 314.28155582 162.72209085 314.29711914 163.97070312 C314.31676664 165.24675006 314.33641415 166.52279699 314.35665703 167.83751202 C314.41104636 171.39714018 314.45885071 174.95683026 314.50522685 178.51657081 C314.54555423 181.56803773 314.58903653 184.61945696 314.63235503 187.67088264 C314.76238697 196.8587388 314.88097691 206.04672311 314.99619293 215.23477554 C315.05100981 219.60534808 315.10745513 223.97589783 315.16434312 228.34644383 C315.90452522 285.33567207 316.17640485 342.31870835 316.125 399.3125 C316.12378891 400.65530722 316.12378891 400.65530722 316.12255335 402.02524185 C316.10135607 424.68353813 316.06097897 447.34177595 316 470 C316.92672516 470.30070404 317.85345032 470.60140808 318.80825806 470.91122437 C322.13528552 472.04614896 325.13657897 473.45510423 328.2734375 475.0390625 C329.42714844 475.61914062 330.58085938 476.19921875 331.76953125 476.796875 C332.97139883 477.40616191 334.17322119 478.01553802 335.375 478.625 C336.60007332 479.24255878 337.8253321 479.85974982 339.05078125 480.4765625 C342.03569632 481.98077167 345.01867503 483.48869122 348 485 C348 485.33 348 485.66 348 486 C307.74 486 267.48 486 226 486 C225.95782629 453.24039867 225.95782629 453.24039867 225.94921875 440.87133789 C225.94868752 440.11058083 225.94815628 439.34982376 225.94760895 438.56601346 C225.94374881 432.89817588 225.94048211 427.2303381 225.9375 421.5625 C225.9370657 420.76093523 225.93663139 419.95937045 225.93618393 419.13351583 C225.91131123 371.94062137 226.04046982 324.75335174 226.5 277.5625 C226.51793673 275.71926588 226.51793673 275.71926588 226.53623581 273.83879471 C226.67944095 259.2257359 226.83328823 244.61280929 227 230 C226.07561127 229.69857086 225.15122253 229.39714172 224.19882202 229.08657837 C220.8110882 227.93583029 217.65503045 226.53818217 214.4140625 225.0234375 C213.49352837 224.59437607 213.49352837 224.59437607 212.55439758 224.15664673 C210.57620819 223.23306393 208.6004876 222.3043461 206.625 221.375 C205.24943865 220.73045102 203.87386894 220.08591986 202.49829102 219.44140625 C195.35084505 216.08574391 188.22996709 212.6894932 181.19018555 209.11206055 C170.7329761 203.80948244 160.1303864 198.79291525 149.56347656 193.71337891 C146.35128753 192.1689049 143.1403984 190.62176214 139.9296875 189.07421875 C129.8495557 184.22556969 119.72859453 179.47835307 109.5625 174.8125 C102.01351821 171.34665665 94.50965968 167.82984414 87.10351562 164.06860352 C77.89767653 159.40274415 68.55880803 155.00707888 59.24804688 150.55566406 C56.12637574 149.06052813 53.00789035 147.55898437 49.890625 146.0546875 C40.88064377 141.71011091 31.86149429 137.38913424 22.79296875 133.16796875 C22.10193558 132.84626709 21.4109024 132.52456543 20.69892883 132.19311523 C17.29567681 130.60992206 13.89073581 129.03047567 10.48364258 127.45556641 C9.24950438 126.88315385 8.01537316 126.31072624 6.78125 125.73828125 C5.68876953 125.23337158 4.59628906 124.72846191 3.47070312 124.20825195 C1 123 1 123 0 122 C-0.09594225 120.41845152 -0.1218796 118.83260875 -0.12025452 117.24815369 C-0.12162918 116.22025223 -0.12300385 115.19235077 -0.12442017 114.13330078 C-0.12082489 112.99610596 -0.11722961 111.85891113 -0.11352539 110.68725586 C-0.11367142 109.49717422 -0.11381744 108.30709259 -0.1139679 107.08094788 C-0.11338894 103.80836726 -0.10835981 100.53582893 -0.10139394 97.26325679 C-0.09515967 93.84661335 -0.09455654 90.42996917 -0.09336853 87.01332092 C-0.09025543 80.53930733 -0.08204233 74.06531054 -0.07201904 67.59130436 C-0.06085725 60.2226208 -0.05534729 52.85393645 -0.05032361 45.48524654 C-0.03985969 30.32348831 -0.02226066 15.16174583 0 0 Z " fill="#8B0F0C" transform="translate(1527,592)"/>
<path d="M0 0 C0.7310495 -0.01226624 1.462099 -0.02453247 2.21530151 -0.03717041 C4.61219475 -0.06777601 7.00541923 -0.04766635 9.40234375 -0.02392578 C11.07951546 -0.02864682 12.75668249 -0.03544517 14.43383789 -0.04421997 C17.94105844 -0.05451418 21.44702712 -0.03962778 24.95410156 -0.00683594 C29.43711487 0.03305106 33.91719491 0.01007288 38.40010071 -0.03184319 C41.86110307 -0.05720823 45.32141641 -0.04905657 48.78244019 -0.03094864 C50.43456373 -0.02629811 52.086751 -0.03194263 53.73880005 -0.04830551 C56.05409982 -0.06620819 58.3647333 -0.03884248 60.6796875 0 C62.64989868 0.00835373 62.64989868 0.00835373 64.65991211 0.01687622 C68.91073667 1.0436606 70.87569893 2.12636704 73.85166097 5.27150905 C77.28765823 11.35361474 76.29180529 19.21193742 76.22872925 26.01196289 C76.23679575 27.89393943 76.24791387 29.77590495 76.26181996 31.6578474 C76.29106527 36.8279353 76.27658879 41.99711975 76.25491643 47.16721106 C76.23909475 52.743342 76.26351669 58.31931631 76.28277588 63.89541626 C76.31392616 74.81838579 76.30716857 85.74101891 76.28688739 96.6640017 C76.27108803 105.54013855 76.26893066 114.41618101 76.27655411 123.29232788 C76.27762674 124.55492312 76.27869937 125.81751835 76.27980451 127.11837405 C76.28204255 129.68319522 76.28431204 132.24801637 76.28661264 134.81283748 C76.30601108 158.18543146 76.28588351 181.55780952 76.24921446 204.93036167 C76.21599515 226.26633554 76.21896754 247.60201696 76.25244141 268.93798828 C76.28992467 292.90964205 76.30465778 316.88111305 76.28315556 340.85280704 C76.28092568 343.40826986 76.27872509 345.96373269 76.27655411 348.51919556 C76.27547418 349.77657994 76.27439425 351.03396432 76.2732816 352.32945126 C76.26723392 361.19642986 76.27744731 370.06330479 76.29391098 378.93026733 C76.31352963 389.73406695 76.30826068 400.53751051 76.27094577 411.34126925 C76.25253004 416.85515999 76.24537634 422.36845676 76.26848984 427.88234329 C76.2893223 432.92833327 76.27793214 437.97317781 76.24064697 443.01906359 C76.23281635 444.84600777 76.23683159 446.67304837 76.25377749 448.49993074 C76.38536256 463.86202757 76.38536256 463.86202757 72.01722813 468.48478794 C68.47667419 471.30421218 65.01234621 471.86358625 60.56860352 471.70043945 C59.82630997 471.70146164 59.08401642 471.70248383 58.31922913 471.70353699 C55.88839707 471.69869594 53.46141763 471.64443459 51.03125 471.58935547 C49.33733675 471.57628652 47.64339689 471.56632847 45.94944763 471.55934143 C41.50837105 471.53271705 37.06891774 471.46404607 32.628479 471.38641357 C28.09043331 471.31458108 23.5521232 471.28278744 19.01367188 471.24755859 C10.12168576 471.17266728 1.23090016 471.05332378 -7.66015625 470.90576172 C-7.66015625 470.24576172 -7.66015625 469.58576172 -7.66015625 468.90576172 C-8.32015625 468.90576172 -8.98015625 468.90576172 -9.66015625 468.90576172 C-13.20071069 466.17587222 -14.53128543 464.67907591 -15.27539539 460.21390057 C-15.29631049 458.75127827 -15.28975524 457.28810484 -15.26142883 455.8256073 C-15.26783702 454.61250939 -15.26783702 454.61250939 -15.27437466 453.37490445 C-15.28260471 450.66742135 -15.25512049 447.96149052 -15.2277832 445.25415039 C-15.22637273 443.31255123 -15.22716469 441.37094941 -15.22999573 439.42935181 C-15.23143132 434.15892143 -15.20201809 428.8890591 -15.16712594 423.61876082 C-15.13588643 418.11080407 -15.13293359 412.60283454 -15.1269989 407.09480286 C-15.11145342 396.6648413 -15.07041526 386.23514153 -15.02025145 375.80529529 C-14.96438004 363.93119798 -14.936877 352.05708822 -14.91177428 340.1828922 C-14.85950016 315.75703686 -14.77154402 291.33141395 -14.66015625 266.90576172 C-15.90918228 266.91682323 -15.90918228 266.91682323 -17.18344116 266.92810822 C-37.45658274 267.10488247 -57.72959126 267.23721525 -78.00334167 267.32025909 C-87.80768535 267.36148747 -97.61151417 267.41768275 -107.41552734 267.50927734 C-115.9620473 267.58908558 -124.50819436 267.64064404 -133.0550766 267.65846968 C-137.57964753 267.66888788 -142.10315179 267.69332094 -146.62738037 267.75160217 C-150.88926912 267.80605719 -155.1496559 267.82262446 -159.41185951 267.81062317 C-160.97276293 267.81281736 -162.53371849 267.82864332 -164.0943203 267.85940552 C-177.32865055 268.10739905 -177.32865055 268.10739905 -182.58740234 263.19616699 C-186.84295893 258.34219443 -186.81661481 253.24511518 -186.72265625 247.03076172 C-186.73031006 245.90686035 -186.73796387 244.78295898 -186.74584961 243.625 C-186.75127263 241.25826415 -186.73665585 238.89140687 -186.703125 236.52490234 C-186.66026292 232.91474665 -186.70275766 229.31254672 -186.75390625 225.70263672 C-186.7486194 223.3953276 -186.73836878 221.0880234 -186.72265625 218.78076172 C-186.7388501 217.70971191 -186.75504395 216.63866211 -186.77172852 215.53515625 C-186.64247544 210.33447518 -186.08449087 206.60420524 -182.58740234 202.61535645 C-176.61788427 197.04032844 -169.44024844 197.8467403 -161.7890625 197.99755859 C-160.18199273 197.99981768 -158.57491472 197.99854364 -156.96784973 197.99401855 C-152.62269001 197.99173044 -148.27931004 198.03864106 -143.93456268 198.09461021 C-139.38762018 198.14474484 -134.84063329 198.14932975 -130.29345703 198.15881348 C-121.690793 198.18364239 -113.08894584 198.24924183 -104.48664093 198.32960939 C-94.6899014 198.41914205 -84.8931221 198.46304293 -75.09607506 198.50317287 C-54.9503135 198.58671161 -34.80528641 198.72735417 -14.66015625 198.90576172 C-14.6666088 197.9278514 -14.67306135 196.94994108 -14.67970943 195.94239712 C-14.83510509 172.14788427 -14.95013559 148.35343723 -15.02284145 124.55852413 C-15.0589361 113.05144657 -15.10814603 101.54470421 -15.18823242 90.0378418 C-15.25800252 80.0084508 -15.30316384 69.97930256 -15.31877571 59.94967562 C-15.32790174 54.63890919 -15.34934871 49.32883723 -15.40026665 44.01829338 C-15.44781466 39.01866758 -15.46243015 34.02002162 -15.45191002 29.02019119 C-15.45383427 27.18637452 -15.46773901 25.35252476 -15.49459457 23.51890373 C-15.71152471 7.94220233 -15.71152471 7.94220233 -11.58924866 3.31687927 C-7.88350244 0.55306034 -4.6296556 0.01962982 0 0 Z " fill="#2D2D2D" transform="translate(648.66015625,1587.09423828125)"/>
<path d="M0 0 C0.85506134 -0.0061734 1.71012268 -0.0123468 2.59109497 -0.01870728 C35.77363483 -0.17287791 68.65997294 7.79101288 93.0546875 31.40234375 C106.38432587 44.66961638 114.85812596 61.03879379 118.625 79.375 C118.83552002 80.38079102 119.04604004 81.38658203 119.26293945 82.42285156 C119.88050167 85.42454083 120.47750267 88.42930692 121.0625 91.4375 C121.22137695 92.25428223 121.38025391 93.07106445 121.54394531 93.91259766 C125.85871558 116.7964639 126.35162633 140.16552713 126.39802551 163.38598442 C126.40651136 167.49773405 126.42691791 171.60928025 126.45056152 175.72096252 C126.50282925 185.17659055 126.53690588 194.63226433 126.57032013 204.08797455 C126.60126356 212.79790484 126.63638801 221.50776778 126.68663073 230.2176109 C126.70585057 233.62611143 126.72127713 237.03453075 126.72697449 240.44308281 C126.757889 258.59282204 126.757889 258.59282204 127.93554688 276.69555664 C128.00955971 277.46410949 128.08357254 278.23266233 128.15982819 279.02450466 C129.34071961 289.57096593 132.01922994 301.94361812 140.125 309.3125 C142.801256 312.24774851 144.24969665 315.54819798 145.0625 319.4375 C144.43259122 323.02248083 142.92284949 326.13674401 141.40234375 329.42578125 C140.58769653 331.18873535 140.58769653 331.18873535 139.7565918 332.98730469 C139.1714337 334.24171029 138.58589677 335.49593924 138 336.75 C137.7075943 337.37878052 137.4151886 338.00756104 137.11392212 338.65539551 C132.72663771 348.08155166 128.16483131 357.37353985 123.0625 366.4375 C102.50255119 367.46123189 87.29781064 359.89332834 72.09765625 346.40234375 C67.37289088 341.97371752 63.67677522 336.78886873 60.0625 331.4375 C56.89035292 332.81669438 55.08018966 334.35190992 52.8125 336.9375 C39.69753067 350.31913229 18.18946898 360.22246147 0.0625 364.4375 C-5.28623038 363.64455899 -9.52426284 360.51107713 -12.9375 356.4375 C-14.15349477 352.2477773 -13.99219288 348.27463725 -13.81640625 343.94140625 C-13.80367172 342.75272446 -13.79093719 341.56404266 -13.77781677 340.33934021 C-13.72759261 336.55745019 -13.61470421 332.7804294 -13.5 329 C-13.45483993 326.43040804 -13.41377805 323.86074056 -13.37695312 321.29101562 C-13.27793633 315.00486025 -13.12750729 308.72152794 -12.9375 302.4375 C-9.93404919 301.4259981 -6.94492896 300.43959804 -3.89453125 299.578125 C9.77082934 295.70768747 19.21838708 289.47905932 29.0625 279.4375 C29.93104614 278.68189285 30.79959229 277.92628571 31.69445801 277.14778137 C35.77961166 272.14026022 34.73991482 265.41142327 34.67773438 259.29174805 C34.68123859 257.84375356 34.68690056 256.39576294 34.69454956 254.94778442 C34.70878851 251.01864448 34.69173016 247.09020555 34.66826439 243.16113257 C34.64807236 239.0235069 34.65404054 234.8859081 34.65637207 230.74824524 C34.65631847 223.78004528 34.63657448 216.81211614 34.60449219 209.84399414 C34.56787333 201.85312355 34.55877854 193.8626111 34.5657897 185.87166756 C34.57216632 178.13282473 34.5611925 170.39410155 34.54182434 162.65528297 C34.53376923 159.39081899 34.53091849 156.12641722 34.53251648 152.8619442 C36.55925274 111.71772568 36.55925274 111.71772568 21.08203125 75.953125 C11.5184975 68.77585015 -0.17901203 69.23568408 -11.5625 69.1875 C-12.75746094 69.166875 -13.95242188 69.14625 -15.18359375 69.125 C-39.83622664 69.01816302 -62.684374 79.7658544 -81.9375 94.4375 C-85.19794117 96.61112745 -85.65936831 96.661285 -89.3125 96.1875 C-90.06273437 96.09984375 -90.81296875 96.0121875 -91.5859375 95.921875 C-95.3826726 95.13982325 -98.0789049 94.44703533 -100.6484375 91.42578125 C-101.19757812 90.54277344 -101.74671875 89.65976563 -102.3125 88.75 C-102.98925781 87.68523437 -103.66601562 86.62046875 -104.36328125 85.5234375 C-104.75596191 84.89663086 -105.14864258 84.26982422 -105.55322266 83.62402344 C-107.83151127 80.02537215 -110.17779339 76.47133295 -112.51220703 72.90893555 C-115.04441989 69.04406092 -117.57377069 65.17768406 -120.07470703 61.29248047 C-121.36526331 59.3145296 -122.68623893 57.35622109 -124.03076172 55.41455078 C-124.68963379 54.44372559 -125.34850586 53.47290039 -126.02734375 52.47265625 C-126.63312256 51.60133057 -127.23890137 50.73000488 -127.86303711 49.83227539 C-128.9375 47.4375 -128.9375 47.4375 -128.21728516 45.24609375 C-114.03484996 25.20346117 -87.30350458 16.37617076 -64.9375 9.4375 C-64.18629883 9.19757324 -63.43509766 8.95764648 -62.66113281 8.71044922 C-42.07726277 2.18055484 -21.49371043 0.06561811 0 0 Z " fill="#2D2D2D" transform="translate(948.9375,1691.5625)"/>
<path d="M0 0 C0.73440811 -0.00919968 1.46881622 -0.01839935 2.22547913 -0.02787781 C4.62708328 -0.04762407 7.02376793 -0.01008179 9.42504883 0.03051758 C11.10557417 0.03275006 12.7861054 0.03215972 14.46662903 0.02888489 C17.97646798 0.03062227 21.48466155 0.05958444 24.99414062 0.109375 C29.48702851 0.17188811 33.9776835 0.17662662 38.47091198 0.16239452 C41.93610283 0.15597835 45.40079085 0.17474843 48.86586952 0.20165443 C50.52240345 0.2125113 52.17899404 0.21681549 53.83556175 0.21437645 C56.15054833 0.21580716 58.46280624 0.24986038 60.77734375 0.29296875 C62.09224289 0.30599533 63.40714203 0.31902191 64.7618866 0.33244324 C69.0434064 1.14954141 70.51758177 2.61523741 73.19458008 5.98754883 C73.68958008 7.47254883 73.68958008 7.47254883 74.19458008 8.98754883 C74.85458008 8.98754883 75.51458008 8.98754883 76.19458008 8.98754883 C76.3776193 66.81561626 76.51863712 124.64365972 76.60310271 182.47195917 C76.61308142 189.29632941 76.62345385 196.12069903 76.6340332 202.94506836 C76.63507928 203.62417571 76.63612535 204.30328307 76.63720312 205.00296943 C76.67129492 227.01546241 76.73138599 249.02779113 76.80495784 271.04018459 C76.88256354 294.30173167 76.93054818 317.56315927 76.94728804 340.82484627 C76.95827485 354.76098398 76.99299751 368.69665011 77.05791181 382.63264269 C77.1001412 392.18407867 77.1129941 401.73527022 77.1025911 411.28679281 C77.09745785 416.8008831 77.10542465 422.31414833 77.14822388 427.82809258 C77.18711762 432.87567047 77.18914771 437.92186757 77.16177124 442.96950865 C77.15838722 444.79604621 77.16857061 446.62266946 77.19364554 448.44903803 C77.39210272 463.79552004 77.39210272 463.79552004 72.37154388 469.06378174 C68.53900921 472.20936655 65.44275664 472.99835028 60.43676758 473.02270508 C59.70717834 473.03672363 58.97758911 473.05074219 58.22589111 473.06518555 C55.8388571 473.10010335 53.45665317 473.07720914 51.06958008 473.05004883 C49.39623108 473.0554462 47.72288822 473.06321731 46.04956055 473.07324219 C42.55236755 473.08499861 39.05681569 473.06802392 35.55981445 473.03051758 C31.09342836 472.98492975 26.63088754 473.01119552 22.16464233 473.05909729 C18.71211152 473.08811066 15.26048143 473.07875918 11.80792236 473.05807495 C10.16220638 473.05276671 8.5164066 473.0591874 6.87078857 473.07791138 C4.5624788 473.09841644 2.26025255 473.06704902 -0.04760742 473.02270508 C-2.00996338 473.01315796 -2.00996338 473.01315796 -4.01196289 473.00341797 C-9.64383514 471.49523027 -12.78875726 469.01347273 -15.80541992 463.98754883 C-17.013039 457.93448983 -16.88678888 451.95770138 -16.82128906 445.80578613 C-16.83051009 443.9277794 -16.84321798 442.04978709 -16.85910702 440.17182493 C-16.89250133 435.01723501 -16.87599951 429.86383006 -16.85121727 424.70923591 C-16.83312324 419.14808105 -16.86105209 413.58713055 -16.88305664 408.02601624 C-16.91864416 397.13423095 -16.91093981 386.24288649 -16.88775551 375.35108387 C-16.86969401 366.49976107 -16.86723572 357.64856189 -16.87594604 348.79722595 C-16.87717191 347.53783029 -16.87839777 346.27843463 -16.87966079 344.98087546 C-16.88221857 342.42249855 -16.88481227 339.86412167 -16.88744152 337.30574483 C-16.90960759 313.99554907 -16.88661416 290.68561152 -16.84470074 267.37547045 C-16.80673619 246.09971283 -16.81013323 224.82433827 -16.84838867 203.54858398 C-16.8912334 179.64063227 -16.9080608 155.73289181 -16.88349056 131.82488871 C-16.88094215 129.27588307 -16.87842718 126.7268774 -16.87594604 124.1778717 C-16.87409474 122.29659484 -16.87409474 122.29659484 -16.87220603 120.37731239 C-16.86529639 111.53582667 -16.87696252 102.69447678 -16.89578247 93.85301208 C-16.91821126 83.07923454 -16.91216663 72.30592332 -16.86953652 61.53219926 C-16.84849972 56.0343181 -16.84029707 50.53721461 -16.86672974 45.03933907 C-16.89055948 40.00677799 -16.87748759 34.97571573 -16.83490932 29.94329077 C-16.82596883 28.12241872 -16.83052955 26.30142018 -16.84991562 24.48062938 C-17.00029924 9.18343674 -17.00029924 9.18343674 -11.98028088 3.91341877 C-8.12969042 0.7456894 -5.03356483 -0.0102555 0 0 Z " fill="#2E2E2E" transform="translate(1534.805419921875,1586.012451171875)"/>
<path d="M0 0 C0.73919678 -0.01387253 1.47839355 -0.02774506 2.23999023 -0.04203796 C4.66448131 -0.07771654 7.08537873 -0.06247888 9.51000977 -0.04321289 C11.20720827 -0.05047693 12.90439952 -0.05966869 14.60157776 -0.07069397 C18.15165675 -0.08549162 21.70050324 -0.07459708 25.25048828 -0.04589844 C29.78519897 -0.01163238 34.31646452 -0.04494642 38.85089016 -0.09810543 C42.35398655 -0.13101873 45.85626947 -0.12599724 49.3594532 -0.10995674 C51.03030835 -0.1071491 52.70123108 -0.11636426 54.37194633 -0.13816643 C56.71615645 -0.16341811 59.05453299 -0.13692097 61.3984375 -0.09765625 C62.07868484 -0.11542114 62.75893219 -0.13318604 63.45979309 -0.15148926 C68.87581081 0.02476819 71.96764482 2.30452062 75.55021626 6.06597036 C79.28156701 12.28378704 78.35486515 20.02947831 78.27978516 27.06542969 C78.28900622 28.93931167 78.30171414 30.81317918 78.31760311 32.68701649 C78.35099693 37.83020572 78.33449585 42.97220732 78.30971336 48.11540079 C78.29161913 53.66428577 78.31954829 59.21296595 78.34155273 64.7618103 C78.37714003 75.62953243 78.36943601 86.49681276 78.34625161 97.36455226 C78.32819002 106.19632899 78.32573185 115.02798183 78.33444214 123.85977173 C78.335668 125.11639203 78.33689387 126.37301233 78.33815688 127.66771203 C78.34071466 130.22045195 78.34330837 132.77319183 78.34593761 135.32593167 C78.36810362 158.58470341 78.34511036 181.84321638 78.30319683 205.10193332 C78.26523229 226.33069856 78.26862933 247.5590799 78.30688477 268.7878418 C78.34972961 292.64305591 78.36655683 316.49805832 78.34198666 340.35332394 C78.33943824 342.89671259 78.33692328 345.44010127 78.33444214 347.98348999 C78.33320793 349.23491045 78.33197373 350.48633092 78.33070213 351.77567321 C78.32379252 360.59762239 78.33545854 369.41943543 78.35427856 378.24136353 C78.37670749 388.99135288 78.37066245 399.74087488 78.32803261 410.49081063 C78.30699598 415.97654078 78.29879286 421.46149152 78.32522583 426.94721603 C78.34905594 431.96867577 78.33598311 436.9886334 78.29340541 442.00995672 C78.28446507 443.82679108 78.28902531 445.6437522 78.30841172 447.46050513 C78.45879349 462.72334836 78.45879349 462.72334836 73.44199085 467.99422932 C69.66477095 471.10702812 66.19005475 472.04751444 61.33496094 471.87744141 C60.58758667 471.8834285 59.8402124 471.88941559 59.07019043 471.89558411 C56.62643681 471.90522193 54.18759491 471.85790766 51.74438477 471.80834961 C50.03665692 471.80103307 48.32891312 471.79683573 46.62117004 471.79560852 C43.05583469 471.78487805 39.49212121 471.74791739 35.92724609 471.68994141 C31.35604048 471.61610687 26.78622001 471.59068179 22.21447277 471.58252239 C18.69452671 471.57394543 15.17486773 471.5488381 11.65505409 471.51777077 C9.96895007 471.5031942 8.28281646 471.49170228 6.59667015 471.48334312 C4.24589736 471.46744699 1.89632589 471.43144683 -0.45410156 471.38916016 C-1.15075424 471.38737762 -1.84740692 471.38559509 -2.56517029 471.38375854 C-5.44226067 471.31329596 -7.31732703 471.22239294 -9.69120789 469.51741028 C-10.73608398 467.92163086 -10.73608398 467.92163086 -10.73608398 465.92163086 C-12.05608398 465.26163086 -13.37608398 464.60163086 -14.73608398 463.92163086 C-14.89622688 405.94913116 -15.01962556 347.97664976 -15.09354129 290.00397291 C-15.10227271 283.16329275 -15.11134858 276.32261306 -15.12060547 269.48193359 C-15.12152078 268.80120064 -15.1224361 268.12046768 -15.12337915 267.41910646 C-15.15321319 245.35114269 -15.2057957 223.28330432 -15.27016453 201.21541653 C-15.33805835 177.89670885 -15.38005364 154.57809238 -15.39470345 131.25927788 C-15.40431915 117.28787004 -15.43471379 103.31682216 -15.49149925 89.34552509 C-15.5284365 79.7712151 -15.53969928 70.19709182 -15.53059363 60.6227157 C-15.52609999 55.09464903 -15.53309703 49.56721235 -15.57052231 44.03925705 C-15.60452424 38.98011566 -15.60634932 33.92202935 -15.58237625 28.86283994 C-15.57941236 27.0309432 -15.58834729 25.1989813 -15.61026626 23.3672133 C-15.78391477 7.96189523 -15.78391477 7.96189523 -11.41542053 3.34302521 C-7.89466076 0.54838329 -4.42194113 -0.08165391 0 0 Z " fill="#2D2D2D" transform="translate(377.736083984375,1587.078369140625)"/>
<path d="M0 0 C1.10093994 -0.01313232 2.20187988 -0.02626465 3.33618164 -0.03979492 C10.0745666 -0.04639173 16.20098322 0.63950949 22.75 2.1875 C23.74128906 2.36410156 24.73257813 2.54070312 25.75390625 2.72265625 C40.66901581 5.7967628 53.92343737 14.93681184 65.75 24.1875 C66.54519043 24.80915039 66.54519043 24.80915039 67.35644531 25.44335938 C99.80090982 51.16761212 112.91632799 79.63027858 118.11292458 120.14787674 C119.25466098 130.0587744 119.21056807 139.98309761 119.2175293 149.94677734 C119.22981825 152.23258593 119.24327633 154.51838847 119.25779724 156.80418396 C119.29244459 162.93752743 119.30803661 169.07076381 119.31763434 175.20419264 C119.32425312 179.04337443 119.33461236 182.88252876 119.34613991 186.72169876 C119.37759713 197.38718673 119.40455832 208.05264313 119.41089153 218.71817589 C119.41129867 219.39584416 119.4117058 220.07351242 119.41212528 220.7717161 C119.41293285 222.14484986 119.41373858 223.51798362 119.41454246 224.89111738 C119.41494804 225.57254669 119.41535362 226.253976 119.41577148 226.95605469 C119.41617346 227.63832841 119.41657544 228.32060214 119.4169896 229.02355082 C119.42450885 240.1232252 119.46916623 251.22241882 119.5296289 262.32191889 C119.59144632 273.76295166 119.62255161 285.20363838 119.62471896 296.64486086 C119.62655837 303.05132296 119.64117042 309.45713741 119.68753624 315.86344528 C119.73013235 321.8738426 119.73459525 327.88307134 119.70974159 333.89355659 C119.70715394 336.09622143 119.71821815 338.29895151 119.74401855 340.50146675 C119.94996744 359.20591069 119.94996744 359.20591069 115.17512512 364.49453735 C111.25149889 367.37570285 107.88976609 368.19882889 102.9921875 368.22265625 C102.26259827 368.2366748 101.53300903 368.25069336 100.78131104 368.26513672 C98.39427702 368.30005453 96.01207309 368.27716031 93.625 368.25 C91.951651 368.25539737 90.27830814 368.26316848 88.60498047 368.27319336 C85.10778747 368.28494978 81.61223561 368.2679751 78.11523438 368.23046875 C73.64884828 368.18488092 69.18630746 368.21114669 64.72006226 368.25904846 C61.26753144 368.28806183 57.81590135 368.27871035 54.36334229 368.25802612 C52.7176263 368.25271788 51.07182652 368.25913857 49.4262085 368.27786255 C47.11789872 368.29836761 44.81567248 368.26700019 42.5078125 368.22265625 C41.1995752 368.2162915 39.89133789 368.20992676 38.54345703 368.20336914 C33.99426224 366.98511714 31.48148023 365.66417445 28.32296371 362.1700325 C24.63808191 355.18304378 25.68939881 346.68132616 25.78173828 338.98388672 C25.77740339 336.91004444 25.76952419 334.83620699 25.75837708 332.76239014 C25.73790479 327.13716874 25.76625736 321.51311719 25.80278254 315.88801718 C25.83219528 309.98057352 25.81467925 304.07327767 25.80172729 298.165802 C25.78390185 286.95816419 25.8050145 275.75097266 25.8415488 264.54339325 C25.89357524 248.16404019 25.89532395 231.78466794 25.8875103 215.40524483 C25.88694102 214.19692336 25.88637175 212.98860189 25.88578522 211.74366462 C25.88460185 209.33082188 25.88329029 206.91797921 25.88184726 204.50513661 C25.87906534 197.49637762 25.89010683 190.48781989 25.91360784 183.47910094 C25.92694497 179.08587983 25.93232239 174.69266935 25.93626976 170.29943085 C25.93992587 168.28650824 25.94701855 166.27358791 25.95812035 164.2606926 C26.10249515 137.44776225 26.21027329 104.746398 6.1484375 84.08984375 C-0.72508801 78.63804094 -9.34628797 74.15476576 -18.25 74.1875 C-19.61125 74.09855469 -19.61125 74.09855469 -21 74.0078125 C-36.54535895 73.37254543 -53.16276356 76.10109294 -67.42919922 82.34423828 C-70.91663503 83.85613242 -72.66006874 84.39969405 -76.25 83.1875 C-79.80705193 81.69916937 -82.61064488 80.02276783 -85.25 77.1875 C-86.49381243 73.04287004 -86.30238181 69.08459952 -86.12890625 64.7890625 C-86.11617172 63.59896576 -86.10343719 62.40886902 -86.09031677 61.18270874 C-86.04003038 57.3905453 -85.9271297 53.60321056 -85.8125 49.8125 C-85.767348 47.23835048 -85.72628471 44.66412576 -85.68945312 42.08984375 C-85.59035355 35.78742176 -85.43986161 29.48780577 -85.25 23.1875 C-82.74101309 21.91767553 -80.23038904 20.65127851 -77.71875 19.38671875 C-77.0184668 19.03186401 -76.31818359 18.67700928 -75.59667969 18.31140137 C-63.59011121 12.27692224 -51.10610821 7.99020148 -38.25 4.1875 C-37.27289062 3.87683594 -36.29578125 3.56617188 -35.2890625 3.24609375 C-23.79502513 -0.24256569 -11.90269505 0.08938089 0 0 Z " fill="#8B0F0C" transform="translate(2606.25,1690.8125)"/>
<path d="M0 0 C4.74085068 -0.46545413 7.58741122 0.5515258 11.37133789 3.45727539 C15.42858032 7.24629952 16.32841068 9.93663778 16.6730957 15.44287109 C16.70451991 18.24024317 16.62330599 21.02618538 16.53027344 23.82177734 C16.51346171 25.3124607 16.50066264 26.8031942 16.49168396 28.29394531 C16.45751692 32.19480641 16.36929828 36.09259256 16.26934814 39.99224854 C16.17684251 43.98057459 16.13608384 47.96940369 16.09082031 51.95849609 C15.99464764 59.7684833 15.84130186 67.57594756 15.65136719 75.38427734 C15.11049469 75.5483609 14.56962219 75.71244446 14.01235962 75.88150024 C11.52806521 76.639105 9.04677853 77.4061452 6.56542969 78.17333984 C5.714729 78.43123291 4.86402832 78.68912598 3.98754883 78.95483398 C-14.90150789 84.8263721 -27.70970076 97.67723915 -36.80566406 114.91552734 C-54.69121694 150.40476908 -56.64662347 194.70090732 -44.34863281 232.38427734 C-39.57707029 246.7953962 -33.52023924 259.91330403 -23.34863281 271.38427734 C-22.51912109 272.33753906 -22.51912109 272.33753906 -21.67285156 273.31005859 C-12.74995129 282.91442142 -1.10378839 288.37861359 11.85375977 289.9296875 C13.10697021 290.07970215 14.36018066 290.2297168 15.65136719 290.38427734 C15.83722658 299.24231055 15.97912189 308.09966664 16.06586456 316.95922852 C16.10751073 321.07378297 16.16393652 325.18699779 16.25488281 329.30078125 C16.34219984 333.2755537 16.38972076 337.24904301 16.41038513 341.22470093 C16.42509842 342.73664543 16.45383261 344.2485244 16.49720764 345.75991821 C16.82138109 357.53034803 16.82138109 357.53034803 13.93029785 362.1113739 C10.90385868 365.24979966 8.63585494 367.09155951 4.43261719 368.34130859 C-36.44025995 366.54095567 -72.53230434 347.17746025 -100.73535156 318.23974609 C-113.87722076 303.87994581 -123.71476361 287.01779709 -131.52148438 269.26074219 C-132.26622203 267.57123404 -133.03635948 265.892977 -133.80957031 264.21630859 C-137.09635628 256.8359801 -139.04438342 249.28220225 -140.85595703 241.44433594 C-141.34017596 239.41963857 -141.8683936 237.41247048 -142.41503906 235.40380859 C-146.9160819 218.76670835 -147.76204749 202.28243954 -147.72363281 185.13427734 C-147.72275665 184.17372437 -147.72188049 183.21317139 -147.72097778 182.22351074 C-147.57291248 132.77072575 -133.84728254 86.75068836 -99.34863281 50.38427734 C-98.88650391 49.88959961 -98.424375 49.39492187 -97.94824219 48.88525391 C-75.16925598 24.62846977 -45.71353329 8.19209863 -12.97363281 2.07177734 C-12.05807617 1.90000977 -11.14251953 1.72824219 -10.19921875 1.55126953 C-6.80810992 0.96081474 -3.39588564 0.55562619 0 0 Z " fill="#2D2D2D" transform="translate(1305.3486328125,1692.61572265625)"/>
<path d="M0 0 C0.70632568 0.00644531 1.41265137 0.01289062 2.14038086 0.01953125 C9.54321184 0.27805631 13.99208937 2.38478307 19.2109375 7.47265625 C25.60875775 14.45803142 26.98384727 20.02245716 26.6953125 29.375 C25.99229822 37.93684987 20.17545394 43.70784122 14.20703125 49.3125 C-5.1715743 70.30286577 -12.69483615 97.75599583 -12.06640625 125.76171875 C-11.85132787 130.90090313 -11.27802096 135.97076361 -10.5625 141.0625 C-10.39874878 142.27534668 -10.39874878 142.27534668 -10.23168945 143.51269531 C-9.31459426 149.34121113 -7.41186663 154.22446456 -4.8125 159.5 C-4.49555176 160.16942627 -4.17860352 160.83885254 -3.85205078 161.52856445 C9.21387988 188.99570514 28.05808869 210.54702728 57.1875 221.5 C58.10273438 221.86996094 59.01796875 222.23992187 59.9609375 222.62109375 C70.78019219 226.85269336 81.63715289 227.89178952 93.1875 227.875 C94.94211548 227.87258301 94.94211548 227.87258301 96.73217773 227.87011719 C109.91185105 227.68657883 123.29542296 225.97783094 135.3125 220.234375 C137.1875 219.5 137.1875 219.5 141.1875 219.5 C141.1875 218.84 141.1875 218.18 141.1875 217.5 C141.74695312 217.25507812 142.30640625 217.01015625 142.8828125 216.7578125 C161.84974507 207.91470889 180.36651436 191.84925883 189.1875 172.5 C189.8475 172.5 190.5075 172.5 191.1875 172.5 C191.36853271 171.95182617 191.54956543 171.40365234 191.73608398 170.83886719 C193.03304188 166.9275788 194.34714502 163.02504744 195.72265625 159.140625 C204.81673132 133.22630268 205.91523332 102.81345207 194.13671875 77.43359375 C193.49458425 76.11865467 192.84494928 74.80734921 192.1875 73.5 C191.87119629 72.86980957 191.55489258 72.23961914 191.22900391 71.59033203 C185.50731904 60.45270118 177.82369898 51.24379072 169.40234375 42.05859375 C168.1875 40.5 168.1875 40.5 168.1875 38.5 C167.5275 38.5 166.8675 38.5 166.1875 38.5 C163.36564617 31.09263369 162.30017568 22.25525131 165.28515625 14.734375 C169.02494778 8.87038189 174.57912585 3.02505863 181.1875 0.5 C188.86414852 -0.29702908 197.29738992 -0.92247937 203.921875 3.578125 C221.3274892 18.34288739 234.32205216 37.5190864 243.1875 58.5 C243.65414062 59.60085938 244.12078125 60.70171875 244.6015625 61.8359375 C247.06355451 68.01474325 248.87569479 73.86230792 249.828125 80.453125 C249.98334309 82.487235 249.98334309 82.487235 251.1875 83.5 C256.32095329 107.78415987 258.36623417 141.09261602 248.93481445 164.57910156 C247.72253801 167.69513915 246.86587058 170.91492989 245.9375 174.125 C239.98325302 193.66714393 228.19011154 210.95073761 215.1875 226.5 C214.42566406 227.41652344 213.66382812 228.33304688 212.87890625 229.27734375 C207.54191986 235.45150448 201.63285305 240.51629805 195.1875 245.5 C193.83398438 246.59441406 193.83398438 246.59441406 192.453125 247.7109375 C186.46424478 252.42593989 180.26868619 256.34200927 173.625 260.0625 C172.44538696 260.72560181 172.44538696 260.72560181 171.24194336 261.40209961 C170.50081299 261.8069458 169.75968262 262.21179199 168.99609375 262.62890625 C168.33407959 262.99056885 167.67206543 263.35223145 166.98999023 263.72485352 C165.1875 264.5 165.1875 264.5 162.1875 264.5 C162.1875 265.16 162.1875 265.82 162.1875 266.5 C159.20922432 267.60657994 156.22971615 268.70980534 153.25 269.8125 C152.41919922 270.12123047 151.58839844 270.42996094 150.73242188 270.74804688 C148.22126923 271.67629396 145.70597957 272.59182922 143.1875 273.5 C142.4035083 273.78464111 141.6195166 274.06928223 140.81176758 274.36254883 C136.12366894 276.00460877 131.71299803 277.01224295 126.75 277.5625 C122.62044861 278.03024854 118.62515358 278.61547704 114.578125 279.5390625 C87.57099465 285.06866669 50.78269465 280.07177877 27.1875 265.5 C24.85625071 264.49515117 22.52279398 263.49541272 20.1875 262.5 C-6.20201262 248.92914612 -30.44936281 226.28265893 -43.8125 199.5 C-43.8125 198.84 -43.8125 198.18 -43.8125 197.5 C-44.4725 197.5 -45.1325 197.5 -45.8125 197.5 C-49.95051104 189.66733625 -53.85028184 181.40051798 -54.8125 172.5 C-55.4725 172.5 -56.1325 172.5 -56.8125 172.5 C-57.00585938 171.64277344 -57.19921875 170.78554687 -57.3984375 169.90234375 C-57.65882812 168.75894531 -57.91921875 167.61554688 -58.1875 166.4375 C-58.44273438 165.31214844 -58.69796875 164.18679688 -58.9609375 163.02734375 C-59.53122226 160.66510918 -60.15974161 158.31622178 -60.84375 155.984375 C-64.84046096 141.60910816 -64.11695064 126.40629647 -63.86132812 111.63378906 C-63.82193933 109.10581644 -63.81601197 106.58267739 -63.828125 104.0546875 C-63.43490431 85.53399302 -57.1381318 65.44382211 -47.8125 49.5 C-47.35101562 48.40300781 -46.88953125 47.30601563 -46.4140625 46.17578125 C-40.57816455 32.3498926 -30.50714429 19.99434385 -20.0625 9.375 C-19.53180908 8.83037109 -19.00111816 8.28574219 -18.4543457 7.72460938 C-12.92237742 2.25914563 -7.89283203 -0.07510724 0 0 Z " fill="#FEFCFC" transform="translate(2027.8125,1700.5)"/>
<path d="M0 0 C1.60598057 -0.01736573 3.2125256 -0.00149483 4.8180542 0.04037476 C5.69645966 0.0394986 6.57486511 0.03862244 7.47988892 0.03771973 C10.38095287 0.04189724 13.27969938 0.08855602 16.18035889 0.1355896 C18.19245134 0.14678118 20.20456015 0.15532154 22.2166748 0.16131592 C27.51073403 0.18421717 32.80380443 0.24315213 38.09747314 0.30953979 C43.49996564 0.37093406 48.90261804 0.39832486 54.30535889 0.42855835 C64.90475151 0.49289364 75.50341045 0.59528929 86.10223389 0.7215271 C86.94808387 2.27728688 87.77841788 3.8414883 88.60223389 5.4090271 C89.06629639 6.27914429 89.53035889 7.14926147 90.00848389 8.04574585 C91.17086756 10.88943448 91.44333433 12.68465334 91.10223389 15.7215271 C89.40692139 18.3855896 89.40692139 18.3855896 86.97723389 21.3465271 C86.05055073 22.50101145 85.12620763 23.65737672 84.20379639 24.8152771 C83.70267334 25.44047241 83.20155029 26.06566772 82.6852417 26.70980835 C79.81711002 30.35468883 77.09171695 34.10457973 74.35223389 37.8465271 C73.15173933 39.48066099 71.95121816 41.11477533 70.75067139 42.74887085 C70.14835693 43.56984253 69.54604248 44.39081421 68.92547607 45.23666382 C61.21228179 55.74883461 53.48041485 66.24534441 45.64080811 76.66366577 C41.7615771 81.82549399 37.92680646 87.01910633 34.10223389 92.2215271 C29.79766226 98.07687235 25.47186958 103.91456888 21.10223389 109.7215271 C14.36903855 118.67257102 7.73608388 127.69674207 1.10223389 136.7215271 C-7.50621501 148.4325849 -16.1539209 160.11110992 -24.89776611 171.7215271 C-23.60852631 174.50975947 -22.21157081 176.71149312 -20.17510986 179.00668335 C-19.64111572 179.61415405 -19.10712158 180.22162476 -18.5569458 180.84750366 C-17.9887915 181.4865564 -17.42063721 182.12560913 -16.83526611 182.7840271 C-15.65051522 184.13327233 -14.46692667 185.48353905 -13.28448486 186.83480835 C-12.70489014 187.49690308 -12.12529541 188.1589978 -11.52813721 188.84115601 C-7.88028691 193.0483652 -4.39572027 197.38979616 -0.89776611 201.7215271 C4.52114201 208.41313292 10.03817076 215.00435653 15.65789795 221.52719116 C19.45362724 225.94144795 23.15486816 230.4246807 26.82489014 234.94418335 C29.38427606 238.06549277 31.98824934 241.14595949 34.60223389 244.2215271 C40.24017322 250.85916338 45.75588167 257.59211623 51.23895264 264.35824585 C55.9570342 270.16055441 60.77714305 275.86208394 65.65789795 281.52719116 C69.45668682 285.94500611 73.16144955 290.43133072 76.83270264 294.9559021 C79.3432329 298.01520576 81.90740146 301.02461807 84.47723389 304.0340271 C88.89297075 309.21342852 93.14135969 314.50607645 97.30194092 319.89242554 C99.70040702 322.98806917 102.17211332 325.93059619 104.85223389 328.7840271 C107.10223389 331.7215271 107.10223389 331.7215271 106.90301514 334.0730896 C106.04147003 336.92249245 104.91250118 339.39409 103.53973389 342.0340271 C103.08469482 342.91703491 102.62965576 343.80004272 102.16082764 344.70980835 C101.63682373 345.70560913 101.63682373 345.70560913 101.10223389 346.7215271 C89.68879721 347.02364609 78.27632143 347.25417212 66.85969067 347.39508533 C61.55734052 347.46274398 56.25773852 347.55438735 50.95697021 347.70223999 C45.83440298 347.84421667 40.7144659 347.92136397 35.59008217 347.95493126 C33.6422008 347.97882741 31.69445275 348.02549845 29.74770164 348.09601784 C13.71103604 348.65346271 13.71103604 348.65346271 8.49139404 343.87342834 C5.61100667 340.732552 3.35718961 337.32987347 1.10223389 333.7215271 C0.11389974 332.44963871 -0.88961923 331.18906421 -1.92120361 329.95199585 C-2.69721924 328.94781616 -3.47323486 327.94363647 -4.27276611 326.9090271 C-8.2506173 321.79298784 -12.29903536 316.74120575 -16.39776611 311.7215271 C-22.77955551 303.89829469 -29.01976217 295.97080008 -35.23175049 288.01254272 C-41.0938107 280.50739411 -47.03110879 273.07193859 -53.05255127 265.69393921 C-57.09913796 260.72745495 -61.07104735 255.70722712 -65.01495361 250.6590271 C-68.46716296 246.24787072 -72.00504635 241.91286605 -75.56573486 237.5887146 C-79.63893584 232.58079247 -83.60564929 227.48880927 -87.57672119 222.39974976 C-88.94815912 220.59395073 -88.94815912 220.59395073 -90.94004822 218.64686584 C-93.47212583 214.86328458 -93.51733259 211.64357591 -93.54229736 207.23788452 C-93.56215698 206.39478729 -93.5820166 205.55169006 -93.60247803 204.68304443 C-93.66081376 201.89756045 -93.68815591 199.11299007 -93.71026611 196.32699585 C-93.72157562 195.36965357 -93.73288513 194.41231129 -93.74453735 193.42595863 C-93.80447697 188.35003897 -93.84140042 183.27457225 -93.85870361 178.19833374 C-93.88052562 172.99337986 -93.97636308 167.79267546 -94.09059143 162.58904552 C-94.16574098 158.55560497 -94.18595295 154.52314991 -94.19204712 150.48906898 C-94.20403213 148.57341833 -94.23573348 146.65777217 -94.28878784 144.74281883 C-94.6484721 130.75043963 -91.84546682 122.93391403 -82.44949245 112.5317173 C-79.82793252 109.47349629 -77.62617767 106.13374027 -75.39776611 102.7840271 C-74.89237305 102.04410522 -74.38697998 101.30418335 -73.86627197 100.5418396 C-73.47318848 99.96176147 -73.08010498 99.38168335 -72.67510986 98.7840271 C-69.81530791 94.58518404 -66.89485617 90.4308337 -63.96026611 86.2840271 C-63.20979004 85.22320923 -63.20979004 85.22320923 -62.44415283 84.14096069 C-61.43142559 82.71025153 -60.4184047 81.27975018 -59.40509033 79.84945679 C-56.9413873 76.37138169 -54.48155333 72.8905786 -52.02276611 69.4090271 C-51.28812134 68.36887451 -51.28812134 68.36887451 -50.53863525 67.30770874 C-46.64404869 61.78895916 -42.76877305 56.25683395 -38.89776611 50.7215271 C-31.50829955 40.15503482 -24.07335789 29.62108588 -16.62432861 19.0965271 C-16.08437256 18.33299927 -15.5444165 17.56947144 -14.98809814 16.7828064 C-13.96113418 15.33064719 -12.93351185 13.87895325 -11.90509033 12.42782593 C-11.20537109 11.43818848 -11.20537109 11.43818848 -10.49151611 10.42855835 C-9.88340088 9.56968018 -9.88340088 9.56968018 -9.26300049 8.69345093 C-7.74978154 6.60706039 -7.74978154 6.60706039 -6.35717773 3.64085388 C-3.89776611 0.7215271 -3.89776611 0.7215271 0 0 Z " fill="#2D2D2D" transform="translate(1711.8977661132813,1711.2784729003906)"/>
<path d="M0 0 C0.72293243 -0.00116821 1.44586487 -0.00233643 2.19070435 -0.00354004 C4.55170155 0.00198078 6.90747803 0.06392003 9.26757812 0.12695312 C10.91521445 0.1418937 12.56288657 0.15327214 14.21057129 0.16125488 C18.52530873 0.19164778 22.8378554 0.27009335 27.1517334 0.35888672 C31.56244271 0.44105995 35.97350977 0.47733303 40.38476562 0.51757812 C49.02378641 0.60310586 57.66103396 0.73944987 66.29882812 0.90820312 C67.40710064 5.2821732 68.50966043 9.65756525 69.61132812 14.03320312 C70.07442383 15.86044922 70.07442383 15.86044922 70.546875 17.72460938 C70.85302734 18.94277344 71.15917969 20.1609375 71.47460938 21.41601562 C71.75216064 22.51574707 72.02971191 23.61547852 72.31567383 24.74853516 C72.64482703 26.13475117 72.97230281 27.52136576 73.29882812 28.90820312 C73.54234241 29.89551816 73.78585669 30.88283319 74.0367502 31.90006685 C75.97480816 40.20659394 76.73536594 47.959325 76.70669556 56.4720459 C76.71419779 57.76200989 76.72170003 59.05197389 76.7294296 60.3810277 C76.74949301 63.91795952 76.75126894 67.45468692 76.74963832 70.99166632 C76.75109526 74.82255619 76.76972418 78.65337161 76.78588867 82.48422241 C76.81783515 90.83477258 76.82780518 99.18526054 76.8335309 107.53586388 C76.83729379 112.75325204 76.84611157 117.97062389 76.85602951 123.18800354 C76.88293253 137.64823777 76.90547211 152.10845633 76.90790749 166.56871796 C76.90806306 167.49154683 76.90821863 168.4143757 76.90837892 169.36516908 C76.90866996 171.23565642 76.90895533 173.10614376 76.90923508 174.9766311 C76.90944936 176.36926804 76.90944936 176.36926804 76.90966797 177.79003906 C76.90987747 179.18438229 76.90987747 179.18438229 76.91009121 180.60689408 C76.91323304 195.7014166 76.94990574 210.7956535 77.00130422 225.89008158 C77.05371467 241.40564092 77.08002091 256.92105893 77.07945859 272.43670893 C77.07971128 281.14134875 77.09096339 289.84565903 77.13063431 298.55021667 C77.16420284 305.95284443 77.17374645 313.35501394 77.15187736 320.75769407 C77.14142574 324.53396287 77.14231202 328.30933339 77.1736412 332.08550644 C77.20726212 336.17775048 77.18673724 340.26793029 77.16079712 344.36022949 C77.17914065 345.55496053 77.19748418 346.74969157 77.21638358 347.98062658 C77.10279718 355.87395991 77.10279718 355.87395991 74.71807361 358.94172001 C72.80745506 360.56745148 72.80745506 360.56745148 70.89743078 361.84153032 C69.13206787 362.82856829 69.13206787 362.82856829 68.29882812 364.90820312 C58.52815313 365.09397022 48.75790151 365.23591408 38.98581696 365.3227005 C34.4475902 365.36436529 29.91057587 365.42082897 25.37304688 365.51171875 C20.9898039 365.59896361 16.60772313 365.64654272 12.22367859 365.66722107 C10.55545258 365.68194674 8.8872867 365.71070483 7.21955872 365.75404358 C4.87286532 365.81257333 2.53090533 365.82009969 0.18359375 365.81640625 C-0.49830017 365.84516846 -1.18019409 365.87393066 -1.88275146 365.90356445 C-6.19663683 365.83063114 -8.74264708 364.48011416 -11.87813568 361.73055267 C-17.2400227 356.11370572 -16.82029032 350.16698826 -16.71704102 342.78857422 C-16.72626731 341.35191511 -16.73897876 339.9152749 -16.75485897 338.47867393 C-16.78818365 334.54392865 -16.7717854 330.61074016 -16.74696922 326.6759901 C-16.7288457 322.42770658 -16.75681848 318.17968814 -16.77880859 313.93145752 C-16.81436515 305.61441938 -16.80670594 297.29795908 -16.78350747 288.98089838 C-16.7654336 282.22100238 -16.76299297 275.46126822 -16.771698 268.70135498 C-16.77292386 267.73892297 -16.77414973 266.77649096 -16.77541274 265.78489435 C-16.77797056 263.82967642 -16.78056427 261.87445854 -16.78319347 259.91924071 C-16.80600096 241.58897923 -16.7797844 223.25903792 -16.73679054 204.92882895 C-16.70104869 189.20369439 -16.70725703 173.47903229 -16.74414062 157.75390625 C-16.78696164 139.48886398 -16.80380373 121.22410226 -16.77924252 102.9590168 C-16.77669415 101.01102833 -16.77417918 99.06303982 -16.771698 97.11505127 C-16.77046379 96.1566265 -16.76922959 95.19820172 -16.76795799 94.21073377 C-16.76105318 87.45965484 -16.77270396 80.70875399 -16.79153442 73.95770264 C-16.81398144 65.72924874 -16.80788106 57.50140526 -16.76528847 49.27302122 C-16.7442752 45.07528055 -16.73600689 40.87855722 -16.76248169 36.68082428 C-16.78636339 32.83606806 -16.7731593 28.99326957 -16.73066127 25.14869046 C-16.72174209 23.75985241 -16.72623447 22.37084814 -16.74566758 20.98211741 C-16.83430918 14.11997796 -16.77239782 9.21276555 -11.8733902 4.08585358 C-8.03369839 0.72306591 -5.17543444 -0.07089636 0 0 Z " fill="#8B100D" transform="translate(2436.701171875,1693.091796875)"/>
<path d="M0 0 C16.25510513 -0.35110022 32.50897287 -0.61524133 48.76695824 -0.77718258 C56.31679728 -0.85439055 63.86427504 -0.95954537 71.41259766 -1.1315918 C77.99540238 -1.28155939 84.5764972 -1.37797439 91.1609627 -1.41132742 C94.64546779 -1.43081654 98.12508388 -1.47624919 101.60801315 -1.58595085 C122.77898233 -2.2275252 122.77898233 -2.2275252 128.12476921 1.46940422 C131.9563179 5.44536342 133.92372039 9.94727489 136 15 C137.70084547 17.59652237 137.70084547 17.59652237 139.36328125 19.62109375 C140.09442139 20.57592651 140.09442139 20.57592651 140.84033203 21.55004883 C141.32614746 22.17290771 141.81196289 22.7957666 142.3125 23.4375 C142.85245605 24.13576904 143.39241211 24.83403809 143.94873047 25.5534668 C152.38842529 36.41862786 160.94958775 47.11868287 170.3671875 57.15625 C172.36235353 59.31126612 174.28708741 61.48844297 176.19921875 63.71484375 C180.55799687 68.71739805 185.23701337 73.38317085 189.9375 78.0625 C190.79279297 78.92166016 191.64808594 79.78082031 192.52929688 80.66601562 C197.52435451 85.65345304 202.63182119 90.41870416 208 95 C209.08312805 95.94927083 210.16520876 96.8997384 211.24609375 97.8515625 C220.18934504 105.6525597 229.48014835 112.91790286 239 120 C240.09103027 120.81452637 240.09103027 120.81452637 241.20410156 121.64550781 C252.4537866 130.01193288 264.00975475 137.73665675 276 145 C276.92055176 145.5583252 277.84110352 146.11665039 278.78955078 146.69189453 C298.40832083 158.51993644 318.70167034 169.48066814 340 178 C340 212.32 340 246.64 340 282 C335.35274726 280.6722135 331.73601781 279.56746911 327.5 277.5625 C326.37335938 277.03011719 325.24671875 276.49773437 324.0859375 275.94921875 C323.4475293 275.64419434 322.80912109 275.33916992 322.15136719 275.02490234 C319.72249839 273.86779939 317.287049 272.72513719 314.8515625 271.58203125 C285.42023892 257.71092049 257.01647707 242.16506234 230 224 C229.35095703 223.56413574 228.70191406 223.12827148 228.03320312 222.67919922 C208.63748452 209.600916 189.84860169 195.81151612 172.0703125 180.6015625 C169.32265955 178.25742299 166.51199772 176.00116684 163.6875 173.75 C156.78739869 168.13550709 150.41149401 161.96397777 143.96044922 155.84716797 C141.59596078 153.61930751 139.20425811 151.42279019 136.80664062 149.23071289 C128.33291182 141.4814419 120.07323269 133.57150115 112.609375 124.828125 C110.97413566 122.97062012 109.26518207 121.23393991 107.5 119.5 C103.78786641 115.83703374 100.39319118 111.95765399 97 108 C96.09284461 106.9566862 95.18525919 105.91374621 94.27734375 104.87109375 C87.80680261 97.41546613 81.56797839 89.82101173 75.54736328 81.99804688 C73.88886672 79.85649815 72.20837786 77.73326958 70.52734375 75.609375 C60.37206915 62.65514339 51.21963868 49.12278117 42.17086792 35.38427734 C41.28913349 34.04680979 40.40476058 32.71107751 39.51760864 31.37719727 C37.74043148 28.69723351 36.01879841 26.03289795 34.42260742 23.23950195 C30.53599632 16.56404623 25.43951382 13.93170398 18.5625 10.6875 C16.54252045 9.69231568 14.52297845 8.69624266 12.50390625 7.69921875 C11.55789551 7.2407959 10.61188477 6.78237305 9.63720703 6.31005859 C6.33754515 4.67091902 3.16948442 2.87672706 0 1 C0 0.67 0 0.34 0 0 Z " fill="#8B0F0C" transform="translate(1160,1103)"/>
<path d="M0 0 C3.80716798 0.1007607 7.61458559 0.10947541 11.42288113 0.12840652 C18.61735346 0.17792935 25.80788587 0.30891409 33.00063109 0.46999836 C41.19608255 0.64951117 49.39173319 0.73697232 57.58866453 0.81712532 C74.43440355 0.98389103 91.2761909 1.26487969 108.11898708 1.62230301 C105.26125253 3.52745938 102.69222042 4.69866069 99.51742458 5.97777176 C98.39553738 6.43071609 97.27365017 6.88366043 96.11776638 7.35033035 C94.92191921 7.83195633 93.72607204 8.31358231 92.49398708 8.80980301 C91.26019476 9.3185804 90.02687927 9.8285156 88.79403591 10.33958817 C78.37960608 14.62703268 78.37960608 14.62703268 73.04476833 16.16527176 C60.17758512 20.05141088 55.33878081 28.70451923 48.73031521 39.94359207 C46.35743923 43.88831862 43.73597711 47.63168556 41.05648708 51.37230301 C40.57067165 52.0565535 40.08485622 52.74080399 39.58431911 53.44578934 C27.08746147 70.9484317 13.49548507 87.63050145 -0.47329807 103.97191238 C-1.9828408 105.74168499 -3.48484264 107.51769579 -4.98648167 109.29417801 C-14.14104182 120.09259107 -14.14104182 120.09259107 -19.21963596 124.95994949 C-20.81603062 126.55728251 -22.25662033 128.21054017 -23.70913792 129.93870926 C-28.8342678 135.83223758 -34.40333742 141.29372941 -39.93252659 146.80418777 C-41.81429566 148.68059776 -43.6906603 150.5622927 -45.56655979 152.44456863 C-50.98558203 157.86659852 -56.38898336 163.24890082 -62.23233128 168.21873856 C-64.79398055 170.39953549 -67.23187112 172.70436114 -69.69351292 174.99730301 C-74.34139833 179.29105681 -79.12517639 183.35762141 -84.05679417 187.32542801 C-86.54328017 189.34763239 -88.98387091 191.4139218 -91.41299534 193.50438309 C-98.93031796 199.95948786 -106.73073261 206.001315 -114.65396214 211.94847488 C-116.10911139 213.04214987 -117.56139579 214.13964985 -119.01040745 215.24144363 C-151.82170058 240.18737737 -187.27421357 261.53609365 -223.63101292 280.87230301 C-224.67708714 281.42893631 -224.67708714 281.42893631 -225.74429417 281.99681473 C-228.43316603 283.40983047 -230.99354548 284.65981386 -233.88101292 285.62230301 C-233.88101292 250.97230301 -233.88101292 216.32230301 -233.88101292 180.62230301 C-230.25101292 178.64230301 -226.62101292 176.66230301 -222.88101292 174.62230301 C-191.46653945 156.62442759 -161.46268242 135.76080202 -133.95132542 112.22386551 C-131.20367247 109.879726 -128.39301063 107.62346985 -125.56851292 105.37230301 C-118.67165334 99.76044784 -112.29835211 93.59211814 -105.8502512 87.47826004 C-102.90806227 84.70532175 -99.92514456 81.97765862 -96.94351292 79.24730301 C-89.95036275 72.81390226 -83.20057578 66.26079601 -77.01773167 59.04027176 C-74.68341865 56.39869999 -72.27652387 53.83656819 -69.85757542 51.27269363 C-64.37294257 45.45828856 -59.06622731 39.59614632 -54.07632542 33.34495926 C-51.21393927 29.79498925 -48.26172438 26.31696676 -45.21159077 22.92645645 C-42.58728344 19.93444301 -40.52452163 17.10497007 -38.79538059 13.51195145 C-30.49520883 -2.4524931 -15.87372177 -0.49155515 0 0 Z " fill="#2D2D2D" transform="translate(1759.881012916565,1101.3776969909668)"/>
<path d="M0 0 C19.31432856 17.61869058 30.07873693 41.11456493 32.2253418 67.09033203 C33.71507352 102.67676683 29.43820341 135.83461266 5.22924805 163.35986328 C-9.3078569 178.65746064 -29.82535915 187.01213403 -50.69433594 187.5612793 C-72.76198576 187.74034853 -92.24644954 182.27841566 -108.7746582 167.09033203 C-109.47977539 166.45353516 -110.18489258 165.81673828 -110.91137695 165.16064453 C-126.80093203 150.08826657 -135.9296135 128.56049494 -138.7746582 107.09033203 C-138.88551758 106.30529297 -138.99637695 105.52025391 -139.1105957 104.71142578 C-139.4435933 101.8359465 -139.62655182 98.98177265 -139.7746582 96.09033203 C-139.83363281 95.04353271 -139.83363281 95.04353271 -139.89379883 93.97558594 C-141.1923498 67.66892399 -135.55964201 40.60261084 -119.7746582 19.09033203 C-119.17137695 18.25501953 -118.5680957 17.41970703 -117.9465332 16.55908203 C-104.75896399 -0.80991157 -85.82791312 -12.9911058 -64.0715332 -16.32373047 C-41.26530646 -18.21258974 -17.93403779 -15.59068664 0 0 Z " fill="#8B0F0C" transform="translate(648.774658203125,2220.90966796875)"/>
<path d="M0 0 C0.32413904 7.58709497 0.62047041 15.17471854 0.88427734 22.76416016 C0.9539369 24.7119824 1.02829394 26.65965654 1.11181641 28.60693359 C1.19849493 30.65388038 1.25703679 32.70196969 1.3125 34.75 C1.36857422 36.38195313 1.36857422 36.38195313 1.42578125 38.046875 C0.88288685 41.81227101 -0.72500655 44.00257274 -3 47 C-6.30140592 45.73291111 -9.38764936 44.29842141 -12.5 42.625 C-28.51719769 34.5083391 -50.50823589 31.2102063 -67.9375 36.5625 C-79.86358665 41.6511968 -88.80792239 51.14134244 -98 60 C-94.67587835 59.18699802 -91.39916694 58.24323041 -88.11376953 57.28588867 C-62.03960679 49.79779632 -36.45135002 46.89691912 -11.671875 60.34765625 C2.23919333 68.95055377 13.06322621 81.93967671 17.1015625 98.03125 C21.35588956 117.48225624 19.0816824 137.77145351 9.25 155.25 C5.75155526 160.702933 1.53456308 165.39170419 -3 170 C-3.76183594 170.77472656 -4.52367187 171.54945313 -5.30859375 172.34765625 C-15.86499404 182.45337278 -28.05754188 188.16916486 -42 192 C-42.64630371 192.18546387 -43.29260742 192.37092773 -43.95849609 192.56201172 C-66.32843185 198.34938721 -91.43563893 194.52034123 -111.26513672 183.06445312 C-115.54108995 180.4408736 -119.30685361 177.37926233 -123 174 C-124.02287109 173.11441406 -124.02287109 173.11441406 -125.06640625 172.2109375 C-139.87285668 158.59248016 -145.36022432 139.88985902 -150 121 C-150.18248291 120.37843018 -150.36496582 119.75686035 -150.55297852 119.11645508 C-153.46238799 105.34164856 -151.80123093 87.75004209 -149 74 C-148.74347656 72.71738281 -148.48695313 71.43476563 -148.22265625 70.11328125 C-142.79424818 45.0935577 -128.96749477 21.71092631 -107.90234375 6.80859375 C-74.90177146 -14.32299993 -35.55112643 -14.67160927 0 0 Z " fill="#8B100D" transform="translate(1037,2214)"/>
<path d="M0 0 C2.86383847 -0.01442489 5.72366737 -0.08252172 8.58666992 -0.15087891 C10.43105203 -0.16324424 12.27545842 -0.17248111 14.11987305 -0.17822266 C15.38546303 -0.21829941 15.38546303 -0.21829941 16.67662048 -0.25918579 C20.20833298 -0.21839824 22.46489064 -0.16958884 25.20974731 2.18731689 C26.82714844 4.09765625 26.82714844 4.09765625 28.19129944 6.00967407 C29.29845333 7.76226598 29.29845333 7.76226598 31.3737793 8.61083984 C31.57751121 14.87247779 31.7170819 21.13325453 31.81323242 27.39746094 C31.85333325 29.52571548 31.90783093 31.65375141 31.97729492 33.78125 C32.07494336 36.84999584 32.11983813 39.91581785 32.1550293 42.98583984 C32.19631958 43.92886963 32.23760986 44.87189941 32.28015137 45.84350586 C32.28380956 51.29421271 31.44338172 54.19165701 27.65795898 58.21899414 C23.7239721 61.93463858 20.45862513 62.4964123 15.15234375 62.51611328 C14.15291748 62.48549805 13.15349121 62.45488281 12.1237793 62.42333984 C9.98699036 62.43712452 7.8502409 62.45939595 5.71362305 62.48974609 C4.1181665 62.50545654 4.1181665 62.50545654 2.49047852 62.52148438 C-15.76644658 63.04490867 -35.44778478 67.59674003 -48.4387207 81.29833984 C-60.28851615 96.05361398 -60.59359021 112.77175663 -59.41918945 130.78662109 C-58.14962945 140.20368703 -53.73863075 150.60107374 -46.3137207 156.73583984 C-36.74682806 163.11912787 -28.45828022 164.03323191 -16.6262207 165.61083984 C-16.6262207 187.06083984 -16.6262207 208.51083984 -16.6262207 230.61083984 C-23.81733875 232.40861936 -29.31139091 232.96140837 -36.5637207 232.92333984 C-37.67110596 232.91842529 -38.77849121 232.91351074 -39.91943359 232.90844727 C-49.11639969 232.77825428 -57.7025142 231.77261519 -66.6262207 229.61083984 C-67.35357422 229.44455078 -68.08092773 229.27826172 -68.83032227 229.10693359 C-84.815045 225.3975437 -98.84612651 219.02939489 -111.6262207 208.61083984 C-112.90239258 207.58023437 -112.90239258 207.58023437 -114.2043457 206.52880859 C-134.47716629 189.27203647 -144.01245224 163.53512959 -146.6262207 137.61083984 C-146.79266663 134.81416732 -146.85814893 132.02129479 -146.8996582 129.22021484 C-146.91227692 128.44177216 -146.92489563 127.66332947 -146.93789673 126.86129761 C-147.37032816 93.81423736 -141.18424776 67.76636354 -117.98950195 43.00927734 C-86.89043932 11.44758402 -43.3538226 0.08351143 0 0 Z " fill="#2E2E2E" transform="translate(944.626220703125,1828.38916015625)"/>
<path d="M0 0 C9.91104234 8.99083902 16.46834066 21.90484041 17.57861328 35.30004883 C17.98332757 45.14125361 17.97543954 54.61467404 14.37890625 63.890625 C13.71761719 65.75654297 13.71761719 65.75654297 13.04296875 67.66015625 C4.59793341 90.48914968 -11.29378244 110.87335171 -27.21875 129.03125 C-29.02012454 131.17532506 -30.65880794 133.29031995 -32.27124023 135.56933594 C-32.71362534 136.19322205 -33.15601044 136.81710815 -33.61180115 137.4598999 C-33.94486771 137.93203918 -34.27793427 138.40417847 -34.62109375 138.890625 C-28.35902894 138.9924979 -22.09717983 139.06228781 -15.83447266 139.11035156 C-13.70646173 139.13039968 -11.57850543 139.15764554 -9.45068359 139.19238281 C-6.38234942 139.24120048 -3.31474702 139.26366226 -0.24609375 139.28125 C0.69693604 139.30189514 1.63996582 139.32254028 2.61157227 139.34381104 C8.15933463 139.3456727 11.95381064 138.60934667 16.73388672 135.72595215 C18.37890625 134.890625 18.37890625 134.890625 21.12890625 135.15625 C21.87140625 135.48109375 22.61390625 135.8059375 23.37890625 136.140625 C24.14203125 136.45515625 24.90515625 136.7696875 25.69140625 137.09375 C26.24828125 137.35671875 26.80515625 137.6196875 27.37890625 137.890625 C26.76740134 143.95091246 25.52870391 149.56659111 23.875 155.421875 C23.63225845 156.29839722 23.38951691 157.17491943 23.13941956 158.07800293 C22.37035274 160.85037485 21.59351645 163.6204982 20.81640625 166.390625 C20.29049872 168.28110628 19.76510297 170.17173001 19.24023438 172.0625 C17.95999102 176.67380308 16.67012975 181.28238719 15.37890625 185.890625 C14.76954255 185.86084344 14.16017885 185.83106188 13.53234959 185.80037785 C-3.6125641 184.98470803 -20.71281015 184.7560924 -37.875 184.79296875 C-40.48485792 184.7948402 -43.09471619 184.79626065 -45.70457458 184.79725647 C-51.79529733 184.80032116 -57.88600135 184.80846638 -63.97671598 184.81860596 C-70.9300024 184.82992145 -77.88328988 184.83531576 -84.83658326 184.84030139 C-99.09809665 184.8506552 -113.35959453 184.86815662 -127.62109375 184.890625 C-126.68093061 183.46443331 -125.738613 182.03966175 -124.79541016 180.61547852 C-124.00863388 179.42511742 -124.00863388 179.42511742 -123.20596313 178.21070862 C-120.9707371 174.93857064 -118.51205097 171.88613804 -115.99609375 168.828125 C-111.75141149 163.59939986 -107.63369596 158.29940193 -103.62109375 152.890625 C-99.24562833 146.99893036 -94.73448267 141.24182224 -90.12109375 135.53515625 C-86.51863303 131.06022458 -83.04636415 126.50225207 -79.62109375 121.890625 C-75.7204122 116.63892614 -71.73300087 111.47862469 -67.62109375 106.390625 C-42.67382894 77.25247362 -42.67382894 77.25247362 -32.2578125 41.7578125 C-32.82077632 37.31463568 -34.72892055 34.73457262 -37.93359375 31.703125 C-45.51188238 26.59218615 -54.83532368 27.07208742 -63.62109375 27.890625 C-68.16850304 28.79134311 -72.33119296 30.14713591 -76.62109375 31.890625 C-77.5028125 32.24125 -78.38453125 32.591875 -79.29296875 32.953125 C-86.97927554 36.39047959 -93.93224657 41.85735423 -98.62109375 48.890625 C-101.22265625 49.40234375 -101.22265625 49.40234375 -104.24609375 49.578125 C-105.24898437 49.64386719 -106.251875 49.70960938 -107.28515625 49.77734375 C-108.05601562 49.81472656 -108.826875 49.85210938 -109.62109375 49.890625 C-109.6462385 45.05664427 -109.66415866 40.22270347 -109.67602539 35.38867188 C-109.6809842 33.75194636 -109.68775328 32.1152251 -109.6965332 30.47851562 C-109.72135653 25.72411892 -109.70760131 20.97244787 -109.64373779 16.21838379 C-109.62867096 14.66954571 -109.62622176 13.1205323 -109.63653564 11.57165527 C-109.70284751 -0.587263 -109.70284751 -0.587263 -107.24829102 -4.04101562 C-105.32192166 -5.39248039 -103.60379972 -6.12493561 -101.37109375 -6.859375 C-100.65107178 -7.15408691 -99.9310498 -7.44879883 -99.18920898 -7.75244141 C-97.01967048 -8.61566063 -94.83650835 -9.37310382 -92.62109375 -10.109375 C-91.42097656 -10.53476563 -90.22085938 -10.96015625 -88.984375 -11.3984375 C-85.88200062 -12.41910031 -82.78503165 -13.30237869 -79.62109375 -14.109375 C-78.79996094 -14.32207031 -77.97882812 -14.53476563 -77.1328125 -14.75390625 C-51.04733185 -21.01622371 -21.16432339 -17.0323914 0 0 Z " fill="#8B0F0C" transform="translate(835.62109375,2221.109375)"/>
<path d="M0 0 C9.91104234 8.99083902 16.46834066 21.90484041 17.57861328 35.30004883 C17.98332757 45.14125361 17.97543954 54.61467404 14.37890625 63.890625 C13.71761719 65.75654297 13.71761719 65.75654297 13.04296875 67.66015625 C4.59793341 90.48914968 -11.29378244 110.87335171 -27.21875 129.03125 C-29.02012454 131.17532506 -30.65880794 133.29031995 -32.27124023 135.56933594 C-32.71362534 136.19322205 -33.15601044 136.81710815 -33.61180115 137.4598999 C-33.94486771 137.93203918 -34.27793427 138.40417847 -34.62109375 138.890625 C-28.35902894 138.9924979 -22.09717983 139.06228781 -15.83447266 139.11035156 C-13.70646173 139.13039968 -11.57850543 139.15764554 -9.45068359 139.19238281 C-6.38234942 139.24120048 -3.31474702 139.26366226 -0.24609375 139.28125 C0.69693604 139.30189514 1.63996582 139.32254028 2.61157227 139.34381104 C8.15933463 139.3456727 11.95381064 138.60934667 16.73388672 135.72595215 C18.37890625 134.890625 18.37890625 134.890625 21.12890625 135.15625 C21.87140625 135.48109375 22.61390625 135.8059375 23.37890625 136.140625 C24.14203125 136.45515625 24.90515625 136.7696875 25.69140625 137.09375 C26.24828125 137.35671875 26.80515625 137.6196875 27.37890625 137.890625 C26.76740134 143.95091246 25.52870391 149.56659111 23.875 155.421875 C23.63225845 156.29839722 23.38951691 157.17491943 23.13941956 158.07800293 C22.37035274 160.85037485 21.59351645 163.6204982 20.81640625 166.390625 C20.29049872 168.28110628 19.76510297 170.17173001 19.24023438 172.0625 C17.95999102 176.67380308 16.67012975 181.28238719 15.37890625 185.890625 C14.76954255 185.86084344 14.16017885 185.83106188 13.53234959 185.80037785 C-3.6125641 184.98470803 -20.71281015 184.7560924 -37.875 184.79296875 C-40.48485792 184.7948402 -43.09471619 184.79626065 -45.70457458 184.79725647 C-51.79529733 184.80032116 -57.88600135 184.80846638 -63.97671598 184.81860596 C-70.9300024 184.82992145 -77.88328988 184.83531576 -84.83658326 184.84030139 C-99.09809665 184.8506552 -113.35959453 184.86815662 -127.62109375 184.890625 C-126.68093061 183.46443331 -125.738613 182.03966175 -124.79541016 180.61547852 C-124.00863388 179.42511742 -124.00863388 179.42511742 -123.20596313 178.21070862 C-120.9707371 174.93857064 -118.51205097 171.88613804 -115.99609375 168.828125 C-111.75141149 163.59939986 -107.63369596 158.29940193 -103.62109375 152.890625 C-99.24562833 146.99893036 -94.73448267 141.24182224 -90.12109375 135.53515625 C-86.51863303 131.06022458 -83.04636415 126.50225207 -79.62109375 121.890625 C-75.7204122 116.63892614 -71.73300087 111.47862469 -67.62109375 106.390625 C-42.67382894 77.25247362 -42.67382894 77.25247362 -32.2578125 41.7578125 C-32.82077632 37.31463568 -34.72892055 34.73457262 -37.93359375 31.703125 C-45.51188238 26.59218615 -54.83532368 27.07208742 -63.62109375 27.890625 C-68.16850304 28.79134311 -72.33119296 30.14713591 -76.62109375 31.890625 C-77.5028125 32.24125 -78.38453125 32.591875 -79.29296875 32.953125 C-86.97927554 36.39047959 -93.93224657 41.85735423 -98.62109375 48.890625 C-101.22265625 49.40234375 -101.22265625 49.40234375 -104.24609375 49.578125 C-105.24898438 49.64386719 -106.251875 49.70960938 -107.28515625 49.77734375 C-108.05601562 49.81472656 -108.826875 49.85210938 -109.62109375 49.890625 C-109.6462385 45.05664427 -109.66415866 40.22270347 -109.67602539 35.38867188 C-109.6809842 33.75194636 -109.68775328 32.1152251 -109.6965332 30.47851562 C-109.72135653 25.72411892 -109.70760131 20.97244787 -109.64373779 16.21838379 C-109.62867096 14.66954571 -109.62622176 13.1205323 -109.63653564 11.57165527 C-109.70284751 -0.587263 -109.70284751 -0.587263 -107.24829102 -4.04101562 C-105.32192166 -5.39248039 -103.60379972 -6.12493561 -101.37109375 -6.859375 C-100.65107178 -7.15408691 -99.9310498 -7.44879883 -99.18920898 -7.75244141 C-97.01967048 -8.61566063 -94.83650835 -9.37310382 -92.62109375 -10.109375 C-91.42097656 -10.53476563 -90.22085938 -10.96015625 -88.984375 -11.3984375 C-85.88200062 -12.41910031 -82.78503165 -13.30237869 -79.62109375 -14.109375 C-78.79996094 -14.32207031 -77.97882813 -14.53476563 -77.1328125 -14.75390625 C-51.04733185 -21.01622371 -21.16432339 -17.0323914 0 0 Z " fill="#8B0F0C" transform="translate(442.62109375,2221.109375)"/>
<path d="M0 0 C60.72 0 121.44 0 184 0 C184 48.18 184 96.36 184 146 C179.83091859 144.6103062 176.83848056 143.51637577 173.15625 141.41796875 C171.79874634 140.64864014 171.79874634 140.64864014 170.41381836 139.86376953 C169.4522583 139.31060059 168.49069824 138.75743164 167.5 138.1875 C165.98128296 137.31907471 165.98128296 137.31907471 164.43188477 136.43310547 C161.28424638 134.62838457 158.14210647 132.81433062 155 131 C154.05366699 130.45843262 153.10733398 129.91686523 152.13232422 129.35888672 C117.16696243 109.33186518 84.4312078 85.10105048 54.9140625 57.66796875 C52.79192819 55.72504954 50.65215523 53.84976189 48.46484375 51.984375 C42.95393801 47.17927708 37.83062036 41.97998428 32.67260742 36.80297852 C30.941053 35.066064 29.20421641 33.33456111 27.46679688 31.60351562 C21.76233647 25.9024777 16.23165086 20.14308197 11 14 C8.64811641 11.42395806 6.28679768 8.85733037 3.91796875 6.296875 C2 4 2 4 0 0 Z " fill="#8B100D" transform="translate(1316,1103)"/>
<path d="M0 0 C6.74197301 2.24732434 6.74197301 2.24732434 9.58203125 3.78515625 C10.58387451 4.32088257 10.58387451 4.32088257 11.60595703 4.86743164 C12.33411621 5.2618042 13.06227539 5.65617676 13.8125 6.0625 C23.03610355 10.98931812 32.32309227 15.78590095 41.625 20.5625 C51.24124576 25.50231998 60.85525728 30.44191608 70.36962891 35.57641602 C72.90013767 36.93474977 75.2667074 38.08890247 78 39 C78 85.2 78 131.4 78 179 C64.97504378 178.40795654 51.94909962 177.52342348 39 176 C26.13 175.01 13.26 174.02 0 173 C0 115.91 0 58.82 0 0 Z " fill="#8B0F0C" transform="translate(1527,745)"/>
<path d="M0 0 C10.62869515 0.48695681 21.13057763 1.23797324 31.69210815 2.55673218 C49.11152128 4.72172708 66.57499552 6.25336429 84.06738281 7.69262695 C85.03074051 7.77292145 85.99409821 7.85321594 86.98664856 7.9359436 C88.79994313 8.0867053 90.61348303 8.23455484 92.42729187 8.3789978 C93.23624405 8.44624054 94.04519623 8.51348328 94.87866211 8.58276367 C95.58139755 8.63953781 96.284133 8.69631195 97.00816345 8.75480652 C99 9 99 9 103 10 C103 53.23 103 96.46 103 141 C98.52047388 140.10409478 95.58128841 138.99335572 91.5390625 137.0078125 C90.92090164 136.7063179 90.30274078 136.4048233 89.66584778 136.0941925 C88.33994039 135.44667798 87.01531365 134.79653566 85.69186401 134.14401245 C83.59535721 133.11038541 81.49558619 132.08368617 79.39477539 131.05883789 C76.56863787 129.67981496 73.74359467 128.29859316 70.91943359 126.91552734 C65.7713025 124.39670526 60.60809157 121.90986079 55.4375 119.4375 C54.10199097 118.79832642 54.10199097 118.79832642 52.73950195 118.14624023 C47.28443456 115.54379181 41.81458253 112.97419614 36.3359375 110.421875 C35.67185379 110.11246475 35.00777008 109.8030545 34.32356262 109.48426819 C31.06737751 107.96796726 27.80996008 106.45439658 24.55053711 104.94506836 C16.96706003 101.42327443 9.45539599 97.78560148 2 94 C0.72760407 62.65804481 -0.38300089 31.37071865 0 0 Z " fill="#8B0F0C" transform="translate(1687,564)"/>
<path d="M0 0 C0.69416016 -0.00773437 1.38832031 -0.01546875 2.10351562 -0.0234375 C10.57496127 0.00874273 15.88655302 3.61560372 21.9375 9.25 C26.12804872 14.64631982 28.05529831 19.21283058 28.09140015 26.0861969 C28.10000061 27.30433578 28.10860107 28.52247467 28.11746216 29.77752686 C28.12189733 31.12976032 28.1261957 32.48199423 28.13037109 33.83422852 C28.13827403 35.25685323 28.1465431 36.67947594 28.15515137 38.10209656 C28.18135835 42.77768035 28.19668177 47.45327302 28.2109375 52.12890625 C28.2162985 53.74054406 28.22167601 55.35218181 28.22706985 56.9638195 C28.24870029 63.6713321 28.26743416 70.37884231 28.27869225 77.08638096 C28.29491183 86.685879 28.32803895 96.28497102 28.38509309 105.88431603 C28.42387165 112.64031551 28.4433345 119.39620679 28.44861281 126.1523146 C28.45225665 130.18365794 28.46417322 134.2145681 28.49671555 138.24579048 C28.52693468 142.04379028 28.53305945 145.84109799 28.52133179 149.63919258 C28.52111217 151.02665801 28.52932378 152.41415683 28.54698563 153.80150986 C28.6752893 164.46804449 26.88124146 172.12064096 19.625 180.125 C18.42627664 181.20156047 17.19744192 182.24577568 15.9375 183.25 C15.39996094 183.68441406 14.86242188 184.11882812 14.30859375 184.56640625 C7.6719617 188.82751005 -1.48654175 188.28950082 -9.0625 187.25 C-16.10955438 185.18349892 -20.41387981 180.44751543 -24.0625 174.25 C-24.73977142 173.17519379 -25.41704285 172.10038757 -26.11483765 170.99301147 C-29.08755114 164.96052378 -28.63830704 158.58617862 -28.61181641 152.00634766 C-28.62052319 150.57312463 -28.63089366 149.1399109 -28.64279175 147.70671082 C-28.66946127 143.83256384 -28.67074164 139.95880839 -28.66566515 136.08458757 C-28.66351804 132.84174379 -28.67331206 129.59897798 -28.68287599 126.35615098 C-28.70502836 118.70091572 -28.70596281 111.04587677 -28.69384766 103.390625 C-28.68177135 95.51283784 -28.70638923 87.6357654 -28.74898779 79.75810015 C-28.78430094 72.97647626 -28.79620983 66.19507904 -28.78971231 59.41336668 C-28.78609887 55.37090625 -28.79123406 51.32895567 -28.81914139 47.28657913 C-28.84442276 43.48259214 -28.84029661 39.6797133 -28.81431961 35.87574196 C-28.80961546 34.48668214 -28.81495903 33.0975428 -28.83156586 31.7085743 C-28.94502297 21.47440826 -27.15751838 14.5575326 -19.97947121 7.08008766 C-13.9324698 1.30715657 -8.30003438 -0.09299758 0 0 Z " fill="#FEFCFC" transform="translate(2123.0625,1644.75)"/>
<path d="M0 0 C4.82967214 0.96593443 8.5651419 2.57696137 12.89550781 4.76953125 C13.6749173 5.15821381 14.45432678 5.54689636 15.25735474 5.94735718 C17.82555134 7.22995479 20.38935457 8.52108069 22.953125 9.8125 C24.73696951 10.70595129 26.52105086 11.59892984 28.30535889 12.49145508 C32.03939875 14.36077432 35.77144118 16.23400195 39.50195312 18.11035156 C44.29348815 20.5202928 49.08849128 22.92322993 53.88481522 25.32362366 C57.56586008 27.16621974 61.24576674 29.0110784 64.92525482 30.85678101 C66.69378569 31.7439023 68.4625083 32.63064146 70.23142242 33.51699829 C72.69603257 34.75272414 75.15926493 35.99115074 77.62207031 37.23046875 C78.35867889 37.59933197 79.09528748 37.96819519 79.85421753 38.34823608 C84.88530732 40.88530732 84.88530732 40.88530732 86 42 C86.09517803 44.76938966 86.12554265 47.51377159 86.11352539 50.28344727 C86.11367142 51.15166107 86.11381744 52.01987488 86.1139679 52.91439819 C86.11326846 55.79842586 86.10547463 58.6823898 86.09765625 61.56640625 C86.09579218 63.56037867 86.09436823 65.55435155 86.09336853 67.54832458 C86.08954248 72.80745702 86.07971145 78.06656203 86.06866455 83.32568359 C86.0584523 88.68782175 86.05387131 94.04996431 86.04882812 99.41210938 C86.03808926 109.94141833 86.0210118 120.47070689 86 131 C81.53398526 130.73792157 77.06827406 130.47126476 72.6027832 130.20043945 C71.08495413 130.10902346 69.56705034 130.01883921 68.04907227 129.92993164 C65.86193162 129.80161365 63.67510169 129.66880737 61.48828125 129.53515625 C60.17384033 129.456604 58.85939941 129.37805176 57.50512695 129.29711914 C54.57873907 129.04905798 51.86165561 128.62507046 49 128 C46.94140361 127.80379722 44.87961309 127.63961433 42.81640625 127.5 C41.64142578 127.4175 40.46644531 127.335 39.25585938 127.25 C38.03705078 127.1675 36.81824219 127.085 35.5625 127 C33.14695468 126.83597358 30.73158116 126.66939309 28.31640625 126.5 C27.24849854 126.4278125 26.18059082 126.355625 25.08032227 126.28125 C22.03622803 126.00330781 19.01516624 125.50252771 16 125 C10.72 124.67 5.44 124.34 0 124 C0 83.08 0 42.16 0 0 Z " fill="#8B0F0C" transform="translate(1643,806)"/>
<path d="M0 0 C23.84243697 1.13535414 23.84243697 1.13535414 34.5 2.4375 C48.97851055 4.20522512 63.40639507 4.99354449 78 6 C78 42.63 78 79.26 78 117 C52.26 117 26.52 117 0 117 C0 78.39 0 39.78 0 0 Z " fill="#8B0F0C" transform="translate(1527,961)"/>
<path d="M0 0 C6.97684118 0 13.50962898 0.10462132 20.375 0.875 C22.12105147 1.05899537 23.86714674 1.24257553 25.61328125 1.42578125 C26.94480225 1.56814209 26.94480225 1.56814209 28.30322266 1.71337891 C40.18400221 2.97610163 52.04823441 4.17285621 63.99438477 4.57055664 C71.47580627 4.87256687 78.44820689 5.99309425 86 7 C86 39.34 86 71.68 86 105 C57.62 105 29.24 105 0 105 C0 70.35 0 35.7 0 0 Z " fill="#8B0F0C" transform="translate(1643,973)"/>
<path d="M0 0 C0.76207764 0.07307373 1.52415527 0.14614746 2.30932617 0.22143555 C12.3292011 1.33833587 22.13359773 3.78834005 31.875 6.3125 C33.091875 6.61027344 34.30875 6.90804688 35.5625 7.21484375 C61.94583057 14.37132217 84.34002551 34.11529125 101.875 54.3125 C102.51050781 55.0240625 103.14601563 55.735625 103.80078125 56.46875 C104.875 58.3125 104.875 58.3125 104.875 60.18359375 C103.39226167 63.34020465 101.16610701 65.78615254 98.875 68.375 C97.85993104 69.54753164 96.8456176 70.72071774 95.83203125 71.89453125 C95.32752441 72.47541504 94.82301758 73.05629883 94.30322266 73.65478516 C92.34810059 75.92406359 90.45222184 78.23860479 88.5625 80.5625 C87.85351562 81.43261719 87.14453125 82.30273438 86.4140625 83.19921875 C86.02508789 83.67665527 85.63611328 84.1540918 85.23535156 84.64599609 C82.31069148 88.22886216 79.3742462 91.80203973 76.4375 95.375 C75.82156982 96.12620117 75.20563965 96.87740234 74.57104492 97.65136719 C73.99201416 98.35551758 73.4129834 99.05966797 72.81640625 99.78515625 C72.29763916 100.41687744 71.77887207 101.04859863 71.24438477 101.69946289 C68.23453968 105.24484468 68.23453968 105.24484468 64.96875 105.859375 C55.38276053 106.4011918 55.38276053 106.4011918 51.21875 103.39453125 C49.60728462 101.66220597 48.02792947 99.89962726 46.4765625 98.11328125 C32.32358632 82.8765186 9.93532118 78.26413599 -9.90161133 76.77856445 C-11.06823807 76.6906514 -12.23486481 76.60273834 -13.43684387 76.51216125 C-14.76748116 76.41332893 -14.76748116 76.41332893 -16.125 76.3125 C-16.31087393 67.58485487 -16.45276174 58.85789725 -16.53949738 50.12870026 C-16.58114057 46.07466925 -16.63756029 42.02199828 -16.72851562 37.96875 C-16.8158442 34.05233028 -16.8633558 30.13721305 -16.88401794 26.21989441 C-16.89872926 24.7302755 -16.92745963 23.24072298 -16.97084045 21.75166321 C-17.29410731 10.1889447 -17.29410731 10.1889447 -14.42947388 5.59114075 C-9.87918207 0.81558534 -6.53743028 -0.88553346 0 0 Z " fill="#2D2D2D" transform="translate(1345.125,1692.6875)"/>
<path d="M0 0 C4.65204032 1.29267673 5.89413369 2.17526609 8.46484375 6.2578125 C13.28762892 13.7210052 18.37278824 20.98909848 23.46557617 28.27001953 C24.78398055 30.15821965 26.09675109 32.05036845 27.40332031 33.94677734 C28.63156485 35.70721851 29.88808502 37.44833912 31.17480469 39.16650391 C31.74231445 39.94558105 32.30982422 40.7246582 32.89453125 41.52734375 C33.4035498 42.2025708 33.91256836 42.87779785 34.43701172 43.57348633 C35.27734375 45.6328125 35.27734375 45.6328125 34.58056641 48.18945312 C33.44759481 50.31361568 32.3734583 52.01861208 30.80859375 53.83203125 C30.32527588 54.39631836 29.84195801 54.96060547 29.34399414 55.54199219 C28.82699951 56.12883789 28.31000488 56.71568359 27.77734375 57.3203125 C27.23907959 57.93680664 26.70081543 58.55330078 26.14624023 59.18847656 C2.36907767 86.18389124 -26.00158639 101.87765213 -61.86328125 106.18359375 C-67.24906115 106.50298302 -70.37671863 106.22853641 -74.84765625 103.07885742 C-78.83272178 99.47986716 -79.35259148 96.70656264 -79.63085938 91.41235352 C-79.65850327 88.48384283 -79.5863868 85.5638941 -79.50390625 82.63671875 C-79.48896809 81.07733574 -79.4775885 79.51791495 -79.46960449 77.95848083 C-79.43919204 73.87218884 -79.36073106 69.78820534 -79.27197266 65.70281982 C-79.18984091 61.52680691 -79.15353525 57.35041749 -79.11328125 53.17382812 C-79.02771923 44.99243516 -78.8913526 36.81291171 -78.72265625 28.6328125 C-77.64902077 28.47167465 -77.64902077 28.47167465 -76.55369568 28.30728149 C-73.27425591 27.81094334 -69.99653901 27.30399557 -66.71875 26.796875 C-65.59287476 26.62808838 -64.46699951 26.45930176 -63.30700684 26.28540039 C-54.42784061 24.89990652 -46.755449 22.75203198 -38.72265625 18.6328125 C-38.00529297 18.26881348 -37.28792969 17.90481445 -36.54882812 17.52978516 C-28.57945632 13.42552499 -21.1858322 9.18395753 -14.28515625 3.4453125 C-9.32740203 -0.48360415 -6.18830559 -1.14497284 0 0 Z " fill="#2D2D2D" transform="translate(1407.72265625,1954.3671875)"/>
<path d="M0 0 C10.75909594 8.96930305 15.81618682 24.16644488 17.06640625 37.72265625 C18.16623722 59.63045775 17.59969968 80.59866889 2.75390625 98.16015625 C-4.11883672 105.36900301 -11.17914361 108.75613549 -21.12109375 109.03515625 C-31.52996048 108.90924254 -39.44115474 103.92903073 -46.80859375 96.9453125 C-58.93447802 84.16609395 -61.5255199 66.07781338 -61.33789062 49.16772461 C-60.84275226 31.85083591 -56.5453334 15.98708343 -44.93359375 2.72265625 C-31.446309 -9.67653611 -14.84819652 -10.50994084 0 0 Z " fill="#FDFDFD" transform="translate(616.93359375,2255.27734375)"/>
<path d="M0 0 C0.75539063 -0.01611328 1.51078125 -0.03222656 2.2890625 -0.04882812 C9.56543655 -0.05507931 15.81497506 1.67381295 21.3125 6.625 C21.94800781 7.17800781 22.58351563 7.73101563 23.23828125 8.30078125 C27.82200438 13.5349662 28.5550641 18.44133305 28.5 25.125 C28.49427979 25.92526611 28.48855957 26.72553223 28.48266602 27.55004883 C28.29103501 33.8803243 27.16838143 38.39296355 23 43.3125 C22.49210938 43.94285156 21.98421875 44.57320312 21.4609375 45.22265625 C15.91974514 51.4072572 8.05115178 55.75927772 -0.28320312 56.52124023 C-14.48184281 57.08879727 -24.80377332 56.98196311 -35.875 47.125 C-40.34290385 42.18505717 -44.58429179 35.98301457 -45.34375 29.27734375 C-44.4429432 21.50788506 -37.26067729 14.96932522 -31.5234375 10.1328125 C-21.8730102 3.17135875 -11.77914752 -0.05025234 0 0 Z " fill="#FDFCFC" transform="translate(980,2307.6875)"/>
<path d="M0 0 C0.66 0.33 1.32 0.66 2 1 C-0.97 3.97 -0.97 3.97 -4 7 C-3.67 7.66 -3.34 8.32 -3 9 C-4.96466413 10.06775224 -6.96855359 11.06553465 -9 12 C-9.66 11.67 -10.32 11.34 -11 11 C-7.37 7.37 -3.74 3.74 0 0 Z " fill="#DCCCCB" transform="translate(948,2264)"/>
<path d="M0 0 C-1.40844718 3.21524305 -3.10344786 5.32183868 -5.625 7.75 C-6.57246094 8.67039062 -6.57246094 8.67039062 -7.5390625 9.609375 C-8.02117188 10.06828125 -8.50328125 10.5271875 -9 11 C-9 7.25983417 -8.0658409 6.54723807 -5.625 3.8125 C-4.99851562 3.09707031 -4.37203125 2.38164063 -3.7265625 1.64453125 C-2 0 -2 0 0 0 Z " fill="#EDC8C7" transform="translate(2108,1649)"/>
</svg>
