<?xml version="1.0" encoding="utf-8"?>
<!-- Generator: Adobe Illustrator 27.2.0, SVG Export Plug-In . SVG Version: 6.00 Build 0)  -->
<svg version="1.1" id="Capa_1" xmlns="http://www.w3.org/2000/svg" xmlns:xlink="http://www.w3.org/1999/xlink" x="0px" y="0px"
	 viewBox="0 0 6519.7 2834.6" style="enable-background:new 0 0 6519.7 2834.6;" xml:space="preserve">
<style type="text/css">
	.st0{clip-path:url(#SVGID_00000100363264214419839480000016086649460784329604_);}
	.st1{fill-rule:evenodd;clip-rule:evenodd;fill:url(#SVGID_00000047779393673599512050000005755093492565934481_);}
	.st2{clip-path:url(#SVGID_00000023250052377137860960000004628804362551030714_);fill:#0078AB;}
	.st3{clip-path:url(#SVGID_00000074433396978707618440000010931880916456042645_);fill:#0078AB;}
	.st4{clip-path:url(#SVGID_00000111908729216354465380000010196568614241236887_);fill:#006DA2;}
	.st5{clip-path:url(#SVGID_00000001635468610424149910000011778007686354961542_);fill:#0078AB;}
	.st6{clip-path:url(#SVGID_00000113345892227621712010000009817141896426021269_);fill:#0078AB;}
	.st7{clip-path:url(#SVGID_00000148628962810165448530000000169584899013885111_);fill:#6E6D6D;}
	.st8{clip-path:url(#SVGID_00000060740383007906558580000002235257279029426086_);fill:#6E6D6D;}
	.st9{clip-path:url(#SVGID_00000026157793404776082170000003042167017932291506_);fill:#6E6D6D;}
	.st10{clip-path:url(#SVGID_00000130648256857758173200000012667888330817054882_);fill:#6E6D6D;}
	.st11{clip-path:url(#SVGID_00000119810175755381424850000010826143842219477908_);fill:#6E6D6D;}
	.st12{clip-path:url(#SVGID_00000181046441441691458740000007447433018559997058_);fill:#6E6D6D;}
	.st13{clip-path:url(#SVGID_00000133531113447728171860000018091986837338105255_);fill:#6E6D6D;}
	.st14{clip-path:url(#SVGID_00000039850107792242137290000004399297394157618604_);fill:#6E6D6D;}
	.st15{clip-path:url(#SVGID_00000035506894311347330920000017684127608274795684_);fill:#6E6D6D;}
	.st16{clip-path:url(#SVGID_00000147916790577654165990000004281823920746298042_);fill:#6E6D6D;}
	.st17{clip-path:url(#SVGID_00000116235826669199744040000002364169255500153521_);fill:#6E6D6D;}
	.st18{clip-path:url(#SVGID_00000120542540069987135470000000029627267973357714_);fill:#6E6D6D;}
	.st19{clip-path:url(#SVGID_00000013871712906632332410000013370515512789975962_);fill:#6E6D6D;}
	.st20{clip-path:url(#SVGID_00000074424406248135013160000012785410338655904649_);fill:#6E6D6D;}
	.st21{clip-path:url(#SVGID_00000070089572060819723590000002946904396712737210_);fill:#6E6D6D;}
	.st22{clip-path:url(#SVGID_00000129905411427944613190000014916351468458349971_);fill:#6E6D6D;}
	.st23{clip-path:url(#SVGID_00000150065036739372828420000012099764230199324059_);fill:#6E6D6D;}
	.st24{clip-path:url(#SVGID_00000074438348574826984750000007237133018685990302_);fill:#0078AB;}
	.st25{clip-path:url(#SVGID_00000124160282159250312400000005765493593004132758_);fill:#0078AB;}
	.st26{clip-path:url(#SVGID_00000043424590792837376310000005390704229982305454_);fill:#0078AB;}
	.st27{clip-path:url(#SVGID_00000176029672510163280560000003260589495670363521_);fill:#0078AB;}
	.st28{clip-path:url(#SVGID_00000009579700369478299070000009518570429137401278_);fill:#0078AB;}
	.st29{clip-path:url(#SVGID_00000029755944802878602970000015153644517953371278_);fill:#0078AB;}
	.st30{clip-path:url(#SVGID_00000147905375358086551370000014153727524101271462_);fill:#0078AB;}
	.st31{clip-path:url(#SVGID_00000057143855179140786620000014517723036655709321_);fill:#0078AB;}
	.st32{clip-path:url(#SVGID_00000000916952358002583140000015709728164161469336_);fill:#0078AB;}
	.st33{clip-path:url(#SVGID_00000069370628986086324180000010038681029356098738_);fill:#0078AB;}
	.st34{clip-path:url(#SVGID_00000049214693689032800530000002216714083547787444_);fill:#0078AB;}
</style>
<g>
	<g>
		<defs>
			<rect id="SVGID_1_" y="0" width="6519.7" height="2834.6"/>
		</defs>
		<clipPath id="SVGID_00000174568400264556850260000012824963575256211135_">
			<use xlink:href="#SVGID_1_"  style="overflow:visible;"/>
		</clipPath>
		<g style="clip-path:url(#SVGID_00000174568400264556850260000012824963575256211135_);">
			
				<linearGradient id="SVGID_00000135655113891067178080000015649329503566989455_" gradientUnits="userSpaceOnUse" x1="509.0585" y1="1231.9232" x2="1984.9658" y2="1769.1095">
				<stop  offset="0" style="stop-color:#0078AB"/>
				<stop  offset="1" style="stop-color:#006396"/>
			</linearGradient>
			<path style="fill-rule:evenodd;clip-rule:evenodd;fill:url(#SVGID_00000135655113891067178080000015649329503566989455_);" d="
				M1928.5,1388.3c0-52-21-96.7-56.6-125.9c-26.5-22.8-54.8-34.7-115.9-42.9l-70.3-11c-36.5-6.4-73.9-21-96.7-40.2
				c-22.8-19.2-33.8-47.4-33.8-84.9c0-83,55.7-134.1,150.6-134.1c76.6,0,119.5,23.7,157.9,60.2l31.9-32
				c-55.7-48.4-106.8-70.3-187.1-70.3c-125,0-201.7,68.4-201.7,177.9c0,51.1,17.3,91.2,51.1,119.5c28.3,24.6,66.6,40.2,115.9,47.5
				l75.7,11.9c53.8,7.3,69.4,15.5,94,34.7c24.6,21,35.6,52,35.6,91.3c0,84.8-63.9,134.1-167,134.1c-77.6,0-125.9-18.2-184.3-76.6
				l-34.7,34.7c59.3,59.3,120.4,85.8,216.3,85.8C1845.5,1568.1,1928.5,1498.7,1928.5,1388.3 M549,516.3
				c275.9-131.4,745.3,29,1059,145c152.7,56.4,400.9,141,585.7,258.6c-87.9,19-155.2,85.5-155.2,191.9h149.4
				c0-50.1,32.8-62.8,60.1-62.8c38.2,0,58.3,24.6,58.3,60.1c0,27.3-9.1,43.7-32.8,69.2l-346.9,389.8H2307
				c-113.9,151.5-276,285.8-372.6,366c-162.8,135-652.5,507.4-962.6,435.3c-294.3-68.4-542.4-786.9-592.1-1216.3
				C350.5,902,327.5,621.8,549,516.3 M2431.8,1200.3c14.7,76.3-3.4,155.4-40.9,233h-170.2l154.8-163.9
				C2399.4,1244.1,2418.3,1222.7,2431.8,1200.3"/>
		</g>
	</g>
	<g>
		<defs>
			<rect id="SVGID_00000098196255473151497810000017851217580787060410_" y="0" width="6519.7" height="2834.6"/>
		</defs>
		<clipPath id="SVGID_00000148641160397618120070000001877287946557102731_">
			<use xlink:href="#SVGID_00000098196255473151497810000017851217580787060410_"  style="overflow:visible;"/>
		</clipPath>
		<path style="clip-path:url(#SVGID_00000148641160397618120070000001877287946557102731_);fill:#0078AB;" d="M2745.3,1155.5
			c31.3,0,55,20.1,61.8,52.5l0.7,3.4h27.3l-0.8-4.9c-7.6-45.6-43.4-76.2-89-76.2c-24.7,0-47.9,9.5-65.1,26.7
			c-24.3,24.3-24.3,49.3-24.3,103.9s0,79.6,24.3,103.9c17.3,17.2,40.4,26.7,65.1,26.7c26.2,0,51.2-10.9,68.4-29.9
			c15-15.7,21.4-34.6,21.4-63v-44.7h-94v25.2h66.7v18.1c0,20.5-4.1,34-14,46.5c-11.8,14.3-29.4,22.5-48.4,22.5
			c-16.9,0-32.5-6.4-44.1-18c-16.6-16.6-18-34.9-18-87.4s1.4-70.9,18-87.4C2712.7,1161.9,2728.4,1155.5,2745.3,1155.5"/>
	</g>
	<g>
		<defs>
			<rect id="SVGID_00000102521285171609197090000010723265299530042020_" y="0" width="6519.7" height="2834.6"/>
		</defs>
		<clipPath id="SVGID_00000090280577270236673420000004359958329775558833_">
			<use xlink:href="#SVGID_00000102521285171609197090000010723265299530042020_"  style="overflow:visible;"/>
		</clipPath>
		<path style="clip-path:url(#SVGID_00000090280577270236673420000004359958329775558833_);fill:#0078AB;" d="M3102.1,1203.3
			c0-43.1-29.6-70.9-75.4-70.9h-98.8v257h27.3v-114.5h61.6l59.3,114.5h31.6l-60.7-116.1C3081.6,1265.3,3102.1,1239.5,3102.1,1203.3
			 M3074.8,1203.6c0,40-31.7,46-50.6,46h-69.1v-92.1h69.1C3043.1,1157.6,3074.8,1163.6,3074.8,1203.6"/>
	</g>
	<g>
		<defs>
			<rect id="SVGID_00000093148712662008602230000011850843304108148891_" y="0" width="6519.7" height="2834.6"/>
		</defs>
		<clipPath id="SVGID_00000013195324553845470360000002038023857971188382_">
			<use xlink:href="#SVGID_00000093148712662008602230000011850843304108148891_"  style="overflow:visible;"/>
		</clipPath>
		<path style="clip-path:url(#SVGID_00000013195324553845470360000002038023857971188382_);fill:#006DA2;" d="M3340.1,1302.1
			c0,39-24.4,64.2-62.1,64.2c-37.7,0-62.1-25.2-62.1-64.2v-169.7h-27.3v172.1c0,24.6,8.9,46.9,25.2,62.6
			c16.2,15.7,39,24.4,64.3,24.4s48.1-8.6,64.3-24.4c16.2-15.7,25.2-38,25.2-62.6v-172.1h-27.3v169.7H3340.1z"/>
	</g>
	<g>
		<defs>
			<rect id="SVGID_00000072970676434487100650000004099056886394286743_" y="0" width="6519.7" height="2834.6"/>
		</defs>
		<clipPath id="SVGID_00000133528969182546359930000002004842686357833347_">
			<use xlink:href="#SVGID_00000072970676434487100650000004099056886394286743_"  style="overflow:visible;"/>
		</clipPath>
		<path style="clip-path:url(#SVGID_00000133528969182546359930000002004842686357833347_);fill:#0078AB;" d="M3619,1152.1
			c-14.2-12.9-33.7-19.7-56.5-19.7h-95.4v257h27.3V1284h68c47.4,0,79.3-30.5,79.3-75.8C3641.8,1185,3633.9,1165.6,3619,1152.1
			 M3614.5,1208.1c0,32.6-19.2,50.6-54.1,50.6h-65.9v-101.1h65.9C3595.3,1157.6,3614.5,1175.5,3614.5,1208.1"/>
	</g>
	<g>
		<defs>
			<rect id="SVGID_00000183236241570921884540000010277829596852679613_" y="0" width="6519.7" height="2834.6"/>
		</defs>
		<clipPath id="SVGID_00000183210454753615807440000002092010300131975041_">
			<use xlink:href="#SVGID_00000183236241570921884540000010277829596852679613_"  style="overflow:visible;"/>
		</clipPath>
		<path style="clip-path:url(#SVGID_00000183210454753615807440000002092010300131975041_);fill:#0078AB;" d="M3867.2,1157
			c-17.2-17.2-40.4-26.7-65.1-26.7c-24.8,0-47.9,9.5-65.1,26.7c-24.3,24.3-24.3,49.3-24.3,103.9s0,79.6,24.3,103.9
			c17.2,17.2,40.4,26.7,65.1,26.7c24.8,0,47.9-9.5,65.1-26.7c24.3-24.3,24.3-49.2,24.3-103.9
			C3891.4,1206.2,3891.4,1181.3,3867.2,1157 M3864.1,1260.9c0,52.5-1.4,70.8-17.9,87.4c-11.6,11.6-27.3,18-44.2,18
			s-32.6-6.4-44.1-18c-16.6-16.6-18-35-18-87.4c0-52.5,1.4-70.8,18-87.4c11.6-11.6,27.3-18,44.1-18c16.9,0,32.6,6.4,44.2,18
			C3862.7,1190,3864.1,1208.4,3864.1,1260.9"/>
	</g>
	<g>
		<defs>
			<rect id="SVGID_00000047023303230838705080000001070529784889234074_" y="0" width="6519.7" height="2834.6"/>
		</defs>
		<clipPath id="SVGID_00000148648889507321690690000005150040148604839596_">
			<use xlink:href="#SVGID_00000047023303230838705080000001070529784889234074_"  style="overflow:visible;"/>
		</clipPath>
		<path style="clip-path:url(#SVGID_00000148648889507321690690000005150040148604839596_);fill:#6E6D6D;" d="M2865.7,1930.2
			c1,2.7,1.5,4.9,1.6,6.6s-0.4,3-1.4,3.8c-1,0.9-2.6,1.4-4.9,1.7c-2.3,0.2-5.4,0.4-9.2,0.4s-6.9-0.1-9.2-0.3c-2.3-0.2-4-0.5-5.2-0.9
			s-2-1-2.6-1.8s-1.1-1.7-1.6-2.8l-20.6-58.6h-100l-19.7,57.8c-0.4,1.1-0.9,2.1-1.5,2.9s-1.5,1.5-2.7,2.1s-2.9,1-5,1.2
			c-2.2,0.2-5,0.4-8.5,0.4c-3.6,0-6.5-0.2-8.8-0.5s-3.9-0.9-4.8-1.8c-0.9-0.9-1.4-2.1-1.3-3.8c0.1-1.7,0.6-3.9,1.6-6.6l80.7-223.5
			c0.5-1.4,1.1-2.5,2-3.3c0.8-0.9,2-1.6,3.5-2.1s3.5-0.8,5.9-1s5.5-0.3,9.2-0.3c4,0,7.3,0.1,9.9,0.3c2.6,0.2,4.7,0.5,6.3,1
			s2.9,1.2,3.7,2.1c0.9,0.9,1.5,2.1,2,3.4L2865.7,1930.2z M2762.1,1732.9h-0.2l-41.5,119.9h83.7L2762.1,1732.9z"/>
	</g>
	<g>
		<defs>
			<rect id="SVGID_00000181082290043175734770000015736343040602310038_" y="0" width="6519.7" height="2834.6"/>
		</defs>
		<clipPath id="SVGID_00000114759443004442910970000014440708262392427434_">
			<use xlink:href="#SVGID_00000181082290043175734770000015736343040602310038_"  style="overflow:visible;"/>
		</clipPath>
		<path style="clip-path:url(#SVGID_00000114759443004442910970000014440708262392427434_);fill:#6E6D6D;" d="M3046.4,1936.9
			c0,1-0.3,1.8-0.7,2.5c-0.5,0.7-1.3,1.3-2.4,1.8c-1.1,0.5-2.7,0.9-4.6,1.1c-2,0.2-4.5,0.4-7.4,0.4c-3.1,0-5.6-0.1-7.6-0.4
			s-3.5-0.6-4.6-1.1s-1.9-1.1-2.4-1.8c-0.5-0.7-0.7-1.5-0.7-2.5v-98c0-9.5-0.7-17.2-2.2-23.1c-1.5-5.8-3.7-10.8-6.5-15.1
			c-2.9-4.2-6.5-7.4-11.1-9.7c-4.5-2.2-9.8-3.3-15.7-3.3c-7.7,0-15.4,2.7-23.1,8.2c-7.7,5.5-15.7,13.5-24.2,24v117
			c0,1-0.3,1.8-0.7,2.5c-0.5,0.7-1.3,1.3-2.4,1.8c-1.1,0.5-2.7,0.9-4.6,1.1c-2,0.2-4.5,0.4-7.6,0.4c-3,0-5.5-0.1-7.4-0.4
			c-2-0.3-3.6-0.6-4.7-1.1c-1.2-0.5-2-1.1-2.4-1.8c-0.4-0.7-0.7-1.5-0.7-2.5v-167.3c0-1,0.2-1.8,0.6-2.5c0.4-0.7,1.1-1.3,2.2-1.9
			c1.1-0.6,2.5-0.9,4.3-1.1c1.7-0.2,4-0.3,6.9-0.3c2.7,0,5,0.1,6.8,0.3c1.8,0.2,3.2,0.6,4.2,1.1c1,0.6,1.7,1.2,2.1,1.9
			c0.4,0.7,0.7,1.5,0.7,2.5v22.1c9.4-10.5,18.8-18.3,28.2-23.2c9.4-4.9,18.8-7.3,28.4-7.3c11.2,0,20.5,1.9,28.2,5.7
			c7.6,3.8,13.8,8.8,18.5,15.1c4.7,6.3,8.1,13.7,10.1,22.2s3.1,18.7,3.1,30.6v102.1H3046.4z"/>
	</g>
	<g>
		<defs>
			<rect id="SVGID_00000071534127694973230200000011198432782816393645_" y="0" width="6519.7" height="2834.6"/>
		</defs>
		<clipPath id="SVGID_00000050627576660409750220000008448928351098714268_">
			<use xlink:href="#SVGID_00000071534127694973230200000011198432782816393645_"  style="overflow:visible;"/>
		</clipPath>
		<path style="clip-path:url(#SVGID_00000050627576660409750220000008448928351098714268_);fill:#6E6D6D;" d="M3244.4,1764.7
			c3.7,0,6.3,0.8,7.6,2.5c1.4,1.7,2,4.1,2,7.4v162.3c0,1-0.2,1.8-0.7,2.5s-1.3,1.3-2.5,1.8s-2.8,0.9-4.7,1.1c-2,0.2-4.4,0.4-7.3,0.4
			c-3.1,0-5.6-0.1-7.6-0.4s-3.6-0.6-4.7-1.1c-1.2-0.5-2-1.1-2.5-1.8c-0.5-0.7-0.7-1.5-0.7-2.5v-146.7h-86.5v93.3
			c0,11.5,1.7,20.2,5.1,26.1c3.4,5.9,9.5,8.8,18.3,8.8c2.9,0,5.4-0.3,7.6-0.8c2.2-0.6,4.2-1.2,5.9-1.8c1.7-0.6,3.2-1.2,4.5-1.8
			c1.2-0.6,2.4-0.8,3.3-0.8c0.6,0,1.2,0.2,1.8,0.5s1,0.9,1.3,1.8s0.6,2,0.8,3.5c0.3,1.5,0.4,3.3,0.4,5.6c0,3.6-0.3,6.4-0.8,8.5
			s-1.2,3.6-2.2,4.6c-1,1.1-2.5,2-4.5,2.9s-4.2,1.6-6.8,2.1c-2.5,0.6-5.2,1-8.1,1.4c-2.9,0.4-5.7,0.6-8.6,0.6
			c-8.7,0-16.1-1.2-22.3-3.4c-6.2-2.3-11.3-5.8-15.2-10.4c-4-4.6-6.9-10.5-8.6-17.7c-1.8-7.1-2.7-15.5-2.7-25.2v-97.8h-23.4
			c-1.9,0-3.3-1-4.5-3c-1.1-2-1.7-5.2-1.7-9.7c0-2.4,0.2-4.3,0.5-6c0.3-1.6,0.7-2.9,1.2-4c0.5-1,1.1-1.8,2-2.2
			c0.8-0.4,1.7-0.7,2.7-0.7h23.2v-39.8c0-0.9,0.2-1.7,0.7-2.4c0.4-0.8,1.2-1.4,2.4-2s2.8-1,4.7-1.2c2-0.3,4.5-0.4,7.4-0.4
			c3.1,0,5.6,0.1,7.6,0.4s3.5,0.7,4.7,1.2c1.1,0.6,1.9,1.2,2.4,2c0.5,0.7,0.8,1.6,0.8,2.4v39.8L3244.4,1764.7L3244.4,1764.7z
			 M3257.6,1713c0,7.2-1.4,12.1-4.1,14.7c-2.7,2.6-7.8,3.9-15.1,3.9c-7.2,0-12.1-1.3-14.8-3.8s-4-7.4-4-14.4
			c0-7.2,1.4-12.1,4.1-14.7c2.7-2.6,7.7-3.9,15.1-3.9c7.2,0,12.1,1.3,14.8,3.8C3256.3,1701.2,3257.6,1706,3257.6,1713"/>
	</g>
	<g>
		<defs>
			<rect id="SVGID_00000101063282712424931230000012144793560576872847_" y="0" width="6519.7" height="2834.6"/>
		</defs>
		<clipPath id="SVGID_00000134227790134059919760000016875196473449035145_">
			<use xlink:href="#SVGID_00000101063282712424931230000012144793560576872847_"  style="overflow:visible;"/>
		</clipPath>
		<path style="clip-path:url(#SVGID_00000134227790134059919760000016875196473449035145_);fill:#6E6D6D;" d="M3431.3,1911.4
			c0,2.1-0.1,3.9-0.2,5.5c-0.1,1.6-0.3,2.9-0.6,3.9c-0.3,1.1-0.7,2-1.1,2.8c-0.4,0.8-1.4,2-3,3.5c-1.5,1.6-4.2,3.5-7.9,5.8
			s-7.9,4.3-12.6,6.1c-4.7,1.8-9.7,3.3-15.2,4.4s-11.1,1.7-16.9,1.7c-12,0-22.7-2-32-6s-17.1-9.8-23.3-17.4
			c-6.3-7.6-11-17-14.3-28.1s-4.9-23.9-4.9-38.4c0-16.5,2-30.6,6-42.5c4-11.8,9.5-21.5,16.5-29.1s15.2-13.2,24.7-16.8
			c9.5-3.7,19.7-5.5,30.8-5.5c5.3,0,10.5,0.5,15.5,1.5s9.6,2.3,13.9,3.9c4.2,1.6,8,3.5,11.3,5.6s5.7,3.9,7.2,5.4s2.5,2.7,3.1,3.5
			c0.6,0.9,1,1.9,1.4,3.1s0.6,2.5,0.7,4c0.1,1.5,0.2,3.3,0.2,5.6c0,4.8-0.6,8.2-1.7,10.1c-1.1,1.9-2.5,2.9-4.1,2.9
			c-1.9,0-4-1-6.4-3.1c-2.4-2-5.5-4.3-9.2-6.8s-8.2-4.7-13.5-6.8c-5.3-2.1-11.5-3.1-18.7-3.1c-14.8,0-26.1,5.7-33.9,17
			c-7.9,11.3-11.8,27.8-11.8,49.4c0,10.8,1,20.2,3.1,28.4c2,8.1,5.1,14.9,9,20.3c4,5.5,8.8,9.5,14.6,12.2s12.4,4,19.8,4
			c7.1,0,13.3-1.1,18.6-3.3c5.3-2.2,10-4.7,13.9-7.3c3.9-2.7,7.2-5.1,9.9-7.3c2.7-2.2,4.7-3.2,6.2-3.2c0.9,0,1.6,0.3,2.2,0.7
			c0.6,0.5,1.1,1.3,1.6,2.5c0.4,1.2,0.7,2.7,0.9,4.5C3431.2,1906.8,3431.3,1909,3431.3,1911.4"/>
	</g>
	<g>
		<defs>
			<rect id="SVGID_00000167368467481210541720000005425646254481938576_" y="0" width="6519.7" height="2834.6"/>
		</defs>
		<clipPath id="SVGID_00000174589917316911134710000017519921399003377031_">
			<use xlink:href="#SVGID_00000167368467481210541720000005425646254481938576_"  style="overflow:visible;"/>
		</clipPath>
		<path style="clip-path:url(#SVGID_00000174589917316911134710000017519921399003377031_);fill:#6E6D6D;" d="M3506.3,1713
			c0,7.2-1.4,12.1-4.1,14.7c-2.7,2.6-7.7,3.9-15.1,3.9c-7.2,0-12.1-1.3-14.8-3.8s-4-7.4-4-14.4c0-7.2,1.4-12.1,4.1-14.7
			c2.7-2.6,7.7-3.9,15.1-3.9c7.2,0,12.1,1.3,14.8,3.8C3504.9,1701.2,3506.3,1706,3506.3,1713 M3502.7,1936.9c0,1-0.3,1.8-0.7,2.5
			c-0.5,0.7-1.3,1.3-2.4,1.8c-1.1,0.5-2.7,0.9-4.7,1.1s-4.5,0.4-7.6,0.4c-3,0-5.5-0.1-7.4-0.4c-2-0.3-3.6-0.6-4.7-1.1
			c-1.2-0.5-2-1.1-2.4-1.8c-0.4-0.7-0.7-1.5-0.7-2.5v-167.3c0-0.9,0.2-1.7,0.7-2.4c0.4-0.7,1.2-1.4,2.4-1.9s2.8-0.9,4.7-1.1
			c2-0.2,4.5-0.4,7.4-0.4c3.1,0,5.6,0.1,7.6,0.4s3.5,0.6,4.7,1.1c1.1,0.5,1.9,1.1,2.4,1.9c0.5,0.7,0.7,1.6,0.7,2.4V1936.9z"/>
	</g>
	<g>
		<defs>
			<rect id="SVGID_00000024703933918852151690000003275449909740604589_" y="0" width="6519.7" height="2834.6"/>
		</defs>
		<clipPath id="SVGID_00000118363154815520961710000006775359840040749194_">
			<use xlink:href="#SVGID_00000024703933918852151690000003275449909740604589_"  style="overflow:visible;"/>
		</clipPath>
		<path style="clip-path:url(#SVGID_00000118363154815520961710000006775359840040749194_);fill:#6E6D6D;" d="M3713.4,1850.6
			c0,14.6-1.6,27.8-4.7,39.4c-3.2,11.7-7.8,21.5-14,29.7c-6.1,8.1-13.7,14.4-22.8,18.8s-19.4,6.6-31.1,6.6c-5,0-9.5-0.5-13.8-1.5
			c-4.2-1-8.3-2.5-12.4-4.7c-4-2.1-8-4.8-12-8s-8.2-7-12.6-11.3v83.7c0,1-0.3,1.9-0.8,2.6s-1.3,1.4-2.4,1.9
			c-1.1,0.5-2.7,0.9-4.7,1.1c-2,0.3-4.5,0.4-7.6,0.4c-3,0-5.5-0.1-7.4-0.4c-2-0.2-3.6-0.6-4.7-1.1c-1.2-0.5-2-1.1-2.4-1.9
			s-0.7-1.6-0.7-2.6v-233.7c0-1.1,0.2-2,0.6-2.7c0.4-0.7,1.1-1.3,2.2-1.8c1.1-0.5,2.5-0.8,4.3-1c1.7-0.2,3.8-0.3,6.3-0.3
			c2.6,0,4.7,0.1,6.4,0.3c1.7,0.2,3.1,0.5,4.2,1c1.1,0.5,1.9,1.1,2.3,1.8c0.4,0.7,0.7,1.6,0.7,2.7v22.5c5.1-5.2,10-9.7,14.7-13.6
			c4.7-3.8,9.5-7,14.2-9.6c4.8-2.5,9.7-4.5,14.7-5.8s10.3-2,15.9-2c12.1,0,22.5,2.4,31.1,7.1s15.5,11.2,20.9,19.3
			c5.4,8.2,9.3,17.7,11.8,28.6C3712.2,1827,3713.4,1838.5,3713.4,1850.6 M3681.6,1854.2c0-8.6-0.7-16.8-2-24.8s-3.6-15.1-6.7-21.3
			s-7.5-11.2-12.8-14.9c-5.4-3.7-12-5.6-20-5.6c-4,0-7.9,0.6-11.8,1.8c-3.9,1.2-7.8,3-11.8,5.6s-8.2,5.9-12.5,10.1
			c-4.4,4.2-9,9.3-13.8,15.3v66.6c8.5,10.3,16.5,18.2,24.1,23.6c7.6,5.5,15.6,8.2,23.9,8.2c7.7,0,14.4-1.9,19.9-5.6
			c5.6-3.7,10-8.7,13.5-14.9c3.4-6.2,6-13.1,7.6-20.8C3680.8,1869.7,3681.6,1862,3681.6,1854.2"/>
	</g>
	<g>
		<defs>
			<rect id="SVGID_00000002342141209479645710000013243084295937985682_" y="0" width="6519.7" height="2834.6"/>
		</defs>
		<clipPath id="SVGID_00000164514042700317284770000000775092301850887865_">
			<use xlink:href="#SVGID_00000002342141209479645710000013243084295937985682_"  style="overflow:visible;"/>
		</clipPath>
		<path style="clip-path:url(#SVGID_00000164514042700317284770000000775092301850887865_);fill:#6E6D6D;" d="M3885.6,1937.1
			c0,1.5-0.5,2.6-1.5,3.3c-1,0.7-2.4,1.3-4.1,1.7c-1.7,0.4-4.3,0.6-7.6,0.6c-3.2,0-5.8-0.2-7.7-0.6s-3.3-0.9-4.2-1.7
			c-0.9-0.7-1.3-1.9-1.3-3.3v-16.7c-7.3,7.8-15.5,13.9-24.5,18.2c-9,4.3-18.5,6.5-28.5,6.5c-8.8,0-16.8-1.2-23.9-3.4
			c-7.1-2.3-13.2-5.6-18.2-10c-5-4.3-8.9-9.7-11.7-16s-4.2-13.5-4.2-21.6c0-9.4,1.9-17.6,5.8-24.5c3.8-6.9,9.4-12.7,16.5-17.3
			c7.2-4.6,16-8,26.4-10.3s22.1-3.4,35.1-3.4h23.1v-13c0-6.4-0.7-12.1-2-17.1c-1.4-5-3.6-9.1-6.6-12.4s-7-5.8-11.8-7.4
			c-4.8-1.7-10.8-2.5-17.9-2.5c-7.6,0-14.3,0.9-20.3,2.7c-6,1.8-11.3,3.8-15.8,6s-8.3,4.2-11.3,6s-5.3,2.7-6.8,2.7
			c-1,0-1.9-0.3-2.6-0.8c-0.7-0.5-1.4-1.2-1.9-2.2c-0.6-1-1-2.3-1.2-3.8c-0.3-1.6-0.4-3.2-0.4-5.1c0-3.1,0.2-5.6,0.7-7.3
			c0.4-1.8,1.5-3.5,3.2-5.1s4.6-3.5,8.6-5.7c4.1-2.2,8.8-4.2,14.1-6s11.2-3.3,17.5-4.5s12.7-1.8,19.1-1.8c12,0,22.3,1.4,30.7,4.1
			s15.2,6.7,20.4,12s9,11.8,11.3,19.6c2.4,7.8,3.5,16.9,3.5,27.3L3885.6,1937.1L3885.6,1937.1z M3855.1,1860.7h-26.2
			c-8.4,0-15.7,0.7-21.9,2.1s-11.3,3.5-15.4,6.3c-4.1,2.8-7.1,6.1-9,10.1c-1.9,3.9-2.9,8.4-2.9,13.5c0,8.7,2.8,15.6,8.3,20.7
			s13.2,7.7,23.2,7.7c8.1,0,15.5-2,22.4-6.1s14.1-10.3,21.7-18.8v-35.5H3855.1z"/>
	</g>
	<g>
		<defs>
			<rect id="SVGID_00000137836361894654758800000012893812356073311665_" y="0" width="6519.7" height="2834.6"/>
		</defs>
		<clipPath id="SVGID_00000169549928366519634030000009079959977495355564_">
			<use xlink:href="#SVGID_00000137836361894654758800000012893812356073311665_"  style="overflow:visible;"/>
		</clipPath>
		<path style="clip-path:url(#SVGID_00000169549928366519634030000009079959977495355564_);fill:#6E6D6D;" d="M4086,1936.9
			c0,1-0.3,1.8-0.7,2.5c-0.5,0.7-1.3,1.3-2.4,1.8c-1.1,0.5-2.7,0.9-4.7,1.1s-4.5,0.4-7.4,0.4c-3.1,0-5.6-0.1-7.6-0.4
			s-3.5-0.6-4.7-1.1c-1.1-0.5-1.9-1.1-2.4-1.8c-0.5-0.7-0.8-1.5-0.8-2.5v-98c0-9.5-0.7-17.2-2.2-23.1c-1.5-5.8-3.7-10.8-6.5-15.1
			c-2.8-4.2-6.5-7.4-11.1-9.7c-4.5-2.2-9.8-3.3-15.7-3.3c-7.7,0-15.4,2.7-23.1,8.2c-7.7,5.5-15.7,13.5-24.2,24v117
			c0,1-0.3,1.8-0.7,2.5c-0.5,0.7-1.3,1.3-2.4,1.8c-1.1,0.5-2.7,0.9-4.6,1.1c-2,0.2-4.5,0.4-7.6,0.4c-3,0-5.5-0.1-7.4-0.4
			c-2-0.3-3.6-0.6-4.7-1.1c-1.2-0.5-2-1.1-2.4-1.8c-0.4-0.7-0.6-1.5-0.6-2.5v-167.3c0-1,0.2-1.8,0.6-2.5c0.4-0.7,1.1-1.3,2.2-1.9
			c1.1-0.6,2.5-0.9,4.3-1.1c1.7-0.2,4-0.3,6.9-0.3c2.7,0,5,0.1,6.8,0.3c1.8,0.2,3.2,0.6,4.2,1.1c1,0.6,1.7,1.2,2.1,1.9
			c0.4,0.7,0.7,1.5,0.7,2.5v22.1c9.4-10.5,18.8-18.3,28.2-23.2c9.4-4.9,18.8-7.3,28.4-7.3c11.2,0,20.5,1.9,28.2,5.7
			c7.6,3.8,13.8,8.8,18.5,15.1c4.7,6.3,8.1,13.7,10.1,22.2c2.1,8.5,3.1,18.7,3.1,30.6v102.1H4086z"/>
	</g>
	<g>
		<defs>
			<rect id="SVGID_00000039093012169016442450000015258778744726862524_" y="0" width="6519.7" height="2834.6"/>
		</defs>
		<clipPath id="SVGID_00000041261463140865217340000007168144198518151854_">
			<use xlink:href="#SVGID_00000039093012169016442450000015258778744726862524_"  style="overflow:visible;"/>
		</clipPath>
		<path style="clip-path:url(#SVGID_00000041261463140865217340000007168144198518151854_);fill:#6E6D6D;" d="M4285.4,1936.9
			c0,1-0.2,1.9-0.7,2.6c-0.4,0.7-1.2,1.3-2.2,1.8c-1.1,0.4-2.4,0.8-4.2,1c-1.7,0.2-3.8,0.4-6.3,0.4c-2.6,0-4.8-0.1-6.5-0.4
			s-3.2-0.6-4.3-1c-1.1-0.4-1.9-1-2.4-1.8s-0.8-1.6-0.8-2.6v-22.1c-8.8,9.6-17.9,17-27.4,22.3s-19.9,8-31.1,8
			c-12.3,0-22.8-2.4-31.4-7.2c-8.7-4.8-15.7-11.2-21.1-19.3c-5.4-8.1-9.3-17.7-11.8-28.6c-2.5-11-3.7-22.5-3.7-34.7
			c0-14.4,1.6-27.4,4.7-38.9c3.1-11.6,7.7-21.5,13.8-29.7c6.1-8.2,13.6-14.5,22.6-18.9s19.4-6.6,31.1-6.6c9.8,0,18.7,2.1,26.9,6.4
			c8.1,4.3,16.1,10.6,24.1,18.9v-97.2c0-0.9,0.2-1.7,0.7-2.5c0.4-0.8,1.3-1.4,2.5-1.9c1.2-0.4,2.8-0.8,4.7-1.1
			c1.9-0.3,4.4-0.5,7.3-0.5c3.1,0,5.6,0.2,7.6,0.5s3.5,0.7,4.6,1.1s1.9,1.1,2.5,1.9s0.8,1.7,0.8,2.5L4285.4,1936.9L4285.4,1936.9z
			 M4254.5,1819.2c-8.3-10.3-16.3-18.1-24.1-23.5c-7.7-5.4-15.8-8.1-24.3-8.1c-7.8,0-14.4,1.9-19.9,5.6s-9.9,8.6-13.3,14.7
			s-5.9,13-7.4,20.6c-1.6,7.7-2.3,15.5-2.3,23.4c0,8.4,0.7,16.7,1.9,24.7c1.3,8.1,3.6,15.2,6.8,21.5c3.2,6.3,7.5,11.3,12.8,15.1
			c5.3,3.8,12,5.7,20.1,5.7c4.1,0,8-0.6,11.8-1.7s7.6-3,11.6-5.6s8.1-6,12.5-10.1c4.3-4.2,8.9-9.3,13.8-15.3V1819.2z"/>
	</g>
	<g>
		<defs>
			<rect id="SVGID_00000104691641265598215760000007857414317909300404_" y="0" width="6519.7" height="2834.6"/>
		</defs>
		<clipPath id="SVGID_00000145016806025694422190000001567463611120976290_">
			<use xlink:href="#SVGID_00000104691641265598215760000007857414317909300404_"  style="overflow:visible;"/>
		</clipPath>
		<path style="clip-path:url(#SVGID_00000145016806025694422190000001567463611120976290_);fill:#6E6D6D;" d="M4497.7,1851.4
			c0,13.6-1.8,26.2-5.4,37.7s-9,21.3-16.1,29.7c-7.1,8.3-16.1,14.8-26.8,19.4c-10.7,4.7-23.2,7-37.3,7c-13.8,0-25.8-2.1-36-6.1
			c-10.2-4.1-18.8-10-25.6-17.9c-6.8-7.8-11.9-17.3-15.3-28.4c-3.3-11.2-5-23.8-5-37.9c0-13.6,1.8-26.2,5.3-37.6
			c3.5-11.5,8.9-21.4,16-29.7c7.1-8.3,16-14.8,26.7-19.3c10.7-4.6,23.1-6.9,37.4-6.9c13.8,0,25.8,2,36,6.1s18.8,10.1,25.6,17.9
			c6.8,7.8,11.9,17.3,15.3,28.5C4496,1824.8,4497.7,1837.4,4497.7,1851.4 M4465.9,1853.4c0-9-0.8-17.6-2.5-25.7s-4.5-15.1-8.4-21.2
			s-9.1-10.9-15.8-14.4c-6.6-3.5-14.9-5.3-24.8-5.3c-9.1,0-17,1.6-23.5,4.8c-6.6,3.2-12,7.8-16.2,13.7c-4.3,5.9-7.4,12.9-9.5,20.9
			c-2.1,8.1-3.1,16.9-3.1,26.4c0,9.2,0.8,17.8,2.5,25.8c1.7,8.1,4.5,15.1,8.4,21.1s9.2,10.8,15.9,14.3c6.6,3.5,14.9,5.3,24.8,5.3
			c9,0,16.8-1.6,23.5-4.8c6.6-3.2,12.1-7.7,16.3-13.6c4.2-5.8,7.4-12.8,9.4-20.8C4464.9,1872,4465.9,1863.1,4465.9,1853.4"/>
	</g>
	<g>
		<defs>
			<rect id="SVGID_00000150820649995629664760000008775075433327003064_" y="0" width="6519.7" height="2834.6"/>
		</defs>
		<clipPath id="SVGID_00000172442170086967794210000012106700143759556266_">
			<use xlink:href="#SVGID_00000150820649995629664760000008775075433327003064_"  style="overflow:visible;"/>
		</clipPath>
		<path style="clip-path:url(#SVGID_00000172442170086967794210000012106700143759556266_);fill:#6E6D6D;" d="M4772.4,1936.9
			c0,1-0.2,1.8-0.7,2.5c-0.4,0.7-1.2,1.3-2.3,1.8c-1.1,0.5-2.6,0.9-4.4,1.1s-4,0.4-6.6,0.4c-2.9,0-5.2-0.1-7-0.4s-3.2-0.6-4.3-1.1
			c-1.1-0.5-1.8-1.1-2.2-1.8c-0.4-0.7-0.6-1.5-0.6-2.5v-22.1c-9.5,10.5-19,18.2-28.3,23.1c-9.3,4.8-18.7,7.3-28.3,7.3
			c-11.2,0-20.5-1.9-28.2-5.6c-7.6-3.7-13.8-8.8-18.5-15.2c-4.7-6.4-8.1-13.8-10.1-22.3c-2.1-8.5-3.1-18.8-3.1-31v-101.5
			c0-1,0.2-1.8,0.6-2.5s1.3-1.3,2.5-1.9s2.9-0.9,4.8-1.1c2-0.2,4.5-0.3,7.4-0.3c3,0,5.5,0.1,7.4,0.3c2,0.2,3.6,0.6,4.7,1.1
			c1.2,0.6,2,1.2,2.5,1.9c0.5,0.7,0.7,1.5,0.7,2.5v97.4c0,9.8,0.7,17.6,2.1,23.5s3.6,10.9,6.5,15.1s6.6,7.4,11.1,9.7
			c4.5,2.3,9.7,3.4,15.6,3.4c7.7,0,15.4-2.7,23-8.2s15.7-13.5,24.3-24v-117c0-1,0.2-1.8,0.7-2.5c0.4-0.7,1.3-1.3,2.5-1.9
			s2.8-0.9,4.7-1.1c1.9-0.2,4.4-0.3,7.5-0.3c3,0,5.5,0.1,7.4,0.3c2,0.2,3.5,0.6,4.6,1.1c1.1,0.6,1.9,1.2,2.5,1.9
			c0.6,0.7,0.8,1.5,0.8,2.5v167.4H4772.4z"/>
	</g>
	<g>
		<defs>
			<rect id="SVGID_00000176764423741425008150000015956973035794067119_" y="0" width="6519.7" height="2834.6"/>
		</defs>
		<clipPath id="SVGID_00000111905670538684861870000016863403202218690223_">
			<use xlink:href="#SVGID_00000176764423741425008150000015956973035794067119_"  style="overflow:visible;"/>
		</clipPath>
		<path style="clip-path:url(#SVGID_00000111905670538684861870000016863403202218690223_);fill:#6E6D6D;" d="M4973.2,1936.9
			c0,1-0.3,1.8-0.7,2.5c-0.5,0.7-1.3,1.3-2.4,1.8s-2.7,0.9-4.7,1.1s-4.5,0.4-7.4,0.4c-3.1,0-5.6-0.1-7.6-0.4s-3.5-0.6-4.7-1.1
			c-1.1-0.5-1.9-1.1-2.4-1.8c-0.5-0.7-0.8-1.5-0.8-2.5v-98c0-9.5-0.7-17.2-2.2-23.1c-1.5-5.8-3.7-10.8-6.5-15.1
			c-2.8-4.2-6.5-7.4-11.1-9.7c-4.5-2.2-9.8-3.3-15.7-3.3c-7.7,0-15.4,2.7-23.1,8.2s-15.7,13.5-24.2,24v117c0,1-0.3,1.8-0.8,2.5
			s-1.3,1.3-2.4,1.8s-2.7,0.9-4.6,1.1c-2,0.2-4.5,0.4-7.6,0.4c-3,0-5.5-0.1-7.4-0.4c-2-0.3-3.6-0.6-4.7-1.1c-1.2-0.5-2-1.1-2.4-1.8
			c-0.4-0.7-0.6-1.5-0.6-2.5v-167.3c0-1,0.2-1.8,0.6-2.5s1.1-1.3,2.2-1.9s2.5-0.9,4.3-1.1c1.7-0.2,4-0.3,6.9-0.3
			c2.7,0,5,0.1,6.8,0.3c1.8,0.2,3.2,0.6,4.2,1.1c1,0.6,1.7,1.2,2.1,1.9c0.4,0.7,0.7,1.5,0.7,2.5v22.1c9.4-10.5,18.8-18.3,28.2-23.2
			c9.4-4.9,18.8-7.3,28.4-7.3c11.2,0,20.5,1.9,28.2,5.7c7.6,3.8,13.8,8.8,18.5,15.1c4.7,6.3,8.1,13.7,10.1,22.2
			c2.1,8.5,3.1,18.7,3.1,30.6v102.1H4973.2z"/>
	</g>
	<g>
		<defs>
			<rect id="SVGID_00000130620188864295593620000005000814105282625940_" y="0" width="6519.7" height="2834.6"/>
		</defs>
		<clipPath id="SVGID_00000054966939153952528100000006579940010309277571_">
			<use xlink:href="#SVGID_00000130620188864295593620000005000814105282625940_"  style="overflow:visible;"/>
		</clipPath>
		<path style="clip-path:url(#SVGID_00000054966939153952528100000006579940010309277571_);fill:#6E6D6D;" d="M5363.5,1936.9
			c0,1-0.3,1.8-0.7,2.5c-0.5,0.7-1.3,1.3-2.4,1.8s-2.7,0.9-4.6,1.1c-2,0.2-4.5,0.4-7.4,0.4c-3.1,0-5.6-0.1-7.6-0.4s-3.6-0.6-4.7-1.1
			c-1.2-0.5-2-1.1-2.5-1.8c-0.5-0.7-0.8-1.5-0.8-2.5v-101.7c0-7.1-0.6-13.5-1.9-19.3c-1.2-5.8-3.2-10.8-5.9-15.1
			c-2.7-4.2-6.2-7.4-10.4-9.7c-4.2-2.2-9.2-3.3-14.9-3.3c-7.1,0-14.2,2.7-21.3,8.2c-7.1,5.5-15,13.5-23.5,24v117
			c0,1-0.3,1.8-0.7,2.5c-0.5,0.7-1.3,1.3-2.5,1.8s-2.8,0.9-4.7,1.1c-2,0.2-4.5,0.4-7.4,0.4s-5.3-0.1-7.4-0.4c-2-0.3-3.7-0.6-4.8-1.1
			c-1.2-0.5-2-1.1-2.4-1.8c-0.4-0.7-0.7-1.5-0.7-2.5v-101.7c0-7.1-0.7-13.5-2-19.3c-1.4-5.8-3.4-10.8-6.1-15.1
			c-2.7-4.2-6.2-7.4-10.3-9.7c-4.1-2.2-9.1-3.3-14.8-3.3c-7.1,0-14.2,2.7-21.4,8.2c-7.2,5.5-15,13.5-23.4,24v117
			c0,1-0.3,1.8-0.8,2.5s-1.3,1.3-2.4,1.8s-2.7,0.9-4.6,1.1c-2,0.2-4.5,0.4-7.6,0.4c-3,0-5.5-0.1-7.4-0.4c-2-0.3-3.6-0.6-4.7-1.1
			c-1.2-0.5-2-1.1-2.4-1.8c-0.4-0.7-0.6-1.5-0.6-2.5v-167.3c0-1,0.2-1.8,0.6-2.5s1.1-1.3,2.2-1.9s2.5-0.9,4.3-1.1
			c1.7-0.2,4-0.3,6.9-0.3c2.7,0,5,0.1,6.8,0.3c1.8,0.2,3.2,0.6,4.2,1.1c1,0.6,1.7,1.2,2.1,1.9c0.4,0.7,0.7,1.5,0.7,2.5v22.1
			c9.4-10.5,18.6-18.3,27.4-23.2c8.9-4.9,17.8-7.3,26.9-7.3c6.9,0,13.2,0.8,18.7,2.4s10.4,3.9,14.6,6.8s7.8,6.4,10.8,10.4
			s5.5,8.5,7.4,13.5c5.6-6.1,10.9-11.2,15.9-15.4c5-4.2,9.9-7.6,14.5-10.2s9.2-4.5,13.6-5.7s8.8-1.8,13.3-1.8
			c10.8,0,19.8,1.9,27.1,5.7c7.3,3.8,13.2,8.8,17.8,15.1c4.5,6.3,7.7,13.7,9.7,22.2c1.9,8.5,2.9,17.4,2.9,26.9v105.6H5363.5z"/>
	</g>
	<g>
		<defs>
			<rect id="SVGID_00000121251576062501097390000009736568244041576857_" y="0" width="6519.7" height="2834.6"/>
		</defs>
		<clipPath id="SVGID_00000027581936586772470850000016593613045937074340_">
			<use xlink:href="#SVGID_00000121251576062501097390000009736568244041576857_"  style="overflow:visible;"/>
		</clipPath>
		<path style="clip-path:url(#SVGID_00000027581936586772470850000016593613045937074340_);fill:#6E6D6D;" d="M5562.8,1936.9
			c0,1-0.2,1.8-0.7,2.5c-0.4,0.7-1.2,1.3-2.3,1.8c-1.1,0.5-2.6,0.9-4.4,1.1s-4,0.4-6.6,0.4c-2.9,0-5.2-0.1-7-0.4s-3.2-0.6-4.3-1.1
			c-1.1-0.5-1.8-1.1-2.2-1.8c-0.4-0.7-0.6-1.5-0.6-2.5v-22.1c-9.5,10.5-19,18.2-28.3,23.1c-9.3,4.8-18.7,7.3-28.3,7.3
			c-11.2,0-20.5-1.9-28.2-5.6c-7.6-3.7-13.8-8.8-18.5-15.2c-4.7-6.4-8.1-13.8-10.1-22.3c-2.1-8.5-3.1-18.8-3.1-31v-101.5
			c0-1,0.2-1.8,0.6-2.5s1.3-1.3,2.5-1.9s2.9-0.9,4.8-1.1c2-0.2,4.5-0.3,7.4-0.3c3,0,5.5,0.1,7.4,0.3c2,0.2,3.6,0.6,4.7,1.1
			c1.2,0.6,2,1.2,2.5,1.9c0.5,0.7,0.7,1.5,0.7,2.5v97.4c0,9.8,0.7,17.6,2.1,23.5s3.6,10.9,6.5,15.1s6.6,7.4,11.1,9.7
			c4.5,2.3,9.7,3.4,15.6,3.4c7.7,0,15.4-2.7,23-8.2s15.7-13.5,24.3-24v-117c0-1,0.2-1.8,0.7-2.5c0.4-0.7,1.3-1.3,2.5-1.9
			s2.8-0.9,4.7-1.1c1.9-0.2,4.4-0.3,7.5-0.3c3,0,5.5,0.1,7.4,0.3c2,0.2,3.5,0.6,4.6,1.1c1.1,0.6,1.9,1.2,2.5,1.9
			c0.6,0.7,0.8,1.5,0.8,2.5v167.4H5562.8z"/>
	</g>
	<g>
		<defs>
			<rect id="SVGID_00000046335339981510348730000012283074877210045832_" y="0" width="6519.7" height="2834.6"/>
		</defs>
		<clipPath id="SVGID_00000063625528540536666330000001899096711895542170_">
			<use xlink:href="#SVGID_00000046335339981510348730000012283074877210045832_"  style="overflow:visible;"/>
		</clipPath>
		<path style="clip-path:url(#SVGID_00000063625528540536666330000001899096711895542170_);fill:#6E6D6D;" d="M5763.6,1936.9
			c0,1-0.3,1.8-0.7,2.5c-0.5,0.7-1.3,1.3-2.4,1.8s-2.7,0.9-4.7,1.1s-4.5,0.4-7.4,0.4c-3.1,0-5.6-0.1-7.6-0.4s-3.5-0.6-4.7-1.1
			c-1.1-0.5-1.9-1.1-2.4-1.8c-0.5-0.7-0.7-1.5-0.7-2.5v-98c0-9.5-0.8-17.2-2.2-23.1c-1.5-5.8-3.7-10.8-6.5-15.1
			c-2.8-4.2-6.5-7.4-11.1-9.7c-4.5-2.2-9.8-3.3-15.7-3.3c-7.7,0-15.4,2.7-23.1,8.2s-15.7,13.5-24.2,24v117c0,1-0.2,1.8-0.7,2.5
			s-1.3,1.3-2.4,1.8s-2.7,0.9-4.6,1.1c-2,0.2-4.5,0.4-7.6,0.4c-3,0-5.5-0.1-7.4-0.4c-2-0.3-3.6-0.6-4.7-1.1c-1.2-0.5-2-1.1-2.4-1.8
			c-0.4-0.7-0.6-1.5-0.6-2.5v-167.3c0-1,0.2-1.8,0.6-2.5s1.1-1.3,2.2-1.9s2.5-0.9,4.3-1.1c1.7-0.2,4-0.3,6.9-0.3
			c2.7,0,5,0.1,6.8,0.3c1.8,0.2,3.2,0.6,4.2,1.1c1,0.6,1.7,1.2,2.1,1.9c0.4,0.7,0.7,1.5,0.7,2.5v22.1c9.4-10.5,18.8-18.3,28.2-23.2
			c9.4-4.9,18.8-7.3,28.4-7.3c11.2,0,20.5,1.9,28.2,5.7c7.6,3.8,13.8,8.8,18.5,15.1c4.7,6.3,8.1,13.7,10.1,22.2
			c2.1,8.5,3.1,18.7,3.1,30.6v102.1H5763.6z"/>
	</g>
	<g>
		<defs>
			<rect id="SVGID_00000155852962343908286190000002321935065530062499_" y="0" width="6519.7" height="2834.6"/>
		</defs>
		<clipPath id="SVGID_00000172415697902640959570000000915520830714337182_">
			<use xlink:href="#SVGID_00000155852962343908286190000002321935065530062499_"  style="overflow:visible;"/>
		</clipPath>
		<path style="clip-path:url(#SVGID_00000172415697902640959570000000915520830714337182_);fill:#6E6D6D;" d="M5963,1936.9
			c0,1-0.2,1.9-0.7,2.6c-0.4,0.7-1.2,1.3-2.2,1.8c-1.1,0.4-2.4,0.8-4.2,1c-1.7,0.2-3.8,0.4-6.3,0.4c-2.6,0-4.8-0.1-6.5-0.4
			s-3.2-0.6-4.3-1c-1.1-0.4-1.9-1-2.4-1.8s-0.7-1.6-0.7-2.6v-22.1c-8.8,9.6-17.9,17-27.4,22.3s-19.9,8-31.1,8
			c-12.3,0-22.8-2.4-31.4-7.2c-8.7-4.8-15.7-11.2-21.1-19.3c-5.4-8.1-9.3-17.7-11.8-28.6c-2.5-11-3.7-22.5-3.7-34.7
			c0-14.4,1.6-27.4,4.6-38.9c3.1-11.6,7.7-21.5,13.8-29.7c6.1-8.2,13.6-14.5,22.6-18.9s19.4-6.6,31.1-6.6c9.8,0,18.7,2.1,26.9,6.4
			c8.1,4.3,16.1,10.6,24.1,18.9v-97.2c0-0.9,0.2-1.7,0.7-2.5c0.4-0.8,1.3-1.4,2.5-1.9c1.2-0.4,2.8-0.8,4.7-1.1
			c1.9-0.3,4.4-0.5,7.3-0.5c3.1,0,5.6,0.2,7.6,0.5s3.5,0.7,4.6,1.1s1.9,1.1,2.5,1.9s0.8,1.7,0.8,2.5V1936.9z M5932.1,1819.2
			c-8.3-10.3-16.3-18.1-24.1-23.5c-7.7-5.4-15.8-8.1-24.3-8.1c-7.8,0-14.4,1.9-19.9,5.6s-9.9,8.6-13.3,14.7s-5.9,13-7.4,20.6
			c-1.6,7.7-2.3,15.5-2.3,23.4c0,8.4,0.7,16.7,1.9,24.7c1.3,8.1,3.6,15.2,6.8,21.5c3.2,6.3,7.5,11.3,12.8,15.1
			c5.3,3.8,12,5.7,20.1,5.7c4.1,0,8-0.6,11.8-1.7s7.6-3,11.6-5.6s8.1-6,12.5-10.1c4.3-4.2,8.9-9.3,13.8-15.3V1819.2z"/>
	</g>
	<g>
		<defs>
			<rect id="SVGID_00000108304430960951976800000016330124336187938701_" y="0" width="6519.7" height="2834.6"/>
		</defs>
		<clipPath id="SVGID_00000139273666401651485380000017318529878167373501_">
			<use xlink:href="#SVGID_00000108304430960951976800000016330124336187938701_"  style="overflow:visible;"/>
		</clipPath>
		<path style="clip-path:url(#SVGID_00000139273666401651485380000017318529878167373501_);fill:#6E6D6D;" d="M6175.3,1851.4
			c0,13.6-1.8,26.2-5.4,37.7s-9,21.3-16.1,29.7c-7.1,8.3-16.1,14.8-26.8,19.4c-10.7,4.7-23.2,7-37.3,7c-13.8,0-25.8-2.1-36-6.1
			c-10.2-4.1-18.8-10-25.6-17.9c-6.8-7.8-11.9-17.3-15.3-28.4c-3.3-11.2-5-23.8-5-37.9c0-13.6,1.8-26.2,5.3-37.6
			c3.5-11.5,8.9-21.4,16-29.7c7.1-8.3,16-14.8,26.7-19.3c10.7-4.6,23.1-6.9,37.4-6.9c13.8,0,25.8,2,36,6.1s18.8,10.1,25.6,17.9
			c6.8,7.8,11.9,17.3,15.3,28.5C6173.6,1824.8,6175.3,1837.4,6175.3,1851.4 M6143.5,1853.4c0-9-0.8-17.6-2.5-25.7
			s-4.5-15.1-8.4-21.2s-9.1-10.9-15.8-14.4c-6.6-3.5-14.9-5.3-24.8-5.3c-9.1,0-17,1.6-23.5,4.8c-6.6,3.2-12,7.8-16.2,13.7
			c-4.3,5.9-7.4,12.9-9.5,20.9c-2.1,8.1-3.1,16.9-3.1,26.4c0,9.2,0.8,17.8,2.5,25.8c1.7,8.1,4.5,15.1,8.4,21.1s9.2,10.8,15.9,14.3
			c6.6,3.5,14.9,5.3,24.8,5.3c9,0,16.8-1.6,23.5-4.8c6.6-3.2,12.1-7.7,16.3-13.6c4.2-5.8,7.4-12.8,9.4-20.8
			C6142.5,1872,6143.5,1863.1,6143.5,1853.4"/>
	</g>
	<g>
		<defs>
			<rect id="SVGID_00000137829997621517532070000015954089647718811797_" y="0" width="6519.7" height="2834.6"/>
		</defs>
		<clipPath id="SVGID_00000023261857012621347820000000974773484262888875_">
			<use xlink:href="#SVGID_00000137829997621517532070000015954089647718811797_"  style="overflow:visible;"/>
		</clipPath>
		<path style="clip-path:url(#SVGID_00000023261857012621347820000000974773484262888875_);fill:#0078AB;" d="M2802.5,2226.2
			c0,3.2-0.1,5.9-0.3,8.1c-0.2,2.2-0.4,4-0.7,5.5s-0.7,2.7-1.1,3.6c-0.4,0.9-1.4,2.1-2.9,3.5s-4,3.2-7.6,5.2s-7.7,3.9-12.3,5.5
			s-9.6,2.9-15,3.9s-10.9,1.5-16.6,1.5c-12.8,0-24.1-2-33.9-6c-9.9-4-18.1-9.8-24.8-17.6c-6.7-7.7-11.7-17.2-15.2-28.4
			c-3.4-11.1-5.1-23.9-5.1-38.3c0-16.6,2.1-31,6.2-43c4.1-12.1,9.9-22.1,17.4-30c7.4-7.9,16.2-13.8,26.4-17.7
			c10.2-3.8,21.3-5.8,33.5-5.8c5,0,9.8,0.4,14.6,1.3c4.8,0.9,9.2,2.1,13.4,3.5c4.2,1.5,7.9,3.2,11.2,5c3.3,1.9,5.6,3.5,7,4.8
			c1.4,1.4,2.3,2.5,2.9,3.4c0.6,0.9,1,2.2,1.3,3.6c0.3,1.5,0.6,3.3,0.8,5.5s0.3,4.8,0.3,7.9c0,7.2-0.6,12.2-1.9,15.2
			c-1.2,2.9-2.9,4.4-4.8,4.4c-2.1,0-4.3-0.9-6.7-2.6c-2.4-1.7-5.1-3.7-8.4-5.8c-3.2-2.1-7.1-4-11.5-5.8c-4.5-1.7-9.8-2.6-16-2.6
			c-12.2,0-21.4,4.7-27.9,14c-6.4,9.4-9.7,23.1-9.7,41.2c0,8.9,0.8,16.8,2.4,23.6c1.6,6.8,4,12.5,7.2,17.1s7.1,8,11.9,10.3
			c4.8,2.3,10.3,3.4,16.6,3.4c6.4,0,12-1,16.6-2.9s8.7-4.1,12.2-6.4c3.5-2.4,6.4-4.5,8.7-6.4c2.4-1.9,4.3-2.9,6-2.9
			c1.1,0,2,0.3,2.8,0.9c0.7,0.6,1.3,1.8,1.8,3.4c0.4,1.7,0.8,3.8,1,6.4C2802.3,2218.7,2802.5,2222.1,2802.5,2226.2"/>
	</g>
	<g>
		<defs>
			<rect id="SVGID_00000119819116940242984620000013200061277256742825_" y="0" width="6519.7" height="2834.6"/>
		</defs>
		<clipPath id="SVGID_00000108279342861829077420000008881986124348068283_">
			<use xlink:href="#SVGID_00000119819116940242984620000013200061277256742825_"  style="overflow:visible;"/>
		</clipPath>
		<path style="clip-path:url(#SVGID_00000108279342861829077420000008881986124348068283_);fill:#0078AB;" d="M2886.7,2030.6
			c0,9.4-1.9,15.9-5.8,19.5c-3.8,3.6-11,5.4-21.4,5.4c-10.5,0-17.6-1.7-21.3-5.2s-5.5-9.7-5.5-18.8c0-9.4,1.9-16,5.7-19.6
			c3.8-3.7,10.9-5.5,21.5-5.5c10.4,0,17.5,1.8,21.2,5.3C2884.8,2015.2,2886.7,2021.5,2886.7,2030.6 M2883.2,2252.6
			c0,1.2-0.4,2.3-1.1,3.2c-0.7,0.9-2,1.7-3.8,2.3s-4.2,1.1-7.2,1.4c-3,0.3-6.8,0.5-11.3,0.5c-4.6,0-8.4-0.2-11.3-0.5
			c-3-0.3-5.4-0.8-7.2-1.4c-1.8-0.6-3.1-1.4-3.8-2.3c-0.7-0.9-1.1-2-1.1-3.2v-165.5c0-1.2,0.4-2.3,1.1-3.2c0.8-0.9,2-1.7,3.8-2.4
			s4.2-1.2,7.2-1.6c3-0.4,6.8-0.6,11.3-0.6c4.6,0,8.4,0.2,11.3,0.6c3,0.4,5.4,0.9,7.2,1.6c1.8,0.7,3.1,1.5,3.8,2.4s1.1,2,1.1,3.2
			V2252.6z"/>
	</g>
	<g>
		<defs>
			<rect id="SVGID_00000018947303958088786960000013610774557969197969_" y="0" width="6519.7" height="2834.6"/>
		</defs>
		<clipPath id="SVGID_00000031187085997485059540000015496770584056108168_">
			<use xlink:href="#SVGID_00000018947303958088786960000013610774557969197969_"  style="overflow:visible;"/>
		</clipPath>
		<path style="clip-path:url(#SVGID_00000031187085997485059540000015496770584056108168_);fill:#0078AB;" d="M3096.8,2167.4
			c0,14.8-1.6,28-4.8,39.8s-7.9,21.8-13.9,30.1c-6.1,8.3-13.5,14.7-22.4,19.2s-18.9,6.7-30.2,6.7c-5.6,0-10.8-0.5-15.6-1.6
			s-9.5-2.7-13.9-5.1c-4.4-2.4-8.7-5.3-13-8.9c-4.3-3.6-8.6-7.9-13.1-13v18c0,1.4-0.3,2.5-1,3.4s-1.8,1.7-3.4,2.3
			c-1.5,0.6-3.6,1.1-6.2,1.3c-2.6,0.2-5.8,0.4-9.5,0.4c-3.8,0-7-0.1-9.6-0.4c-2.5-0.2-4.6-0.7-6.1-1.3c-1.6-0.6-2.6-1.4-3.3-2.3
			c-0.6-0.9-0.9-2.1-0.9-3.4v-244.5c0-1.2,0.4-2.3,1.1-3.3c0.8-1,2-1.8,3.8-2.5s4.2-1.2,7.2-1.6s6.8-0.6,11.3-0.6
			c4.6,0,8.4,0.2,11.3,0.6c3,0.4,5.4,0.9,7.2,1.6s3.1,1.5,3.8,2.5c0.8,1,1.1,2.1,1.1,3.3v91.7c4.2-4.2,8.4-7.8,12.6-10.8
			c4.2-3,8.4-5.4,12.6-7.3c4.2-1.9,8.6-3.3,13-4.2c4.5-0.9,9.2-1.3,14.1-1.3c12.3,0,22.7,2.4,31.2,7.3c8.6,4.9,15.5,11.5,20.9,19.8
			s9.3,18,11.8,29.1C3095.6,2143.5,3096.8,2155.1,3096.8,2167.4 M3048.3,2170.8c0-7.1-0.5-13.9-1.6-20.4c-1.1-6.6-2.9-12.4-5.5-17.5
			s-6-9.1-10.1-12.2c-4.2-3-9.4-4.6-15.7-4.6c-3.1,0-6.1,0.4-9.1,1.3c-3,0.9-6,2.4-9.2,4.5s-6.4,4.8-9.8,8.2
			c-3.3,3.3-6.9,7.5-10.6,12.5v55c6.6,8.4,12.9,14.9,18.9,19.3c6,4.4,12.3,6.6,18.9,6.6c6.1,0,11.2-1.5,15.4-4.6s7.7-7.1,10.5-12.1
			s4.8-10.6,6-16.9C3047.7,2183.4,3048.3,2177.1,3048.3,2170.8"/>
	</g>
	<g>
		<defs>
			<rect id="SVGID_00000070110313448925189450000003888889180406135992_" y="0" width="6519.7" height="2834.6"/>
		</defs>
		<clipPath id="SVGID_00000096056559587865224950000012721376405163443116_">
			<use xlink:href="#SVGID_00000070110313448925189450000003888889180406135992_"  style="overflow:visible;"/>
		</clipPath>
		<path style="clip-path:url(#SVGID_00000096056559587865224950000012721376405163443116_);fill:#0078AB;" d="M3287.4,2164.8
			c0,5.7-1.3,9.9-3.8,12.6c-2.5,2.7-6,4.1-10.5,4.1h-101c0,7.1,0.8,13.5,2.5,19.3s4.3,10.7,8,14.7s8.4,7.1,14.1,9.2
			c5.8,2.1,12.7,3.2,20.7,3.2c8.2,0,15.4-0.6,21.6-1.8c6.2-1.2,11.6-2.5,16.1-3.9s8.3-2.7,11.2-3.9c3-1.2,5.4-1.8,7.3-1.8
			c1.1,0,2,0.2,2.8,0.7c0.7,0.4,1.4,1.2,1.9,2.3s0.8,2.7,1,4.7s0.3,4.6,0.3,7.7c0,2.7-0.1,5.1-0.2,7c-0.1,1.9-0.3,3.6-0.6,4.9
			s-0.6,2.5-1.1,3.4s-1.2,1.8-2,2.7s-3,2-6.6,3.5s-8.2,2.9-13.8,4.4c-5.6,1.4-12,2.7-19.2,3.7c-7.2,1.1-14.9,1.6-23.1,1.6
			c-14.8,0-27.7-1.9-38.8-5.6c-11.1-3.7-20.4-9.4-27.8-16.9c-7.4-7.6-13-17.1-16.6-28.6c-3.7-11.5-5.5-25-5.5-40.5
			c0-14.8,1.9-28,5.8-39.9c3.8-11.8,9.4-21.9,16.7-30.1c7.3-8.2,16.2-14.5,26.7-18.9c10.5-4.3,22.3-6.5,35.4-6.5
			c13.9,0,25.7,2,35.6,6.1c9.9,4.1,17.9,9.8,24.3,17c6.3,7.2,11,15.8,13.9,25.7c3,9.9,4.5,20.7,4.5,32.4v7.5H3287.4z M3242,2151.4
			c0.4-13.1-2.3-23.5-7.9-31c-5.6-7.5-14.3-11.3-26.1-11.3c-5.9,0-11.1,1.1-15.5,3.4c-4.4,2.2-8.1,5.2-11,9s-5.1,8.2-6.7,13.4
			c-1.6,5.1-2.4,10.6-2.7,16.4h69.9V2151.4z"/>
	</g>
	<g>
		<defs>
			<rect id="SVGID_00000179606642906928660700000005359016432767393947_" y="0" width="6519.7" height="2834.6"/>
		</defs>
		<clipPath id="SVGID_00000129188659363782320710000013174102151776865213_">
			<use xlink:href="#SVGID_00000179606642906928660700000005359016432767393947_"  style="overflow:visible;"/>
		</clipPath>
		<path style="clip-path:url(#SVGID_00000129188659363782320710000013174102151776865213_);fill:#0078AB;" d="M3432.4,2102.1
			c0,4.5-0.1,8.1-0.4,11c-0.3,2.8-0.6,5.1-1.1,6.7c-0.5,1.6-1.1,2.7-2,3.3c-0.8,0.6-1.8,0.9-3.1,0.9c-1,0-2.1-0.2-3.4-0.7
			c-1.2-0.4-2.6-0.9-4.2-1.4c-1.5-0.5-3.2-1-5.1-1.4c-1.9-0.4-3.9-0.7-6.1-0.7c-2.6,0-5.2,0.5-7.8,1.6s-5.3,2.7-8.1,4.9
			s-5.7,5.2-8.7,8.9s-6.3,8.3-9.8,13.8v103.4c0,1.2-0.4,2.3-1.1,3.2c-0.7,0.9-2,1.7-3.8,2.3s-4.2,1.1-7.2,1.4
			c-3,0.3-6.8,0.5-11.3,0.5c-4.6,0-8.4-0.2-11.3-0.5c-3-0.3-5.4-0.8-7.2-1.4c-1.8-0.6-3.1-1.4-3.8-2.3c-0.7-0.9-1.1-2-1.1-3.2
			v-165.9c0-1.2,0.3-2.3,0.9-3.3c0.6-0.9,1.7-1.7,3.3-2.3s3.7-1.1,6.2-1.4c2.5-0.3,5.7-0.5,9.6-0.5c4,0,7.3,0.2,9.9,0.5
			c2.6,0.3,4.6,0.8,6,1.4c1.4,0.6,2.4,1.4,3.1,2.3c0.6,0.9,0.9,2,0.9,3.3v20.6c4.3-6.2,8.4-11.3,12.3-15.3c3.8-4,7.5-7.2,11-9.6
			c3.5-2.3,6.9-4,10.4-4.9s6.9-1.4,10.4-1.4c1.6,0,3.4,0.1,5.2,0.3c1.9,0.2,3.8,0.5,5.8,0.9s3.7,0.9,5.2,1.5s2.6,1.2,3.3,1.8
			s1.2,1.3,1.5,2.1c0.3,0.7,0.6,1.8,0.8,3.1c0.3,1.3,0.4,3.2,0.6,5.9C3432.4,2094.2,3432.4,2097.7,3432.4,2102.1"/>
	</g>
	<g>
		<defs>
			<rect id="SVGID_00000126297361647022676820000005838060672955761817_" y="0" width="6519.7" height="2834.6"/>
		</defs>
		<clipPath id="SVGID_00000152984223914879015300000005896280738517864372_">
			<use xlink:href="#SVGID_00000126297361647022676820000005838060672955761817_"  style="overflow:visible;"/>
		</clipPath>
		<path style="clip-path:url(#SVGID_00000152984223914879015300000005896280738517864372_);fill:#0078AB;" d="M3573.4,2205.7
			c0,9.4-1.8,17.7-5.3,24.9s-8.5,13.2-15,18c-6.4,4.8-14.1,8.5-22.9,10.9c-8.8,2.4-18.3,3.6-28.6,3.6c-6.2,0-12.1-0.5-17.8-1.4
			c-5.6-0.9-10.7-2.1-15.2-3.5s-8.2-2.9-11.2-4.4s-5.1-2.9-6.5-4.2s-2.4-3.3-3.2-6.1s-1.1-6.9-1.1-12.4c0-3.6,0.1-6.5,0.4-8.6
			c0.3-2.2,0.6-3.9,1.1-5.2s1.1-2.2,1.9-2.6c0.7-0.4,1.7-0.7,2.8-0.7c1.4,0,3.4,0.8,6,2.3c2.7,1.6,6,3.2,9.9,5.1
			c4,1.9,8.6,3.6,13.9,5.2c5.3,1.6,11.3,2.4,17.9,2.4c4.2,0,8-0.4,11.3-1.3c3.3-0.9,6.1-2.1,8.6-3.7c2.4-1.6,4.2-3.7,5.5-6.1
			c1.2-2.5,1.9-5.3,1.9-8.6c0-3.7-1.1-6.9-3.4-9.6c-2.3-2.7-5.3-5-9.1-7s-8.1-3.8-12.8-5.6c-4.8-1.7-9.7-3.7-14.7-5.8
			s-9.9-4.5-14.7-7.2s-9.1-6.1-12.8-10c-3.8-4-6.8-8.7-9.1-14.3s-3.4-12.3-3.4-20.1c0-7.9,1.5-15.2,4.7-21.8
			c3.1-6.6,7.6-12.3,13.4-17c5.8-4.7,12.9-8.4,21.3-11c8.4-2.6,17.8-3.9,28.2-3.9c5.2,0,10.3,0.4,15.2,1.1c4.9,0.7,9.3,1.7,13.3,2.8
			s7.3,2.3,10,3.6s4.7,2.4,5.9,3.3c1.2,0.9,2,1.9,2.5,2.8c0.5,0.9,0.9,2,1.1,3.3c0.3,1.3,0.5,2.9,0.7,4.8c0.2,1.9,0.3,4.3,0.3,7.2
			c0,3.3-0.1,6.1-0.3,8.2c-0.2,2.1-0.5,3.8-0.9,5s-1,2.1-1.8,2.5s-1.6,0.7-2.6,0.7c-1.1,0-2.9-0.7-5.2-2c-2.4-1.3-5.3-2.7-8.8-4.2
			s-7.6-2.9-12.3-4.2c-4.6-1.3-9.9-2-15.9-2c-4.2,0-7.9,0.4-11,1.3c-3.1,0.9-5.6,2.1-7.6,3.7c-2,1.6-3.5,3.5-4.5,5.7s-1.5,4.5-1.5,7
			c0,3.8,1.2,7.1,3.5,9.7c2.4,2.6,5.5,4.9,9.3,6.9s8.2,3.8,13.1,5.6c4.9,1.7,9.9,3.6,14.9,5.7c5,2,10,4.4,14.9,7.1
			c4.9,2.7,9.3,6.1,13.1,10.1s6.9,8.7,9.3,14.2C3572.2,2191.6,3573.4,2198.2,3573.4,2205.7"/>
	</g>
	<g>
		<defs>
			<rect id="SVGID_00000089534819301063379880000010508314297039048322_" y="0" width="6519.7" height="2834.6"/>
		</defs>
		<clipPath id="SVGID_00000091722498584321070230000015700608704266725257_">
			<use xlink:href="#SVGID_00000089534819301063379880000010508314297039048322_"  style="overflow:visible;"/>
		</clipPath>
		<path style="clip-path:url(#SVGID_00000091722498584321070230000015700608704266725257_);fill:#0078AB;" d="M3761.7,2164.8
			c0,5.7-1.3,9.9-3.8,12.6c-2.5,2.7-6,4.1-10.5,4.1h-101c0,7.1,0.8,13.5,2.5,19.3s4.3,10.7,8,14.7s8.4,7.1,14.1,9.2
			c5.8,2.1,12.7,3.2,20.7,3.2c8.2,0,15.4-0.6,21.6-1.8c6.2-1.2,11.6-2.5,16.1-3.9s8.3-2.7,11.2-3.9c3-1.2,5.4-1.8,7.3-1.8
			c1.1,0,2,0.2,2.8,0.7c0.7,0.4,1.4,1.2,1.9,2.3s0.8,2.7,1,4.7s0.3,4.6,0.3,7.7c0,2.7-0.1,5.1-0.2,7c-0.1,1.9-0.3,3.6-0.6,4.9
			s-0.6,2.5-1.1,3.4s-1.1,1.8-1.9,2.7c-0.8,0.9-3,2-6.6,3.5s-8.2,2.9-13.8,4.4c-5.6,1.4-12,2.7-19.2,3.7c-7.2,1.1-14.9,1.6-23.1,1.6
			c-14.8,0-27.7-1.9-38.8-5.6c-11.1-3.7-20.4-9.4-27.8-16.9c-7.4-7.6-13-17.1-16.6-28.6c-3.7-11.5-5.5-25-5.5-40.5
			c0-14.8,1.9-28,5.8-39.9c3.8-11.8,9.4-21.9,16.7-30.1s16.2-14.5,26.7-18.9c10.5-4.3,22.3-6.5,35.4-6.5c13.9,0,25.8,2,35.6,6.1
			c9.9,4.1,17.9,9.8,24.3,17c6.3,7.2,11,15.8,13.9,25.7c3,9.9,4.5,20.7,4.5,32.4v7.5H3761.7z M3716.4,2151.4
			c0.4-13.1-2.3-23.5-7.9-31c-5.6-7.5-14.4-11.3-26.1-11.3c-6,0-11.1,1.1-15.5,3.4c-4.4,2.2-8.1,5.2-11,9s-5.1,8.2-6.7,13.4
			c-1.6,5.1-2.5,10.6-2.7,16.4h69.9V2151.4z"/>
	</g>
	<g>
		<defs>
			<rect id="SVGID_00000075843657978515189610000008066292201349760896_" y="0" width="6519.7" height="2834.6"/>
		</defs>
		<clipPath id="SVGID_00000142138280833718942530000001471115303962256316_">
			<use xlink:href="#SVGID_00000075843657978515189610000008066292201349760896_"  style="overflow:visible;"/>
		</clipPath>
		<path style="clip-path:url(#SVGID_00000142138280833718942530000001471115303962256316_);fill:#0078AB;" d="M3949.7,2098.2
			c0,6-0.7,10.4-2,13.2c-1.4,2.9-3,4.3-5,4.3h-19.5c2.7,3,4.7,6.4,5.9,10.1c1.2,3.8,1.8,7.7,1.8,11.8c0,9.7-1.6,18.3-4.8,25.7
			c-3.2,7.5-7.8,13.8-13.9,19c-6,5.1-13.3,9-21.8,11.7s-17.9,4-28.4,4c-5.3,0-10.4-0.7-15.2-2s-8.6-2.8-11.2-4.6
			c-1.5,1.6-2.8,3.5-4,5.8c-1.2,2.2-1.8,4.7-1.8,7.4c0,3.6,1.6,6.5,4.7,8.8c3.2,2.3,7.6,3.6,13.3,3.8l40.4,1.5
			c9.4,0.4,17.8,1.7,25.2,4s13.6,5.5,18.6,9.7s8.9,9.1,11.5,15s4,12.5,4,19.9c0,8.2-1.8,15.9-5.4,23.2c-3.6,7.2-9,13.5-16.2,18.9
			c-7.2,5.3-16.2,9.5-27.1,12.6c-10.8,3.1-23.5,4.6-38,4.6c-14.1,0-26.2-1.1-36.2-3.3s-18.2-5.3-24.5-9.3c-6.4-4-11-8.7-13.9-14.2
			s-4.4-11.6-4.4-18.1c0-4.1,0.5-8,1.6-11.7c1-3.7,2.6-7.3,4.6-10.7c2.1-3.4,4.6-6.6,7.5-9.8c3-3.1,6.4-6.1,10.2-8.9
			c-5.3-2.8-9.5-6.7-12.4-11.6s-4.4-10.3-4.4-16.1c0-7.3,1.7-14,5-20s7.7-11.4,13-16.3c-4.3-4.3-7.8-9.5-10.4-15.6
			c-2.6-6.1-3.9-13.6-3.9-22.7c0-9.7,1.7-18.3,5.1-25.9c3.4-7.6,8.2-14.1,14.2-19.3c6.1-5.3,13.3-9.3,21.8-12.1
			c8.4-2.8,17.7-4.2,27.9-4.2c5.2,0,10.2,0.3,15,0.9c4.8,0.6,9.2,1.5,13.3,2.6h52.6c2.1,0,3.8,1.4,5.1,4.1
			C3949.1,2087.2,3949.7,2091.8,3949.7,2098.2 M3900.7,2269.9c0-5.6-2.2-9.9-6.7-12.8c-4.5-3-10.6-4.6-18.4-4.8l-33.3-0.9
			c-3.2,2.4-5.8,4.6-7.7,6.8s-3.5,4.2-4.7,6.2s-1.9,3.9-2.3,5.8c-0.4,1.9-0.6,3.8-0.6,5.8c0,6.2,3.1,10.9,9.4,14.1
			c6.3,3.2,15.1,4.8,26.5,4.8c7.1,0,13-0.7,17.9-2.1c4.8-1.4,8.7-3.3,11.7-5.7s5.1-5,6.3-7.9
			C3900,2276.2,3900.7,2273.1,3900.7,2269.9 M3889.7,2137.5c0-8.9-2.5-15.9-7.4-20.8c-5-5-12-7.4-21-7.4c-4.6,0-8.6,0.8-12.1,2.3
			c-3.5,1.6-6.4,3.7-8.6,6.3c-2.3,2.7-4,5.8-5.1,9.3s-1.7,7.2-1.7,11.1c0,8.4,2.5,15.1,7.4,20c5,4.9,11.8,7.3,20.6,7.3
			c4.7,0,8.8-0.7,12.3-2.2s6.4-3.5,8.6-6.1c2.3-2.6,4-5.6,5.2-9C3889.1,2144.8,3889.7,2141.2,3889.7,2137.5"/>
	</g>
	<g>
		<defs>
			<rect id="SVGID_00000080195142065667347060000012417188226165835705_" y="0" width="6519.7" height="2834.6"/>
		</defs>
		<clipPath id="SVGID_00000085941379908450184430000008382374169450199226_">
			<use xlink:href="#SVGID_00000080195142065667347060000012417188226165835705_"  style="overflow:visible;"/>
		</clipPath>
		<path style="clip-path:url(#SVGID_00000085941379908450184430000008382374169450199226_);fill:#0078AB;" d="M4138.1,2252.6
			c0,1.2-0.3,2.3-0.9,3.2s-1.7,1.7-3.3,2.3c-1.6,0.6-3.6,1.1-6.1,1.4c-2.5,0.3-5.7,0.5-9.6,0.5c-4.1,0-7.4-0.2-9.9-0.5
			c-2.6-0.3-4.6-0.8-6.1-1.4c-1.5-0.6-2.5-1.4-3.2-2.3c-0.6-0.9-0.9-2-0.9-3.2v-19.2c-9.2,9.9-18.5,17.4-28,22.3
			c-9.5,5-19.3,7.4-29.5,7.4c-11.4,0-21-1.9-28.7-5.6c-7.8-3.7-14-8.8-18.8-15.2s-8.2-13.9-10.2-22.4s-3.1-19.1-3.1-31.7v-101.5
			c0-1.2,0.3-2.3,1-3.3c0.7-0.9,1.9-1.7,3.7-2.3s4.2-1.1,7.3-1.4c3-0.3,6.8-0.5,11.2-0.5c4.6,0,8.4,0.2,11.3,0.5
			c3,0.3,5.4,0.8,7.2,1.4c1.8,0.6,3.1,1.4,3.8,2.3c0.7,0.9,1.1,2,1.1,3.3v93.7c0,8.7,0.6,15.3,1.7,19.9c1.1,4.6,2.8,8.5,5.1,11.8
			s5.2,5.8,8.7,7.6s7.6,2.7,12.4,2.7c5.9,0,11.9-2.2,17.9-6.5s12.4-10.7,19.3-19v-110.3c0-1.2,0.3-2.3,1-3.3s1.9-1.7,3.7-2.3
			c1.8-0.6,4.2-1.1,7.2-1.4c3-0.3,6.8-0.5,11.3-0.5c4.6,0,8.4,0.2,11.3,0.5c3,0.3,5.3,0.8,7.1,1.4c1.7,0.6,3,1.4,3.7,2.3
			c0.8,0.9,1.1,2,1.1,3.3v166H4138.1z"/>
	</g>
	<g>
		<defs>
			<rect id="SVGID_00000067936572916755899910000004756490708191476873_" y="0" width="6519.7" height="2834.6"/>
		</defs>
		<clipPath id="SVGID_00000053506212935518404350000001639849473027517095_">
			<use xlink:href="#SVGID_00000067936572916755899910000004756490708191476873_"  style="overflow:visible;"/>
		</clipPath>
		<path style="clip-path:url(#SVGID_00000053506212935518404350000001639849473027517095_);fill:#0078AB;" d="M4291.7,2102.1
			c0,4.5-0.1,8.1-0.4,11c-0.3,2.8-0.6,5.1-1.1,6.7c-0.5,1.6-1.1,2.7-1.9,3.3s-1.8,0.9-3.1,0.9c-1,0-2.1-0.2-3.3-0.7
			c-1.2-0.4-2.6-0.9-4.2-1.4s-3.2-1-5.1-1.4s-3.9-0.7-6.1-0.7c-2.6,0-5.2,0.5-7.8,1.6c-2.6,1.1-5.3,2.7-8.1,4.9
			c-2.8,2.2-5.7,5.2-8.7,8.9s-6.3,8.3-9.8,13.8v103.4c0,1.2-0.4,2.3-1.1,3.2s-2,1.7-3.8,2.3s-4.2,1.1-7.2,1.4
			c-3,0.3-6.8,0.5-11.3,0.5c-4.6,0-8.4-0.2-11.3-0.5c-3-0.3-5.4-0.8-7.2-1.4c-1.8-0.6-3.1-1.4-3.8-2.3c-0.7-0.9-1.1-2-1.1-3.2
			v-165.9c0-1.2,0.3-2.3,0.9-3.3c0.6-0.9,1.7-1.7,3.3-2.3c1.6-0.6,3.7-1.1,6.2-1.4c2.5-0.3,5.7-0.5,9.6-0.5c4,0,7.2,0.2,9.9,0.5
			c2.6,0.3,4.6,0.8,6,1.4c1.4,0.6,2.4,1.4,3.1,2.3c0.6,0.9,0.9,2,0.9,3.3v20.6c4.3-6.2,8.4-11.3,12.3-15.3c3.8-4,7.5-7.2,11-9.6
			c3.5-2.3,6.9-4,10.4-4.9s6.9-1.4,10.4-1.4c1.6,0,3.3,0.1,5.2,0.3c1.9,0.2,3.8,0.5,5.8,0.9s3.7,0.9,5.2,1.5s2.6,1.2,3.3,1.8
			c0.7,0.6,1.2,1.3,1.5,2.1c0.3,0.7,0.6,1.8,0.8,3.1s0.4,3.2,0.6,5.9C4291.6,2094.2,4291.7,2097.7,4291.7,2102.1"/>
	</g>
	<g>
		<defs>
			<rect id="SVGID_00000150816240053556868100000001457524639642302115_" y="0" width="6519.7" height="2834.6"/>
		</defs>
		<clipPath id="SVGID_00000069383085315902336510000007988628444738181508_">
			<use xlink:href="#SVGID_00000150816240053556868100000001457524639642302115_"  style="overflow:visible;"/>
		</clipPath>
		<path style="clip-path:url(#SVGID_00000069383085315902336510000007988628444738181508_);fill:#0078AB;" d="M4483.6,2168
			c0,14.1-1.9,27-5.6,38.7c-3.7,11.6-9.4,21.7-16.9,30.1c-7.6,8.4-17,14.9-28.5,19.5c-11.4,4.6-24.7,6.9-40,6.9
			c-14.8,0-27.6-2-38.5-6.1s-20-10-27.1-17.9c-7.2-7.8-12.5-17.4-16-28.8c-3.5-11.4-5.2-24.4-5.2-39c0-14.1,1.9-27.1,5.7-38.8
			c3.8-11.7,9.5-21.8,17-30.1c7.6-8.4,17-14.8,28.4-19.4c11.3-4.6,24.6-6.9,39.9-6.9c14.9,0,27.8,2,38.7,6c10.9,4,19.9,10,27.1,17.8
			c7.1,7.8,12.4,17.4,15.9,28.8C4481.9,2140.2,4483.6,2153.2,4483.6,2168 M4435.4,2169.8c0-8.2-0.7-15.7-1.9-22.6
			c-1.3-6.9-3.5-12.9-6.6-17.9c-3.1-5.1-7.2-9.1-12.4-11.9c-5.1-2.8-11.6-4.3-19.4-4.3c-6.9,0-13,1.3-18.2,3.8s-9.5,6.3-12.8,11.2
			s-5.9,10.8-7.5,17.7c-1.7,6.9-2.5,14.7-2.5,23.5c0,8.2,0.7,15.7,2,22.6c1.4,6.9,3.6,12.9,6.6,17.9c3,5.1,7.2,9,12.4,11.8
			c5.2,2.8,11.6,4.2,19.3,4.2c7.1,0,13.2-1.3,18.4-3.8c5.2-2.5,9.5-6.2,12.8-11.1c3.3-4.8,5.8-10.7,7.4-17.6
			C4434.6,2186.5,4435.4,2178.6,4435.4,2169.8"/>
	</g>
</g>
</svg>
