<?xml version="1.0" encoding="UTF-8"?><svg id="Capa_2" xmlns="http://www.w3.org/2000/svg" viewBox="0 0 231.47 231.47"><defs><style>.cls-1{fill:#fff;}.cls-2{fill:#8b0f0c;}</style></defs><g id="Capa_3"><g><circle class="cls-2" cx="115.74" cy="115.74" r="115.71"/><path class="cls-1" d="m180.07,89.76c0-8.86-7.18-16.04-16.04-16.04-2.3,0-4.49.49-6.47,1.36,0,0,0,0,0,0l-.08.04c-.41.19-.82.39-1.21.6l-34.25,17.07,50.28,37.07-1.79-1c-4.4-2.46-94.2-52.5-94.2-52.5-.69-.46-1.43-.87-2.19-1.22l-.03-.02s0,0,0,0c-2.03-.93-4.28-1.45-6.66-1.45-8.86,0-16.04,7.18-16.04,16.04,0,.13,0,.25,0,.38,0,.15,0,.3,0,.46v48.55c0,.18,0,.35.01.53,0,.15-.01.3-.01.45,0,2.87.76,5.55,2.08,7.88,2.36,4.71,6.65,8.15,12.5,8.15h99.47c2.64,0,5.12-.82,7.26-2.25,1.85-1.19,3.4-2.81,4.53-4.71,1.78-2.82,2.83-6.3,2.83-10.06v-48.55c0-.12,0-.24-.01-.35,0-.15.01-.3.01-.44Z"/></g></g></svg>