<?xml version="1.0" encoding="utf-8"?>
<!-- Generator: Adobe Illustrator 25.2.0, SVG Export Plug-In . SVG Version: 6.00 Build 0)  -->
<svg version="1.1" id="Capa_1" xmlns="http://www.w3.org/2000/svg" xmlns:xlink="http://www.w3.org/1999/xlink" x="0px" y="0px"
	 viewBox="0 0 1601.57 595.28" style="enable-background:new 0 0 1601.57 595.28;" xml:space="preserve">
<style type="text/css">
	.st0{fill:#585857;}
	.st1{fill:#1F71B8;}
	.st2{fill:none;stroke:#000000;stroke-width:0.5;stroke-linecap:round;stroke-linejoin:round;}
</style>
<g>
	<path class="st0" d="M454.2,465.1c-2.46,0-4.19-1.1-5.18-3.29c-0.93-2.26-0.56-4.29,1.1-6.08l98.21-106.49H454.2
		c-1.6,0-2.93-0.53-3.99-1.6c-1.06-1.06-1.6-2.36-1.6-3.89c0-1.53,0.53-2.86,1.6-3.99c1.06-1.06,2.39-1.6,3.99-1.6h106.89
		c2.39,0,4.09,1.1,5.09,3.29c1,2.26,0.66,4.29-1,6.08l-98.31,106.39h94.22c1.53,0,2.83,0.57,3.89,1.7c1.13,1.06,1.7,2.36,1.7,3.89
		c0,1.53-0.56,2.86-1.7,3.99c-1.06,1.06-2.36,1.6-3.89,1.6H454.2z"/>
	<path class="st1" d="M589.21,349.24c-1.53,0-2.86-0.53-3.99-1.6c-1.06-1.06-1.6-2.36-1.6-3.89c0-1.53,0.53-2.86,1.6-3.99
		c1.13-1.06,2.46-1.6,3.99-1.6H696.1c1.53,0,2.83,0.53,3.89,1.6c1.13,1.13,1.7,2.46,1.7,3.99c0,1.53-0.56,2.83-1.7,3.89
		c-1.06,1.06-2.36,1.6-3.89,1.6H589.21z M696.1,396.1c1.53,0,2.83,0.53,3.89,1.6c1.13,1.06,1.7,2.36,1.7,3.89
		c0,1.6-0.56,2.93-1.7,3.99c-1.06,1.06-2.36,1.6-3.89,1.6H589.21c-1.53,0-2.86-0.53-3.99-1.6c-1.06-1.06-1.6-2.39-1.6-3.99
		c0-1.53,0.53-2.82,1.6-3.89c1.13-1.06,2.46-1.6,3.99-1.6H696.1z M696.1,453.93c1.53,0,2.83,0.57,3.89,1.7
		c1.13,1.06,1.7,2.36,1.7,3.89c0,1.53-0.56,2.86-1.7,3.99c-1.06,1.06-2.36,1.6-3.89,1.6H589.21c-1.53,0-2.86-0.53-3.99-1.6
		c-1.06-1.13-1.6-2.46-1.6-3.99c0-1.53,0.53-2.82,1.6-3.89c1.13-1.13,2.46-1.7,3.99-1.7H696.1z"/>
	<path class="st0" d="M959.13,345.05c-4.59-4.59-10.11-6.88-16.55-6.88h-71.19c-6.45,0-11.97,2.29-16.55,6.88
		c-4.59,4.52-6.88,10.01-6.88,16.45v80.17c0,6.45,2.29,11.97,6.88,16.55c4.59,4.59,10.11,6.88,16.55,6.88h71.19
		c6.45,0,11.97-2.29,16.55-6.88c4.59-4.59,6.88-10.1,6.88-16.55V361.5C966.01,355.06,963.72,349.57,959.13,345.05z M954.84,441.67
		c0,3.39-1.2,6.28-3.59,8.67s-5.28,3.59-8.67,3.59h-71.19c-3.39,0-6.28-1.2-8.67-3.59s-3.59-5.28-3.59-8.67V361.5
		c0-3.32,1.2-6.18,3.59-8.57c2.39-2.46,5.28-3.69,8.67-3.69h71.19c3.39,0,6.28,1.23,8.67,3.69c2.39,2.39,3.59,5.25,3.59,8.57V441.67
		z"/>
	<path class="st0" d="M987.55,465.1c-1.53,0-2.86-0.53-3.99-1.6c-1.06-1.13-1.6-2.46-1.6-3.99V343.75c0-1.53,0.53-2.86,1.6-3.99
		c1.13-1.06,2.46-1.6,3.99-1.6c1.53,0,2.83,0.53,3.89,1.6c1.13,1.13,1.7,2.46,1.7,3.99v110.18h101.3c1.53,0,2.83,0.57,3.89,1.7
		c1.13,1.06,1.69,2.36,1.69,3.89c0,1.53-0.56,2.86-1.69,3.99c-1.06,1.06-2.36,1.6-3.89,1.6H987.55z"/>
	<path class="st0" d="M1321.47,339.77c-1.06-1.06-2.36-1.6-3.89-1.6s-2.83,0.53-3.89,1.6c-1.13,1.13-1.7,2.46-1.7,3.99v101.3
		l-25.46-28.3c-0.08-0.1-0.22-0.24-0.37-0.4l-73.38-78.62c-1.66-1.86-3.69-2.33-6.08-1.4c-2.39,0.87-3.59,2.59-3.59,5.18v115.76
		c0,1.53,0.53,2.86,1.6,3.99c1.13,1.06,2.46,1.6,3.99,1.6c1.53,0,2.83-0.53,3.89-1.6c1.13-1.13,1.7-2.46,1.7-3.99v-101.3
		l63.87,68.14l35.24,39.19c1.13,1.2,2.53,1.79,4.19,1.79c0.66,0,1.33-0.13,1.99-0.4c2.39-0.86,3.59-2.59,3.59-5.18V343.75
		C1323.17,342.23,1322.61,340.9,1321.47,339.77z"/>
	<path class="st0" d="M1188.55,341.57c-0.59-2.73-3.14-4.53-5.82-4.01c-1.01,0.2-1.88,0.7-2.55,1.4l0,0l-6.92,8.08l-0.01-0.01
		c-13.43,15.21-42.9,48.73-42.9,48.73l-43.34-48.71l0,0l-6.49-7.49c-0.15-0.2-0.32-0.4-0.51-0.59l-0.05-0.05l-0.01,0
		c-0.86-0.85-2.09-1.48-3.73-1.38c-2.79,0.17-4.97,2.43-4.85,5.16c0.04,1.03,0.41,1.97,1,2.74l0,0l6.96,7.93l45.29,53.74v52.35
		c0,1.53,0.53,2.86,1.6,3.99c1.13,1.06,2.46,1.6,3.99,1.6s2.83-0.53,3.89-1.6c1.13-1.13,1.7-2.46,1.7-3.99v-52.35l44.84-53.2
		l-0.03-0.02l6.61-7.78c0.18-0.18,0.34-0.38,0.5-0.59l0.05-0.05l-0.01,0C1188.45,344.48,1188.9,343.17,1188.55,341.57z"/>
	<path class="st0" d="M1414.92,411.84c-0.32-0.33-0.67-0.6-1.04-0.84l-8.49-9.07l50.23-53.68c1.09-1.11,1.61-2.43,1.58-3.95
		c-0.1-1.53-0.7-2.84-1.81-3.93c-1.11-1.02-2.42-1.52-3.96-1.48c-1.53,0.03-2.84,0.6-3.93,1.71l-31.04,33.13l-0.22,0.27l-18.5,19.77
		l-18.5-19.77l-0.22-0.27l-31.04-33.13c-1.09-1.11-2.39-1.68-3.93-1.71c-1.53-0.03-2.85,0.46-3.96,1.48
		c-1.11,1.09-1.71,2.4-1.81,3.93c-0.03,1.53,0.5,2.85,1.58,3.95l50.23,53.68l-8.49,9.07c-0.36,0.24-0.71,0.51-1.04,0.84
		l-40.82,43.89c-1.02,1.11-1.5,2.47-1.46,4.06c0.04,1.53,0.65,2.8,1.83,3.82c1.11,1.08,2.43,1.57,3.96,1.46
		c1.53-0.04,2.8-0.62,3.82-1.73l49.84-53.26l49.84,53.26c1.02,1.11,2.29,1.69,3.82,1.73c1.53,0.11,2.85-0.38,3.96-1.46
		c1.18-1.02,1.79-2.29,1.83-3.82c0.04-1.6-0.45-2.95-1.46-4.06L1414.92,411.84z"/>
	<path class="st2" d="M836.77,373.19"/>
	<g>
		<g id="XMLID_1_">
			<g>
				<path class="st1" d="M158.94,442.22c-20.1-59.48,20.28-113.28,20.28-113.28c-1.4-1.45-2.01-2.73-2.26-4.87
					c-0.62-5.26,3.18-10.03,8.48-10.66c5.31-0.62,10.08,3.13,10.74,8.39c0.75,5.95-3.51,10.18-8.3,10.72
					c-1.58,0.18-1.84,0.13-3.54-0.15c-48.19,82.29-9.46,123.11-10.6,124.06c6.46,5.66,11.62,9.75,20.92,16.13
					c-18.45-60.96,12.07-95.73,12.07-95.73c-1.1-1.34-1.42-2.42-1.63-4.27c-0.58-5.07,3.07-9.66,8.14-10.23
					c5.07-0.58,9.65,3.06,10.23,8.14c0.58,5.07-3.06,9.65-8.14,10.23c-1.37,0.16-2.1,0.17-3.34-0.23
					c-30.19,40.41-7.55,98.66-7.55,98.66c9.43,6.09,11.48,7.15,22.6,13.08c-10.8-45.71-1.01-84.74,40.73-124.17
					c23.58-22.27,42.34-42.81,79.44-9.76c17.35,15.46,34.77-12.2,23.63-23.55c-8.4-8.57-2.69-10.12,0.34-9.89
					c2.57,0.19,4.75,2.33,4.75,2.33c4.46,3.13,6.28-5.1,6.28-5.1s-14.15-1.81-32.44-21.7c-3.57-3.88-6.35-8.94-7.23-14.55
					c-0.83-5.29-1.11-12.78-1.64-15.61c-7.35-39.32-102.97-67.65-102.97-67.65s-34.84-44.32-55.58-57.41c0,0-54.34,20.92-1.07,89.91
					C180.32,236.12,66.04,341.27,158.94,442.22z M391.01,322.57c0.82,6.07-1.52,17.47-15.52,38.38c-3.01,4.5-8.69,11.38-12.64,15.1
					c-5.68,5.34-19.98,21.3-31.33,33.67c0.46-0.8,19.07-32.89,9.53-41.76c-6.76-5.25-23.85-10.2-28.74-9.6
					c-35.47,4.33-45.71,38.25-45.71,38.55c-1.57,8.7-5.93,29.91,2.55,50.48c2.43,4.34,5.03,10.65,8.7,8.83
					c2.71-1.21,10.38-4.94,27.97-21.59c-0.23,0.61-7.72,19.49-19.71,34.51c-21.39,21.96-31.39,8.51-39.15-2.39
					c-7.8-10.95-12.19-24.08-12.19-24.08c-2.52,19.38-1.68,40.57,5.97,65.72c-49.48-17.29-85.42-50.95-103.48-68.09
					c-1.38-1.31-2.64-2.67-3.83-4.16c-20-24.96-66.88-111.94,31.22-202.98c-20.93-22.8-32.79-59.11-0.34-88.4
					c14.46-13.03-29.92-61.87-29.92-61.87c83.17,80.84,110.68,113.5,110.68,113.5s106.95,34.34,104.61,74.14
					c-2.65,25.67,27.04,41.17,35.58,44.75C388.34,316.57,390.56,319.27,391.01,322.57z"/>
				<path class="st1" d="M318.86,278.17l7.15,36.38c0,0-32.02-52.13-82.91-36.48C289.02,250.39,318.86,278.17,318.86,278.17z"/>
				<path class="st1" d="M182.81,203.99c19.76,18.58,8.71,18.97,8.71,18.97c-46.71-32.57-9.83-59.18-9.11-59.69
					C181.87,163.9,163.43,185.76,182.81,203.99z"/>
			</g>
			<g>
			</g>
		</g>
	</g>
	<path class="st0" d="M790,406.26c3.72,4.21,7.57,8.44,11.07,12.37c10.23,11.5,20.47,23,30.71,34.5c0.44,0.5,0.91,0.97,1.31,1.5
		c2.34,3.06,2.06,6.67-0.67,8.88c-2.51,2.03-5.26,2-8.19-1.35c-5.83-6.51-11.55-12.96-17.36-19.49
		c-10.23-11.49-20.45-22.95-30.64-34.49c-0.46-0.52-1.71-1.92-1.71-1.92s-0.57,0.01-0.89,0c-0.86-0.03-1.15,0-2.17,0
		c-15.53,0.06-31.05,0.03-46.58,0c-4.56-0.01-7.11-2.99-6.02-6.96c0.86-3.09,3.15-3.9,6.12-3.9c21.52,0.04,43.03,0.04,64.55,0.01
		c7.43-0.01,14.85-0.13,22.28-0.26c6.51-0.11,11.3-4.67,11.5-11.28c0.22-7.3,0.21-14.62,0.06-21.92
		c-0.16-7.9-4.88-12.63-12.88-12.64c-22.18-0.03-44.37,0-66.55,0c-6.32,0-12.61,0.06-18.93,0.03c-3.89-0.02-6.28-1.8-6.4-5.07
		c-0.12-3.37,2.34-5.77,6.27-5.78c29.28-0.04,58.56-0.16,87.84,0.05c12.63,0.09,21.93,10.11,21.94,22.78c0.01,7.2,0.01,14.4,0,21.6
		c-0.01,12.26-10.98,23.5-23.15,23.5C804.01,406.42,797.35,406.26,790,406.26z"/>
</g>
</svg>
