<?xml version="1.0" encoding="UTF-8"?><svg id="Capa_2" xmlns="http://www.w3.org/2000/svg" viewBox="0 0 251.26 202.04"><defs><style>.cls-1{stroke-width:1.33px;}.cls-1,.cls-2{fill:none;stroke:#c5c6c8;stroke-linecap:round;stroke-miterlimit:5.33;}.cls-2{stroke-width:4px;}.cls-3{fill:#c5c6c8;}.cls-4{fill:#ff8200;}</style></defs><g id="svg2"><g id="g10"><g id="g12"><g id="g14"><g id="g20"><path id="path22" class="cls-3" d="m89.97,119.32c-15.98,0-27.97-11.48-27.97-30.13,0-16.65,9.99-30.46,28.47-30.46,7.99,0,13.48,2,16.98,3.83l3.33-11.15c-3.99-2.17-11.65-4.33-20.31-4.33-26.3,0-43.28,18.14-43.28,42.95,0,23.49,14.38,39.55,36.78,40.99l12.09-12.09c-1.85.25-3.87.39-6.09.39"/></g><g id="g24"><path id="path26" class="cls-3" d="m152.06,47.08c-17.15,0-27.8,10.65-27.8,23.64,0,9.65,6.83,17.48,21.47,22.8,10.65,4,14.81,7.66,14.81,14.65s-4.99,11.98-15.48,11.98c-.65,0-1.31-.03-1.97-.08l-9.75,9.75c3.55.83,7.4,1.31,11.39,1.31,18.81,0,29.96-9.98,29.96-24.3,0-11.99-7.32-18.98-21.14-24.14-10.49-4.16-15.15-7.16-15.15-13.82,0-5.99,4.66-10.99,13.32-10.99,1.75,0,3.4.16,4.95.42l9.07-9.07c-3.87-1.33-8.58-2.17-13.68-2.17"/></g><g id="g28"><path id="path30" class="cls-4" d="m235.95,102.17c0,1.33-.17,3-.67,4.66-2.33,6.82-9.15,13.48-19.81,13.48-7.33,0-13.65-4.33-13.65-13.98,0-15.65,18.15-18.48,34.12-18.14v13.98Zm14.15,7.82v-30.13c0-15.98-5.99-32.79-30.63-32.79-1.17,0-2.34.04-3.49.11l-13.41,13.41c4.54-1.75,9.67-2.7,14.74-2.7,16.48-.17,18.31,11.99,18.31,18.48v1.67c-31.13-.17-48.44,10.49-48.44,29.96,0,11.65,8.32,23.14,24.63,23.14,11.49,0,20.14-5.66,24.63-11.99h.5l1.17,10.15h13.15c-.83-5.49-1.17-12.32-1.17-19.31"/></g><g id="g32"><path id="path34" class="cls-2" d="m190.02,24.85L58.18,156.12"/></g><g id="g36"><path id="path38" class="cls-1" d="m131.76,33.68c-22.2-18.95-55.26-21-79.91-3.09-28.87,20.98-35.27,61.38-14.29,90.25,20.98,28.87,61.39,35.26,90.26,14.29,16.96-12.33,26.16-31.36,26.62-50.82"/></g><g id="g40"><path id="path42" class="cls-1" d="m125.93,39.05c-26.09-22.28-64.97-24.69-93.95-3.63C-1.96,60.08-9.48,107.59,15.18,141.53c24.66,33.94,72.17,41.45,106.11,16.8,19.94-14.49,30.76-36.86,31.29-59.74"/></g><g id="g44"><path id="path46" class="cls-1" d="m192.25,24.64C157.78-4.79,106.43-7.98,68.15,19.84,23.32,52.42,13.38,115.18,45.96,160.01c32.58,44.83,95.33,54.77,140.17,22.19,26.34-19.14,40.63-48.7,41.34-78.92"/></g></g></g></g></g></svg>